<svg width="200" height="216" viewBox="0 0 200 216" fill="none" xmlns="http://www.w3.org/2000/svg">
<rect width="200" height="200" fill="white"/>
<g filter="url(#filter0_d)">
<path d="M15.6452 28.3964H19.4448C19.9865 28.3964 20.3816 28.3677 20.6301 28.3103C20.8818 28.2498 21.0077 28.1032 21.0077 27.8706C21.0077 27.7241 20.9694 27.5871 20.893 27.4596C20.8197 27.329 20.705 27.1808 20.5488 27.0151C20.3927 26.8463 20.3115 26.7586 20.3051 26.7523L17.4853 23.5453C17.0679 23.0801 16.7285 22.6771 16.4673 22.3361C16.206 21.992 15.9766 21.5905 15.779 21.1317C15.5847 20.6729 15.4875 20.1918 15.4875 19.6884C15.4875 18.9938 15.65 18.3645 15.975 17.8005C16.3032 17.2365 16.7923 16.7937 17.4423 16.4718C18.0922 16.1469 18.884 15.9844 19.8176 15.9844H24.3389L25.3186 19.6071H21.7724C21.2371 19.6071 20.8483 19.6374 20.6062 19.6979C20.3672 19.7585 20.2477 19.9114 20.2477 20.1567C20.2477 20.3129 20.2844 20.4515 20.3577 20.5725C20.4309 20.6936 20.6221 20.9198 20.9312 21.2512L23.8657 24.5012C24.4679 25.1512 24.9443 25.7645 25.2947 26.3412C25.6484 26.9179 25.8253 27.5902 25.8253 28.3581C25.8157 28.9667 25.7042 29.5004 25.4907 29.9592C25.2772 30.418 24.9761 30.7988 24.5874 31.1015C24.1987 31.4042 23.7446 31.6304 23.2253 31.7801C22.7059 31.9267 22.1308 32 21.4999 32H16.6059L15.6452 28.3964ZM26.48 25.4236C26.48 24.369 26.6011 23.3159 26.8433 22.2644C27.0854 21.213 27.4088 20.187 27.8135 19.1865C28.2213 18.1829 28.7104 17.1155 29.2807 15.9844H33.7829C33.5853 16.4049 33.3225 16.9705 32.9943 17.681C32.6693 18.3884 32.3411 19.1706 32.0098 20.0277C31.6816 20.8848 31.3996 21.7865 31.1638 22.7328C30.928 23.6791 30.8101 24.549 30.8101 25.3423C30.8101 26.0975 30.9344 26.7013 31.1829 27.1537C31.4346 27.603 31.7883 27.9232 32.2439 28.1144C32.7028 28.3024 33.2556 28.3964 33.9024 28.3964H35.427V15.9844H39.6376V32H32.8461C30.6476 32 29.037 31.4074 28.0142 30.2221C26.9914 29.0336 26.48 27.4341 26.48 25.4236ZM46.4864 15.9844V32H42.2758V15.9844H46.4864ZM49.2728 15.9844H59.3716L53.8323 28.3964H59.1757L58.1768 32H47.6287L53.1489 19.6071H48.3122L49.2728 15.9844ZM62.2344 34.2511C61.559 33.2538 60.9743 32.0781 60.4804 30.7239C59.9897 29.3698 59.7444 27.8961 59.7444 26.303C59.7444 25.3535 59.8607 24.3674 60.0933 23.3446C60.3259 22.3218 60.7242 21.3245 61.2881 20.3527C61.8553 19.3809 62.6072 18.5461 63.544 17.8483C64.4744 17.1378 65.4557 16.6503 66.4881 16.3858C67.5236 16.1182 68.8459 15.9844 70.4549 15.9844H72.5292L73.5281 19.6071H70.2399C69.3605 19.6071 68.5512 19.7059 67.812 19.9034C67.0759 20.0978 66.4116 20.469 65.819 21.017C65.2263 21.5619 64.7755 22.3313 64.4664 23.3255H68.634V20.0803H72.8255V32H68.634V26.91H64.0315C64.0315 27.7511 64.1876 28.6385 64.4999 29.5721C64.8153 30.5025 65.1945 31.3118 65.6374 32L62.2344 34.2511ZM82.4034 32V20.0803H86.614V24.3052C87.2034 23.9962 87.761 23.652 88.2868 23.2729C88.8157 22.8937 89.249 22.4923 89.5867 22.0685C89.9277 21.6415 90.0981 21.2194 90.0981 20.802C90.0981 20.3718 89.9436 20.0659 89.6345 19.8843C89.3255 19.6995 88.787 19.6071 88.0191 19.6071H81.6387L82.5993 15.9844H89.1375C90.2176 15.9844 91.1496 16.15 91.9334 16.4814C92.7204 16.8128 93.3258 17.3114 93.7496 17.9773C94.1733 18.6433 94.3852 19.4542 94.3852 20.41C94.3852 21.3277 94.1574 22.1991 93.7018 23.0244C93.2461 23.8464 92.6408 24.5936 91.8856 25.2659C91.1337 25.9382 90.3021 26.5388 89.3908 27.0677C88.4827 27.5966 87.5571 28.0538 86.614 28.4394V32H82.4034ZM97.0856 34.2511C96.4101 33.2538 95.8254 32.0781 95.3315 30.7239C94.8409 29.3698 94.5955 27.8961 94.5955 26.303C94.5955 25.3535 94.7118 24.3674 94.9444 23.3446C95.177 22.3218 95.5753 21.3245 96.1392 20.3527C96.7064 19.3809 97.4584 18.5461 98.3951 17.8483C99.3255 17.1378 100.307 16.6503 101.339 16.3858C102.375 16.1182 103.697 15.9844 105.306 15.9844H107.38L108.379 19.6071H105.091C104.212 19.6071 103.402 19.7059 102.663 19.9034C101.927 20.0978 101.263 20.469 100.67 21.017C100.077 21.5619 99.6266 22.3313 99.3175 23.3255H103.485V20.0803H107.677V32H103.485V26.91H98.8826C98.8826 27.7511 99.0387 28.6385 99.351 29.5721C99.6664 30.5025 100.046 31.3118 100.488 32L97.0856 34.2511ZM110.391 32V20.0803H114.602V32H110.391ZM109.627 19.6071L110.587 15.9844H118.359C119.407 15.9844 120.297 16.1644 121.03 16.5244C121.763 16.8813 122.309 17.3736 122.669 18.0012C123.033 18.6289 123.214 19.3347 123.214 20.1185C123.214 21.0457 122.94 21.9283 122.392 22.7663C121.847 23.6043 120.973 24.412 119.768 25.1894C120.453 26.4862 121.118 27.6094 121.761 28.5589C122.408 29.5052 123.284 30.6522 124.39 32L120.863 34.4088C120.149 33.5931 119.475 32.7312 118.841 31.8232C118.21 30.9151 117.622 29.9927 117.078 29.0559C116.536 28.116 116.085 27.2844 115.725 26.5611C115.368 25.8378 115.045 25.1384 114.755 24.4629C115.255 24.1029 115.771 23.7285 116.303 23.3398C116.839 22.9511 117.325 22.5177 117.761 22.0398C118.198 21.5587 118.416 21.0807 118.416 20.606C118.416 20.1599 118.249 19.8827 117.914 19.7744C117.579 19.6629 117.089 19.6071 116.442 19.6071H109.627ZM135.196 15.9844L136.157 19.6071H131.712V32H127.501V19.6071H123.042L124.017 15.9844H135.196ZM149.921 15.9844V32H145.711V27.3019L141.309 21.8964H141.271V32H137.06V15.9844H141.032L145.711 21.4472V15.9844H149.921ZM162.367 15.9844L163.328 19.6071H156.866V21.9777H162.759L161.76 25.5813H156.866V28.3964H163.758L162.797 32H152.698V15.9844H162.367ZM165.297 32V20.0803H169.507V32H165.297ZM164.532 19.6071L165.493 15.9844H173.264C174.312 15.9844 175.203 16.1644 175.935 16.5244C176.668 16.8813 177.215 17.3736 177.575 18.0012C177.938 18.6289 178.12 19.3347 178.12 20.1185C178.12 21.0457 177.846 21.9283 177.298 22.7663C176.753 23.6043 175.878 24.412 174.674 25.1894C175.359 26.4862 176.023 27.6094 176.667 28.5589C177.314 29.5052 178.19 30.6522 179.295 32L175.768 34.4088C175.054 33.5931 174.381 32.7312 173.747 31.8232C173.116 30.9151 172.528 29.9927 171.983 29.0559C171.441 28.116 170.99 27.2844 170.63 26.5611C170.274 25.8378 169.95 25.1384 169.66 24.4629C170.16 24.1029 170.677 23.7285 171.209 23.3398C171.744 22.9511 172.23 22.5177 172.666 22.0398C173.103 21.5587 173.321 21.0807 173.321 20.606C173.321 20.1599 173.154 19.8827 172.819 19.7744C172.485 19.6629 171.994 19.6071 171.347 19.6071H164.532ZM179.405 28.3964H183.205C183.747 28.3964 184.142 28.3677 184.39 28.3103C184.642 28.2498 184.768 28.1032 184.768 27.8706C184.768 27.7241 184.73 27.5871 184.653 27.4596C184.58 27.329 184.465 27.1808 184.309 27.0151C184.153 26.8463 184.072 26.7586 184.065 26.7523L181.245 23.5453C180.828 23.0801 180.489 22.6771 180.227 22.3361C179.966 21.992 179.737 21.5905 179.539 21.1317C179.345 20.6729 179.248 20.1918 179.248 19.6884C179.248 18.9938 179.41 18.3645 179.735 17.8005C180.063 17.2365 180.552 16.7937 181.202 16.4718C181.852 16.1469 182.644 15.9844 183.578 15.9844H188.099L189.079 19.6071H185.532C184.997 19.6071 184.608 19.6374 184.366 19.6979C184.127 19.7585 184.008 19.9114 184.008 20.1567C184.008 20.3129 184.044 20.4515 184.118 20.5725C184.191 20.6936 184.382 20.9198 184.691 21.2512L187.626 24.5012C188.228 25.1512 188.704 25.7645 189.055 26.3412C189.409 26.9179 189.585 27.5902 189.585 28.3581C189.576 28.9667 189.464 29.5004 189.251 29.9592C189.037 30.418 188.736 30.7988 188.348 31.1015C187.959 31.4042 187.505 31.6304 186.985 31.7801C186.466 31.9267 185.891 32 185.26 32H180.366L179.405 28.3964Z" fill="#E8505B"/>
</g>
<g filter="url(#filter1_d)">
<circle cx="99.265" cy="125.105" r="29.155" fill="white"/>
<path d="M161.441 167.005C161.441 167.005 161.63 166.741 162.011 166.238C162.107 166.112 162.214 165.971 162.333 165.816C162.441 165.653 162.539 165.46 162.657 165.258C162.887 164.852 163.176 164.391 163.382 163.808C163.495 163.522 163.63 163.224 163.744 162.901C163.835 162.569 163.932 162.22 164.033 161.854C164.15 161.492 164.212 161.099 164.274 160.689C164.327 160.278 164.439 159.856 164.452 159.405C164.645 157.614 164.527 155.523 164.169 153.215C163.454 148.586 161.491 143.133 158.485 137.208C155.484 131.269 151.353 124.881 146.277 118.223C141.198 111.562 135.092 104.683 128.073 97.7754C121.047 90.8763 113.092 83.9449 104.175 77.3763C99.714 74.098 95.0085 70.9176 90.0477 67.9222C85.092 64.9199 79.8666 62.1209 74.3559 59.6945C68.8446 57.2986 63.0296 55.2108 56.8962 54.2214C53.8397 53.7501 50.6866 53.5224 47.5859 53.9922C46.0393 54.2303 44.5194 54.6518 43.0878 55.2948C41.6795 55.9824 40.3839 56.8981 39.3131 58.0555C38.2843 59.2508 37.5171 60.64 36.9928 62.1176C36.5186 63.6136 36.2658 65.1708 36.2072 66.7354C36.0893 69.87 36.6752 72.9782 37.4902 75.9625C39.1698 81.9455 41.9065 87.4867 44.914 92.6915C47.9521 97.8915 51.3278 102.766 54.8755 107.348C58.4166 111.937 62.1124 116.251 65.8776 120.311C73.4193 128.423 81.2115 135.539 88.8663 141.735C96.5285 147.923 104.058 153.206 111.253 157.493C118.446 161.779 125.262 165.156 131.503 167.46C137.733 169.772 143.373 171.101 148.053 171.285C150.386 171.378 152.476 171.258 154.234 170.862C154.68 170.797 155.086 170.638 155.489 170.539C155.89 170.431 156.273 170.324 156.619 170.167C156.971 170.025 157.307 169.89 157.626 169.761C157.935 169.611 158.215 169.443 158.486 169.298C159.041 169.027 159.466 168.688 159.844 168.413C160.031 168.272 160.211 168.154 160.361 168.027C160.502 167.892 160.629 167.77 160.743 167.66C161.199 167.224 161.441 167.005 161.441 167.005C161.441 167.005 161.218 167.24 160.769 167.687C160.656 167.799 160.53 167.924 160.39 168.063C160.243 168.192 160.063 168.314 159.878 168.457C159.502 168.739 159.078 169.084 158.522 169.362C158.251 169.51 157.97 169.682 157.661 169.836C157.341 169.968 157.005 170.107 156.652 170.252C156.304 170.414 155.92 170.524 155.518 170.636C155.114 170.739 154.705 170.901 154.257 170.969C152.491 171.379 150.391 171.511 148.047 171.428C143.345 171.266 137.683 169.952 131.432 167.654C125.169 165.362 118.333 161.994 111.12 157.716C103.905 153.437 96.356 148.158 88.6751 141.972C81.0015 135.777 73.1912 128.661 65.63 120.541C61.8552 116.478 58.1494 112.159 54.598 107.563C51.0404 102.973 47.6537 98.0886 44.6034 92.8724C41.5837 87.651 38.833 82.0903 37.1383 76.0601C36.3166 73.0515 35.7219 69.9128 35.8409 66.7217C35.9006 65.1292 36.1574 63.537 36.6449 62.0004C37.1833 60.4812 37.9752 59.0456 39.0397 57.8108C40.1459 56.6136 41.4849 55.6681 42.9327 54.9621C44.4029 54.3014 45.9572 53.8717 47.5313 53.6293C50.6874 53.1521 53.8721 53.385 56.9537 53.8603C63.1353 54.8593 68.9713 56.9589 74.5007 59.3647C80.0283 61.8011 85.2652 64.6096 90.2293 67.6216C95.1986 70.6265 99.9104 73.8161 104.376 77.1037C113.302 83.6906 121.26 90.6401 128.287 97.558C135.307 104.485 141.41 111.384 146.483 118.065C151.554 124.744 155.678 131.153 158.668 137.114C161.664 143.063 163.614 148.539 164.31 153.193C164.659 155.513 164.767 157.615 164.561 159.415C164.545 159.868 164.43 160.293 164.373 160.706C164.308 161.119 164.243 161.513 164.122 161.877C164.017 162.244 163.918 162.594 163.823 162.927C163.705 163.252 163.567 163.55 163.45 163.836C163.237 164.42 162.942 164.881 162.705 165.286C162.584 165.488 162.483 165.68 162.372 165.841C162.25 165.995 162.14 166.135 162.042 166.26C161.648 166.758 161.441 167.005 161.441 167.005Z" fill="#D92527"/>
<path d="M20 112.48C20 112.48 20.035 112.157 20.0848 111.527C20.0969 111.369 20.1109 111.193 20.126 110.998C20.1537 110.804 20.2089 110.595 20.255 110.366C20.3534 109.909 20.4451 109.373 20.6795 108.801C20.7856 108.512 20.8829 108.201 21.013 107.883C21.1655 107.574 21.3262 107.25 21.4942 106.91C21.6475 106.562 21.863 106.227 22.09 105.88C22.324 105.537 22.5211 105.148 22.8115 104.803C23.8598 103.338 25.34 101.856 27.1434 100.373C30.7589 97.3937 35.8535 94.6316 42.041 92.2103C48.2333 89.7761 55.5686 87.7591 63.7887 86.1694C72.0121 84.5795 81.1474 83.5101 90.984 83.0278C100.82 82.5565 111.371 82.6796 122.397 83.7132C127.908 84.2364 133.537 84.9951 139.233 86.0619C144.929 87.1201 150.692 88.5097 156.419 90.3675C162.127 92.2483 167.856 94.5612 173.092 97.9055C175.686 99.5884 178.191 101.517 180.193 103.932C181.188 105.139 182.042 106.466 182.682 107.898C183.275 109.349 183.633 110.895 183.662 112.471C183.633 114.048 183.281 115.595 182.689 117.047C182.047 118.48 181.199 119.81 180.201 121.016C178.203 123.434 175.696 125.364 173.102 127.048C167.866 130.395 162.135 132.708 156.426 134.59C150.698 136.449 144.934 137.839 139.236 138.897C133.539 139.964 127.909 140.723 122.397 141.247C111.369 142.28 100.817 142.403 90.9807 141.932C81.1434 141.449 72.0076 140.38 63.7843 138.79C55.5642 137.2 48.2293 135.183 42.0373 132.748C35.8502 130.327 30.7559 127.564 27.1411 124.586C25.3382 123.103 23.8584 121.621 22.81 120.156C22.52 119.811 22.3229 119.422 22.0885 119.08C21.8616 118.732 21.6464 118.397 21.4931 118.049C21.3247 117.709 21.1644 117.385 21.0118 117.076C20.8821 116.759 20.7845 116.447 20.6787 116.159C20.4444 115.587 20.353 115.051 20.2546 114.594C20.2086 114.365 20.1529 114.156 20.1257 113.962C20.1105 113.767 20.0965 113.591 20.0844 113.433C20.035 112.803 20 112.48 20 112.48C20 112.48 20.0096 112.803 20.0475 113.435C20.0571 113.594 20.0678 113.772 20.08 113.968C20.1043 114.163 20.157 114.373 20.2005 114.603C20.2933 115.063 20.3795 115.604 20.6095 116.181C20.7134 116.473 20.8084 116.788 20.9367 117.108C21.0878 117.42 21.2462 117.747 21.4128 118.091C21.5649 118.442 21.7783 118.78 22.0045 119.131C22.2374 119.477 22.4338 119.871 22.7231 120.219C23.7684 121.7 25.2475 123.197 27.0516 124.696C30.669 127.705 35.7687 130.493 41.9633 132.938C48.1626 135.397 55.5056 137.435 63.736 139.044C71.9693 140.653 81.1165 141.739 90.9667 142.236C100.817 142.721 111.382 142.609 122.43 141.583C127.951 141.064 133.592 140.308 139.301 139.242C145.012 138.184 150.79 136.794 156.538 134.932C162.268 133.046 168.022 130.727 173.301 127.355C175.916 125.657 178.45 123.71 180.485 121.249C181.501 120.021 182.369 118.662 183.028 117.191C183.638 115.699 184.002 114.101 184.03 112.47C184.002 110.841 183.632 109.244 183.021 107.753C182.364 106.281 181.49 104.926 180.476 103.697C178.439 101.241 175.907 99.294 173.291 97.5975C168.013 94.2281 162.26 91.91 156.533 90.0249C150.786 88.1637 145.008 86.7734 139.299 85.7166C133.59 84.6509 127.951 83.8952 122.43 83.3756C111.385 82.3494 100.819 82.2381 90.9704 82.7231C81.1209 83.2194 71.9741 84.3049 63.7408 85.9141C55.5104 87.5225 48.167 89.5606 41.9673 92.0187C35.7724 94.4639 30.6719 97.2526 27.0538 100.262C25.2494 101.761 23.7696 103.257 22.7242 104.738C22.4345 105.087 22.2381 105.48 22.0053 105.826C21.7794 106.178 21.5653 106.515 21.4135 106.867C21.2469 107.211 21.0881 107.539 20.9374 107.85C20.8096 108.171 20.7141 108.486 20.6102 108.777C20.3806 109.354 20.294 109.895 20.2012 110.355C20.1581 110.586 20.105 110.796 20.0807 110.991C20.0689 111.187 20.0579 111.364 20.0483 111.523C20.0099 112.156 20 112.48 20 112.48Z" fill="#D92527"/>
<path d="M154.1 44.6057C154.1 44.6057 153.823 44.4355 153.295 44.0891C153.163 44.0021 153.015 43.9049 152.851 43.7976C152.681 43.7007 152.482 43.6167 152.273 43.5128C151.852 43.3105 151.372 43.0544 150.776 42.8893C150.483 42.7965 150.177 42.6822 149.846 42.5901C149.509 42.522 149.154 42.4497 148.783 42.3746C148.413 42.2824 148.017 42.2478 147.603 42.2143C147.189 42.1896 146.761 42.1067 146.31 42.1251C144.51 42.0558 142.432 42.3182 140.155 42.8344C135.585 43.8669 130.281 46.2009 124.576 49.6078C118.858 53.0104 112.77 57.5718 106.477 63.0946C100.183 68.6195 93.7401 75.1844 87.3322 82.6631C80.9336 90.148 74.5666 98.5619 68.6278 107.91C65.6645 112.586 62.8158 117.5 60.1694 122.655C57.5156 127.806 55.0832 133.212 53.0422 138.876C51.0318 144.539 49.3497 150.484 48.7852 156.671C48.5254 159.753 48.5158 162.914 49.1979 165.975C49.542 167.502 50.0671 168.989 50.807 170.373C51.5897 171.73 52.5927 172.96 53.8212 173.948C55.0843 174.892 56.5233 175.562 58.0333 175.984C59.5584 176.354 61.1293 176.498 62.6942 176.449C65.83 176.351 68.8902 175.552 71.8108 174.534C77.6641 172.446 83.0037 169.334 87.9885 165.975C92.967 162.586 97.5973 158.883 101.924 155.028C106.258 151.179 110.307 147.195 114.098 143.159C121.672 135.077 128.234 126.813 133.887 118.75C139.533 110.679 144.285 102.804 148.067 95.3303C151.846 87.8597 154.746 80.8269 156.616 74.4415C158.493 68.0679 159.431 62.3499 159.291 57.668C159.223 55.334 158.959 53.2569 158.443 51.5309C158.348 51.0902 158.162 50.6959 158.035 50.3013C157.899 49.9089 157.767 49.5341 157.585 49.1992C157.419 48.858 157.262 48.5322 157.111 48.2231C156.94 47.9261 156.753 47.6578 156.59 47.3973C156.281 46.8619 155.914 46.461 155.613 46.1032C155.46 45.9267 155.329 45.7546 155.193 45.6146C155.048 45.4831 154.917 45.364 154.8 45.2575C154.334 44.8316 154.1 44.6057 154.1 44.6057C154.1 44.6057 154.35 44.8113 154.826 45.2288C154.946 45.3338 155.079 45.451 155.227 45.5803C155.366 45.7189 155.5 45.8895 155.656 46.0649C155.963 46.4201 156.337 46.8199 156.653 47.3549C156.819 47.6154 157.009 47.8837 157.185 48.1811C157.338 48.491 157.5 48.8174 157.669 49.1594C157.854 49.4951 157.99 49.8709 158.129 50.2648C158.26 50.6606 158.45 51.0571 158.549 51.4992C159.079 53.2326 159.356 55.3189 159.435 57.6628C159.597 62.3653 158.676 68.1044 156.814 74.4983C154.958 80.9039 152.07 87.9563 148.299 95.4464C144.526 102.939 139.781 110.834 134.138 118.923C128.487 127.005 121.925 135.287 114.346 143.39C110.552 147.435 106.499 151.43 102.158 155.289C97.8243 159.155 93.1848 162.87 88.1915 166.272C83.1905 169.645 77.8324 172.772 71.9335 174.877C68.9886 175.905 65.8981 176.714 62.7067 176.815C61.1138 176.865 59.5076 176.719 57.9412 176.338C56.3884 175.905 54.9016 175.214 53.5964 174.237C52.3259 173.216 51.2905 171.946 50.4864 170.55C49.7259 169.128 49.1901 167.608 48.8401 166.054C48.1466 162.938 48.1595 159.745 48.4215 156.638C48.9923 150.402 50.6847 144.435 52.704 138.753C54.7538 133.071 57.195 127.653 59.8576 122.493C62.5133 117.329 65.3705 112.409 68.3426 107.727C74.2991 98.3688 80.6837 89.9505 87.1012 82.4637C93.5282 74.9832 99.9903 68.4198 106.306 62.8982C112.62 57.3791 118.73 52.8239 124.471 49.4302C130.199 46.0321 135.528 43.7099 140.123 42.694C142.413 42.1863 144.503 41.9339 146.314 42.0149C146.767 41.9998 147.198 42.0857 147.614 42.1133C148.03 42.1502 148.428 42.1877 148.799 42.2835C149.173 42.3624 149.529 42.4376 149.868 42.5091C150.2 42.6045 150.507 42.722 150.801 42.8182C151.398 42.9903 151.878 43.2534 152.299 43.4619C152.507 43.5692 152.706 43.6561 152.875 43.7564C153.037 43.8673 153.184 43.9671 153.315 44.057C153.838 44.4156 154.1 44.6057 154.1 44.6057Z" fill="#D92527"/>
<path d="M36.4272 146.032C39.4616 149.067 39.4616 153.987 36.4272 157.021C33.3928 160.055 28.4728 160.055 25.4384 157.021C22.4036 153.987 22.4036 149.067 25.4384 146.032C28.4728 142.998 33.3928 142.998 36.4272 146.032Z" fill="#D92527"/>
<path d="M178.401 75.7979C178.401 78.4558 176.246 80.6107 173.587 80.6107C170.93 80.6107 168.775 78.4558 168.775 75.7979C168.775 73.1397 170.93 70.9849 173.587 70.9849C176.246 70.9849 178.401 73.1397 178.401 75.7979Z" fill="#D92527"/>
<path d="M55.0089 71.0387C55.0089 71.4658 54.6625 71.8121 54.2355 71.8121C53.8084 71.8121 53.462 71.4661 53.462 71.0387C53.462 70.6116 53.8084 70.2656 54.2355 70.2656C54.6625 70.2656 55.0089 70.6116 55.0089 71.0387Z" fill="#FF4F5B"/>
<path d="M175.67 112.479C175.67 112.907 175.324 113.253 174.896 113.253C174.469 113.253 174.123 112.907 174.123 112.479C174.123 112.052 174.469 111.706 174.896 111.706C175.324 111.706 175.67 112.052 175.67 112.479Z" fill="#FF4F5B"/>
<path d="M148.521 62.1919C133.009 74.6292 116.049 73.1582 100.521 62.1919C86.4874 72.3037 71.8437 75.0732 52.2505 62.1919C50.9288 109.225 63.6107 148.191 101.576 167.064C132.111 150.406 152.632 121.445 148.521 62.1919ZM126.841 121.204H107.94V139.057H92.1897V121.204H74.6611V104.973H92.1897V88.3378H107.94V104.973H126.841V121.204Z" fill="#D92527"/>
</g>
<defs>
<filter id="filter0_d" x="11.4875" y="15.9844" width="182.098" height="26.4244" filterUnits="userSpaceOnUse" color-interpolation-filters="sRGB">
<feFlood flood-opacity="0" result="BackgroundImageFix"/>
<feColorMatrix in="SourceAlpha" type="matrix" values="0 0 0 0 0 0 0 0 0 0 0 0 0 0 0 0 0 0 127 0"/>
<feOffset dy="4"/>
<feGaussianBlur stdDeviation="2"/>
<feColorMatrix type="matrix" values="0 0 0 0 0 0 0 0 0 0 0 0 0 0 0 0 0 0 0.25 0"/>
<feBlend mode="normal" in2="BackgroundImageFix" result="effect1_dropShadow"/>
<feBlend mode="normal" in="SourceGraphic" in2="effect1_dropShadow" result="shape"/>
</filter>
<filter id="filter1_d" x="16" y="42" width="172.03" height="142.824" filterUnits="userSpaceOnUse" color-interpolation-filters="sRGB">
<feFlood flood-opacity="0" result="BackgroundImageFix"/>
<feColorMatrix in="SourceAlpha" type="matrix" values="0 0 0 0 0 0 0 0 0 0 0 0 0 0 0 0 0 0 127 0"/>
<feOffset dy="4"/>
<feGaussianBlur stdDeviation="2"/>
<feColorMatrix type="matrix" values="0 0 0 0 0 0 0 0 0 0 0 0 0 0 0 0 0 0 0.25 0"/>
<feBlend mode="normal" in2="BackgroundImageFix" result="effect1_dropShadow"/>
<feBlend mode="normal" in="SourceGraphic" in2="effect1_dropShadow" result="shape"/>
</filter>
</defs>
</svg>
