<svg width="78" height="131" viewBox="0 0 78 131" fill="none" xmlns="http://www.w3.org/2000/svg">
<path d="M39.9872 111.915C40.0012 116.866 38.2789 128.609 34.7972 128.008C34.0453 127.88 33.1471 127.113 32.1808 125.922C29.245 122.302 25.6687 114.8 23.6499 109.656C22.5502 106.852 21.9073 104.746 22.0866 104.356C23.1718 101.937 38.6867 108.905 39.6966 109.806C39.8857 109.979 39.9865 110.761 39.9872 111.915Z" fill="#76E5E5"/>
<path opacity="0.3" d="M29.0315 111.844C28.4801 112.834 31.3052 123.933 34.7972 128.008C34.0453 127.88 33.1472 127.113 32.1808 125.922C31.3984 124.028 30.2388 121.217 29.1144 118.407C27.6727 114.786 24.9919 111.281 23.6503 109.656C22.5506 106.852 21.9077 104.746 22.0869 104.356C23.1722 101.937 38.687 108.905 39.6969 109.806C39.8861 109.979 39.9868 110.761 39.9872 111.915C39.9872 111.915 29.5839 110.859 29.0315 111.844Z" fill="#2CAAB2"/>
<path d="M22.0866 104.358C20.8995 106.634 35.0028 113.544 39.8697 110.251C39.8697 110.251 23.664 101.334 22.0866 104.358Z" fill="#1E767C"/>
<path d="M56.7977 106.585C56.6757 107.024 56.54 107.477 56.4012 107.949C54.2635 115.117 50.5378 125.55 47.735 129.116C47.0661 129.973 46.4479 130.433 45.9194 130.362C45.781 130.346 45.6415 130.301 45.5055 130.233C45.0357 130.012 44.5775 129.529 44.1388 128.85L44.1399 128.844C41.4104 124.6 39.4451 112.708 39.8443 109.315C39.8929 108.894 39.98 108.602 40.1054 108.476C42.3987 106.208 57.4677 99.6083 58.065 100.77C58.2212 101.082 57.7055 103.389 56.7977 106.585Z" fill="#76E5E5"/>
<path opacity="0.3" d="M56.7977 106.585C56.7977 106.585 48.4978 107.684 46.0733 111.157C43.6498 114.625 42.9305 123.665 44.1399 128.843C41.4104 124.6 39.4451 112.707 39.8443 109.314C39.8929 108.893 39.98 108.602 40.1054 108.475C42.3987 106.208 57.4677 99.6078 58.065 100.77C58.2212 101.082 57.7055 103.389 56.7977 106.585Z" fill="#2CAAB2"/>
<path d="M39.8446 109.311C39.2658 110.272 54.1353 110.2 58.0628 100.771C58.0628 100.771 45.2967 100.264 39.8446 109.311Z" fill="#1E767C"/>
<path d="M47.2613 113.978C46.6407 114.067 45.7597 118.768 46.7052 119.185C47.651 119.602 48.6965 113.771 47.2613 113.978Z" fill="white"/>
<path d="M57.201 7.39741C57.201 7.39741 61.5988 3.60284 66.981 2.94385C66.981 2.94385 68.629 3.74916 70.5326 9.68005C72.4362 15.6109 68.9216 27.3254 68.9216 27.3254L57.201 7.39741Z" fill="#76E5E5"/>
<path d="M66.9805 2.9442C66.9805 2.9442 62.6246 7.61195 62.6246 15.135L64.3086 16.1966L69.2145 6.04244C69.2148 6.04244 67.5867 2.85545 66.9805 2.9442Z" fill="#1E767C"/>
<path d="M64.1494 15.6839C64.1494 15.6839 62.9911 9.25919 67.2195 4.53662C67.2195 4.53662 71.9969 6.78808 73.9739 15.1349C75.9508 23.4817 70.805 28.4922 70.805 28.4922L64.1494 15.6839Z" fill="#1E767C"/>
<path d="M61.6916 4.81348C60.8791 5.25212 60.9439 6.12871 62.6265 5.90905C64.3091 5.68939 65.224 4.37141 65.041 4.11508C64.8581 3.85875 62.6039 4.32104 61.6916 4.81348Z" fill="white"/>
<path d="M20.3039 8.34775C20.3039 8.34775 15.9062 4.55318 10.524 3.89453C10.524 3.89453 8.87601 4.69985 6.97239 10.6304C5.06876 16.5609 8.58336 28.276 8.58336 28.276L20.3039 8.34775Z" fill="#76E5E5"/>
<path d="M10.5239 3.8949C10.5239 3.8949 14.8798 8.56264 14.8798 16.0857L13.1958 17.1473L8.28992 6.99313C8.28957 6.99313 9.91768 3.8058 10.5239 3.8949Z" fill="#1E767C"/>
<path d="M13.3555 16.6341C13.3555 16.6341 14.5138 10.2094 10.2854 5.48682C10.2854 5.48682 5.508 7.73827 3.53103 16.0851C1.55407 24.4319 7.25227 29.9831 7.25227 29.9831L13.3555 16.6341Z" fill="#1E767C"/>
<path d="M15.813 5.76431C16.6259 6.20295 16.5607 7.07954 14.8781 6.85988C13.1955 6.64022 12.2802 5.32224 12.4636 5.06626C12.6466 4.80993 14.9011 5.27221 15.813 5.76431Z" fill="white"/>
<path d="M57.8709 96.1542C56.5321 104.06 49.4545 109.329 39.3052 109.329C30.4714 109.329 22.9885 106.037 21.0118 98.786C19.0352 91.5406 19.8005 78.1391 22.4378 69.7926C22.8319 68.5463 23.3072 67.3465 23.8579 66.2047L23.8637 66.1931C24.3623 65.1612 24.9185 64.176 25.5329 63.2542C25.5387 63.2483 25.5387 63.2425 25.5387 63.2425C28.7614 58.3911 33.4798 55.2202 38.8124 55.2202C44.3653 55.2202 48.6143 57.5039 51.5066 60.8835C52.8513 62.4543 53.9064 64.2627 54.6596 66.1872C55.529 68.4013 56.2596 70.7491 56.8391 73.1719C56.8391 73.1894 56.8449 73.2123 56.8508 73.2414C58.6766 80.8227 59.0649 89.0942 57.8709 96.1542Z" fill="#76E5E5"/>
<path opacity="0.3" d="M57.8709 96.154C56.5321 104.06 49.4545 109.329 39.3052 109.329C30.4714 109.329 22.9885 106.037 21.0118 98.7858C19.0352 91.5404 19.8005 78.139 22.4378 69.7925C22.8319 68.5461 23.3072 67.3464 23.8579 66.2045L23.8637 66.1929C23.8637 66.1929 18.5195 83.9125 22.7914 95.1979C27.0634 106.484 46.968 106.246 53.7035 98.7454C60.1142 91.61 57.1523 74.8468 56.8511 73.2413C58.6766 80.8225 59.0649 89.094 57.8709 96.154Z" fill="url(#paint0_linear)"/>
<path d="M51.5066 60.883C49.3446 64.2739 37.4438 66.2477 30.5657 65.6199C24.5779 65.0734 25.4867 63.4566 25.533 63.2537C25.5388 63.2479 25.5388 63.242 25.5388 63.242C28.7614 58.3906 33.4799 55.2197 38.8125 55.2197C44.3654 55.2197 48.614 57.5034 51.5066 60.883Z" fill="#1E767C"/>
<path d="M7.94793 48.9848C14.6841 64.5246 65.1051 59.6794 71.1295 46.9136C77.719 32.9505 62.5682 -1.55644 38.4063 0.0545365C17.9941 1.415 -0.71143 29.0078 7.94793 48.9848Z" fill="#76E5E5"/>
<path d="M10.7302 46.7918C17.1734 59.5381 61.1851 57.4333 67.6146 45.7144C73.0743 35.7634 60.1797 5.4651 38.0688 6.54525C15.9579 7.6254 4.54645 34.5586 10.7302 46.7918Z" fill="#2CAAB2"/>
<path d="M58.5163 31.7698C57.6482 34.0929 46.0421 33.8198 46.0545 32.9853C46.123 28.3481 48.6037 22.265 53.2372 22.3069C58.0221 22.35 60.1314 27.4465 58.5163 31.7698Z" fill="white"/>
<path d="M19.3992 32.0785C20.3957 34.3495 31.9686 33.4273 31.9097 32.5949C31.5821 27.969 28.7645 22.0343 24.1409 22.3352C19.3656 22.6457 17.5446 27.8525 19.3992 32.0785Z" fill="white"/>
<path d="M32.1098 40.6603C30.3628 41.0812 34.0134 46.9137 39.871 46.9137C45.0696 46.9137 47.9982 40.9232 47.3392 40.6603C46.6802 40.3975 43.5611 42.0081 39.2267 42.0081C34.8921 42.0081 32.8418 40.4839 32.1098 40.6603Z" fill="white"/>
<path d="M45.5268 2.94187C45.0669 3.49086 50.4142 5.81291 51.128 5.48701C51.8418 5.16112 47.0644 1.10713 45.5268 2.94187Z" fill="white"/>
<path opacity="0.3" d="M18.4911 19.3112C17.9853 22.3463 23.7369 22.0016 32.937 21.6966C43.9928 21.3306 55.1017 30.8488 61.5658 24.0176C62.6312 22.8919 52.0463 8.11112 39.2702 8.4425C26.4942 8.77388 18.9304 16.6752 18.4911 19.3112Z" fill="white"/>
<path opacity="0.72" d="M71.0977 8.30401C71.0977 8.30401 69.5484 6.38462 67.4371 6.89488C65.3258 7.40514 65.1857 14.0574 66.4488 14.2222C67.712 14.3871 68.2472 10.5431 69.2153 9.93897C70.1831 9.33482 71.8749 9.56956 71.8749 9.56956L71.0977 8.30401Z" fill="url(#paint1_linear)"/>
<path opacity="0.72" d="M5.30273 11.1422C5.30273 11.1422 6.11765 10.2187 7.94794 10.5182C9.77857 10.8177 10.8334 14.5739 11.7703 14.1969C12.7072 13.8196 12.0201 7.73385 9.54486 5.94434C9.54452 5.94434 6.3541 8.66801 5.30273 11.1422Z" fill="url(#paint2_linear)"/>
<path d="M24.9081 66.852C24.8907 71.0894 24.2995 77.2159 22.375 82.166C19.1928 90.3621 14.4109 100.68 14.266 101.004L14.2602 101.01C11.3388 102.79 7.84368 102.697 5.61793 102.372C4.2674 102.175 3.38635 101.891 3.38635 101.891C3.38635 101.891 4.3774 92.5008 9.53622 81.8645C12.1273 76.5203 15.4311 71.5468 18.2771 67.8835C18.2946 67.866 18.3063 67.8486 18.3176 67.8314C18.3467 67.7852 18.3871 67.7386 18.4218 67.6923C18.4451 67.6632 18.4622 67.6402 18.4797 67.6169C18.503 67.5936 18.5201 67.5706 18.5318 67.5473C18.5609 67.5127 18.5838 67.4836 18.6071 67.4548C18.613 67.449 18.6188 67.4432 18.6188 67.4373C18.6246 67.4315 18.6305 67.4257 18.6305 67.4257C21.5227 63.7565 23.8705 61.5308 24.3633 61.8032C24.659 61.9657 24.9198 63.9711 24.9081 66.852Z" fill="#76E5E5"/>
<path opacity="0.3" d="M24.9081 66.8519C24.8907 71.0892 24.2995 77.2158 22.375 82.1659C19.1928 90.362 14.4109 100.68 14.266 101.004L14.2602 101.01L5.61793 102.372C4.2674 102.175 3.38635 101.891 3.38635 101.891C3.38635 101.891 4.3774 92.5007 9.53622 81.8643C12.1273 76.5201 15.4311 71.5467 18.2771 67.8834C16.6483 70.0338 9.83161 79.3949 8.00029 87.3477C5.91367 96.3957 14.3301 92.9122 17.773 87.3477C21.2102 81.7831 24.804 66.8516 24.804 66.8516H24.9081V66.8519Z" fill="#2CAAB2"/>
<path d="M3.43005 101.524C3.43005 101.524 7.19242 95.3176 11.073 96.1229C14.9536 96.9282 14.2579 101.01 14.2579 101.01C14.2579 101.01 9.29583 104.6 3.43005 101.524Z" fill="#1E767C"/>
<path d="M15.5025 81.3151C14.8168 81.0581 18.3578 73.0416 19.4561 72.9682C20.5544 72.8949 16.0882 81.5344 15.5025 81.3151Z" fill="white"/>
<path d="M15.1441 82.17C14.6036 81.8835 14.093 83.3835 14.5872 83.6031C15.0814 83.8225 15.7558 82.4939 15.1441 82.17Z" fill="white"/>
<path d="M3.38613 101.892C3.38613 101.892 5.70715 98.6059 9.06068 98.1666C12.4142 97.7273 13.6171 98.6563 14.2603 101.011C14.9035 103.365 10.1463 111.938 4.23873 118.4C1.68948 118.611 0.919466 115.479 0.550049 113.468C0.550049 111.708 2.23401 104.655 3.38613 101.892Z" fill="#76E5E5"/>
<path d="M11.5335 98.1436C11.5335 98.1436 5.23903 106.88 3.2439 111.913C2.16752 114.627 1.55103 116.409 1.55103 116.409C1.55103 116.409 3.18599 120.55 5.89801 117.084C9.73851 112.176 14.8874 104.794 13.9518 101.241C13.1596 98.2327 12.6298 97.6638 11.5335 98.1436Z" fill="#2CAAB2"/>
<path d="M8.98536 103.017C8.5642 104.096 9.37774 111.141 10.1464 111.938C10.915 112.735 12.6871 111.387 13.1792 109.959C13.6713 108.531 15.885 100.753 13.039 98.2603C13.0394 98.2606 10.7423 98.5142 8.98536 103.017Z" fill="#76E5E5"/>
<path d="M10.2691 103.964C9.95584 104.021 9.60562 106.435 9.86537 106.868C10.1251 107.301 10.6453 107.251 10.8921 106.706C11.1391 106.16 10.7433 103.877 10.2691 103.964Z" fill="white"/>
<path d="M53.4785 66.8515C53.496 71.0889 54.0871 77.2154 56.0116 82.1655C59.1938 90.3616 63.9757 100.679 64.1207 101.004L64.1265 101.01C67.0479 102.789 70.5429 102.696 72.7687 102.372C74.1192 102.175 75.0003 101.891 75.0003 101.891C75.0003 101.891 74.0092 92.5003 68.8504 81.864C66.2594 76.5198 62.9555 71.5464 60.1095 67.883C60.092 67.8656 60.0804 67.8481 60.0691 67.8309C60.0399 67.7847 59.9995 67.7381 59.9645 67.6918C59.9412 67.6627 59.9241 67.6397 59.9066 67.6164C59.8833 67.5931 59.8662 67.5702 59.8545 67.5469C59.8254 67.5122 59.8024 67.4831 59.7791 67.4543C59.7733 67.4485 59.7675 67.4427 59.7675 67.4369C59.7617 67.431 59.7558 67.4252 59.7558 67.4252C56.8636 63.756 54.5158 61.5303 54.023 61.8027C53.728 61.9652 53.4672 63.9706 53.4785 66.8515Z" fill="#76E5E5"/>
<path opacity="0.3" d="M68.8507 81.8643C66.2596 76.5201 62.9558 71.5467 60.1098 67.8834C61.7385 70.0338 68.5553 79.3949 70.3866 87.3477C72.4732 96.3957 64.0568 92.9122 60.6138 87.3477C57.1767 81.7831 53.5829 66.8516 53.5829 66.8516H53.4788C53.4962 71.0889 54.0874 77.2155 56.0119 82.1656C59.1941 90.3616 63.976 100.679 64.1209 101.004L64.1267 101.01L72.769 102.372C74.1195 102.175 75.0005 101.891 75.0005 101.891" fill="#2CAAB2"/>
<path d="M74.957 101.524C74.957 101.524 71.1947 95.3176 67.3141 96.1229C63.4335 96.9282 64.1291 101.01 64.1291 101.01C64.1291 101.01 69.0913 104.6 74.957 101.524Z" fill="#1E767C"/>
<path d="M62.8842 81.3146C63.5699 81.0576 60.0289 73.0411 58.9306 72.9677C57.8323 72.8944 62.2985 81.5339 62.8842 81.3146Z" fill="white"/>
<path d="M63.2429 82.17C63.7833 81.8835 64.2939 83.3835 63.7998 83.6031C63.3053 83.8225 62.6312 82.4939 63.2429 82.17Z" fill="white"/>
<path d="M75.0008 101.891C75.0008 101.891 72.6798 98.6054 69.3262 98.1661C65.9727 97.7268 64.7699 98.6558 64.1266 101.01C63.4834 103.364 68.2406 111.938 74.1482 118.399C76.6974 118.61 77.4674 115.478 77.8369 113.468C77.8372 111.707 76.1529 104.655 75.0008 101.891Z" fill="#76E5E5"/>
<path d="M66.8536 98.1436C66.8536 98.1436 73.1481 106.88 75.1432 111.913C76.2196 114.627 76.8361 116.409 76.8361 116.409C76.8361 116.409 75.2011 120.55 72.4891 117.084C68.6486 112.176 63.4997 104.794 64.4352 101.241C65.2272 98.2327 65.7573 97.6638 66.8536 98.1436Z" fill="#2CAAB2"/>
<path d="M69.4018 103.017C69.823 104.096 69.0094 111.141 68.2408 111.938C67.4721 112.735 65.7001 111.387 65.208 109.959C64.7159 108.531 62.5021 100.753 65.3481 98.2603C65.3478 98.2606 67.6445 98.5142 69.4018 103.017Z" fill="#76E5E5"/>
<path d="M68.1179 103.964C68.4311 104.021 68.7814 106.435 68.5216 106.868C68.2618 107.301 67.7416 107.251 67.4949 106.706C67.2478 106.16 67.6436 103.877 68.1179 103.964Z" fill="white"/>
<path d="M49.8072 72.6064C46.2563 75.4535 42.7057 75.117 39.1514 72.6064C35.939 74.921 32.2552 75.5549 27.7701 72.6064C27.4675 83.3726 30.3704 92.2925 39.0613 96.6127C46.0507 92.7996 50.7483 86.17 49.8072 72.6064ZM44.8208 86.1926H40.5112V90.2631H36.9198V86.1926H32.923V82.4916H36.9198V78.6987H40.5112V82.4916H44.8208V86.1926Z" fill="white"/>
<defs>
<linearGradient id="paint0_linear" x1="39.2264" y1="109.329" x2="39.2264" y2="66.1923" gradientUnits="userSpaceOnUse">
<stop stop-color="#9D68C2"/>
<stop offset="1" stop-color="#CCEDFF"/>
</linearGradient>
<linearGradient id="paint1_linear" x1="65.6418" y1="10.5177" x2="71.8747" y2="10.5177" gradientUnits="userSpaceOnUse">
<stop/>
<stop offset="1" stop-color="#D4E2FF"/>
</linearGradient>
<linearGradient id="paint2_linear" x1="5.30267" y1="10.0838" x2="12.1717" y2="10.0838" gradientUnits="userSpaceOnUse">
<stop stop-color="#D4E2FF"/>
<stop offset="1"/>
</linearGradient>
</defs>
</svg>
