<svg width="512" height="512" viewBox="0 0 512 512" fill="none" xmlns="http://www.w3.org/2000/svg">
<g clip-path="url(#clip0)">
<path d="M457 349.129L486.789 366.414V451.914L413.168 494.629L339.551 451.914V366.414L413.168 323.695L444.004 341.59L451.547 328.594L413.168 306.324L332.039 353.402L258.418 310.684V216.531L223.488 196.262L215.949 209.258L243.395 225.184V310.684L169.773 353.402L96.1562 310.684V225.184L169.773 182.465L202.953 201.719L210.492 188.723L177.285 169.453V75.3047L88.6445 23.8672L0 75.3047V118.395H15.0234V83.9531L88.6445 41.2383L162.262 83.9531V169.457L88.6445 212.172L15.0234 169.457V133.418H0V178.105L81.1328 225.184V310.684L0 357.762V460.566L33.8086 480.18L41.3477 467.188L15.0234 451.914V366.414L88.6445 323.695L162.262 366.414V451.914L88.6445 494.629L54.3438 474.727L46.8047 487.723L88.6445 512L169.773 464.922L202.648 484L210.188 471.004L177.285 451.91V366.414L250.906 323.695L324.527 366.414V451.91L250.906 494.629L223.184 478.543L215.645 491.539L250.906 512L332.039 464.922L413.168 512L501.812 460.566V357.762L464.543 336.133L457 349.129Z" fill="#333333"/>
<path d="M244.898 131.211C262.086 131.211 276.918 120.965 283.633 106.262L318.348 114.562C317.809 117.867 317.516 121.25 317.516 124.703C317.516 146.348 328.559 165.457 345.305 176.707L333.375 192.809C328.887 191.195 324.055 190.309 319.016 190.309C295.543 190.309 276.449 209.406 276.449 232.879C276.449 256.352 295.543 275.445 319.016 275.445C342.488 275.445 361.586 256.352 361.586 232.879C361.586 219.859 355.703 208.191 346.469 200.379L358.898 183.594C365.527 185.992 372.672 187.305 380.117 187.305C414.633 187.305 442.719 159.223 442.719 124.703C442.719 112.547 439.223 101.199 433.203 91.5859L447.098 78.8984C453.559 82.8555 461.148 85.1367 469.262 85.1367C492.734 85.1367 511.828 66.043 511.828 42.5703C511.828 19.0977 492.734 0 469.262 0C445.785 0 426.691 19.0977 426.691 42.5703C426.691 52.4844 430.109 61.6133 435.816 68.8555L423.75 79.8711C412.465 68.8867 397.07 62.1016 380.117 62.1016C354.32 62.1016 332.121 77.7852 322.551 100.121L287.344 91.7031C287.418 90.6914 287.465 89.6719 287.465 88.6445C287.465 65.1719 268.371 46.0742 244.898 46.0742C221.426 46.0742 202.328 65.1719 202.328 88.6445C202.328 112.117 221.426 131.211 244.898 131.211V131.211ZM469.262 15.0234C484.449 15.0234 496.805 27.3828 496.805 42.5703C496.805 57.7578 484.449 70.1133 469.262 70.1133C454.07 70.1133 441.715 57.7578 441.715 42.5703C441.715 27.3828 454.07 15.0234 469.262 15.0234V15.0234ZM346.562 232.879C346.562 248.066 334.207 260.422 319.016 260.422C303.828 260.422 291.473 248.066 291.473 232.879C291.473 217.691 303.828 205.332 319.016 205.332C334.207 205.332 346.562 217.691 346.562 232.879ZM380.117 77.125C406.348 77.125 427.691 98.4688 427.691 124.703C427.691 150.934 406.348 172.277 380.117 172.277C353.883 172.277 332.539 150.934 332.539 124.703C332.539 98.4688 353.883 77.125 380.117 77.125V77.125ZM244.898 61.0977C260.086 61.0977 272.441 73.457 272.441 88.6445C272.441 103.832 260.086 116.188 244.898 116.188C229.707 116.188 217.352 103.832 217.352 88.6445C217.352 73.457 229.707 61.0977 244.898 61.0977V61.0977Z" fill="#333333"/>
<path d="M305.762 445.43L298.219 432.434L250.906 459.891L229.586 447.516L222.043 460.512L250.906 477.258L305.762 445.43Z" fill="#333333"/>
<path d="M196.043 445.445L203.582 432.449L216.578 439.992L209.035 452.984L196.043 445.445Z" fill="#333333"/>
<path d="M471.766 438.934V375.066L442.93 358.336L435.391 371.332L456.738 383.719V438.934H471.766Z" fill="#333333"/>
<path d="M409.398 356.277L416.938 343.281L429.934 350.824L422.391 363.816L409.398 356.277Z" fill="#333333"/>
<path d="M33.7734 445.441L41.3164 432.449L66.4062 447.008L58.8672 460.004L33.7734 445.441Z" fill="#333333"/>
<path d="M71.8594 467.547L79.4023 454.555L92.3984 462.094L84.8555 475.09L71.8594 467.547Z" fill="#333333"/>
<path d="M30.0469 141.453H45.0742V156.477H30.0469V141.453Z" fill="#333333"/>
<path d="M30.0469 96.9336H45.0742V126.426H30.0469V96.9336Z" fill="#333333"/>
<path d="M166 215.035L173.543 202.039L186.539 209.578L178.996 222.574L166 215.035Z" fill="#333333"/>
<path d="M228.371 297.703V233.836L199.535 217.105L191.996 230.102L213.344 242.488V297.703H228.371Z" fill="#333333"/>
<path d="M397.645 124.703H412.668C412.668 106.75 398.066 92.1484 380.117 92.1484V107.172C389.781 107.172 397.645 115.039 397.645 124.703V124.703Z" fill="#333333"/>
</g>
<defs>
<clipPath id="clip0">
<rect width="512" height="512" fill="white"/>
</clipPath>
</defs>
</svg>
