<svg width="512" height="512" viewBox="0 0 512 512" fill="none" xmlns="http://www.w3.org/2000/svg">
<path d="M179.424 153.072L164.936 144.712C166.888 139.496 168 133.88 168 128C168 122.12 166.888 116.504 164.944 111.296L179.432 102.936L183.432 109.864L197.288 101.864L181.288 74.144L167.432 82.144L171.432 89.072L156.976 97.416C149.784 88.736 139.584 82.672 128.008 80.72V64H136.008V48H104.008V64H112.008V80.72C100.432 82.672 90.2319 88.736 83.0399 97.416L68.5839 89.072L72.5839 82.144L58.7279 74.144L42.7279 101.864L56.5839 109.864L60.5839 102.936L75.0719 111.296C73.1119 116.504 71.9999 122.12 71.9999 128C71.9999 133.88 73.1119 139.496 75.0559 144.704L60.5679 153.064L56.5679 146.136L42.7119 154.136L58.7119 181.856L72.5679 173.856L68.5679 166.928L83.0239 158.584C90.2159 167.264 100.416 173.328 111.992 175.28V192H103.992V208H135.992V192H127.992V175.28C139.568 173.328 149.768 167.264 156.96 158.584L171.416 166.928L167.416 173.856L181.272 181.856L197.272 154.136L183.416 146.136L179.424 153.072ZM120 160C102.352 160 87.9999 145.648 87.9999 128C87.9999 110.352 102.352 96 120 96C137.648 96 152 110.352 152 128C152 145.648 137.648 160 120 160Z" fill="#333333"/>
<path d="M120 16C58.24 16 8 66.24 8 128C8 189.76 58.24 240 120 240C181.76 240 232 189.76 232 128C232 66.24 181.76 16 120 16ZM120 224C67.064 224 24 180.936 24 128C24 75.064 67.064 32 120 32C172.936 32 216 75.064 216 128C216 180.936 172.936 224 120 224Z" fill="#333333"/>
<path d="M504 296C504 282.984 497.656 271.512 488 264.208V224C488 221.872 487.16 219.84 485.656 218.344L411.312 144L445.656 109.656C448.784 106.528 448.784 101.472 445.656 98.3438L443.312 95.9997L464 75.3117L474.344 85.6557L485.656 74.3438L421.656 10.3438L410.344 21.6558L420.688 31.9998L400 52.6878L397.656 50.3438C394.528 47.2157 389.472 47.2157 386.344 50.3438L282.344 154.344C280.84 155.84 280 157.872 280 160V224H272C267.584 224 264 227.576 264 232V312C264 316.424 267.584 320 272 320H312V344C312 348.424 315.584 352 320 352H352C356.416 352 360 348.424 360 344V320H400C404.416 320 408 316.424 408 312V232C408 227.576 404.416 224 400 224H392V195.312L432 235.312V272.248C427.04 278.912 424 287.08 424 296C424 304.92 427.04 313.088 432 319.752V368H256V384H432V440H392V416C392 411.576 388.416 408 384 408H288C283.584 408 280 411.576 280 416V440H224C210.768 440 200 450.768 200 464V488C200 492.424 203.584 496 208 496H448C470.056 496 488 478.056 488 456V327.792C497.656 320.488 504 309.016 504 296ZM432 43.3118L452.688 63.9997L432 84.6878L411.312 63.9997L432 43.3118ZM344 336H328V320H344V336ZM392 304H280V240H392V304ZM296 224V163.312L392 67.3117L428.688 104L378.344 154.344C376.84 155.84 376 157.872 376 160V224H296ZM392 172.688V163.312L400 155.312L472 227.312V256.808C469.416 256.28 466.736 256 464 256C458.304 256 452.912 257.232 448 259.392V232C448 229.872 447.16 227.84 445.656 226.344L392 172.688ZM296 424H376V440H296V424ZM472 456C472 469.232 461.232 480 448 480H216V464C216 459.584 219.592 456 224 456H440C444.416 456 448 452.424 448 448V332.608C452.912 334.768 458.304 336 464 336C466.736 336 469.416 335.72 472 335.192V456ZM464 320C450.768 320 440 309.232 440 296C440 282.768 450.768 272 464 272C477.232 272 488 282.768 488 296C488 309.232 477.232 320 464 320Z" fill="#333333"/>
<path d="M104 256H120V272H104V256Z" fill="#333333"/>
<path d="M104 288H120V304H104V288Z" fill="#333333"/>
<path d="M104 320H120V336H104V320Z" fill="#333333"/>
<path d="M104 352H120V368H104V352Z" fill="#333333"/>
<path d="M104 384H120V400H104V384Z" fill="#333333"/>
<path d="M104 416H120V432H104V416Z" fill="#333333"/>
<path d="M104 448H120V464H104V448Z" fill="#333333"/>
<path d="M136 448H152V464H136V448Z" fill="#333333"/>
<path d="M168 448H184V464H168V448Z" fill="#333333"/>
<path d="M240 80H256V96H240V80Z" fill="#333333"/>
<path d="M272 80H288V96H272V80Z" fill="#333333"/>
<path d="M304 80H320V96H304V80Z" fill="#333333"/>
</svg>
