<svg width="512" height="512" viewBox="0 0 512 512" fill="none" xmlns="http://www.w3.org/2000/svg">
<path d="M216 198C223.72 198 230 191.72 230 184C230 176.28 223.72 170 216 170C208.28 170 202 176.28 202 184C202 191.72 208.28 198 216 198ZM216 182C217.104 182 218 182.896 218 184C218 186.2 214 186.2 214 184C214 182.896 214.896 182 216 182Z" fill="#333333"/>
<path d="M296 198C303.72 198 310 191.72 310 184C310 176.28 303.72 170 296 170C288.28 170 282 176.28 282 184C282 191.72 288.28 198 296 198ZM296 182C297.104 182 298 182.896 298 184C298 186.2 294 186.2 294 184C294 182.896 294.896 182 296 182Z" fill="#333333"/>
<path d="M286 240H274C274 249.92 265.92 258 256 258C246.08 258 238 249.92 238 240H226C226 256.536 239.464 270 256 270C272.536 270 286 256.536 286 240Z" fill="#333333"/>
<path d="M48.08 489.096C48.616 493.056 52.008 496 56 496H343.984H352H471.984C480.024 496 487.488 492.008 491.944 485.312C496.416 478.624 497.224 470.192 494.144 462.808L451.944 360H456C464.824 360 472 352.824 472 344V296C472 287.176 464.824 280 456 280H448.016V263.6C457.136 261.744 464.016 253.656 464.016 244C464.016 232.968 455.048 224 444.016 224H371.984C360.952 224 351.984 232.968 351.984 244C351.984 253.656 358.864 261.744 367.984 263.6V272H360C351.176 272 344 279.176 344 288V304C344 312.824 351.176 320 360 320H367.984V325.424C360.552 321.896 352.376 320 344 320H330.664L304 300V291.008C332.648 274.376 352 243.44 352 207.992H356C371.44 207.992 384 195.432 384 179.992C384 164.552 371.44 152 356 152H351.672L348.656 79.8477C348.64 79.5437 348.616 79.2397 348.56 78.9357C345.104 57.0957 332.032 38.4317 312.672 27.7437C293.312 17.0557 270.552 15.9197 250.232 24.6237L214.304 40.0237C179.8 40.9197 152 69.2717 152 104C152 104.376 152.024 104.76 152.08 105.136L158.776 152H156C140.56 152 128 164.56 128 180C128 195.44 140.56 208 156 208H160C160 243.44 179.352 274.384 208 291.016V300L181.336 320H168C152.336 320 138.176 326.48 128 336.888V288H136C144.824 288 152 280.824 152 272V256C152 247.176 144.824 240 136 240H128V208C128 203.576 124.424 200 120 200H72C67.576 200 64 203.576 64 208V240H32C23.176 240 16 247.176 16 256C16 256.368 16.024 256.736 16.08 257.096L48.08 489.096ZM478.632 476.44C477.128 478.704 474.704 480 471.984 480H352H343.984C341.264 480 338.832 478.704 337.328 476.44C335.816 474.176 335.544 471.432 336.608 468.888L353.952 426.672L371.528 421.88C379.032 419.84 386.96 419.84 394.472 421.912C398.952 423.144 403.176 425.08 407.032 427.648C417.024 434.312 428.496 437.648 439.968 437.648C448.28 437.648 456.584 435.848 464.344 432.352L479.36 468.928C480.416 471.432 480.152 474.168 478.632 476.44V476.44ZM456.016 344H423.984C419.568 344 415.984 340.416 415.984 336V304C415.984 299.584 419.568 296 423.984 296H456L456.016 344ZM375.984 248H371.984C369.784 248 367.984 246.2 367.984 244C367.984 241.8 369.784 240 371.984 240H444.016C446.216 240 448.016 241.8 448.016 244C448.016 246.2 446.216 248 444.016 248H440.016H408V264H432.016V280H423.984C417.04 280 410.832 283.008 406.44 287.736C403.064 278.576 394.32 272 384 272H383.984V256C383.984 251.576 380.408 248 375.984 248ZM360 288H384C388.416 288 392 291.584 392 296C392 300.416 388.416 304 384 304H360V288ZM384 320C390.16 320 395.728 317.6 399.984 313.768V336C399.984 349.232 410.752 360 423.984 360H434.656L458.288 417.568C444.68 423.896 428.648 422.816 415.912 414.328C410.624 410.808 404.84 408.16 398.72 406.488C388.448 403.656 377.576 403.648 367.32 406.44L361.624 407.992L383.376 355.04C383.776 354.08 383.976 353.04 383.976 352V320H384ZM367.984 344.2V350.424L321.824 462.768C319.504 468.336 319.384 474.464 321.344 480H264V382.944L299.56 406.656C303.248 409.096 308.2 408.112 310.656 404.44C323.928 384.528 331.776 350.384 334.64 336H344C352.736 336 361.072 338.984 367.984 344.2ZM319.224 331.424C317.08 342.376 311.04 369.928 301.384 388.64L267.848 366.288L302.144 325.128C303.344 323.688 304 321.872 304 320L319.224 331.424ZM176 168H248V184C248 197.232 237.232 208 224 208H184C179.584 208 176 204.416 176 200V168ZM177.888 152L187.184 108.472C189.488 100.008 195.496 93.3277 203.656 90.1437C211.816 86.9517 220.76 87.7837 228.176 92.4237L231.68 94.6077C246.632 103.952 265.584 103.368 279.936 93.1117C286.824 88.1917 295.44 86.7277 303.584 89.1117C311.568 91.4477 317.952 97.1677 321.16 104.824L333.616 152H256H177.888ZM264 168H336V200C336 204.416 332.416 208 328 208H288C274.768 208 264 197.232 264 184V168ZM368 180C368 186.616 362.616 192 356 192H352V168H356C362.616 168 368 173.384 368 180ZM216 55.9997C217.088 55.9997 218.16 55.7837 219.152 55.3517L256.536 39.3277C272.288 32.5757 289.928 33.4557 304.944 41.7517C319.816 49.9597 329.912 64.2557 332.696 80.9997L333.208 93.2397C327.648 83.8397 318.768 76.8877 308.072 73.7597C295.184 69.9677 281.544 72.2957 270.632 80.0957C261.568 86.5757 249.608 86.9357 240.152 81.0397L236.648 78.8557C224.888 71.5117 210.752 70.1597 197.816 75.2397C184.896 80.2877 175.392 90.8637 171.64 104.688L169.56 114.392L168 103.456C168.296 77.2317 189.72 55.9997 216 55.9997V55.9997ZM156 192C149.384 192 144 186.616 144 180C144 173.384 149.384 168 156 168H160V192H156ZM177.456 222.976C179.552 223.576 181.72 224 184 224H224C237.128 224 248.704 217.552 256 207.752C263.296 217.552 274.872 224 288 224H328C330.28 224 332.448 223.576 334.544 222.976C327.504 259.944 294.984 288 256 288C217.016 288 184.496 259.944 177.456 222.976V222.976ZM256 304C267.232 304 277.976 301.96 288 298.4V317.104L256 355.504L224 317.104V298.4C234.024 301.96 244.768 304 256 304ZM208 320C208 321.88 208.656 323.688 209.848 325.128L244.144 366.288L210.608 388.64C200.952 369.92 194.904 342.376 192.768 331.424L208 320ZM120 440C124.424 440 128 436.424 128 432V376C128 353.944 145.944 336 168 336H177.36C180.224 350.384 188.072 384.528 201.344 404.44C202.88 406.752 205.424 408 208.008 408C209.528 408 211.072 407.56 212.44 406.656L248 382.944V480H184V448H168V480H62.968L43.648 339.896H64V344C64 361.648 78.352 376 96 376C101.952 376 107.456 374.264 112.232 371.424C112.112 372.936 112 374.456 112 376V424H96V440H120ZM80 320H112V344C112 352.824 104.824 360 96 360C87.176 360 80 352.824 80 344V320ZM112 304H80V288C86.168 288 91.744 285.592 96 281.76C100.256 285.6 105.832 288 112 288V304ZM136.016 272H112C107.584 272 104 268.416 104 264C104 259.584 107.584 256 112 256H136L136.016 272ZM80 216H112V240C105.832 240 100.256 242.408 96 246.24C91.744 242.4 86.168 240 80 240V216ZM80 256C84.416 256 88 259.584 88 264C88 268.416 84.416 272 80 272H56V288H64V323.896H41.44L32.08 256H80Z" fill="#333333"/>
<path d="M440 184C453.232 184 464 173.232 464 160C464 146.768 453.232 136 440 136C426.768 136 416 146.768 416 160C416 173.232 426.768 184 440 184ZM440 152C444.416 152 448 155.584 448 160C448 164.416 444.416 168 440 168C435.584 168 432 164.416 432 160C432 155.584 435.584 152 440 152Z" fill="#333333"/>
<path d="M440 72C440 58.768 429.232 48 416 48C402.768 48 392 58.768 392 72C392 85.232 402.768 96 416 96C429.232 96 440 85.232 440 72ZM416 80C411.584 80 408 76.416 408 72C408 67.584 411.584 64 416 64C420.416 64 424 67.584 424 72C424 76.416 420.416 80 416 80Z" fill="#333333"/>
</svg>
