<svg width="497" height="496" viewBox="0 0 497 496" fill="none" xmlns="http://www.w3.org/2000/svg">
<path d="M241 344C241 321.568 212.888 304 177 304C141.112 304 113 321.568 113 344C113 366.432 141.112 384 177 384C212.888 384 241 366.432 241 344ZM129 344C129 332.648 148.712 320 177 320C205.288 320 225 332.648 225 344C225 355.352 205.288 368 177 368C148.712 368 129 355.352 129 344Z" fill="#333333"/>
<path d="M65 344H49C49 375.112 64.016 402.992 91.288 422.504L100.6 409.488C77.64 393.072 65 369.808 65 344Z" fill="#333333"/>
<path d="M289 344C289 394.168 240.848 432 177 432C160.936 432 145.632 429.632 131.504 424.976L126.488 440.16C142.232 445.368 159.224 448 177 448C249.968 448 305 403.288 305 344H289Z" fill="#333333"/>
<path d="M329 96C322.032 96 315.152 96.528 308.352 97.368C299.784 83.544 289.656 70.608 278.008 58.96C240.536 21.496 191.8 0 144.296 0C140.432 0 136.608 0.184 132.832 0.536C98.0159 3.104 66.1519 17.248 42.1919 41.208C7.83186 75.56 -6.00014 124.632 4.23186 175.84C9.36786 201.528 20.7119 226.976 37.0319 249.872C14.3439 275.424 0.999863 307.8 0.999863 344C0.999863 430.656 76.6639 496 177 496C238.84 496 291.232 471.12 322.392 431.784C324.592 431.872 326.776 432 329 432C421.632 432 497 356.632 497 264C497 171.36 421.632 96 329 96ZM41.8639 66.032C32.8479 87.464 30.5279 112.12 35.6159 137.576C36.1839 140.408 36.8399 143.232 37.5839 146.04L53.0559 141.952C52.3919 139.448 51.8159 136.928 51.3039 134.424C44.2639 99.232 53.3199 65.96 76.1359 43.152C91.4399 27.848 111.856 18.56 134.424 16.456C137.696 16.224 140.968 16 144.296 16C187.584 16 232.2 35.784 266.696 70.28C275.92 79.504 284.152 89.584 291.304 100.312C270.072 105.2 250.2 114.192 232.616 126.512C227.288 115.216 219.68 104.408 210.128 94.848C194.8 79.52 176.288 69.064 157.992 65.408C138.472 61.52 121.496 65.672 110.072 77.096C86.9919 100.176 94.7919 144.12 127.824 177.152C134.392 183.72 141.544 189.32 148.984 193.936C128.632 196.528 109.576 201.76 92.4239 209.512C79.4879 196.224 68.6959 180.792 61.2559 164.648L46.7279 171.344C54.2479 187.68 64.9439 203.272 77.6319 217.032C66.9119 223.144 57.1999 230.328 48.4239 238.32C34.2719 217.856 24.4479 195.344 19.9199 172.696C12.0239 133.216 20.0399 95.296 41.8639 66.032V66.032ZM178.368 189.768C164.768 185.96 150.752 177.456 139.136 165.84C113.336 140.04 105.216 104.584 121.384 88.408C128.904 80.88 140.8 78.288 154.856 81.088C170.08 84.136 185.696 93.04 198.816 106.152C208.016 115.352 214.992 125.816 219.52 136.624C202.616 151.152 188.552 169.12 178.368 189.768V189.768ZM177 480C85.7839 480 16.9999 421.528 16.9999 344C16.9999 266.472 85.7839 208 177 208C268.216 208 337 266.472 337 344C337 421.528 268.216 480 177 480V480ZM301.752 234.824C309.096 227.984 318.824 224 329 224C351.056 224 369 241.944 369 264C369 279.744 359.832 293.664 346.024 300.152C337.768 274.752 322.464 252.456 301.752 234.824V234.824ZM333.408 415.776C339.552 405.4 344.256 394.216 347.56 382.44C405.736 373.416 449 323.496 449 264C449 242.904 443.448 222.152 432.936 203.992L419.096 212.008C428.184 227.736 433 245.712 433 264C433 313.48 398.512 355.36 351.192 365.592C352.256 358.544 353 351.384 353 344C353 334.288 351.912 324.888 350.088 315.776C370.944 307.304 385 287.048 385 264C385 233.12 359.872 208 329 208C313.84 208 299.392 214.264 288.92 224.984C275.784 215.888 260.984 208.456 244.856 202.96C264.304 176.264 295.664 160 329 160C350.4 160 370.944 166.448 388.424 178.64L397.584 165.512C377.4 151.44 353.688 144 329 144C288.64 144 250.76 164.648 228.68 198.216C217.824 195.528 206.488 193.648 194.728 192.72C220.952 143.328 272.448 112 329 112C412.816 112 481 180.184 481 264C481 346.328 415.168 413.416 333.408 415.776V415.776Z" fill="#333333"/>
</svg>
