<svg width="30" height="24" viewBox="0 0 30 24" fill="none" xmlns="http://www.w3.org/2000/svg">
<path d="M25.2926 21.7374C25.2926 21.7374 25.3254 21.6915 25.3917 21.6041C25.4084 21.5822 25.427 21.5578 25.4475 21.5308C25.4663 21.5025 25.4833 21.469 25.5038 21.434C25.5439 21.3634 25.594 21.2833 25.6297 21.1821C25.6494 21.1324 25.6728 21.0807 25.6926 21.0245C25.7085 20.9669 25.7252 20.9063 25.7428 20.8428C25.7632 20.7799 25.7739 20.7116 25.7847 20.6403C25.7939 20.5689 25.8134 20.4957 25.8157 20.4174C25.8492 20.1062 25.8287 19.7431 25.7664 19.3423C25.6422 18.5382 25.3013 17.5911 24.7792 16.5619C24.258 15.5304 23.5405 14.4209 22.6588 13.2645C21.7767 12.1077 20.7163 10.9128 19.4971 9.71311C18.2767 8.51483 16.895 7.31093 15.3463 6.17007C14.5715 5.60066 13.7542 5.04827 12.8926 4.52802C12.0319 4.00654 11.1243 3.5204 10.1671 3.09896C9.2099 2.68283 8.19992 2.32021 7.13464 2.14837C6.60376 2.06651 6.05611 2.02696 5.51755 2.10856C5.24894 2.1499 4.98494 2.22312 4.7363 2.3348C4.49169 2.45422 4.26667 2.61326 4.08068 2.81429C3.902 3.0219 3.76875 3.26318 3.67768 3.51982C3.59531 3.77966 3.5514 4.05013 3.54123 4.32187C3.52075 4.86632 3.62251 5.40616 3.76408 5.9245C4.05579 6.96366 4.53112 7.9261 5.05348 8.8301C5.58116 9.73326 6.16747 10.5799 6.78366 11.3758C7.3987 12.1728 8.04062 12.9221 8.69457 13.6272C10.0045 15.0362 11.3579 16.2721 12.6874 17.3482C14.0182 18.423 15.326 19.3406 16.5757 20.0853C17.825 20.8296 19.0089 21.4161 20.0929 21.8165C21.1748 22.2179 22.1544 22.4488 22.9673 22.4807C23.3726 22.4969 23.7356 22.476 24.0409 22.4073C24.1184 22.3961 24.1889 22.3684 24.2589 22.3511C24.3285 22.3324 24.395 22.3139 24.4552 22.2865C24.5163 22.2618 24.5746 22.2384 24.6301 22.2161C24.6836 22.1899 24.7323 22.1608 24.7794 22.1356C24.8758 22.0886 24.9497 22.0297 25.0153 21.9818C25.0477 21.9575 25.0791 21.9369 25.105 21.9149C25.1295 21.8914 25.1517 21.8702 25.1715 21.8511C25.2507 21.7753 25.2926 21.7374 25.2926 21.7374C25.2926 21.7374 25.2539 21.7782 25.1759 21.8558C25.1563 21.8753 25.1344 21.897 25.1102 21.921C25.0845 21.9434 25.0534 21.9646 25.0211 21.9895C24.9558 22.0385 24.8822 22.0985 24.7856 22.1468C24.7385 22.1725 24.6898 22.2023 24.6361 22.2291C24.5806 22.252 24.5222 22.2761 24.4608 22.3014C24.4004 22.3294 24.3337 22.3486 24.2638 22.368C24.1937 22.3859 24.1227 22.4141 24.0449 22.4259C23.7382 22.497 23.3734 22.52 22.9663 22.5056C22.1495 22.4774 21.1661 22.2492 20.0805 21.85C18.9927 21.4519 17.8054 20.8671 16.5526 20.124C15.2994 19.3807 13.9883 18.4639 12.6542 17.3894C11.3214 16.3135 9.96484 15.0775 8.65156 13.6672C7.99595 12.9615 7.3523 12.2113 6.73547 11.4131C6.11755 10.6158 5.52932 9.76751 4.99953 8.86152C4.47505 7.95464 3.99729 6.98882 3.70296 5.94146C3.56024 5.4189 3.45694 4.87374 3.47761 4.3195C3.48798 4.0429 3.53259 3.76635 3.61726 3.49947C3.71076 3.2356 3.8483 2.98626 4.0332 2.77179C4.22532 2.56386 4.4579 2.39963 4.70936 2.27701C4.96472 2.16226 5.23467 2.08763 5.50808 2.04552C6.05624 1.96264 6.60939 2.00309 7.14462 2.08565C8.21828 2.25915 9.23192 2.62382 10.1923 3.04168C11.1524 3.46485 12.0619 3.95266 12.9241 4.47579C13.7872 4.99771 14.6056 5.5517 15.3812 6.1227C16.9316 7.26677 18.3138 8.47381 19.5343 9.67534C20.7535 10.8784 21.8135 12.0767 22.6947 13.2371C23.5755 14.3971 24.2917 15.5104 24.8111 16.5457C25.3313 17.5789 25.67 18.5301 25.791 19.3384C25.8516 19.7413 25.8704 20.1064 25.8346 20.4192C25.8318 20.4978 25.8118 20.5715 25.802 20.6433C25.7906 20.715 25.7793 20.7834 25.7583 20.8467C25.7401 20.9105 25.7229 20.9713 25.7064 21.0291C25.6859 21.0855 25.6619 21.1373 25.6416 21.187C25.6047 21.2884 25.5534 21.3685 25.5122 21.4389C25.4911 21.4738 25.4736 21.5072 25.4543 21.5352C25.4332 21.5619 25.4141 21.5862 25.397 21.6079C25.3286 21.6944 25.2926 21.7374 25.2926 21.7374Z" fill="#D92527"/>
<path d="M0.726257 12.2673C0.726257 12.2673 0.732337 12.2111 0.740977 12.1018C0.743089 12.0744 0.745521 12.0437 0.748145 12.0098C0.752945 11.9762 0.762545 11.9399 0.770545 11.9002C0.787633 11.8207 0.803569 11.7277 0.844273 11.6283C0.862705 11.5782 0.879601 11.524 0.902193 11.4689C0.928689 11.4153 0.956593 11.359 0.985777 11.2999C1.0124 11.2394 1.04984 11.1813 1.08927 11.121C1.12991 11.0615 1.16415 10.9939 1.21458 10.9339C1.39666 10.6794 1.65375 10.4221 1.96696 10.1644C2.59493 9.64703 3.47979 9.16729 4.55448 8.74674C5.63 8.32396 6.90405 7.97362 8.33176 7.69753C9.76005 7.42137 11.3467 7.23564 13.0552 7.15186C14.7636 7.07001 16.5961 7.09138 18.5112 7.2709C19.4685 7.36178 20.4461 7.49356 21.4354 7.67884C22.4248 7.86265 23.4257 8.10399 24.4205 8.42668C25.4118 8.75334 26.4069 9.15507 27.3163 9.73593C27.7669 10.0282 28.202 10.3633 28.5496 10.7826C28.7225 10.9923 28.8707 11.2227 28.9819 11.4715C29.085 11.7234 29.1471 11.992 29.152 12.2658C29.1472 12.5396 29.086 12.8084 28.9832 13.0606C28.8717 13.3094 28.7243 13.5404 28.5511 13.7499C28.204 14.1699 27.7686 14.505 27.318 14.7976C26.4086 15.3789 25.4132 15.7807 24.4217 16.1076C23.4267 16.4303 22.4255 16.6718 21.436 16.8556C20.4464 17.041 19.4687 17.1728 18.5113 17.2637C16.5958 17.4432 14.7631 17.4646 13.0546 17.3827C11.346 17.2989 9.75928 17.1131 8.33099 16.8369C6.90328 16.5608 5.6293 16.2105 4.55384 15.7876C3.47922 15.3671 2.59442 14.8873 1.96658 14.37C1.65343 14.1123 1.3964 13.855 1.21432 13.6005C1.16395 13.5405 1.12971 13.473 1.08901 13.4136C1.04959 13.3532 1.01221 13.2951 0.985585 13.2346C0.956337 13.1755 0.928497 13.1192 0.902001 13.0657C0.879473 13.0105 0.862513 12.9563 0.844145 12.9062C0.803441 12.8069 0.787569 12.7138 0.770481 12.6344C0.762481 12.5947 0.752817 12.5584 0.748081 12.5248C0.745457 12.4909 0.743025 12.4603 0.740913 12.4329C0.732337 12.3234 0.726257 12.2673 0.726257 12.2673C0.726257 12.2673 0.727921 12.3234 0.734513 12.4333C0.736177 12.4609 0.738033 12.4916 0.740145 12.5257C0.744369 12.5595 0.753521 12.596 0.761073 12.6361C0.777201 12.716 0.792177 12.8099 0.832113 12.9102C0.850161 12.9608 0.866673 13.0155 0.888945 13.0712C0.915185 13.1252 0.942705 13.1821 0.971633 13.2418C0.998065 13.3029 1.03512 13.3616 1.07442 13.4226C1.11487 13.4826 1.14898 13.551 1.19922 13.6115C1.38079 13.8687 1.63768 14.1287 1.95103 14.389C2.57931 14.9116 3.46507 15.396 4.54098 15.8207C5.61771 16.2477 6.8931 16.6017 8.32261 16.8811C9.75262 17.1606 11.3414 17.3492 13.0522 17.4354C14.763 17.5197 16.5981 17.5003 18.5169 17.3222C19.476 17.2319 20.4556 17.1006 21.4473 16.9154C22.4391 16.7318 23.4427 16.4903 24.4411 16.1669C25.4362 15.8393 26.4356 15.4365 27.3525 14.8509C27.8068 14.556 28.2468 14.2178 28.6004 13.7905C28.7768 13.5771 28.9275 13.3411 29.042 13.0856C29.1479 12.8264 29.2112 12.5488 29.216 12.2657C29.2111 11.9826 29.1469 11.7052 29.0408 11.4463C28.9266 11.1907 28.7749 10.9553 28.5988 10.7419C28.245 10.3152 27.8052 9.97708 27.3508 9.68243C26.4341 9.09721 25.4349 8.69458 24.4401 8.36716C23.442 8.0439 22.4384 7.80243 21.4468 7.61887C20.4553 7.43379 19.4759 7.30252 18.517 7.21228C16.5985 7.03404 14.7635 7.01471 13.0528 7.09894C11.3421 7.18515 9.75346 7.37369 8.32344 7.65318C6.89394 7.93254 5.61848 8.28652 4.54168 8.71347C3.46571 9.13817 2.57983 9.62252 1.95141 10.1451C1.638 10.4055 1.38098 10.6654 1.19941 10.9227C1.14911 10.9832 1.11499 11.0516 1.07455 11.1117C1.03531 11.1727 0.998129 11.2314 0.971761 11.2925C0.942833 11.3521 0.915249 11.4091 0.889073 11.4632C0.866865 11.5189 0.850289 11.5736 0.832241 11.6241C0.792369 11.7244 0.777329 11.8183 0.761201 11.8983C0.753713 11.9384 0.744497 11.9748 0.740273 12.0087C0.738225 12.0427 0.736305 12.0735 0.734641 12.1012C0.727985 12.2111 0.726257 12.2673 0.726257 12.2673Z" fill="#D92527"/>
<path d="M24.0176 0.478455C24.0176 0.478455 23.9695 0.448887 23.8778 0.388727C23.8548 0.373623 23.8292 0.356727 23.8007 0.338103C23.7712 0.321271 23.7367 0.306679 23.7003 0.288631C23.6271 0.253495 23.5438 0.209015 23.4403 0.180343C23.3894 0.164215 23.3362 0.144375 23.2788 0.128375C23.2203 0.116535 23.1586 0.103991 23.0941 0.0909347C23.0299 0.0749347 22.9611 0.0689189 22.8892 0.0630949C22.8173 0.0588069 22.7429 0.0444069 22.6646 0.0476069C22.3519 0.0355749 21.991 0.0811428 21.5955 0.170807C20.8018 0.350135 19.8806 0.755511 18.8897 1.34725C17.8966 1.93823 16.8391 2.73049 15.7462 3.68972C14.6529 4.64933 13.5339 5.78956 12.421 7.0885C11.3096 8.38853 10.2038 9.84991 9.17227 11.4735C8.65758 12.2858 8.16279 13.1391 7.70315 14.0345C7.24222 14.9291 6.81975 15.8681 6.46526 16.852C6.11607 17.8356 5.82392 18.8681 5.72587 19.9427C5.68075 20.4779 5.67908 21.0271 5.79755 21.5587C5.85732 21.8239 5.94852 22.0822 6.07704 22.3225C6.21297 22.5583 6.38718 22.7718 6.60056 22.9435C6.81995 23.1075 7.06987 23.2238 7.33214 23.297C7.59704 23.3613 7.86987 23.3864 8.14168 23.3779C8.68632 23.3608 9.21783 23.2221 9.7251 23.0452C10.7417 22.6826 11.6692 22.1421 12.535 21.5587C13.3997 20.9701 14.2039 20.3268 14.9554 19.6573C15.7081 18.9889 16.4114 18.2969 17.0698 17.5959C18.3853 16.1921 19.525 14.7567 20.507 13.3563C21.4875 11.9546 22.3129 10.5867 22.9697 9.28863C23.6262 7.99109 24.1298 6.76959 24.4546 5.66053C24.7806 4.55353 24.9435 3.56037 24.9193 2.74719C24.9075 2.34181 24.8616 1.98105 24.772 1.68127C24.7555 1.60473 24.7231 1.53625 24.701 1.4677C24.6775 1.39954 24.6545 1.33445 24.623 1.27628C24.5942 1.21701 24.5668 1.16044 24.5407 1.10674C24.5108 1.05516 24.4784 1.00857 24.4501 0.963319C24.3965 0.870327 24.3327 0.800695 24.2804 0.738551C24.2539 0.707895 24.2311 0.678007 24.2075 0.653687C24.1823 0.630839 24.1596 0.610167 24.1392 0.591671C24.0583 0.517687 24.0176 0.478455 24.0176 0.478455C24.0176 0.478455 24.061 0.514167 24.1438 0.586679C24.1645 0.604919 24.1878 0.625271 24.2134 0.647735C24.2375 0.671799 24.2608 0.701431 24.2878 0.731895C24.3412 0.793591 24.4062 0.863031 24.461 0.955959C24.4899 1.00121 24.5229 1.0478 24.5534 1.09945C24.5801 1.15327 24.6081 1.20997 24.6375 1.26937C24.6697 1.32767 24.6933 1.39295 24.7175 1.46137C24.7402 1.5301 24.7732 1.59897 24.7904 1.67577C24.8824 1.97682 24.9305 2.33919 24.9442 2.74629C24.9723 3.56306 24.8125 4.55986 24.4889 5.67039C24.1667 6.78297 23.6651 8.00786 23.0101 9.30879C22.3548 10.6102 21.5305 11.9814 20.5505 13.3864C19.5689 14.7901 18.4293 16.2286 17.1129 17.6359C16.4539 18.3385 15.7499 19.0323 14.9961 19.7027C14.2433 20.3741 13.4375 21.0193 12.5702 21.6103C11.7016 22.196 10.771 22.7391 9.74641 23.1049C9.23492 23.2833 8.69815 23.4239 8.14385 23.4414C7.86718 23.4501 7.5882 23.4247 7.31614 23.3585C7.04644 23.2834 6.7882 23.1634 6.56152 22.9937C6.34084 22.8164 6.161 22.5957 6.02136 22.3532C5.88926 22.1064 5.7962 21.8422 5.7354 21.5723C5.61495 21.0312 5.6172 20.4765 5.6627 19.9369C5.76184 18.8538 6.05579 17.8175 6.40651 16.8306C6.76254 15.8436 7.18654 14.9026 7.649 14.0065C8.11025 13.1094 8.60651 12.2549 9.12273 11.4418C10.1573 9.81637 11.2662 8.35423 12.3808 7.05388C13.4971 5.75461 14.6195 4.61465 15.7165 3.65561C16.813 2.69701 17.8743 1.90585 18.8715 1.31641C19.8663 0.726199 20.7919 0.322871 21.59 0.146423C21.9878 0.058231 22.3507 0.0143909 22.6653 0.0284709C22.7439 0.0258469 22.8189 0.0407588 22.8911 0.0455588C22.9634 0.0519588 23.0325 0.0584869 23.097 0.0751269C23.1619 0.0888229 23.2237 0.101879 23.2825 0.114295C23.3402 0.130871 23.3935 0.151287 23.4446 0.167991C23.5483 0.197879 23.6317 0.243575 23.7047 0.279799C23.741 0.298423 23.7755 0.313527 23.8048 0.330935C23.833 0.350199 23.8585 0.367543 23.8813 0.383159C23.9722 0.445431 24.0176 0.478455 24.0176 0.478455Z" fill="#D92527"/>
<path d="M3.57945 18.095C4.10649 18.622 4.10649 19.4766 3.57945 20.0036C3.05241 20.5306 2.19788 20.5306 1.67084 20.0036C1.14374 19.4766 1.14374 18.622 1.67084 18.095C2.19788 17.5679 3.05241 17.5679 3.57945 18.095Z" fill="#D92527"/>
<path d="M28.2383 5.89603C28.2383 6.35766 27.8641 6.73193 27.4024 6.73193C26.9407 6.73193 26.5665 6.35766 26.5665 5.89603C26.5665 5.43433 26.9407 5.06006 27.4024 5.06006C27.8641 5.06006 28.2383 5.43433 28.2383 5.89603Z" fill="#D92527"/>
<path d="M6.80682 5.06933C6.80682 5.14351 6.74666 5.20367 6.67248 5.20367C6.59831 5.20367 6.53815 5.14357 6.53815 5.06933C6.53815 4.99515 6.59831 4.93506 6.67248 4.93506C6.74666 4.93506 6.80682 4.99515 6.80682 5.06933Z" fill="#FF4F5B"/>
<path d="M27.764 12.2671C27.764 12.3413 27.7039 12.4015 27.6297 12.4015C27.5555 12.4015 27.4954 12.3414 27.4954 12.2671C27.4954 12.193 27.5555 12.1328 27.6297 12.1328C27.7039 12.1328 27.764 12.193 27.764 12.2671Z" fill="#FF4F5B"/>
<path d="M23.0486 3.53271C20.3544 5.69291 17.4087 5.43742 14.7118 3.53271C12.2743 5.289 9.73083 5.77003 6.32776 3.53271C6.09819 11.7017 8.30088 18.4697 14.8949 21.7475C20.1984 18.8543 23.7626 13.8242 23.0486 3.53271ZM19.2832 13.7824H16.0003V16.8831H13.2647V13.7824H10.2202V10.9632H13.2647V8.0739H16.0003V10.9632H19.2832V13.7824Z" fill="#D92527"/>
</svg>
