<svg width="548" height="54" viewBox="0 0 548 54" fill="none" xmlns="http://www.w3.org/2000/svg">
<path fill-rule="evenodd" clip-rule="evenodd" d="M43.1451 1C35.3112 5.9173 30.9136 6.00433 23.0812 1C15.0428 5.88074 10.22 5.86962 1.05984 1C0.727382 14.762 1.74609 20.3808 4.97473 27.9149C10.5115 38.2176 14.4614 42.1964 22.5919 47C31.1252 41.5652 35.0616 37.5914 39.7196 27.9149C42.7881 17.8601 43.7346 12.0189 43.1451 1ZM17.6984 10.7872H25.5282V18.617H33.358V26.4468H25.5282V34.2766H17.6984V26.4468H9.86859V18.617H17.6984V10.7872Z" fill="white"/>
<path d="M23.0812 1L23.3447 0.587624L23.0878 0.423492L22.8273 0.581706L23.0812 1ZM43.1451 1L43.6337 0.973856L43.5893 0.143379L42.8849 0.585525L43.1451 1ZM1.05984 1L1.28955 0.567901L0.589761 0.195887L0.570621 0.988182L1.05984 1ZM4.97473 27.9149L4.52493 28.1077L4.53345 28.1275L4.54368 28.1466L4.97473 27.9149ZM22.5919 47L22.343 47.4213L22.6015 47.5741L22.8548 47.4128L22.5919 47ZM39.7196 27.9149L40.1605 28.1272L40.1767 28.0935L40.1876 28.0577L39.7196 27.9149ZM25.5282 10.7872H26.0175V10.2979H25.5282V10.7872ZM17.6984 10.7872V10.2979H17.209V10.7872H17.6984ZM25.5282 18.617H25.0388V19.1063H25.5282V18.617ZM33.358 18.617H33.8473V18.1276H33.358V18.617ZM33.358 26.4468V26.9361H33.8473V26.4468H33.358ZM25.5282 26.4468V25.9574H25.0388V26.4468H25.5282ZM25.5282 34.2766V34.766H26.0175V34.2766H25.5282ZM17.6984 34.2766H17.209V34.766H17.6984V34.2766ZM17.6984 26.4468H18.1877V25.9574H17.6984V26.4468ZM9.86859 26.4468H9.37923V26.9361H9.86859V26.4468ZM9.86859 18.617V18.1276H9.37923V18.617H9.86859ZM17.6984 18.617V19.1063H18.1877V18.617H17.6984ZM22.8178 1.41238C26.7618 3.93232 29.9162 5.22135 33.1143 5.20997C36.3105 5.1986 39.4639 3.88845 43.4052 1.41448L42.8849 0.585525C38.9924 3.02885 36.03 4.22087 33.1108 4.23125C30.1936 4.24163 27.2331 3.07201 23.3447 0.587624L22.8178 1.41238ZM0.830132 1.4321C5.43255 3.87879 9.01441 5.14431 12.491 5.14575C15.976 5.14719 19.2826 3.87894 23.3352 1.41829L22.8273 0.581706C18.8415 3.00181 15.7175 4.16836 12.4914 4.16703C9.25692 4.16569 5.84726 2.99083 1.28955 0.567901L0.830132 1.4321ZM5.42453 27.7221C2.23308 20.2748 1.2176 14.7326 1.54906 1.01182L0.570621 0.988182C0.237167 14.7914 1.2591 20.4867 4.52493 28.1077L5.42453 27.7221ZM22.8408 46.5787C18.7976 44.1899 15.8204 42.0217 13.1681 39.1853C10.5131 36.3461 8.1647 32.817 5.40579 27.6832L4.54368 28.1466C7.32148 33.3155 9.71641 36.9271 12.4532 39.8538C15.1927 42.7834 18.2557 45.0065 22.343 47.4213L22.8408 46.5787ZM39.2786 27.7026C36.9617 32.5159 34.8374 35.883 32.2477 38.718C29.6567 41.5543 26.5804 43.8796 22.329 46.5873L22.8548 47.4128C27.1367 44.6856 30.2952 42.3065 32.9703 39.3781C35.6465 36.4484 37.8195 32.9904 40.1605 28.1272L39.2786 27.7026ZM42.6564 1.02614C43.2425 11.9807 42.3056 17.7646 39.2515 27.7721L40.1876 28.0577C43.2706 17.9557 44.2267 12.0571 43.6337 0.973856L42.6564 1.02614ZM25.5282 10.2979H17.6984V11.2766H25.5282V10.2979ZM26.0175 18.617V10.7872H25.0388V18.617H26.0175ZM33.358 18.1276H25.5282V19.1063H33.358V18.1276ZM33.8473 26.4468V18.617H32.8686V26.4468H33.8473ZM25.5282 26.9361H33.358V25.9574H25.5282V26.9361ZM26.0175 34.2766V26.4468H25.0388V34.2766H26.0175ZM17.6984 34.766H25.5282V33.7872H17.6984V34.766ZM17.209 26.4468V34.2766H18.1877V26.4468H17.209ZM9.86859 26.9361H17.6984V25.9574H9.86859V26.9361ZM9.37923 18.617V26.4468H10.358V18.617H9.37923ZM17.6984 18.1276H9.86859V19.1063H17.6984V18.1276ZM17.209 10.7872V18.617H18.1877V10.7872H17.209Z" fill="white"/>
<path d="M58.8127 36.8755H69.4878C71.0096 36.8755 72.1196 36.7949 72.8179 36.6338C73.5251 36.4637 73.8787 36.0519 73.8787 35.3984C73.8787 34.9867 73.7712 34.6017 73.5564 34.2437C73.3505 33.8766 73.0282 33.4604 72.5896 32.9949C72.151 32.5204 71.9227 32.2743 71.9048 32.2563L63.9824 23.2463C62.8097 21.9394 61.8564 20.807 61.1223 19.8491C60.3883 18.8823 59.7437 17.7544 59.1887 16.4653C58.6427 15.1763 58.3696 13.8245 58.3696 12.4102C58.3696 10.4587 58.8262 8.69067 59.7393 7.1062C60.6613 5.52173 62.0354 4.27743 63.8616 3.37329C65.6877 2.46021 67.9123 2.00366 70.5352 2.00366H83.2378L85.9905 12.1819H76.0271C74.5232 12.1819 73.4311 12.2669 72.7507 12.437C72.0793 12.6071 71.7437 13.0368 71.7437 13.7261C71.7437 14.1647 71.8466 14.5541 72.0525 14.8943C72.2584 15.2345 72.7955 15.87 73.6638 16.801L81.9084 25.9319C83.6003 27.7581 84.9386 29.4813 85.9233 31.1016C86.917 32.7218 87.4138 34.6107 87.4138 36.7681C87.387 38.4779 87.0736 39.9773 86.4739 41.2664C85.8741 42.5554 85.0282 43.6252 83.936 44.4756C82.8439 45.326 81.5683 45.9616 80.1091 46.3823C78.65 46.7941 77.0342 47 75.2617 47H61.5117L58.8127 36.8755ZM89.2534 28.5234C89.2534 25.5604 89.5936 22.6018 90.2739 19.6477C90.9543 16.6936 91.8629 13.8111 92.9998 11.0002C94.1456 8.18042 95.5197 5.18156 97.1221 2.00366H109.771C109.216 3.1853 108.477 4.77425 107.555 6.77051C106.642 8.75781 105.72 10.9555 104.789 13.3635C103.867 15.7716 103.075 18.3049 102.413 20.9636C101.75 23.6223 101.419 26.0662 101.419 28.2952C101.419 30.4167 101.768 32.1131 102.466 33.3843C103.174 34.6465 104.167 35.5461 105.447 36.0833C106.736 36.6114 108.289 36.8755 110.107 36.8755H114.39V2.00366H126.22V47H107.139C100.962 47 96.4373 45.335 93.5637 42.0049C90.6902 38.6659 89.2534 34.172 89.2534 28.5234ZM145.462 2.00366V47H133.632V2.00366H145.462ZM153.29 2.00366H181.663L166.1 36.8755H181.113L178.306 47H148.671L164.18 12.1819H150.591L153.29 2.00366ZM189.706 53.3245C187.809 50.5225 186.166 47.2193 184.778 43.4148C183.4 39.6103 182.71 35.4701 182.71 30.9941C182.71 28.3265 183.037 25.5559 183.691 22.6824C184.344 19.8088 185.463 17.0069 187.048 14.2766C188.641 11.5463 190.754 9.20093 193.385 7.24048C195.999 5.24422 198.757 3.87459 201.657 3.13159C204.566 2.37964 208.281 2.00366 212.802 2.00366H218.63L221.436 12.1819H212.198C209.727 12.1819 207.453 12.4594 205.376 13.0144C203.309 13.5605 201.442 14.6034 199.777 16.1431C198.112 17.6738 196.845 19.8357 195.977 22.6287H207.686V13.5112H219.462V47H207.686V32.6995H194.755C194.755 35.0627 195.194 37.5558 196.071 40.1787C196.957 42.7926 198.023 45.0664 199.267 47L189.706 53.3245ZM246.371 47V13.5112H258.201V25.3813C259.857 24.513 261.424 23.5462 262.901 22.481C264.387 21.4157 265.604 20.2878 266.553 19.0972C267.511 17.8976 267.99 16.7115 267.99 15.5388C267.99 14.3303 267.556 13.4709 266.688 12.9607C265.819 12.4415 264.306 12.1819 262.149 12.1819H244.223L246.922 2.00366H265.291C268.326 2.00366 270.944 2.46916 273.146 3.40015C275.357 4.33114 277.058 5.7321 278.249 7.60303C279.439 9.47396 280.035 11.7522 280.035 14.4377C280.035 17.0159 279.395 19.4642 278.115 21.7827C276.834 24.0923 275.134 26.1915 273.012 28.0803C270.899 29.9692 268.563 31.6566 266.003 33.1426C263.451 34.6286 260.851 35.9132 258.201 36.9963V47H246.371ZM287.621 53.3245C285.724 50.5225 284.081 47.2193 282.693 43.4148C281.315 39.6103 280.625 35.4701 280.625 30.9941C280.625 28.3265 280.952 25.5559 281.606 22.6824C282.259 19.8088 283.378 17.0069 284.963 14.2766C286.556 11.5463 288.669 9.20093 291.301 7.24048C293.914 5.24422 296.672 3.87459 299.572 3.13159C302.481 2.37964 306.196 2.00366 310.717 2.00366H316.545L319.351 12.1819H310.113C307.642 12.1819 305.368 12.4594 303.292 13.0144C301.224 13.5605 299.357 14.6034 297.692 16.1431C296.027 17.6738 294.76 19.8357 293.892 22.6287H305.601V13.5112H317.377V47H305.601V32.6995H292.67C292.67 35.0627 293.109 37.5558 293.986 40.1787C294.872 42.7926 295.938 45.0664 297.182 47L287.621 53.3245ZM325.004 47V13.5112H336.834V47H325.004ZM322.856 12.1819L325.555 2.00366H347.388C350.333 2.00366 352.835 2.50944 354.894 3.521C356.953 4.5236 358.488 5.90666 359.5 7.67017C360.521 9.43368 361.031 11.4165 361.031 13.6187C361.031 16.2236 360.261 18.7033 358.721 21.0576C357.19 23.4119 354.733 25.6812 351.349 27.8655C353.274 31.5089 355.14 34.6644 356.949 37.332C358.766 39.9907 361.228 43.2134 364.334 47L354.424 53.7676C352.419 51.4759 350.526 49.0544 348.744 46.5032C346.972 43.9519 345.32 41.3604 343.79 38.7285C342.268 36.0877 341.001 33.7513 339.99 31.7192C338.987 29.6872 338.078 27.7222 337.264 25.8245C338.669 24.8129 340.119 23.7611 341.614 22.6689C343.118 21.5768 344.483 20.3594 345.71 19.0166C346.936 17.6649 347.549 16.3221 347.549 14.9883C347.549 13.735 347.079 12.9562 346.139 12.6519C345.199 12.3385 343.821 12.1819 342.004 12.1819H322.856ZM394.694 2.00366L397.393 12.1819H384.905V47H373.075V12.1819H360.547L363.287 2.00366H394.694ZM436.065 2.00366V47H424.235V33.8005L411.868 18.6138H411.761V47H399.931V2.00366H411.089L424.235 17.3516V2.00366H436.065ZM471.031 2.00366L473.73 12.1819H455.575V18.842H472.132L469.325 28.9666H455.575V36.8755H474.938L472.239 47H443.866V2.00366H471.031ZM479.262 47V13.5112H491.092V47H479.262ZM477.114 12.1819L479.812 2.00366H501.646C504.591 2.00366 507.093 2.50944 509.152 3.521C511.211 4.5236 512.746 5.90666 513.758 7.67017C514.778 9.43368 515.289 11.4165 515.289 13.6187C515.289 16.2236 514.519 18.7033 512.979 21.0576C511.448 23.4119 508.991 25.6812 505.607 27.8655C507.532 31.5089 509.398 34.6644 511.207 37.332C513.024 39.9907 515.486 43.2134 518.592 47L508.682 53.7676C506.677 51.4759 504.784 49.0544 503.002 46.5032C501.23 43.9519 499.578 41.3604 498.047 38.7285C496.526 36.0877 495.259 33.7513 494.247 31.7192C493.245 29.6872 492.336 27.7222 491.521 25.8245C492.927 24.8129 494.377 23.7611 495.872 22.6689C497.376 21.5768 498.741 20.3594 499.968 19.0166C501.194 17.6649 501.807 16.3221 501.807 14.9883C501.807 13.735 501.337 12.9562 500.397 12.6519C499.457 12.3385 498.079 12.1819 496.261 12.1819H477.114ZM518.901 36.8755H529.576C531.097 36.8755 532.208 36.7949 532.906 36.6338C533.613 36.4637 533.967 36.0519 533.967 35.3984C533.967 34.9867 533.859 34.6017 533.644 34.2437C533.438 33.8766 533.116 33.4604 532.677 32.9949C532.239 32.5204 532.011 32.2743 531.993 32.2563L524.07 23.2463C522.898 21.9394 521.944 20.807 521.21 19.8491C520.476 18.8823 519.832 17.7544 519.277 16.4653C518.731 15.1763 518.458 13.8245 518.458 12.4102C518.458 10.4587 518.914 8.69067 519.827 7.1062C520.749 5.52173 522.123 4.27743 523.949 3.37329C525.776 2.46021 528 2.00366 530.623 2.00366H543.326L546.078 12.1819H536.115C534.611 12.1819 533.519 12.2669 532.839 12.437C532.167 12.6071 531.832 13.0368 531.832 13.7261C531.832 14.1647 531.934 14.5541 532.14 14.8943C532.346 15.2345 532.883 15.87 533.752 16.801L541.996 25.9319C543.688 27.7581 545.027 29.4813 546.011 31.1016C547.005 32.7218 547.502 34.6107 547.502 36.7681C547.475 38.4779 547.162 39.9773 546.562 41.2664C545.962 42.5554 545.116 43.6252 544.024 44.4756C542.932 45.326 541.656 45.9616 540.197 46.3823C538.738 46.7941 537.122 47 535.35 47H521.6L518.901 36.8755Z" fill="white"/>
</svg>
