<svg width="561" height="65" viewBox="0 0 561 65" fill="none" xmlns="http://www.w3.org/2000/svg">
<path d="M71.8127 41.8755H82.4878C84.0096 41.8755 85.1196 41.7949 85.8179 41.6338C86.5251 41.4637 86.8787 41.0519 86.8787 40.3984C86.8787 39.9867 86.7712 39.6017 86.5564 39.2437C86.3505 38.8766 86.0282 38.4604 85.5896 37.9949C85.151 37.5204 84.9227 37.2743 84.9048 37.2563L76.9824 28.2463C75.8097 26.9394 74.8564 25.807 74.1223 24.8491C73.3883 23.8823 72.7437 22.7544 72.1887 21.4653C71.6427 20.1763 71.3696 18.8245 71.3696 17.4102C71.3696 15.4587 71.8262 13.6907 72.7393 12.1062C73.6613 10.5217 75.0354 9.27743 76.8616 8.37329C78.6877 7.46021 80.9123 7.00366 83.5352 7.00366H96.2378L98.9905 17.1819H89.0271C87.5232 17.1819 86.4311 17.2669 85.7507 17.437C85.0793 17.6071 84.7437 18.0368 84.7437 18.7261C84.7437 19.1647 84.8466 19.5541 85.0525 19.8943C85.2584 20.2345 85.7955 20.87 86.6638 21.801L94.9084 30.9319C96.6003 32.7581 97.9386 34.4813 98.9233 36.1016C99.917 37.7218 100.414 39.6107 100.414 41.7681C100.387 43.4779 100.074 44.9773 99.4739 46.2664C98.8741 47.5554 98.0282 48.6252 96.936 49.4756C95.8439 50.326 94.5683 50.9616 93.1091 51.3823C91.65 51.7941 90.0342 52 88.2617 52H74.5117L71.8127 41.8755ZM102.253 33.5234C102.253 30.5604 102.594 27.6018 103.274 24.6477C103.954 21.6936 104.863 18.8111 106 16.0002C107.146 13.1804 108.52 10.1816 110.122 7.00366H122.771C122.216 8.1853 121.477 9.77425 120.555 11.7705C119.642 13.7578 118.72 15.9555 117.789 18.3635C116.867 20.7716 116.075 23.3049 115.413 25.9636C114.75 28.6223 114.419 31.0662 114.419 33.2952C114.419 35.4167 114.768 37.1131 115.466 38.3843C116.174 39.6465 117.167 40.5461 118.447 41.0833C119.736 41.6114 121.289 41.8755 123.107 41.8755H127.39V7.00366H139.22V52H120.139C113.962 52 109.437 50.335 106.564 47.0049C103.69 43.6659 102.253 39.172 102.253 33.5234ZM158.462 7.00366V52H146.632V7.00366H158.462ZM166.29 7.00366H194.663L179.1 41.8755H194.113L191.306 52H161.671L177.18 17.1819H163.591L166.29 7.00366ZM202.706 58.3245C200.809 55.5225 199.166 52.2193 197.778 48.4148C196.4 44.6103 195.71 40.4701 195.71 35.9941C195.71 33.3265 196.037 30.5559 196.691 27.6824C197.344 24.8088 198.463 22.0069 200.048 19.2766C201.641 16.5463 203.754 14.2009 206.385 12.2405C208.999 10.2442 211.757 8.87459 214.657 8.13159C217.566 7.37964 221.281 7.00366 225.802 7.00366H231.63L234.436 17.1819H225.198C222.727 17.1819 220.453 17.4594 218.376 18.0144C216.309 18.5605 214.442 19.6034 212.777 21.1431C211.112 22.6738 209.845 24.8357 208.977 27.6287H220.686V18.5112H232.462V52H220.686V37.6995H207.755C207.755 40.0627 208.194 42.5558 209.071 45.1787C209.957 47.7926 211.023 50.0664 212.267 52L202.706 58.3245ZM259.371 52V18.5112H271.201V30.3813C272.857 29.513 274.424 28.5462 275.901 27.481C277.387 26.4157 278.604 25.2878 279.553 24.0972C280.511 22.8976 280.99 21.7115 280.99 20.5388C280.99 19.3303 280.556 18.4709 279.688 17.9607C278.819 17.4415 277.306 17.1819 275.149 17.1819H257.223L259.922 7.00366H278.291C281.326 7.00366 283.944 7.46916 286.146 8.40015C288.357 9.33114 290.058 10.7321 291.249 12.603C292.439 14.474 293.035 16.7522 293.035 19.4377C293.035 22.0159 292.395 24.4642 291.115 26.7827C289.834 29.0923 288.134 31.1915 286.012 33.0803C283.899 34.9692 281.563 36.6566 279.003 38.1426C276.451 39.6286 273.851 40.9132 271.201 41.9963V52H259.371ZM300.621 58.3245C298.724 55.5225 297.081 52.2193 295.693 48.4148C294.315 44.6103 293.625 40.4701 293.625 35.9941C293.625 33.3265 293.952 30.5559 294.606 27.6824C295.259 24.8088 296.378 22.0069 297.963 19.2766C299.556 16.5463 301.669 14.2009 304.301 12.2405C306.914 10.2442 309.672 8.87459 312.572 8.13159C315.481 7.37964 319.196 7.00366 323.717 7.00366H329.545L332.351 17.1819H323.113C320.642 17.1819 318.368 17.4594 316.292 18.0144C314.224 18.5605 312.357 19.6034 310.692 21.1431C309.027 22.6738 307.76 24.8357 306.892 27.6287H318.601V18.5112H330.377V52H318.601V37.6995H305.67C305.67 40.0627 306.109 42.5558 306.986 45.1787C307.872 47.7926 308.938 50.0664 310.182 52L300.621 58.3245ZM338.004 52V18.5112H349.834V52H338.004ZM335.856 17.1819L338.555 7.00366H360.388C363.333 7.00366 365.835 7.50944 367.894 8.521C369.953 9.5236 371.488 10.9067 372.5 12.6702C373.521 14.4337 374.031 16.4165 374.031 18.6187C374.031 21.2236 373.261 23.7033 371.721 26.0576C370.19 28.4119 367.733 30.6812 364.349 32.8655C366.274 36.5089 368.14 39.6644 369.949 42.332C371.766 44.9907 374.228 48.2134 377.334 52L367.424 58.7676C365.419 56.4759 363.526 54.0544 361.744 51.5032C359.972 48.9519 358.32 46.3604 356.79 43.7285C355.268 41.0877 354.001 38.7513 352.99 36.7192C351.987 34.6872 351.078 32.7222 350.264 30.8245C351.669 29.8129 353.119 28.7611 354.614 27.6689C356.118 26.5768 357.483 25.3594 358.71 24.0166C359.936 22.6649 360.549 21.3221 360.549 19.9883C360.549 18.735 360.079 17.9562 359.139 17.6519C358.199 17.3385 356.821 17.1819 355.004 17.1819H335.856ZM407.694 7.00366L410.393 17.1819H397.905V52H386.075V17.1819H373.547L376.287 7.00366H407.694ZM449.065 7.00366V52H437.235V38.8005L424.868 23.6138H424.761V52H412.931V7.00366H424.089L437.235 22.3516V7.00366H449.065ZM484.031 7.00366L486.73 17.1819H468.575V23.842H485.132L482.325 33.9666H468.575V41.8755H487.938L485.239 52H456.866V7.00366H484.031ZM492.262 52V18.5112H504.092V52H492.262ZM490.114 17.1819L492.812 7.00366H514.646C517.591 7.00366 520.093 7.50944 522.152 8.521C524.211 9.5236 525.746 10.9067 526.758 12.6702C527.778 14.4337 528.289 16.4165 528.289 18.6187C528.289 21.2236 527.519 23.7033 525.979 26.0576C524.448 28.4119 521.991 30.6812 518.607 32.8655C520.532 36.5089 522.398 39.6644 524.207 42.332C526.024 44.9907 528.486 48.2134 531.592 52L521.682 58.7676C519.677 56.4759 517.784 54.0544 516.002 51.5032C514.23 48.9519 512.578 46.3604 511.047 43.7285C509.526 41.0877 508.259 38.7513 507.247 36.7192C506.245 34.6872 505.336 32.7222 504.521 30.8245C505.927 29.8129 507.377 28.7611 508.872 27.6689C510.376 26.5768 511.741 25.3594 512.968 24.0166C514.194 22.6649 514.807 21.3221 514.807 19.9883C514.807 18.735 514.337 17.9562 513.397 17.6519C512.457 17.3385 511.079 17.1819 509.261 17.1819H490.114ZM531.901 41.8755H542.576C544.097 41.8755 545.208 41.7949 545.906 41.6338C546.613 41.4637 546.967 41.0519 546.967 40.3984C546.967 39.9867 546.859 39.6017 546.644 39.2437C546.438 38.8766 546.116 38.4604 545.677 37.9949C545.239 37.5204 545.011 37.2743 544.993 37.2563L537.07 28.2463C535.898 26.9394 534.944 25.807 534.21 24.8491C533.476 23.8823 532.832 22.7544 532.277 21.4653C531.731 20.1763 531.458 18.8245 531.458 17.4102C531.458 15.4587 531.914 13.6907 532.827 12.1062C533.749 10.5217 535.123 9.27743 536.949 8.37329C538.776 7.46021 541 7.00366 543.623 7.00366H556.326L559.078 17.1819H549.115C547.611 17.1819 546.519 17.2669 545.839 17.437C545.167 17.6071 544.832 18.0368 544.832 18.7261C544.832 19.1647 544.934 19.5541 545.14 19.8943C545.346 20.2345 545.883 20.87 546.752 21.801L554.996 30.9319C556.688 32.7581 558.027 34.4813 559.011 36.1016C560.005 37.7218 560.502 39.6107 560.502 41.7681C560.475 43.4779 560.162 44.9773 559.562 46.2664C558.962 47.5554 558.116 48.6252 557.024 49.4756C555.932 50.326 554.656 50.9616 553.197 51.3823C551.738 51.7941 550.122 52 548.35 52H534.6L531.901 41.8755Z" fill="white"/>
<path d="M7.22672 41.5661C8.20697 42.5463 8.20697 44.1367 7.22672 45.1169C6.24647 46.0972 4.65611 46.0972 3.67586 45.1169C2.69561 44.1367 2.69561 42.5463 3.67586 41.5661C4.65611 40.5858 6.24647 40.5858 7.22672 41.5661Z" fill="white"/>
<path d="M62.239 16.0331C62.239 17.1674 61.237 18.0872 60.0013 18.0872C58.7657 18.0872 57.7637 17.1674 57.7637 16.0331C57.7637 14.8987 58.7657 13.9789 60.0013 13.9789C61.237 13.9789 62.239 14.898 62.239 16.0331Z" fill="white"/>
<path d="M10.2314 43.3571C10.2314 43.5167 10.1019 43.6457 9.9424 43.6457C9.78286 43.6457 9.65381 43.5163 9.65381 43.3571C9.65381 43.198 9.78328 43.0685 9.9424 43.0685C10.1024 43.0681 10.2314 43.1976 10.2314 43.3571Z" fill="white"/>
<path d="M14.8611 15.8731C14.8611 16.0326 14.7317 16.1617 14.5725 16.1617C14.413 16.1617 14.2839 16.0322 14.2839 15.8731C14.2839 15.7135 14.4134 15.5845 14.5725 15.5845C14.7321 15.5841 14.8611 15.7135 14.8611 15.8731Z" fill="white"/>
<path d="M58.3413 31.05C58.3413 31.2096 58.2118 31.3386 58.0523 31.3386C57.8927 31.3386 57.7637 31.2091 57.7637 31.05C57.7637 30.8905 57.8927 30.7614 58.0523 30.7614C58.2118 30.761 58.3413 30.8905 58.3413 31.05Z" fill="white"/>
<path d="M57.222 20.9805C57.222 21.14 57.0925 21.2691 56.9334 21.2691C56.7743 21.2691 56.6448 21.14 56.6448 20.9805C56.6448 20.8209 56.7743 20.6919 56.9334 20.6919C57.0925 20.6919 57.222 20.8209 57.222 20.9805Z" fill="white"/>
<path d="M49.7815 12.5691C43.9887 17.2138 38.1963 16.6646 32.3977 12.5691C27.1571 16.3451 21.1475 17.3791 13.8311 12.5691C13.3375 30.1329 18.0736 44.6842 32.2507 51.7316C43.6538 45.5111 51.3168 34.6965 49.7815 12.5691ZM43.8893 35.3781H35.2348V43.5528H28.0224V35.3781H19.9961V27.9457H28.0224V20.3286H35.2348V27.9457H43.8893V35.3781Z" fill="white"/>
<g opacity="0.8">
<path opacity="0.8" d="M49.7815 12.5691C43.9887 17.2138 38.1963 16.6646 32.3977 12.5691C27.1571 16.3451 21.1475 17.3791 13.8311 12.5691C13.3375 30.1329 18.0736 44.6842 32.2507 51.7316C43.6538 45.5111 51.3168 34.6965 49.7815 12.5691ZM43.8893 35.3781H35.2348V43.5528H28.0224V35.3781H19.9961V27.9457H28.0224V20.3286H35.2348V27.9457H43.8893V35.3781Z" fill="white"/>
</g>
<path d="M46.7318 15.906C41.9263 19.7588 37.1208 19.3036 32.3108 15.906C27.963 19.0384 22.978 19.8966 16.9083 15.906C16.4986 30.4765 20.4274 42.5478 32.1888 48.3945C41.6481 43.234 48.0056 34.2625 46.7318 15.906ZM39.9838 34.2926H34.1518V39.8013H29.2916V34.2926H23.883V29.2841H29.2916V24.1512H34.1518V29.2841H39.9838V34.2926Z" fill="white"/>
<path d="M38.3637 23.1787C45.0349 29.5094 50.2651 36.0775 53.3314 41.5723C54.8654 44.3211 55.8497 46.7871 56.2091 48.8112C56.5698 50.8421 56.2929 52.3684 55.3925 53.3173C54.4921 54.2661 52.9823 54.6225 50.9353 54.3686C48.8952 54.1156 46.3811 53.2617 43.5557 51.8737C37.908 49.0992 31.0752 44.2199 24.404 37.8892C17.7329 31.5585 12.5026 24.9904 9.43638 19.4957C7.90239 16.7468 6.91811 14.2809 6.55862 12.2567C6.19794 10.2258 6.47483 8.6995 7.37527 7.75064C8.27571 6.80178 9.78543 6.44538 11.8324 6.69928C13.8726 6.95234 16.3867 7.80622 19.2121 9.19423C24.8597 11.9687 31.6926 16.8481 38.3637 23.1787Z" stroke="white" stroke-width="0.559417"/>
<path d="M40.4003 38.1881C34.4173 44.8328 28.1434 50.0613 22.8435 53.146C20.1921 54.6893 17.7986 55.6876 15.8164 56.0658C13.8288 56.4449 12.31 56.1918 11.3353 55.3142C10.3606 54.4365 9.95014 52.9526 10.1195 50.9362C10.2883 48.9254 11.031 46.4406 12.2887 43.6424C14.8025 38.0491 19.3465 31.263 25.3295 24.6182C31.3125 17.9735 37.5864 12.745 42.8863 9.66027C45.5377 8.11706 47.9313 7.11868 49.9134 6.74056C51.9011 6.36139 53.4198 6.6145 54.3945 7.49213C55.3692 8.36977 55.7797 9.85371 55.6103 11.8701C55.4415 13.8809 54.6988 16.3657 53.4412 19.1639C50.9273 24.7572 46.3833 31.5433 40.4003 38.1881Z" stroke="white" stroke-width="0.559417"/>
<path d="M33.1631 40.4833C24.6659 40.7058 16.9562 39.8311 11.3628 38.2439C8.56449 37.4498 6.31175 36.4818 4.75636 35.3953C3.19537 34.3047 2.38514 33.131 2.35374 31.9316C2.32233 30.7322 3.07001 29.5177 4.57179 28.347C6.06818 27.1805 8.26718 26.0959 11.0201 25.1565C16.5227 23.2787 24.1761 22.0017 32.6733 21.7792C41.1704 21.5567 48.8802 22.4314 54.4735 24.0186C57.2719 24.8127 59.5246 25.7807 61.08 26.8673C62.641 27.9578 63.4512 29.1315 63.4826 30.3309C63.514 31.5303 62.7663 32.7448 61.2646 33.9155C59.7682 35.082 57.5692 36.1666 54.8162 37.106C49.3136 38.9838 41.6602 40.2608 33.1631 40.4833Z" stroke="white" stroke-width="0.559417"/>
</svg>
