<svg width="311" height="43" viewBox="0 0 311 43" fill="none" xmlns="http://www.w3.org/2000/svg">
<rect x="14.9565" y="16.8262" width="14.9565" height="5.6087" fill="#D92527"/>
<rect x="18.6957" y="11.2173" width="7.47826" height="16.8261" fill="#D92527"/>
<path d="M53.2063 28.2628H60.3099C61.3225 28.2628 62.0612 28.2091 62.5258 28.1019C62.9964 27.9887 63.2317 27.7147 63.2317 27.2799C63.2317 27.0059 63.1602 26.7497 63.0173 26.5114C62.8803 26.2672 62.6658 25.9902 62.3739 25.6804C62.082 25.3647 61.9301 25.2009 61.9182 25.189L56.6464 19.1934C55.866 18.3237 55.2316 17.5701 54.7431 16.9328C54.2547 16.2894 53.8258 15.5388 53.4565 14.6811C53.0931 13.8233 52.9114 12.9238 52.9114 11.9826C52.9114 10.684 53.2152 9.5075 53.8228 8.45313C54.4364 7.39876 55.3507 6.57075 56.566 5.96911C57.7812 5.36151 59.2614 5.0577 61.0068 5.0577H69.4596L71.2914 11.8307H64.6614C63.6606 11.8307 62.9339 11.8873 62.4811 12.0005C62.0344 12.1136 61.811 12.3996 61.811 12.8582C61.811 13.1501 61.8795 13.4093 62.0165 13.6356C62.1535 13.862 62.5109 14.2849 63.0887 14.9044L68.575 20.9805C69.7009 22.1957 70.5914 23.3424 71.2467 24.4206C71.9079 25.4988 72.2385 26.7557 72.2385 28.1913C72.2207 29.329 72.0122 30.3268 71.6131 31.1846C71.2139 32.0424 70.651 32.7543 69.9243 33.3202C69.1975 33.8861 68.3487 34.309 67.3777 34.589C66.4067 34.863 65.3315 35 64.1521 35H55.0023L53.2063 28.2628ZM73.4627 22.705C73.4627 20.7333 73.689 18.7645 74.1418 16.7987C74.5945 14.833 75.1991 12.9148 75.9556 11.0444C76.7181 9.16796 77.6325 7.1724 78.6988 5.0577H87.1159C86.7465 5.84401 86.2551 6.90136 85.6415 8.22975C85.0339 9.55218 84.4204 11.0146 83.8008 12.617C83.1873 14.2194 82.6601 15.9052 82.2193 17.6744C81.7785 19.4436 81.5581 21.0698 81.5581 22.5531C81.5581 23.9649 81.7904 25.0937 82.255 25.9396C82.7256 26.7795 83.3868 27.3782 84.2387 27.7356C85.0965 28.087 86.13 28.2628 87.3392 28.2628H90.1896V5.0577H98.0616V35H85.3645C81.2543 35 78.2431 33.892 76.3309 31.6761C74.4187 29.4541 73.4627 26.4638 73.4627 22.705ZM110.866 5.0577V35H102.994V5.0577H110.866ZM116.075 5.0577H134.956L124.6 28.2628H134.589L132.722 35H113.002L123.322 11.8307H114.279L116.075 5.0577ZM140.308 39.2085C139.045 37.344 137.952 35.1459 137.029 32.6143C136.111 30.0826 135.653 27.3275 135.653 24.3491C135.653 22.5739 135.87 20.7303 136.305 18.8181C136.74 16.906 137.484 15.0414 138.539 13.2246C139.599 11.4077 141.005 9.84704 142.756 8.54248C144.496 7.2141 146.33 6.30269 148.26 5.80827C150.196 5.30789 152.668 5.0577 155.677 5.0577H159.555L161.422 11.8307H155.275C153.63 11.8307 152.117 12.0153 150.735 12.3847C149.359 12.748 148.117 13.442 147.009 14.4666C145.901 15.4852 145.058 16.9238 144.481 18.7824H152.272V12.7153H160.109V35H152.272V25.4839H143.668C143.668 27.0565 143.959 28.7155 144.543 30.4609C145.133 32.2003 145.842 33.7133 146.67 35L140.308 39.2085ZM202.06 5.0577V35H194.188V26.2166L185.958 16.1107H185.887V35H178.015V5.0577H185.44L194.188 15.2708V5.0577H202.06ZM210.254 39.2085C208.991 37.344 207.898 35.1459 206.974 32.6143C206.057 30.0826 205.598 27.3275 205.598 24.3491C205.598 22.5739 205.816 20.7303 206.251 18.8181C206.685 16.906 207.43 15.0414 208.484 13.2246C209.545 11.4077 210.951 9.84704 212.702 8.54248C214.441 7.2141 216.276 6.30269 218.206 5.80827C220.142 5.30789 222.614 5.0577 225.622 5.0577H229.5L231.368 11.8307H225.22C223.576 11.8307 222.063 12.0153 220.681 12.3847C219.305 12.748 218.063 13.442 216.955 14.4666C215.847 15.4852 215.004 16.9238 214.426 18.7824H222.218V12.7153H230.054V35H222.218V25.4839H213.613C213.613 27.0565 213.905 28.7155 214.489 30.4609C215.079 32.2003 215.788 33.7133 216.616 35L210.254 39.2085ZM239.776 5.0577L244.136 24.8584H244.208L248.559 5.0577H256.941L248.783 35H239.562L231.43 5.0577H239.776ZM261.542 39.2085C260.28 37.344 259.187 35.1459 258.263 32.6143C257.346 30.0826 256.887 27.3275 256.887 24.3491C256.887 22.5739 257.105 20.7303 257.539 18.8181C257.974 16.906 258.719 15.0414 259.773 13.2246C260.834 11.4077 262.239 9.84704 263.991 8.54248C265.73 7.2141 267.565 6.30269 269.495 5.80827C271.431 5.30789 273.903 5.0577 276.911 5.0577H280.789L282.657 11.8307H276.509C274.865 11.8307 273.352 12.0153 271.97 12.3847C270.594 12.748 269.352 13.442 268.244 14.4666C267.136 15.4852 266.293 16.9238 265.715 18.7824H273.507V12.7153H281.343V35H273.507V25.4839H264.902C264.902 27.0565 265.194 28.7155 265.778 30.4609C266.368 32.2003 267.076 33.7133 267.904 35L261.542 39.2085ZM294.139 5.0577V28.2628H304.495L302.672 35H286.347V5.0577H294.139Z" fill="white"/>
<path d="M39.4656 34.6685C39.4656 34.6685 39.5183 34.5951 39.6248 34.4556C39.6516 34.4207 39.6815 34.3817 39.7145 34.3385C39.7447 34.2934 39.772 34.2399 39.8049 34.184C39.8692 34.0713 39.9497 33.9434 40.0072 33.7818C40.0388 33.7025 40.0764 33.6199 40.1083 33.5302C40.1338 33.4382 40.1606 33.3414 40.1888 33.24C40.2216 33.1395 40.2388 33.0306 40.2561 32.9167C40.2709 32.8027 40.3022 32.6858 40.3059 32.5607C40.3597 32.0638 40.3267 31.484 40.2268 30.8441C40.0272 29.5601 39.4795 28.0479 38.6408 26.4046C37.8036 24.7575 36.6508 22.9859 35.2344 21.1394C33.8174 19.2922 32.1138 17.3844 30.1552 15.4687C28.1946 13.5554 25.975 11.633 23.487 9.81137C22.2422 8.90217 20.9293 8.02015 19.5451 7.18944C18.1623 6.35678 16.7043 5.58053 15.1667 4.90759C13.6289 4.24314 12.0063 3.66412 10.295 3.38974C9.44213 3.25904 8.56234 3.19588 7.69715 3.32618C7.26563 3.39219 6.84152 3.5091 6.44208 3.68742C6.04912 3.87811 5.68762 4.13206 5.38884 4.45304C5.10178 4.78455 4.88771 5.16982 4.74141 5.57961C4.60908 5.99451 4.53855 6.42637 4.52221 6.86028C4.48931 7.72962 4.65278 8.59161 4.88021 9.41926C5.34884 11.0785 6.11245 12.6153 6.95163 14.0588C7.79934 15.5009 8.74124 16.8528 9.73114 18.1237C10.7192 19.3962 11.7504 20.5926 12.801 21.7185C14.9053 23.9683 17.0796 25.9417 19.2155 27.6601C21.3534 29.3762 23.4543 30.8414 25.462 32.0304C27.469 33.2189 29.3708 34.1555 31.1123 34.7947C32.8504 35.4358 34.4241 35.8045 35.7301 35.8554C36.3811 35.8812 36.9643 35.8478 37.4547 35.7381C37.5792 35.7202 37.6925 35.676 37.8049 35.6484C37.9168 35.6185 38.0236 35.589 38.1203 35.5452C38.2185 35.5059 38.3122 35.4684 38.4012 35.4328C38.4873 35.391 38.5654 35.3445 38.6411 35.3043C38.796 35.2292 38.9147 35.1351 39.0201 35.0588C39.0722 35.0198 39.1226 34.987 39.1642 34.9519C39.2036 34.9144 39.2392 34.8805 39.271 34.85C39.3982 34.729 39.4656 34.6685 39.4656 34.6685C39.4656 34.6685 39.4035 34.7336 39.2781 34.8576C39.2466 34.8886 39.2114 34.9234 39.1725 34.9617C39.1313 34.9975 39.0812 35.0313 39.0294 35.071C38.9245 35.1492 38.8062 35.2451 38.6512 35.3221C38.5755 35.3632 38.4971 35.4107 38.411 35.4535C38.3217 35.4901 38.2279 35.5287 38.1294 35.569C38.0323 35.6138 37.9251 35.6443 37.8129 35.6753C37.7002 35.7039 37.5862 35.749 37.4612 35.7678C36.9685 35.8813 36.3824 35.918 35.7284 35.8951C34.4163 35.8501 32.8364 35.4857 31.0924 34.8483C29.3449 34.2126 27.4374 33.2788 25.4249 32.0924C23.4117 30.9054 21.3053 29.4415 19.1621 27.7258C17.021 26.0079 14.8417 24.0342 12.7319 21.7824C11.6787 20.6556 10.6447 19.4578 9.65372 18.1831C8.66104 16.9101 7.71606 15.5556 6.86496 14.1089C6.02239 12.6609 5.25487 11.1187 4.78202 9.44634C4.55274 8.61195 4.3868 7.74147 4.42001 6.85649C4.43666 6.41482 4.50833 5.97325 4.64435 5.54711C4.79456 5.12577 5.01551 4.72763 5.31255 4.38519C5.6212 4.05317 5.99483 3.79094 6.39879 3.59514C6.80903 3.41191 7.2427 3.29276 7.68193 3.22552C8.56254 3.09318 9.45118 3.15776 10.311 3.28959C12.0359 3.56663 13.6642 4.14892 15.2071 4.81613C16.7494 5.49182 18.2106 6.27073 19.5958 7.10605C20.9823 7.93942 22.297 8.82399 23.5431 9.73575C26.0337 11.5625 28.2542 13.4899 30.2149 15.4084C32.1736 17.3294 33.8764 19.2428 35.2921 21.0957C36.707 22.9479 37.8576 24.7255 38.692 26.3787C39.5278 28.0284 40.0719 29.5472 40.2663 30.8378C40.3637 31.4811 40.3938 32.0642 40.3363 32.5636C40.3318 32.6892 40.2996 32.8069 40.2839 32.9214C40.2657 33.0359 40.2475 33.1452 40.2138 33.2462C40.1846 33.3481 40.1568 33.4452 40.1304 33.5374C40.0975 33.6275 40.0588 33.7103 40.0263 33.7897C39.9669 33.9515 39.8845 34.0794 39.8183 34.1918C39.7845 34.2476 39.7564 34.3008 39.7254 34.3456C39.6914 34.3883 39.6607 34.427 39.6333 34.4617C39.5234 34.5998 39.4656 34.6685 39.4656 34.6685Z" fill="white"/>
<path d="M0 19.5457C0 19.5457 0.00976742 19.4561 0.0236475 19.2814C0.0270404 19.2377 0.0309475 19.1887 0.035163 19.1347C0.0428741 19.0809 0.0582965 19.023 0.0711484 18.9595C0.0986001 18.8327 0.124201 18.6841 0.189592 18.5254C0.219202 18.4454 0.246346 18.3589 0.28264 18.2709C0.325205 18.1853 0.370033 18.0954 0.416917 18.0011C0.459688 17.9045 0.519835 17.8117 0.583169 17.7153C0.648457 17.6204 0.703463 17.5125 0.784482 17.4167C1.07699 17.0103 1.49 16.5995 1.99318 16.188C3.002 15.3619 4.42353 14.5958 6.15001 13.9243C7.87782 13.2493 9.92457 12.6899 12.2182 12.249C14.5127 11.808 17.0617 11.5115 19.8064 11.3777C22.5508 11.247 25.4947 11.2811 28.5714 11.5678C30.1092 11.7129 31.6797 11.9233 33.269 12.2192C34.8585 12.5127 36.4665 12.898 38.0645 13.4133C39.6571 13.9349 41.2557 14.5763 42.7166 15.5038C43.4405 15.9705 44.1395 16.5055 44.6979 17.1752C44.9757 17.5099 45.2138 17.8778 45.3925 18.2752C45.558 18.6774 45.6578 19.1062 45.6658 19.5434C45.658 19.9806 45.5597 20.4097 45.3944 20.8125C45.2153 21.2097 44.9787 21.5786 44.7003 21.9132C44.1427 22.5838 43.4433 23.1188 42.7194 23.586C41.2584 24.5142 39.6594 25.1558 38.0665 25.6777C36.468 26.1931 34.8597 26.5786 33.2699 26.8721C31.6803 27.1681 30.1095 27.3786 28.5715 27.5237C25.4943 27.8104 22.5501 27.8445 19.8054 27.7138C17.0606 27.5799 14.5115 27.2834 12.2169 26.8423C9.92333 26.4013 7.87669 25.842 6.14898 25.1669C4.42261 24.4954 3.00118 23.7292 1.99256 22.9032C1.48949 22.4918 1.07658 22.081 0.78407 21.6746C0.703155 21.5788 0.648148 21.471 0.582758 21.3761C0.519423 21.2797 0.459379 21.1869 0.416608 21.0903C0.369621 20.996 0.324897 20.9061 0.282331 20.8205C0.24614 20.7325 0.218894 20.646 0.189386 20.566C0.123995 20.4074 0.0984972 20.2587 0.0710455 20.132C0.0581935 20.0685 0.0426684 20.0106 0.03506 19.9569C0.0308446 19.9029 0.0269376 19.8539 0.0235447 19.8102C0.00976747 19.6353 0 19.5457 0 19.5457C0 19.5457 0.00267317 19.6353 0.0132632 19.8108C0.0159364 19.8548 0.0189181 19.904 0.022311 19.9584C0.0290969 20.0124 0.0437994 20.0707 0.0559317 20.1346C0.0818411 20.2623 0.1059 20.4122 0.170057 20.5723C0.199051 20.6531 0.225577 20.7404 0.261357 20.8293C0.303511 20.9157 0.347722 21.0065 0.394194 21.1018C0.436657 21.1994 0.496187 21.2931 0.559316 21.3905C0.624295 21.4863 0.679096 21.5955 0.759806 21.6921C1.05149 22.1028 1.46419 22.518 1.96758 22.9336C2.97692 23.7681 4.39988 24.5415 6.12831 25.2196C7.85808 25.9014 9.90699 26.4666 12.2035 26.9128C14.5008 27.3591 17.0531 27.6602 19.8015 27.798C22.5499 27.9326 25.498 27.9016 28.5805 27.6171C30.1212 27.473 31.695 27.2633 33.2881 26.9677C34.8815 26.6745 36.4938 26.2888 38.0977 25.7725C39.6963 25.2493 41.3019 24.6062 42.7748 23.6711C43.5047 23.2002 44.2116 22.6603 44.7795 21.9779C45.0629 21.6373 45.3051 21.2603 45.489 20.8523C45.6591 20.4385 45.7609 19.9952 45.7686 19.5431C45.7607 19.0912 45.6574 18.6483 45.4871 18.2349C45.3037 17.8267 45.0599 17.4509 44.777 17.1101C44.2086 16.4287 43.5021 15.8889 42.7721 15.4184C41.2994 14.4839 39.6943 13.841 38.0961 13.3182C36.4926 12.8021 34.8804 12.4165 33.2874 12.1234C31.6946 11.8279 30.1211 11.6183 28.5806 11.4742C25.4986 11.1896 22.5507 11.1587 19.8026 11.2932C17.0543 11.4309 14.5021 11.7319 12.2048 12.1782C9.90832 12.6242 7.85931 13.1895 6.12944 13.8712C4.40091 14.5493 2.97774 15.3227 1.9682 16.1572C1.46471 16.5729 1.0518 16.9879 0.760115 17.3988C0.679302 17.4954 0.624501 17.6046 0.559522 17.7005C0.496496 17.7979 0.43676 17.8916 0.3944 17.9892C0.347927 18.0845 0.303614 18.1754 0.261562 18.2618C0.225886 18.3508 0.199256 18.438 0.170262 18.5188C0.106208 18.6789 0.0820467 18.8288 0.0561372 18.9566C0.0441078 19.0205 0.0293024 19.0788 0.0225166 19.1328C0.0192265 19.1872 0.0161421 19.2364 0.0134689 19.2805C0.00277607 19.456 0 19.5457 0 19.5457Z" fill="white"/>
<path d="M37.4173 0.722649C37.4173 0.722649 37.34 0.675437 37.1927 0.579376C37.1558 0.555259 37.1145 0.52828 37.0689 0.498543C37.0215 0.471666 36.966 0.448367 36.9076 0.419549C36.7899 0.363445 36.6561 0.292422 36.4898 0.24664C36.4081 0.220888 36.3226 0.189208 36.2304 0.16366C36.1363 0.144754 36.0373 0.124725 35.9336 0.103878C35.8306 0.0783298 35.7199 0.068724 35.6045 0.0594245C35.489 0.0525777 35.3694 0.0295845 35.2437 0.034694C34.7414 0.015482 34.1616 0.0882425 33.5262 0.231413C32.2512 0.517755 30.7711 1.16504 29.1793 2.1099C27.584 3.05354 25.8851 4.31858 24.1294 5.85023C22.373 7.38249 20.5753 9.20314 18.7874 11.2772C17.002 13.353 15.2254 15.6865 13.5684 18.279C12.7415 19.5759 11.9467 20.9385 11.2082 22.3683C10.4678 23.7967 9.78908 25.296 9.21959 26.867C8.65862 28.4376 8.18927 30.0863 8.03176 31.8021C7.95927 32.6568 7.9566 33.5336 8.14691 34.3825C8.24294 34.8059 8.38945 35.2183 8.59591 35.602C8.81429 35.9785 9.09415 36.3195 9.43694 36.5937C9.78939 36.8555 10.1909 37.0412 10.6122 37.1581C11.0378 37.2607 11.4761 37.3009 11.9127 37.2873C12.7877 37.26 13.6416 37.0386 14.4565 36.7561C16.0897 36.1771 17.5796 35.3141 18.9705 34.3825C20.3596 33.4426 21.6516 32.4155 22.859 31.3465C24.0682 30.2791 25.1979 29.1742 26.2557 28.0549C28.369 25.8133 30.1999 23.5214 31.7775 21.2853C33.3527 19.0471 34.6786 16.8629 35.7338 14.7903C36.7884 12.7184 37.5976 10.768 38.1192 8.99712C38.643 7.22951 38.9048 5.6437 38.8658 4.34525C38.8469 3.69796 38.7732 3.12191 38.6292 2.64324C38.6027 2.52102 38.5507 2.41168 38.5152 2.30223C38.4774 2.19339 38.4404 2.08947 38.3898 1.99657C38.3435 1.90194 38.2995 1.81161 38.2575 1.72587C38.2096 1.6435 38.1576 1.5691 38.112 1.49685C38.026 1.34837 37.9234 1.23719 37.8394 1.13796C37.7968 1.08901 37.7602 1.04128 37.7223 1.00245C37.6819 0.965968 37.6454 0.93296 37.6127 0.903426C37.4826 0.785293 37.4173 0.722649 37.4173 0.722649C37.4173 0.722649 37.4869 0.779672 37.62 0.895456C37.6533 0.92458 37.6906 0.957078 37.7318 0.992947C37.7706 1.03137 37.8079 1.07869 37.8514 1.12733C37.9371 1.22584 38.0415 1.33672 38.1295 1.4851C38.176 1.55735 38.2291 1.63175 38.278 1.71422C38.3209 1.80016 38.3659 1.8907 38.4132 1.98554C38.4648 2.07863 38.5027 2.18287 38.5416 2.29211C38.5781 2.40187 38.6312 2.51182 38.6587 2.63445C38.8066 3.11516 38.8838 3.69377 38.9059 4.34382C38.951 5.64799 38.6942 7.23963 38.1745 9.01286C37.6568 10.7894 36.8509 12.7452 35.7987 14.8225C34.746 16.9005 33.4218 19.0899 31.8474 21.3333C30.2705 23.5747 28.4397 25.8716 26.3249 28.1187C25.2663 29.2407 24.1353 30.3485 22.9243 31.4189C21.7149 32.4909 20.4204 33.5212 19.0271 34.4649C17.6317 35.4001 16.1367 36.2673 14.4907 36.8513C13.669 37.1363 12.8067 37.3607 11.9162 37.3887C11.4718 37.4026 11.0236 37.362 10.5865 37.2563C10.1533 37.1364 9.73839 36.9447 9.37422 36.6738C9.01971 36.3907 8.7308 36.0383 8.50646 35.6511C8.29425 35.2569 8.14475 34.8352 8.04708 34.4043C7.85358 33.5402 7.85718 32.6545 7.93028 31.7928C8.08954 30.0635 8.56177 28.4087 9.1252 26.8329C9.69716 25.257 10.3783 23.7544 11.1213 22.3234C11.8623 20.8911 12.6595 19.5267 13.4888 18.2283C15.1508 15.6329 16.9323 13.2983 18.7229 11.2219C20.5162 9.14734 22.3193 7.3271 24.0816 5.79576C25.8432 4.26513 27.5481 3.00183 29.15 2.06065C30.7483 1.11823 32.2352 0.474221 33.5173 0.192478C34.1563 0.0516581 34.7394 -0.0183435 35.2447 0.00413871C35.3711 -5.11516e-05 35.4915 0.0237594 35.6076 0.0314238C35.7236 0.0416429 35.8347 0.0520667 35.9383 0.0786366C36.0426 0.100506 36.1419 0.121352 36.2364 0.141178C36.329 0.167645 36.4147 0.200245 36.4967 0.226917C36.6633 0.27464 36.7973 0.347606 36.9147 0.405446C36.973 0.435184 37.0283 0.459301 37.0755 0.487097C37.1207 0.517857 37.1617 0.545551 37.1983 0.570486C37.3443 0.669918 37.4173 0.722649 37.4173 0.722649Z" fill="white"/>
<path d="M4.58333 28.8519C5.43002 29.6934 5.43002 31.0579 4.58333 31.8994C3.73665 32.741 2.36386 32.741 1.51717 31.8994C0.670383 31.0579 0.670383 29.6934 1.51717 28.8519C2.36386 28.0103 3.73665 28.0103 4.58333 28.8519Z" fill="white"/>
<path d="M44.1978 9.3734C44.1978 10.1105 43.5965 10.7081 42.8548 10.7081C42.1132 10.7081 41.512 10.1105 41.512 9.3734C41.512 8.63619 42.1132 8.03857 42.8548 8.03857C43.5965 8.03857 44.1978 8.63619 44.1978 9.3734Z" fill="white"/>
<path d="M9.76829 8.05327C9.76829 8.17171 9.67164 8.26777 9.55248 8.26777C9.43332 8.26777 9.33667 8.17181 9.33667 8.05327C9.33667 7.93483 9.43332 7.83887 9.55248 7.83887C9.67164 7.83887 9.76829 7.93483 9.76829 8.05327Z" fill="#FF4F5B"/>
<path d="M43.436 19.5465C43.436 19.665 43.3394 19.761 43.2202 19.761C43.1011 19.761 43.0045 19.6651 43.0045 19.5465C43.0045 19.4281 43.1011 19.332 43.2202 19.332C43.3394 19.332 43.436 19.4281 43.436 19.5465Z" fill="#FF4F5B"/>
<path d="M35.8606 5.59961C31.5323 9.04889 26.8 8.64094 22.4675 5.59961C18.5517 8.40396 14.4657 9.17203 8.99869 5.59961C8.62989 18.6435 12.1685 29.4502 22.7618 34.684C31.2818 30.0642 37.0077 22.0325 35.8606 5.59961ZM29.8114 21.9657H24.5376V26.9168H20.1427V21.9657H15.2518V17.4642H20.1427V12.8507H24.5376V17.4642H29.8114V21.9657Z" fill="white"/>
</svg>
