<svg width="496" height="496" viewBox="0 0 496 496" fill="none" xmlns="http://www.w3.org/2000/svg">
<path d="M128 344C128 330.768 117.232 320 104 320C90.768 320 80 330.768 80 344C80 354.416 86.712 363.216 96 366.528V417.48C86.712 420.792 80 429.592 80 440.008C80 453.24 90.768 464.008 104 464.008C117.232 464.008 128 453.24 128 440.008C128 429.592 121.288 420.792 112 417.48V366.528C121.288 363.216 128 354.416 128 344ZM104 336C108.408 336 112 339.584 112 344C112 348.416 108.408 352 104 352C99.592 352 96 348.416 96 344C96 339.584 99.592 336 104 336ZM104 448C99.592 448 96 444.416 96 440C96 435.584 99.592 432 104 432C108.408 432 112 435.584 112 440C112 444.416 108.408 448 104 448Z" fill="#333333"/>
<path d="M184 417.136V366.864C197.76 363.288 208 350.872 208 336C208 318.352 193.648 304 176 304C158.352 304 144 318.352 144 336C144 350.872 154.24 363.288 168 366.864V417.136C154.24 420.712 144 433.128 144 448C144 465.648 158.352 480 176 480C193.648 480 208 465.648 208 448C208 433.128 197.76 420.712 184 417.136ZM160 336C160 327.176 167.176 320 176 320C184.824 320 192 327.176 192 336C192 344.824 184.824 352 176 352C167.176 352 160 344.824 160 336ZM176 464C167.176 464 160 456.824 160 448C160 439.176 167.176 432 176 432C184.824 432 192 439.176 192 448C192 456.824 184.824 464 176 464Z" fill="#333333"/>
<path d="M416 344C416 330.768 405.232 320 392 320C378.768 320 368 330.768 368 344C368 354.416 374.712 363.216 384 366.528V417.48C374.712 420.792 368 429.592 368 440.008C368 453.24 378.768 464.008 392 464.008C405.232 464.008 416 453.24 416 440.008C416 429.592 409.288 420.792 400 417.48V366.528C409.288 363.216 416 354.416 416 344ZM392 336C396.408 336 400 339.584 400 344C400 348.416 396.408 352 392 352C387.592 352 384 348.416 384 344C384 339.584 387.592 336 392 336ZM392 448C387.592 448 384 444.416 384 440C384 435.584 387.592 432 392 432C396.408 432 400 435.584 400 440C400 444.416 396.408 448 392 448Z" fill="#333333"/>
<path d="M352 336C352 318.352 337.648 304 320 304C302.352 304 288 318.352 288 336C288 350.872 298.24 363.288 312 366.864V417.136C298.24 420.712 288 433.128 288 448C288 465.648 302.352 480 320 480C337.648 480 352 465.648 352 448C352 433.128 341.76 420.712 328 417.136V366.864C341.76 363.288 352 350.872 352 336ZM304 336C304 327.176 311.176 320 320 320C328.824 320 336 327.176 336 336C336 344.824 328.824 352 320 352C311.176 352 304 344.824 304 336ZM336 448C336 456.824 328.824 464 320 464C311.176 464 304 456.824 304 448C304 439.176 311.176 432 320 432C328.824 432 336 439.176 336 448Z" fill="#333333"/>
<path d="M472 433.136V350.864C485.76 347.288 496 334.872 496 320C496 308.184 489.488 297.952 479.936 292.416V281.52C479.936 262.936 472.696 245.456 459.552 232.304C449.24 221.992 436.176 215.272 421.784 212.864L398.328 208.952L393.352 190.52C407.296 181.96 417.696 168.232 421.896 152H424C441.648 152 456 137.648 456 120C456 113.064 453.728 106.68 449.96 101.432C453.848 92.384 456 82.568 456 72.72C456 32.624 423.376 0 383.28 0H368C361.928 0 356.304 1.792 351.464 4.744C347.168 1.696 342.088 0 336.72 0C296.624 0 264 32.624 264 72.72C264 82.568 266.152 92.376 270.04 101.432C266.272 106.68 264 113.064 264 120C264 137.648 278.352 152 296 152H298.104C302.304 168.216 312.672 181.92 326.592 190.488L321.608 208.952L298.152 212.864C283.76 215.264 270.696 221.992 260.384 232.304C255.36 237.32 251.224 242.984 248 249.088C244.776 242.984 240.632 237.328 235.616 232.304C225.304 221.992 212.24 215.272 197.848 212.864L174.392 208.952L169.408 190.488C183.328 181.92 193.704 168.216 197.896 152H200C217.648 152 232 137.648 232 120C232 113.064 229.728 106.68 225.96 101.432C229.848 92.384 232 82.568 232 72.72C232 32.624 199.376 0 159.28 0H144C137.928 0 132.304 1.792 127.464 4.744C123.168 1.696 118.088 0 112.72 0C72.624 0 40 32.624 40 72.72C40 82.568 42.152 92.376 46.04 101.432C42.272 106.68 40 113.064 40 120C40 137.648 54.352 152 72 152H74.104C78.304 168.232 88.704 181.96 102.648 190.52L97.672 208.952L74.216 212.864C59.824 215.264 46.76 221.992 36.448 232.304C23.296 245.456 16.064 262.936 16.064 281.52V292.416C6.512 297.952 0 308.184 0 320C0 334.872 10.24 347.288 24 350.864V433.136C10.24 436.712 0 449.128 0 464C0 481.648 14.352 496 32 496C49.648 496 64 481.648 64 464C64 449.128 53.76 436.712 40 433.136V350.864C53.76 347.288 64 334.872 64 320C64 302.376 49.68 288.04 32.064 288.008V281.52C32.064 267.208 37.64 253.744 47.76 243.616C55.704 235.672 65.76 230.496 76.848 228.648L110.448 223.048L117.408 197.232C123.304 199.016 129.536 200 136 200C142.488 200 148.744 199.016 154.648 197.208L161.616 223.04L195.216 228.64C206.304 230.488 216.368 235.664 224.304 243.608C234.424 253.736 240 267.192 240 281.512V289.472C230.712 292.784 224 301.584 224 312C224 322.416 230.712 331.216 240 334.528V352.808C221.768 356.528 208 372.68 208 392C208 411.32 221.768 427.472 240 431.192V449.472C230.712 452.784 224 461.584 224 472C224 485.232 234.768 496 248 496C261.232 496 272 485.232 272 472C272 461.584 265.288 452.784 256 449.472V431.192C274.232 427.472 288 411.32 288 392C288 372.68 274.232 356.528 256 352.808V334.528C265.288 331.216 272 322.416 272 312C272 301.584 265.288 292.784 256 289.472V281.512C256 267.192 261.576 253.736 271.696 243.608C279.64 235.664 289.696 230.488 300.784 228.64L334.384 223.04L341.352 197.208C347.256 199.016 353.512 200 360 200C366.464 200 372.696 199.016 378.584 197.224L385.544 223.04L419.144 228.64C430.232 230.488 440.296 235.664 448.232 243.608C458.36 253.736 463.928 267.2 463.928 281.512V288C446.32 288.04 432 302.376 432 320C432 334.872 442.24 347.288 456 350.864V433.136C442.24 436.712 432 449.128 432 464C432 481.648 446.352 496 464 496C481.648 496 496 481.648 496 464C496 449.128 485.76 436.712 472 433.136V433.136ZM48 464C48 472.824 40.824 480 32 480C23.176 480 16 472.824 16 464C16 455.176 23.176 448 32 448C40.824 448 48 455.176 48 464ZM48 320C48 328.824 40.824 336 32 336C23.176 336 16 328.824 16 320C16 311.176 23.176 304 32 304C40.824 304 48 311.176 48 320ZM200 136V104C208.824 104 216 111.176 216 120C216 128.824 208.824 136 200 136ZM144 16H159.28C190.552 16 216 41.448 216 72.72C216 78.856 214.928 84.984 212.968 90.8C209 89.032 204.624 88 200 88V85.864C201.056 84.576 202.096 83.28 203.032 81.872L206.656 76.432L193.344 67.56L189.72 73C183.456 82.392 172.984 88 161.688 88C143.112 88 128 72.888 128 54.312V32C128 23.176 135.176 16 144 16ZM56 120C56 111.176 63.176 104 72 104V136C63.176 136 56 128.824 56 120ZM73.496 88H72C67.376 88 63 89.032 59.032 90.808C57.072 84.984 56 78.856 56 72.72C56 41.448 81.448 16 112.72 16C113.896 16 115.016 16.264 116.088 16.664C113.568 21.24 112 26.416 112 32V54.312C112 55.36 112.096 56.384 112.16 57.408L104.152 59.008C88.992 62.048 77.352 73.584 73.496 88V88ZM88 136V98.232C88 86.832 96.112 76.936 107.288 74.696L115.688 73.016C123.096 91.168 140.912 104 161.688 104C169.584 104 177.176 102.088 184 98.656V136C184 162.472 162.472 184 136 184C109.528 184 88 162.472 88 136ZM248 480C243.592 480 240 476.416 240 472C240 467.584 243.592 464 248 464C252.408 464 256 467.584 256 472C256 476.416 252.408 480 248 480ZM272 392C272 405.232 261.232 416 248 416C234.768 416 224 405.232 224 392C224 378.768 234.768 368 248 368C261.232 368 272 378.768 272 392ZM248 320C243.592 320 240 316.416 240 312C240 307.584 243.592 304 248 304C252.408 304 256 307.584 256 312C256 316.416 252.408 320 248 320ZM424 136V104C432.824 104 440 111.176 440 120C440 128.824 432.824 136 424 136ZM368 16H383.28C414.552 16 440 41.448 440 72.72C440 78.856 438.928 84.984 436.968 90.8C433 89.032 428.624 88 424 88V85.864C425.056 84.576 426.096 83.28 427.032 81.872L430.656 76.432L417.344 67.56L413.72 73C407.456 82.392 396.984 88 385.688 88C367.112 88 352 72.888 352 54.312V32C352 23.176 359.176 16 368 16ZM280 120C280 111.176 287.176 104 296 104V136C287.176 136 280 128.824 280 120ZM297.496 88H296C291.376 88 287 89.032 283.032 90.808C281.072 84.984 280 78.856 280 72.72C280 41.448 305.448 16 336.72 16C337.896 16 339.016 16.264 340.088 16.664C337.568 21.24 336 26.416 336 32V54.312C336 55.36 336.096 56.384 336.16 57.408L328.152 59.008C312.992 62.048 301.352 73.584 297.496 88V88ZM312 136V98.232C312 86.832 320.112 76.936 331.288 74.696L339.688 73.016C347.096 91.168 364.912 104 385.688 104C393.584 104 401.176 102.088 408 98.656V136C408 162.472 386.472 184 360 184C333.528 184 312 162.472 312 136ZM448 320C448 311.176 455.176 304 464 304C472.824 304 480 311.176 480 320C480 328.824 472.824 336 464 336C455.176 336 448 328.824 448 320ZM464 480C455.176 480 448 472.824 448 464C448 455.176 455.176 448 464 448C472.824 448 480 455.176 480 464C480 472.824 472.824 480 464 480Z" fill="#333333"/>
</svg>
