<svg width="67" height="67" viewBox="0 0 67 67" fill="none" xmlns="http://www.w3.org/2000/svg">
<path d="M33.7734 56.3668C33.7802 58.787 32.9384 64.5267 31.2366 64.2333C30.8691 64.1706 30.4301 63.7956 29.9577 63.2134C28.5227 61.4442 26.7747 57.777 25.788 55.2626C25.2505 53.8925 24.9362 52.8629 25.0238 52.6723C25.5543 51.49 33.1377 54.8957 33.6313 55.336C33.7238 55.4206 33.773 55.8032 33.7734 56.3668Z" fill="#76E5E5"/>
<path opacity="0.3" d="M28.4184 56.3321C28.1489 56.8162 29.5298 62.2412 31.2366 64.2333C30.8691 64.1706 30.4301 63.7956 29.9577 63.2134C29.5753 62.2878 29.0085 60.9139 28.4589 59.5401C27.7543 57.7705 26.4439 56.0573 25.7882 55.2626C25.2507 53.8925 24.9364 52.8629 25.024 52.6723C25.5545 51.49 33.1379 54.8957 33.6315 55.336C33.724 55.4206 33.7732 55.8032 33.7734 56.3668C33.7734 56.3668 28.6884 55.8509 28.4184 56.3321Z" fill="#2CAAB2"/>
<path d="M25.0238 52.6731C24.4436 53.7853 31.3371 57.163 33.7159 55.5533C33.7159 55.5533 25.7948 51.195 25.0238 52.6731Z" fill="#1E767C"/>
<path d="M41.99 53.7617C41.9304 53.9761 41.8641 54.1978 41.7962 54.4282C40.7514 57.9319 38.9303 63.0315 37.5603 64.7746C37.2334 65.1935 36.9312 65.4183 36.6729 65.3835C36.6053 65.3758 36.5371 65.3535 36.4706 65.3202C36.2409 65.2123 36.017 64.9763 35.8026 64.6443L35.8031 64.6415C34.469 62.5671 33.5083 56.7544 33.7035 55.0958C33.7273 54.8901 33.7698 54.7477 33.8311 54.6858C34.952 53.5774 42.3175 50.3515 42.6095 50.9195C42.6858 51.072 42.4338 52.1997 41.99 53.7617Z" fill="#76E5E5"/>
<path opacity="0.3" d="M41.99 53.7613C41.99 53.7613 37.9332 54.2985 36.7481 55.9963C35.5636 57.6912 35.212 62.1101 35.8031 64.641C34.469 62.5667 33.5083 56.7539 33.7035 55.0953C33.7273 54.8896 33.7698 54.7473 33.8311 54.6853C34.952 53.5769 42.3175 50.351 42.6095 50.919C42.6858 51.0716 42.4338 52.1994 41.99 53.7613Z" fill="#2CAAB2"/>
<path d="M33.7037 55.0943C33.4207 55.5639 40.6887 55.5288 42.6085 50.92C42.6085 50.92 36.3686 50.6723 33.7037 55.0943Z" fill="#1E767C"/>
<path d="M37.3289 57.3752C37.0255 57.4187 36.5949 59.7167 37.057 59.9205C37.5193 60.1242 38.0304 57.2743 37.3289 57.3752Z" fill="white"/>
<path d="M42.1872 5.28035C42.1872 5.28035 44.3367 3.42562 46.9675 3.10352C46.9675 3.10352 47.773 3.49714 48.7034 6.39606C49.6339 9.29499 47.916 15.0208 47.916 15.0208L42.1872 5.28035Z" fill="#76E5E5"/>
<path d="M46.9673 3.10343C46.9673 3.10343 44.8383 5.38495 44.8383 9.06207L45.6614 9.58099L48.0593 4.6178C48.0594 4.6178 47.2637 3.06005 46.9673 3.10343Z" fill="#1E767C"/>
<path d="M45.5834 9.33044C45.5834 9.33044 45.0173 6.19015 47.0841 3.88184C47.0841 3.88184 49.4192 4.98231 50.3855 9.06211C51.3518 13.1419 48.8366 15.5909 48.8366 15.5909L45.5834 9.33044Z" fill="#1E767C"/>
<path d="M44.3821 4.01771C43.985 4.23211 44.0166 4.66058 44.8391 4.55321C45.6615 4.44584 46.1087 3.80164 46.0193 3.67635C45.9298 3.55106 44.828 3.77702 44.3821 4.01771Z" fill="white"/>
<path d="M24.1525 5.74502C24.1525 5.74502 22.0029 3.89029 19.3722 3.56836C19.3722 3.56836 18.5667 3.96198 17.6362 6.86074C16.7058 9.75949 18.4236 15.4856 18.4236 15.4856L24.1525 5.74502Z" fill="#76E5E5"/>
<path d="M19.3722 3.56828C19.3722 3.56828 21.5013 5.8498 21.5013 9.52692L20.6782 10.0458L18.2803 5.08265C18.2801 5.08265 19.0759 3.52473 19.3722 3.56828Z" fill="#1E767C"/>
<path d="M20.7563 9.79529C20.7563 9.79529 21.3224 6.655 19.2556 4.34668C19.2556 4.34668 16.9205 5.44715 15.9542 9.52695C14.9879 13.6067 17.7731 16.3201 17.7731 16.3201L20.7563 9.79529Z" fill="#1E767C"/>
<path d="M21.9574 4.4819C22.3547 4.6963 22.3229 5.12477 21.5005 5.0174C20.678 4.91003 20.2307 4.26583 20.3203 4.14071C20.4097 4.01542 21.5117 4.24137 21.9574 4.4819Z" fill="white"/>
<path d="M42.5147 48.6631C41.8603 52.5275 38.4009 55.103 33.44 55.103C29.1222 55.103 25.4647 53.4937 24.4986 49.9495C23.5324 46.4081 23.9065 39.8577 25.1955 35.778C25.3882 35.1688 25.6205 34.5824 25.8897 34.0243L25.8925 34.0186C26.1362 33.5143 26.4081 33.0327 26.7084 32.5821C26.7112 32.5793 26.7112 32.5764 26.7112 32.5764C28.2864 30.2051 30.5927 28.6553 33.1992 28.6553C35.9134 28.6553 37.9902 29.7715 39.4039 31.4234C40.0612 32.1912 40.5769 33.0751 40.9451 34.0158C41.37 35.098 41.7271 36.2455 42.0104 37.4298C42.0104 37.4383 42.0132 37.4495 42.016 37.4638C42.9085 41.1694 43.0983 45.2123 42.5147 48.6631Z" fill="#76E5E5"/>
<path opacity="0.3" d="M42.5147 48.6631C41.8603 52.5275 38.4009 55.103 33.44 55.103C29.1222 55.103 25.4647 53.4936 24.4986 49.9495C23.5324 46.408 23.9065 39.8576 25.1955 35.778C25.3882 35.1688 25.6205 34.5824 25.8897 34.0243L25.8925 34.0186C25.8925 34.0186 23.2803 42.6796 25.3684 48.1958C27.4564 53.712 37.1855 53.5958 40.4777 49.9297C43.6112 46.442 42.1634 38.2484 42.0162 37.4637C42.9085 41.1693 43.0983 45.2122 42.5147 48.6631Z" fill="url(#paint0_linear)"/>
<path d="M39.4039 31.4234C38.3471 33.0808 32.5302 34.0456 29.1683 33.7387C26.2416 33.4716 26.6858 32.6813 26.7084 32.5821C26.7112 32.5793 26.7112 32.5764 26.7112 32.5764C28.2864 30.2052 30.5927 28.6553 33.1992 28.6553C35.9134 28.6553 37.99 29.7715 39.4039 31.4234Z" fill="#1E767C"/>
<path d="M18.1131 25.6075C21.4057 33.2032 46.0506 30.8349 48.9953 24.5952C52.2161 17.7702 44.8106 0.90379 33.0007 1.69121C23.0236 2.35618 13.8806 15.8431 18.1131 25.6075Z" fill="#76E5E5"/>
<path d="M19.473 24.5357C22.6224 30.7659 44.1346 29.7371 47.2772 24.0091C49.9458 19.1452 43.6431 4.3359 32.8357 4.86386C22.0283 5.39182 16.4505 18.5563 19.473 24.5357Z" fill="#2CAAB2"/>
<path d="M42.8301 17.1933C42.4058 18.3288 36.7329 18.1953 36.739 17.7874C36.7725 15.5208 37.985 12.5475 40.2498 12.568C42.5886 12.5891 43.6195 15.0801 42.8301 17.1933Z" fill="white"/>
<path d="M23.7103 17.3439C24.1974 18.4539 29.8541 18.0032 29.8252 17.5963C29.6651 15.3352 28.2879 12.4345 26.028 12.5815C23.6939 12.7333 22.8038 15.2783 23.7103 17.3439Z" fill="white"/>
<path d="M29.923 21.5386C29.0691 21.7443 30.8535 24.5951 33.7166 24.5951C36.2576 24.5951 37.689 21.6671 37.3669 21.5386C37.0448 21.4101 35.5202 22.1974 33.4017 22.1974C31.283 22.1974 30.2808 21.4523 29.923 21.5386Z" fill="white"/>
<path d="M36.481 3.10258C36.2562 3.37091 38.8699 4.50589 39.2188 4.3466C39.5677 4.18731 37.2325 2.20578 36.481 3.10258Z" fill="white"/>
<path opacity="0.3" d="M23.2664 11.1037C23.0192 12.5872 25.8305 12.4187 30.3274 12.2697C35.7313 12.0908 41.1611 16.7431 44.3207 13.4041C44.8414 12.8539 39.6677 5.62928 33.423 5.79126C27.1782 5.95323 23.4812 9.81528 23.2664 11.1037Z" fill="white"/>
<path opacity="0.72" d="M48.9797 5.72361C48.9797 5.72361 48.2224 4.78545 47.1904 5.03485C46.1585 5.28426 46.09 8.53577 46.7074 8.61634C47.3248 8.6969 47.5864 6.81806 48.0596 6.52276C48.5326 6.22745 49.3596 6.34219 49.3596 6.34219L48.9797 5.72361Z" fill="url(#paint1_linear)"/>
<path opacity="0.72" d="M16.8202 7.11046C16.8202 7.11046 17.2185 6.65905 18.1131 6.80545C19.0079 6.95184 19.5235 8.78781 19.9814 8.60356C20.4394 8.41914 20.1035 5.44451 18.8937 4.56982C18.8935 4.56982 17.3341 5.90111 16.8202 7.11046Z" fill="url(#paint2_linear)"/>
<path d="M26.403 34.3411C26.3945 36.4122 26.1056 39.4068 25.1649 41.8263C23.6095 45.8324 21.2722 50.8755 21.2013 51.0341L21.1985 51.037C19.7705 51.9068 18.0622 51.8614 16.9743 51.7028C16.3142 51.6065 15.8835 51.4676 15.8835 51.4676C15.8835 51.4676 16.368 46.8778 18.8895 41.6789C20.156 39.0667 21.7708 36.6358 23.1619 34.8452C23.1705 34.8367 23.1762 34.8281 23.1817 34.8198C23.1959 34.7972 23.2157 34.7744 23.2326 34.7518C23.244 34.7375 23.2524 34.7263 23.2609 34.7149C23.2723 34.7035 23.2807 34.6923 23.2864 34.6809C23.3006 34.664 23.3118 34.6498 23.3232 34.6357C23.3261 34.6328 23.3289 34.63 23.3289 34.6272C23.3318 34.6243 23.3346 34.6215 23.3346 34.6215C24.7483 32.828 25.8959 31.7401 26.1367 31.8733C26.2813 31.9527 26.4087 32.9329 26.403 34.3411Z" fill="#76E5E5"/>
<path opacity="0.3" d="M26.403 34.341C26.3945 36.4121 26.1056 39.4067 25.1649 41.8262C23.6095 45.8323 21.2722 50.8754 21.2013 51.034L21.1985 51.0369L16.9743 51.7027C16.3142 51.6064 15.8835 51.4675 15.8835 51.4675C15.8835 51.4675 16.368 46.8777 18.8895 41.6788C20.156 39.0667 21.7708 36.6357 23.1619 34.8452C22.3658 35.8962 19.0339 40.4718 18.1388 44.359C17.1189 48.7815 21.2327 47.0789 22.9155 44.359C24.5956 41.6391 26.3521 34.3408 26.3521 34.3408H26.403V34.341Z" fill="#2CAAB2"/>
<path d="M15.9048 51.288C15.9048 51.288 17.7438 48.2544 19.6405 48.648C21.5373 49.0417 21.1973 51.0369 21.1973 51.0369C21.1973 51.0369 18.7719 52.7917 15.9048 51.288Z" fill="#1E767C"/>
<path d="M21.8057 41.4106C21.4705 41.285 23.2013 37.3666 23.7381 37.3308C24.2749 37.2949 22.0919 41.5178 21.8057 41.4106Z" fill="white"/>
<path d="M21.6304 41.8283C21.3663 41.6882 21.1167 42.4214 21.3582 42.5287C21.5998 42.6359 21.9294 41.9865 21.6304 41.8283Z" fill="white"/>
<path d="M15.8834 51.468C15.8834 51.468 17.0178 49.862 18.657 49.6473C20.2961 49.4326 20.8841 49.8867 21.1985 51.0374C21.5129 52.1881 19.1876 56.3786 16.3001 59.5368C15.0541 59.6402 14.6777 58.1092 14.4971 57.1265C14.4971 56.2659 15.3202 52.8187 15.8834 51.468Z" fill="#76E5E5"/>
<path d="M19.8657 49.6358C19.8657 49.6358 16.789 53.9062 15.8138 56.3659C15.2877 57.6927 14.9864 58.5637 14.9864 58.5637C14.9864 58.5637 15.7855 60.5876 17.1111 58.8935C18.9883 56.4944 21.505 52.8864 21.0477 51.15C20.6605 49.6793 20.4015 49.4013 19.8657 49.6358Z" fill="#2CAAB2"/>
<path d="M18.6201 52.0179C18.4143 52.5454 18.8119 55.9885 19.1876 56.3783C19.5633 56.7681 20.4294 56.109 20.67 55.411C20.9105 54.7132 21.9926 50.9111 20.6015 49.6929C20.6016 49.693 19.4789 49.817 18.6201 52.0179Z" fill="#76E5E5"/>
<path d="M19.2476 52.4807C19.0945 52.5086 18.9233 53.6887 19.0503 53.9002C19.1772 54.1118 19.4315 54.0875 19.5521 53.8208C19.6729 53.5542 19.4794 52.4383 19.2476 52.4807Z" fill="white"/>
<path d="M40.3677 34.3406C40.3762 36.4117 40.6651 39.4063 41.6058 41.8258C43.1612 45.8319 45.4985 50.875 45.5694 51.0336L45.5722 51.0365C47.0002 51.9063 48.7085 51.8609 49.7964 51.7023C50.4565 51.606 50.8872 51.4671 50.8872 51.4671C50.8872 51.4671 50.4028 46.8773 47.8812 41.6784C46.6147 39.0662 44.9999 36.6353 43.6088 34.8447C43.6002 34.8362 43.5946 34.8277 43.589 34.8193C43.5748 34.7967 43.555 34.7739 43.5379 34.7513C43.5265 34.737 43.5182 34.7258 43.5096 34.7144C43.4982 34.703 43.4899 34.6918 43.4842 34.6804C43.4699 34.6635 43.4587 34.6493 43.4473 34.6352C43.4445 34.6324 43.4416 34.6295 43.4416 34.6267C43.4388 34.6238 43.4359 34.621 43.4359 34.621C42.0222 32.8275 40.8747 31.7396 40.6338 31.8728C40.4896 31.9522 40.3621 32.9324 40.3677 34.3406Z" fill="#76E5E5"/>
<path opacity="0.3" d="M47.8813 41.6788C46.6149 39.0667 45 36.6357 43.6089 34.8452C44.405 35.8962 47.737 40.4718 48.6321 44.359C49.652 48.7815 45.5382 47.0789 43.8553 44.359C42.1753 41.6391 40.4187 34.3408 40.4187 34.3408H40.3678C40.3763 36.412 40.6653 39.4065 41.606 41.8261C43.1614 45.8322 45.4987 50.8752 45.5695 51.0339L45.5724 51.0367L49.7965 51.7025C50.4567 51.6062 50.8873 51.4674 50.8873 51.4674" fill="#2CAAB2"/>
<path d="M50.866 51.288C50.866 51.288 49.0271 48.2544 47.1303 48.648C45.2335 49.0417 45.5735 51.0369 45.5735 51.0369C45.5735 51.0369 47.999 52.7917 50.866 51.288Z" fill="#1E767C"/>
<path d="M44.965 41.4101C45.3002 41.2845 43.5694 37.3662 43.0326 37.3303C42.4957 37.2945 44.6788 41.5173 44.965 41.4101Z" fill="white"/>
<path d="M45.1404 41.8278C45.4045 41.6877 45.6541 42.4209 45.4126 42.5283C45.1709 42.6355 44.8414 41.9861 45.1404 41.8278Z" fill="white"/>
<path d="M50.8873 51.4675C50.8873 51.4675 49.7528 49.8615 48.1137 49.6468C46.4745 49.4321 45.8866 49.8862 45.5722 51.0369C45.2578 52.1876 47.583 56.3781 50.4705 59.5363C51.7166 59.6397 52.093 58.1087 52.2735 57.126C52.2737 56.2654 51.4504 52.8183 50.8873 51.4675Z" fill="#76E5E5"/>
<path d="M46.9051 49.6358C46.9051 49.6358 49.9818 53.9062 50.957 56.3659C51.4831 57.6927 51.7844 58.5637 51.7844 58.5637C51.7844 58.5637 50.9853 60.5876 49.6597 58.8935C47.7825 56.4944 45.2658 52.8864 45.7231 51.15C46.1102 49.6793 46.3693 49.4013 46.9051 49.6358Z" fill="#2CAAB2"/>
<path d="M48.1507 52.0179C48.3565 52.5454 47.9589 55.9885 47.5832 56.3783C47.2075 56.7681 46.3413 56.109 46.1008 55.411C45.8603 54.7132 44.7782 50.9111 46.1693 49.6929C46.1692 49.693 47.2917 49.817 48.1507 52.0179Z" fill="#76E5E5"/>
<path d="M47.523 52.4807C47.6761 52.5086 47.8473 53.6887 47.7204 53.9002C47.5934 54.1118 47.3391 54.0875 47.2185 53.8208C47.0978 53.5542 47.2912 52.4383 47.523 52.4807Z" fill="white"/>
<path d="M38.5733 37.1533C36.8376 38.5449 35.1022 38.3804 33.3649 37.1533C31.7947 38.2846 29.9941 38.5945 27.8018 37.1533C27.6539 42.4157 29.0728 46.7755 33.3208 48.8872C36.7371 47.0234 39.0332 43.783 38.5733 37.1533ZM36.136 43.794H34.0295V45.7836H32.2741V43.794H30.3205V41.985H32.2741V40.1311H34.0295V41.985H36.136V43.794Z" fill="white"/>
<defs>
<linearGradient id="paint0_linear" x1="33.4016" y1="55.1028" x2="33.4016" y2="34.0183" gradientUnits="userSpaceOnUse">
<stop stop-color="#9D68C2"/>
<stop offset="1" stop-color="#CCEDFF"/>
</linearGradient>
<linearGradient id="paint1_linear" x1="46.3129" y1="6.80563" x2="49.3594" y2="6.80563" gradientUnits="userSpaceOnUse">
<stop/>
<stop offset="1" stop-color="#D4E2FF"/>
</linearGradient>
<linearGradient id="paint2_linear" x1="16.8202" y1="6.59312" x2="20.1776" y2="6.59312" gradientUnits="userSpaceOnUse">
<stop stop-color="#D4E2FF"/>
<stop offset="1"/>
</linearGradient>
</defs>
</svg>
