<svg width="140" height="175" viewBox="0 0 140 175" fill="none" xmlns="http://www.w3.org/2000/svg">
<g clip-path="url(#clip0)">
<path d="M122.755 46.4076C122.755 46.4076 122.81 46.3317 122.919 46.1878C122.947 46.1518 122.977 46.1115 123.011 46.0667C123.042 46.0202 123.07 45.9649 123.104 45.9071C123.17 45.7906 123.252 45.6586 123.312 45.4917C123.344 45.4098 123.383 45.3244 123.416 45.2316C123.442 45.1364 123.469 45.0367 123.498 44.9317C123.532 44.8277 123.55 44.7154 123.567 44.5978C123.583 44.4798 123.615 44.3591 123.619 44.2299C123.674 43.7165 123.64 43.1176 123.537 42.4561C123.332 41.1296 122.77 39.5672 121.908 37.869C121.049 36.1673 119.865 34.3368 118.41 32.429C116.955 30.5204 115.206 28.5492 113.194 26.57C111.181 24.5932 108.901 22.6069 106.346 20.7246C105.068 19.7852 103.72 18.8738 102.298 18.0156C100.878 17.1553 99.3811 16.3531 97.8019 15.658C96.2227 14.9717 94.5563 14.3732 92.799 14.0897C91.9233 13.9546 91.0196 13.8895 90.1313 14.0239C89.6882 14.0921 89.2524 14.2129 88.8426 14.397C88.439 14.594 88.0677 14.8565 87.7611 15.188C87.4664 15.5306 87.2466 15.9286 87.0961 16.3521C86.9603 16.7808 86.8878 17.2271 86.871 17.6754C86.8371 18.5735 87.0051 19.4643 87.2385 20.3193C87.7198 22.0336 88.5038 23.6216 89.3658 25.1129C90.2363 26.6029 91.2037 27.9997 92.2201 29.3129C93.2347 30.6279 94.2938 31.8637 95.3725 33.0271C97.5334 35.3518 99.7664 37.3906 101.96 39.1661C104.155 40.9392 106.313 42.453 108.375 43.6815C110.436 44.9093 112.389 45.877 114.177 46.5375C115.962 47.1997 117.578 47.5808 118.919 47.6333C119.588 47.6599 120.187 47.6256 120.69 47.5122C120.818 47.4937 120.935 47.4482 121.05 47.4195C121.165 47.3887 121.275 47.3579 121.374 47.3127C121.474 47.2721 121.571 47.2333 121.662 47.1965C121.75 47.1535 121.831 47.1052 121.908 47.0639C122.068 46.9862 122.19 46.8889 122.298 46.8101C122.351 46.7699 122.403 46.7359 122.446 46.6999C122.486 46.661 122.523 46.626 122.556 46.5945C122.686 46.4699 122.755 46.4076 122.755 46.4076C122.755 46.4076 122.692 46.4748 122.563 46.6029C122.531 46.6351 122.494 46.6708 122.454 46.7104C122.412 46.7475 122.361 46.7821 122.307 46.8234C122.2 46.9043 122.078 47.0033 121.919 47.0828C121.841 47.1251 121.761 47.1745 121.672 47.2186C121.581 47.2564 121.484 47.2963 121.383 47.3379C121.283 47.3841 121.173 47.4156 121.058 47.4478C120.942 47.4772 120.825 47.5241 120.697 47.5434C120.191 47.6606 119.589 47.6984 118.917 47.675C117.57 47.6284 115.948 47.2518 114.156 46.5935C112.362 45.9369 110.403 44.9719 108.336 43.7462C106.269 42.5198 104.106 41.0075 101.905 39.2347C99.7059 37.4599 97.4676 35.4204 95.3011 33.094C94.2196 31.9295 93.1577 30.6923 92.1399 29.3752C91.1204 28.0599 90.1502 26.6603 89.2759 25.1658C88.4107 23.6695 87.6225 22.0763 87.1367 20.3484C86.9011 19.4863 86.7307 18.5868 86.765 17.6726C86.7821 17.2162 86.8556 16.7602 86.9953 16.3199C87.1496 15.8845 87.3764 15.4732 87.6813 15.1194C87.9984 14.7764 88.382 14.5055 88.7967 14.3032C89.2181 14.1138 89.6633 13.9906 90.1145 13.9213C91.0189 13.7845 91.9313 13.8513 92.8144 13.9875C94.5857 14.2738 96.258 14.8754 97.8425 15.5646C99.4262 16.2628 100.927 17.0675 102.349 17.9306C103.773 18.7916 105.124 19.7054 106.403 20.6476C108.961 22.5352 111.241 24.5263 113.255 26.5087C115.266 28.4936 117.015 30.4704 118.469 32.3849C119.922 34.2987 121.103 36.1351 121.96 37.8435C122.818 39.548 123.377 41.117 123.577 42.4509C123.677 43.1155 123.708 43.7179 123.649 44.2338C123.644 44.3636 123.611 44.4851 123.595 44.6034C123.577 44.7217 123.558 44.8347 123.523 44.939C123.493 45.0444 123.465 45.1445 123.437 45.24C123.403 45.3331 123.364 45.4185 123.331 45.5008C123.27 45.6681 123.185 45.8 123.117 45.9162C123.082 45.974 123.053 46.0289 123.021 46.0751C122.986 46.1192 122.955 46.1591 122.927 46.1952C122.815 46.3366 122.755 46.4076 122.755 46.4076Z" fill="#D92527"/>
<path d="M82.2265 30.7834C82.2265 30.7834 82.2367 30.6907 82.2507 30.5104C82.2542 30.4653 82.258 30.4145 82.2626 30.3589C82.2706 30.3032 82.2864 30.2434 82.2997 30.1779C82.328 30.047 82.3543 29.8934 82.4211 29.7296C82.4516 29.647 82.4795 29.5574 82.5166 29.4664C82.5604 29.3782 82.6063 29.2851 82.6546 29.1874C82.6987 29.0877 82.7603 28.9918 82.8254 28.892C82.8926 28.794 82.9489 28.6824 83.0322 28.5837C83.3325 28.1637 83.7567 27.7391 84.2737 27.3142C85.3097 26.4606 86.7695 25.6692 88.5426 24.9755C90.3171 24.278 92.4189 23.7001 94.7744 23.2444C97.1306 22.7887 99.7486 22.4825 102.567 22.3442C105.386 22.2091 108.409 22.2445 111.568 22.5406C113.148 22.6904 114.76 22.9081 116.392 23.2136C118.025 23.5167 119.676 23.915 121.317 24.4474C122.953 24.9864 124.594 25.6489 126.095 26.6072C126.838 27.0895 127.556 27.6422 128.129 28.3341C128.415 28.6799 128.659 29.06 128.843 29.4706C129.013 29.886 129.115 30.3291 129.123 30.781C129.115 31.2328 129.015 31.6763 128.845 32.0921C128.661 32.5026 128.418 32.8834 128.132 33.2292C127.559 33.9222 126.841 34.4749 126.098 34.9575C124.597 35.9165 122.955 36.5794 121.319 37.1188C119.678 37.6511 118.026 38.0498 116.394 38.3529C114.761 38.6588 113.148 38.8761 111.568 39.0259C108.408 39.322 105.385 39.3574 102.566 39.2223C99.7471 39.084 97.1295 38.7774 94.773 38.3217C92.4175 37.866 90.3157 37.2882 88.5416 36.5906C86.7688 35.8969 85.309 35.1052 84.2733 34.2519C83.7567 33.8267 83.3325 33.4025 83.0322 32.9825C82.9489 32.8834 82.8926 32.7721 82.8254 32.6741C82.7603 32.5744 82.6987 32.4788 82.6546 32.3787C82.6063 32.2814 82.5604 32.1883 82.5166 32.1001C82.4795 32.0091 82.4516 31.9199 82.4211 31.8369C82.3539 31.6731 82.3277 31.5195 82.2997 31.3886C82.2864 31.3231 82.2706 31.2633 82.2626 31.2076C82.2584 31.1516 82.2542 31.1012 82.2507 31.0561C82.2367 30.8762 82.2265 30.7834 82.2265 30.7834C82.2265 30.7834 82.2293 30.8762 82.2402 31.0571C82.243 31.1026 82.2461 31.1534 82.2493 31.2097C82.2563 31.2657 82.2713 31.3259 82.2839 31.3917C82.3105 31.5237 82.3354 31.6784 82.4012 31.8439C82.4309 31.9272 82.4582 32.0175 82.495 32.1096C82.5384 32.1988 82.5835 32.2926 82.6315 32.391C82.6749 32.4918 82.7361 32.5887 82.8009 32.6892C82.8677 32.7882 82.9237 32.9009 83.0067 33.001C83.3063 33.4252 83.7301 33.8543 84.247 34.2838C85.2834 35.1462 86.745 35.9449 88.5199 36.6456C90.2961 37.3501 92.4003 37.9339 94.7586 38.3949C97.118 38.8558 99.7387 39.167 102.561 39.3094C105.384 39.4484 108.411 39.4165 111.577 39.1225C113.16 38.9738 114.775 38.7568 116.412 38.4516C118.048 38.1485 119.704 37.7502 121.351 37.2168C122.992 36.6764 124.641 36.0117 126.154 35.0457C126.904 34.5592 127.63 34.0013 128.213 33.2964C128.504 32.9447 128.752 32.5551 128.941 32.1334C129.116 31.7057 129.221 31.2479 129.228 30.7806C129.22 30.3137 129.114 29.8559 128.939 29.4289C128.751 29.0072 128.501 28.619 128.21 28.2669C127.626 27.5631 126.901 27.0052 126.151 26.519C124.639 25.5534 122.99 24.8894 121.349 24.349C119.702 23.8156 118.047 23.4173 116.411 23.1146C114.775 22.8094 113.16 22.5927 111.578 22.4436C108.412 22.1496 105.385 22.1178 102.563 22.2567C99.7405 22.3988 97.1197 22.71 94.7603 23.1709C92.402 23.6319 90.2979 24.2157 88.5213 24.9202C86.7461 25.6209 85.2844 26.42 84.2477 27.282C83.7308 27.7115 83.3066 28.1402 83.007 28.5648C82.9241 28.6645 82.8677 28.7776 82.8012 28.8766C82.7365 28.9774 82.6752 29.074 82.6315 29.1748C82.5839 29.2732 82.5384 29.3673 82.495 29.4566C82.4582 29.5486 82.4309 29.6386 82.4012 29.7222C82.3354 29.8878 82.3105 30.0425 82.2839 30.1744C82.2717 30.2406 82.2563 30.3008 82.2493 30.3564C82.2458 30.4124 82.2426 30.4635 82.2402 30.509C82.2293 30.691 82.2265 30.7834 82.2265 30.7834Z" fill="#D92527"/>
<path d="M120.652 11.335C120.652 11.335 120.573 11.2863 120.421 11.1869C120.384 11.1621 120.341 11.1341 120.294 11.1033C120.246 11.0756 120.189 11.0515 120.129 11.0217C120.008 10.9636 119.87 10.8905 119.7 10.8429C119.616 10.8163 119.528 10.7837 119.433 10.7571C119.337 10.7375 119.235 10.7169 119.128 10.6955C119.023 10.6689 118.909 10.6591 118.79 10.6497C118.672 10.6427 118.549 10.6189 118.42 10.6241C117.904 10.6042 117.308 10.6794 116.656 10.8275C115.347 11.1232 113.827 11.7921 112.192 12.7682C110.554 13.7433 108.809 15.0502 107.006 16.6329C105.202 18.216 103.356 20.0972 101.52 22.2403C99.6866 24.3851 97.8624 26.7959 96.1607 29.4744C95.3116 30.8146 94.4954 32.2223 93.737 33.6996C92.9764 35.1756 92.2796 36.7247 91.6947 38.3476C91.1186 39.9706 90.6367 41.674 90.475 43.4468C90.4004 44.3298 90.3976 45.2356 90.5933 46.1127C90.692 46.5502 90.8425 46.9762 91.0542 47.3727C91.2786 47.7616 91.5659 48.114 91.918 48.3972C92.2799 48.6677 92.6922 48.8595 93.1252 48.9803C93.5623 49.0863 94.0124 49.1276 94.4608 49.1136C95.3592 49.0853 96.2363 48.8567 97.0732 48.5648C98.7504 47.9667 100.28 47.0749 101.709 46.1124C103.136 45.1411 104.462 44.0799 105.702 42.9753C106.944 41.8725 108.104 40.7308 109.19 39.5744C111.361 37.2584 113.241 34.8903 114.861 32.58C116.479 30.2675 117.84 28.0107 118.924 25.8694C120.007 23.7288 120.838 21.7135 121.373 19.8841C121.911 18.0578 122.18 16.4194 122.14 15.0775C122.121 14.4087 122.045 13.8137 121.897 13.3191C121.87 13.1928 121.816 13.0797 121.78 12.9667C121.741 12.8543 121.703 12.7469 121.651 12.651C121.603 12.5533 121.558 12.4599 121.515 12.3713C121.466 12.2863 121.413 12.2093 121.366 12.1347C121.277 11.9814 121.172 11.8663 121.086 11.7637C121.042 11.713 121.004 11.664 120.965 11.6237C120.924 11.5859 120.886 11.552 120.853 11.5215C120.719 11.3994 120.652 11.335 120.652 11.335C120.652 11.335 120.723 11.3938 120.86 11.5135C120.895 11.5436 120.933 11.5772 120.975 11.6143C121.015 11.6538 121.053 11.7028 121.098 11.7532C121.186 11.8551 121.293 11.9695 121.383 12.1228C121.431 12.1974 121.486 12.2744 121.536 12.3594C121.58 12.4483 121.626 12.5418 121.675 12.6398C121.728 12.736 121.767 12.8438 121.807 12.9565C121.844 13.0699 121.899 13.1837 121.927 13.3104C122.079 13.807 122.158 14.4048 122.181 15.0765C122.227 16.424 121.963 18.0686 121.43 19.9005C120.898 21.7359 120.071 23.7568 118.99 25.903C117.909 28.0499 116.549 30.3123 114.932 32.63C113.312 34.946 111.432 37.319 109.261 39.6409C108.173 40.8001 107.012 41.9446 105.768 43.0506C104.526 44.1583 103.197 45.2227 101.766 46.1978C100.333 47.1641 98.7976 48.0601 97.1071 48.6635C96.2633 48.9579 95.3778 49.1899 94.4632 49.2186C94.0068 49.233 93.5466 49.191 93.0975 49.0818C92.6527 48.9579 92.2267 48.7598 91.8526 48.4801C91.4886 48.1875 91.1918 47.8235 90.9615 47.4235C90.7434 47.0161 90.5901 46.5803 90.4897 46.1351C90.2909 45.2423 90.2947 44.3274 90.3696 43.437C90.5331 41.6502 91.0182 39.9405 91.5967 38.3123C92.184 36.6841 92.8837 35.1315 93.6467 33.6531C94.4076 32.1733 95.2262 30.7635 96.0781 29.4219C97.7851 26.7402 99.6145 24.328 101.453 22.1829C103.295 20.0395 105.147 18.1586 106.956 16.5766C108.766 14.9953 110.516 13.6898 112.162 12.7175C113.803 11.7438 115.33 11.0784 116.647 10.7872C117.303 10.6416 117.902 10.5695 118.42 10.5926C118.55 10.5884 118.674 10.6129 118.793 10.621C118.912 10.6315 119.026 10.6423 119.133 10.6696C119.24 10.6924 119.342 10.7137 119.439 10.7344C119.534 10.7617 119.622 10.7953 119.706 10.8229C119.877 10.8723 120.015 10.9475 120.135 11.0074C120.195 11.0382 120.252 11.063 120.301 11.0917C120.347 11.1236 120.389 11.1523 120.427 11.1778C120.577 11.2804 120.652 11.335 120.652 11.335Z" fill="#D92527"/>
<path d="M119.053 16.374C114.609 19.9377 110.164 19.5163 105.714 16.374C101.693 19.2713 97.0819 20.0651 91.4676 16.374C91.0889 29.8511 94.7229 41.0165 105.602 46.4243C114.351 41.6514 120.231 33.3529 119.053 16.374ZM114.532 33.8758H107.891V40.1485H102.357V33.8758H96.1985V28.1729H102.357V22.3282H107.891V28.1729H114.532V33.8758Z" fill="#FF4F5B"/>
<g opacity="0.8">
<path opacity="0.8" d="M119.053 16.374C114.609 19.9377 110.164 19.5163 105.714 16.374C101.693 19.2713 97.0819 20.0651 91.4676 16.374C91.0889 29.8511 94.7229 41.0165 105.602 46.4243C114.351 41.6514 120.231 33.3529 119.053 16.374ZM114.532 33.8758H107.891V40.1485H102.357V33.8758H96.1985V28.1729H102.357V22.3282H107.891V28.1729H114.532V33.8758Z" fill="white"/>
</g>
<path d="M116.713 18.9346C113.026 21.891 109.339 21.5414 105.647 18.9346C102.312 21.3384 98.4861 21.9964 93.8286 18.9346C93.5143 30.1146 96.5292 39.3774 105.554 43.8637C112.812 39.9041 117.691 33.0196 116.713 18.9346ZM111.535 33.0431H107.06V37.27H103.331V33.0431H99.1805V29.2001H103.331V25.2612H107.06V29.2001H111.535V33.0431Z" fill="#D92527"/>
<g opacity="0.21">
<path opacity="0.21" d="M132.156 98.6169C132.156 98.6169 128.873 96.3538 124.665 104.229C120.457 112.106 118.832 116.663 118.832 116.663C118.832 116.663 117.728 118.309 116.605 117.197C115.481 116.086 113.973 112.965 112.016 113.484C109.987 114.022 109.279 116.261 109.6 119.578C109.92 122.895 110.356 130.189 110.393 130.848C110.43 131.496 110.041 132.441 109.154 131.807C108.267 131.172 103.208 125.314 100.572 127.881C97.9359 130.448 100.348 139.542 100.592 140.541C100.837 141.54 100.634 141.961 100.157 142.198C99.6803 142.435 98.1655 140.305 96.6584 138.698C95.1513 137.091 93.122 135.491 91.7251 137.099C90.3283 138.708 89.7602 145.485 96.0049 156.633L99.2365 161.608L105.192 161.394C117.909 160.157 123.15 155.821 123.673 153.756C124.196 151.691 121.724 150.938 119.544 150.618C117.364 150.298 114.751 150.27 114.673 149.743C114.595 149.216 114.825 148.81 115.785 148.44C116.745 148.07 125.589 144.859 126.191 141.229C126.794 137.6 119.096 136.79 118.069 136.425C117.042 136.059 117.596 135.2 118.148 134.86C118.711 134.514 124.948 130.708 127.855 129.078C130.761 127.447 132.195 125.588 131.479 123.614C130.788 121.712 127.365 122.255 125.811 121.967C124.257 121.679 124.978 119.833 124.978 119.833C124.978 119.833 127.792 115.897 131.856 107.946C135.92 99.9948 132.087 98.5745 132.087 98.5745" fill="#56BBC1"/>
</g>
<path d="M99.564 160.406C102.572 154.579 106.795 146.563 111.488 137.722C116.18 128.885 120.42 120.88 123.457 115.069C124.97 112.166 126.195 109.815 127.046 108.182C127.468 107.375 127.797 106.745 128.024 106.31C128.135 106.102 128.221 105.941 128.282 105.825C128.341 105.717 128.376 105.663 128.376 105.663C128.376 105.663 128.353 105.722 128.299 105.834C128.241 105.951 128.161 106.115 128.057 106.327C127.837 106.766 127.519 107.4 127.11 108.215C126.286 109.853 125.077 112.215 123.572 115.128C120.564 120.956 116.342 128.971 111.651 137.808C106.957 146.648 102.717 154.654 99.6795 160.466" fill="#E1E1E1"/>
<path d="M113.95 117.934C113.963 117.931 114.013 118.075 114.092 118.339C114.173 118.603 114.279 118.988 114.405 119.464C114.655 120.418 114.967 121.744 115.285 123.213C115.594 124.663 115.872 125.975 116.086 126.978C116.185 127.429 116.268 127.81 116.335 128.116C116.396 128.385 116.423 128.535 116.411 128.539C116.398 128.542 116.348 128.398 116.266 128.135C116.186 127.871 116.08 127.486 115.959 127.008C115.718 126.051 115.423 124.722 115.105 123.252C114.787 121.805 114.499 120.496 114.278 119.495C114.177 119.044 114.091 118.663 114.023 118.357C113.964 118.088 113.938 117.937 113.95 117.934Z" fill="#E1E1E1"/>
<path d="M116.953 128.654C116.94 128.605 119.646 127.841 122.995 126.948C126.345 126.055 129.071 125.371 129.084 125.42C129.097 125.469 126.393 126.233 123.042 127.126C119.693 128.019 116.966 128.703 116.953 128.654Z" fill="#E1E1E1"/>
<path d="M109.135 141.903C109.136 141.89 109.292 141.886 109.573 141.891C109.893 141.898 110.291 141.907 110.764 141.918C111.769 141.94 113.156 141.964 114.689 141.934C116.222 141.907 117.608 141.835 118.611 141.775C119.083 141.747 119.481 141.723 119.8 141.704C120.081 141.689 120.236 141.687 120.238 141.7C120.239 141.712 120.086 141.739 119.806 141.776C119.527 141.813 119.122 141.859 118.621 141.905C117.619 141.998 116.23 142.091 114.692 142.118C113.156 142.148 111.764 142.103 110.759 142.048C110.257 142.019 109.85 141.99 109.57 141.962C109.289 141.936 109.134 141.915 109.135 141.903Z" fill="#E1E1E1"/>
<path d="M104.285 132.803C104.296 132.797 104.376 132.918 104.511 133.14C104.662 133.398 104.847 133.716 105.066 134.09C105.529 134.896 106.156 136.016 106.839 137.259C107.522 138.502 108.132 139.632 108.565 140.454C108.763 140.84 108.932 141.167 109.069 141.433C109.185 141.666 109.243 141.798 109.232 141.804C109.221 141.81 109.141 141.69 109.006 141.468C108.855 141.209 108.67 140.892 108.451 140.517C107.988 139.711 107.361 138.591 106.678 137.348C105.995 136.105 105.386 134.975 104.952 134.153C104.754 133.767 104.585 133.44 104.448 133.174C104.332 132.941 104.274 132.81 104.285 132.803Z" fill="#E1E1E1"/>
<path d="M95.8967 143.623C95.9079 143.616 96.0087 143.771 96.1813 144.056C96.3682 144.373 96.609 144.781 96.8981 145.271C97.4962 146.301 98.3117 147.731 99.2021 149.315C100.093 150.9 100.891 152.339 101.46 153.385C101.728 153.887 101.952 154.305 102.125 154.629C102.279 154.925 102.359 155.092 102.348 155.097C102.336 155.104 102.236 154.949 102.063 154.664C101.876 154.348 101.635 153.939 101.346 153.449C100.748 152.419 99.9326 150.99 99.0418 149.405C98.1514 147.821 97.3538 146.381 96.7847 145.335C96.5162 144.833 96.2926 144.415 96.119 144.091C95.9657 143.795 95.8859 143.629 95.8967 143.623Z" fill="#E1E1E1"/>
<path d="M102.271 154.78C102.271 154.768 102.468 154.758 102.825 154.751C103.215 154.746 103.723 154.74 104.336 154.732C105.611 154.713 107.372 154.681 109.315 154.591C111.259 154.504 113.016 154.378 114.288 154.279C114.898 154.232 115.405 154.192 115.794 154.162C116.15 154.136 116.347 154.127 116.348 154.14C116.35 154.153 116.155 154.185 115.801 154.233C115.447 154.281 114.934 154.343 114.299 154.409C113.03 154.542 111.271 154.688 109.323 154.775C107.377 154.866 105.612 154.877 104.336 154.862C103.698 154.853 103.181 154.84 102.824 154.824C102.468 154.807 102.271 154.793 102.271 154.78Z" fill="#E1E1E1"/>
<g opacity="0.21">
<g opacity="0.21">
<g opacity="0.21">
<path opacity="0.21" d="M26.7066 158.012C34.0692 154.281 36.8195 145.808 37.6606 137.961C37.8013 136.651 38.139 135.297 37.6809 134.065C37.2224 132.834 35.8864 131.847 34.6415 132.231C33.6086 132.55 33.0276 133.616 32.3539 134.471C31.4579 135.608 30.2392 136.481 28.8829 136.958C27.9918 137.271 26.9275 137.389 26.1722 136.821C25.1355 136.041 25.223 134.469 25.4148 133.173C25.7725 130.759 26.1295 128.345 26.4868 125.931C26.6786 124.635 26.8697 123.312 26.6408 122.024C26.4119 120.737 25.6829 119.467 24.4985 118.947C23.3137 118.427 21.688 118.922 21.2477 120.154C21.0646 120.667 21.0944 121.23 20.982 121.763C20.8697 122.297 20.5347 122.857 20.0024 122.934C19.4634 123.013 18.9965 122.572 18.6629 122.138C17.51 120.639 16.8408 118.824 16.2297 117.027C15.6186 115.229 15.038 113.396 14.0261 111.796C13.0143 110.196 11.4949 108.827 9.65286 108.459C7.81046 108.09 5.67021 108.956 4.94256 110.713C4.21316 112.474 5.01676 114.479 5.96771 116.123C7.37821 118.562 9.14011 120.792 11.1799 122.721C11.5474 123.069 11.9461 123.445 12.0343 123.947C12.1935 124.852 11.2527 125.594 10.3592 125.757C9.34731 125.942 8.31271 125.693 7.28511 125.669C6.25716 125.645 5.09901 125.936 4.58101 126.837C3.86211 128.087 4.77386 129.633 5.73566 130.697C7.66136 132.828 9.95106 134.621 12.4732 135.972C13.3776 136.456 14.338 136.904 15.0121 137.684C15.6862 138.463 15.9854 139.694 15.3915 140.541C14.7968 141.389 13.5631 141.513 12.5901 141.186C11.6178 140.859 10.8002 140.19 9.89891 139.696C8.21226 138.771 5.89421 138.568 4.53446 139.946C3.64091 140.852 3.37526 142.252 3.58386 143.513C3.79211 144.773 4.41441 145.922 5.09551 146.996C7.47656 150.75 10.7505 153.966 14.681 155.984C18.6115 158.002 22.3862 158.933 26.7066 158.012Z" fill="#56BBC1"/>
</g>
</g>
</g>
<path d="M26.0878 162.041C26.2432 158.907 25.9835 156.932 25.3843 152.83C24.7931 148.726 23.7719 144.282 22.5444 139.669C22.2332 138.517 21.9256 137.379 21.6228 136.257C21.3176 135.138 21.0152 134.028 20.6523 132.961C19.9355 130.823 19.0836 128.822 18.2156 126.948C17.3479 125.074 16.4565 123.326 15.6109 121.698C14.7614 120.071 13.941 118.569 13.135 117.233C11.5309 114.553 9.98395 112.548 8.8657 111.215C8.30815 110.546 7.8584 110.042 7.549 109.704C7.3999 109.543 7.283 109.417 7.1948 109.322C7.11395 109.237 7.07125 109.195 7.0681 109.198C7.0646 109.201 7.1017 109.249 7.17625 109.339C7.2599 109.438 7.3712 109.57 7.5126 109.737C7.80975 110.085 8.2476 110.599 8.7936 111.276C9.8877 112.625 11.4077 114.639 12.9887 117.322C13.7832 118.661 14.5931 120.163 15.4331 121.792C16.2703 123.423 17.1544 125.171 18.0143 127.044C18.8746 128.916 19.7185 130.911 20.4283 133.038C20.7877 134.1 21.0863 135.2 21.3915 136.323C21.6939 137.444 22.0008 138.581 22.3116 139.733C23.538 144.341 24.5632 148.774 25.1652 152.864C25.7742 156.952 26.0507 158.91 25.9177 162.034" fill="#E1E1E1"/>
<path d="M20.5851 132.943C20.6008 132.948 20.6726 132.757 20.7902 132.408C20.9092 132.059 21.0642 131.549 21.2469 130.917C21.613 129.652 22.0593 127.887 22.5437 125.941C23.0281 123.993 23.4981 122.24 23.8824 120.984C24.0728 120.356 24.2321 119.849 24.3469 119.5C24.4596 119.15 24.5145 118.953 24.4991 118.947C24.4837 118.941 24.399 119.126 24.259 119.467C24.1169 119.807 23.9325 120.308 23.7211 120.932C23.2934 122.179 22.7953 123.932 22.3106 125.881C21.8374 127.804 21.4097 129.543 21.0828 130.872C20.9312 131.471 20.8031 131.976 20.7006 132.382C20.6113 132.738 20.569 132.938 20.5851 132.943Z" fill="#E1E1E1"/>
<path d="M4.35702 127.466C4.35422 127.482 4.58732 127.544 5.01047 127.64C5.43292 127.738 6.04472 127.878 6.79477 128.074C8.29802 128.455 10.3564 129.054 12.5985 129.815C14.8399 130.58 16.8387 131.358 18.2681 131.962C18.9856 132.26 19.5593 132.516 19.9569 132.691C20.3541 132.867 20.5771 132.958 20.5848 132.942C20.5921 132.927 20.3825 132.808 19.9971 132.605C19.6107 132.403 19.0462 132.123 18.336 131.804C16.9199 131.157 14.9239 130.351 12.6758 129.584C10.4271 128.821 8.35332 128.246 6.83502 127.907C6.07692 127.731 5.45777 127.617 5.02832 127.547C4.59887 127.479 4.36017 127.449 4.35702 127.466Z" fill="#E1E1E1"/>
<path d="M25.2226 152.495C25.2296 152.499 25.2786 152.435 25.3658 152.308C25.4659 152.156 25.588 151.97 25.7361 151.745C26.0556 151.255 26.4994 150.534 27.0363 149.636C28.1112 147.84 29.5175 145.313 31.0319 142.503C32.5471 139.692 33.9282 137.155 34.9638 135.34C35.4703 134.458 35.8871 133.732 36.1969 133.193C36.3299 132.959 36.4394 132.766 36.529 132.607C36.6025 132.472 36.6379 132.399 36.6309 132.394C36.6235 132.39 36.5749 132.454 36.4877 132.581C36.3876 132.734 36.2655 132.919 36.1174 133.143C35.7979 133.633 35.3541 134.355 34.8172 135.253C33.7423 137.049 32.336 139.576 30.8212 142.387C29.3064 145.196 27.9253 147.733 26.8897 149.549C26.3829 150.431 25.9664 151.157 25.657 151.696C25.524 151.93 25.4144 152.124 25.3245 152.282C25.251 152.417 25.2156 152.49 25.2226 152.495Z" fill="#E1E1E1"/>
<path d="M4.08262 142.218C4.07947 142.226 4.15087 142.267 4.28947 142.34C4.45432 142.422 4.65697 142.524 4.90232 142.646C5.46932 142.923 6.23442 143.297 7.16542 143.751C9.07607 144.685 11.7004 146.004 14.5984 147.465C17.4971 148.927 20.1361 150.224 22.0667 151.118C23.032 151.565 23.8163 151.919 24.3637 152.152C24.6171 152.259 24.8257 152.346 24.9955 152.417C25.1411 152.476 25.2195 152.502 25.2226 152.494C25.2258 152.487 25.1544 152.445 25.0158 152.372C24.8513 152.29 24.6486 152.189 24.4029 152.066C23.8359 151.789 23.0712 151.416 22.1402 150.961C20.2292 150.028 17.6049 148.709 14.7062 147.247C11.8085 145.785 9.16952 144.489 7.23892 143.595C6.27362 143.148 5.48927 142.794 4.94152 142.56C4.68812 142.454 4.47987 142.366 4.30977 142.295C4.16452 142.237 4.08647 142.21 4.08262 142.218Z" fill="#E1E1E1"/>
<path d="M82.4627 111.98C82.6926 112.67 83.1525 113.36 83.6128 113.59C85.2228 114.51 86.6028 112.9 86.8328 111.29C87.0627 113.82 87.0627 116.58 87.7529 119.11C89.1144 117.748 89.9716 116.009 90.6051 114.171C89.6793 117.367 89.0308 120.817 90.743 123.48C92.6249 126.491 96.5078 124.267 99.6214 122.225C99.5213 123.223 99.2182 124.178 98.619 124.933C97.149 126.785 94.4316 128.156 92.0999 128.37C89.21 128.633 87.6969 126.833 86.5076 124.461C84.6085 120.673 82.8617 116.815 81.1243 112.953C81.3644 111.916 81.5635 110.872 81.7277 109.821C81.9401 110.545 82.182 111.265 82.4627 111.98Z" fill="#9CCCCC"/>
<path d="M90.7427 123.481C89.0305 120.817 89.679 117.368 90.6048 114.172C90.8274 113.527 91.023 112.869 91.2026 112.211C91.0038 112.847 90.7983 113.504 90.6048 114.172C89.9713 116.01 89.1141 117.749 87.7526 119.111C87.0628 116.581 87.0628 113.821 86.8325 111.291C86.6025 112.901 85.2225 114.511 83.6125 113.591C83.1526 113.361 82.6923 112.671 82.4624 111.981C82.1817 111.266 81.9398 110.546 81.7267 109.822C83.2222 100.271 81.7477 90.2131 80.1625 80.7012C81.3119 82.0273 82.5625 83.252 83.7588 84.5179C85.507 88.1201 87.298 91.702 88.9762 95.3375C91.2719 100.31 93.3782 105.375 95.6269 110.371C96.258 111.772 96.8845 113.176 97.5012 114.584C98.0972 115.945 98.8266 117.319 99.2547 118.742C99.5697 119.791 99.7391 121.039 99.6201 122.226C96.5075 124.267 92.6246 126.491 90.7427 123.481Z" fill="#ECF5F8"/>
<path d="M76.9429 80.4702C78.6796 81.9049 79.9679 83.7126 80.9668 85.7199C81.8775 91.7525 82.5516 97.9258 82.2944 103.984C78.6817 96.5212 75.7161 88.7512 76.9429 80.4702Z" fill="#ECF5F8"/>
<path d="M65.3841 66.8507C65.7855 65.3104 67.6934 66.1864 68.6899 66.4965C70.6989 67.1216 72.5808 68.1041 74.2437 69.3945C78.0475 72.3464 80.062 76.7186 82.0602 80.9683C82.6181 82.1552 83.1865 83.3371 83.7591 84.517C82.5628 83.251 81.3119 82.0264 80.1629 80.7002C80.4394 82.3589 80.7123 84.034 80.9668 85.7199C79.9679 83.7127 78.6796 81.9049 76.9429 80.4703C75.7161 88.7516 78.6816 96.5213 82.2943 103.985C82.1655 107.013 81.8043 110.013 81.1236 112.952C80.3529 111.239 79.5843 109.526 78.8052 107.816C77.3149 104.547 75.8036 101.29 74.0105 98.1736C72.3726 95.3267 70.6568 92.5089 69.4679 89.4352C68.1827 86.1133 68.0707 82.7621 67.6983 79.2691C67.5702 78.0682 67.2779 76.8954 66.9755 75.7246C66.9563 75.7684 66.9378 75.8128 66.915 75.8548C66.8748 75.9287 66.7677 75.8636 66.8034 75.7894C66.8492 75.6935 66.8842 75.5913 66.9139 75.4863C66.5534 74.0933 66.1936 72.6999 66.0939 71.2607C66.0883 71.1785 66.0971 71.1057 66.1114 71.0371C66.103 71.0087 66.0936 70.9786 66.0859 70.9513C65.7471 69.7491 65.054 68.1174 65.3841 66.8507Z" fill="#9CCCCC"/>
<path d="M36.6936 77.4805C37.4881 83.4378 35.3101 88.7858 32.3974 93.8311C32.4488 93.4398 32.501 93.0495 32.5535 92.6603C30.4836 93.8104 29.3334 95.6504 27.7234 97.4903C29.3334 94.0404 32.0935 91.2803 33.7032 87.8303C33.7032 87.6004 32.7831 88.5202 32.5531 88.0603C32.2406 87.2528 31.8947 86.445 31.5297 85.6365C32.7243 82.5453 33.9863 79.5434 36.6936 77.4805Z" fill="#ECF5F8"/>
<path d="M36.6935 77.4808C33.9863 79.5437 32.7242 82.5456 31.5303 85.6368C30.9521 84.3565 30.3242 83.0738 29.6946 81.7847C29.8535 81.4071 30.0131 81.0298 30.1702 80.6514C31.9363 76.4017 33.7168 72.0295 37.0785 69.0776C38.5482 67.7872 40.2117 66.8047 41.9873 66.1796C42.8682 65.8695 44.5542 64.9935 44.9091 66.5338C45.201 67.8001 44.5885 69.4322 44.2889 70.6341C44.2822 70.6614 44.2738 70.6918 44.2665 70.7198C44.2794 70.7884 44.2871 70.8612 44.2819 70.9435C44.1937 72.3827 43.8755 73.776 43.557 75.169C43.5833 75.274 43.6141 75.3762 43.6547 75.4721C43.6862 75.5463 43.5913 75.6114 43.556 75.5376C43.5357 75.4956 43.5196 75.4511 43.5024 75.4074C43.235 76.5785 42.9767 77.751 42.8637 78.9518C42.5347 82.4445 42.4356 85.7957 41.2999 89.1179C40.2488 92.1916 38.7326 95.0095 37.2847 97.8564C35.6999 100.973 34.3643 104.23 33.0469 107.499C32.4627 108.949 31.8849 110.403 31.3074 111.856C31.0046 105.851 31.6203 99.7415 32.3969 93.8314C35.31 88.7861 37.4877 83.4381 36.6935 77.4808Z" fill="#9CCCCC"/>
<path d="M63.2285 116.581C63.4262 117.306 63.7566 118.125 64.192 118.898C64.1014 118.815 64.0104 118.732 63.9187 118.65C63.4584 118.19 62.9985 117.5 63.2285 116.581Z" fill="#9CCCCC"/>
<path d="M68.9782 111.98C69.2334 112.235 69.4763 112.522 69.7038 112.831C69.401 112.613 69.1445 112.312 68.9782 111.98Z" fill="#9CCCCC"/>
<path d="M15.5354 124.616C14.3765 122.964 14.4598 120.355 14.9726 118.424C15.3509 117.001 15.9956 115.627 16.5224 114.266C17.0677 112.858 17.6214 111.455 18.1789 110.053C20.1666 105.057 22.0282 99.9924 24.0572 95.0196C25.8716 90.5728 27.8333 86.2062 29.6943 81.7847C30.7219 83.8882 31.746 85.9745 32.5534 88.0605C32.7834 88.5204 33.7035 87.6006 33.7035 87.8306C32.0935 91.2805 29.3334 94.0406 27.7238 97.4906C29.3338 95.6506 30.4839 93.8107 32.5538 92.6606C32.1999 95.28 31.8692 97.9431 31.6259 100.623C30.7432 105.064 30.5339 110.107 26.3437 112.9C25.7561 113.341 25.075 113.217 24.5395 112.831C24.312 112.522 24.0691 112.235 23.8139 111.98C23.9802 112.312 24.2367 112.613 24.5395 112.831C26.5677 115.585 27.3293 120.192 23.8139 121.64C22.8686 122.034 21.9775 121.861 21.1861 121.362C20.6044 120.467 19.8414 119.646 19.0273 118.898C18.5923 118.124 18.2615 117.305 18.0638 116.58C17.8338 117.5 18.2937 118.19 18.7536 118.65C18.8453 118.731 18.9363 118.814 19.027 118.898C19.5901 119.898 20.329 120.821 21.1858 121.362C22.0009 122.615 22.4601 124.011 22.2036 125.55C21.9736 126.24 21.2834 126.47 20.8235 126.47C19.3756 126.47 17.9815 126.093 16.5633 125.781C16.1769 125.422 15.8273 125.032 15.5354 124.616Z" fill="#ECF5F8"/>
<path d="M64.1917 118.897C65.0058 119.646 65.7688 120.467 66.3505 121.361C65.4937 120.821 64.7548 119.898 64.1917 118.897Z" fill="#9CCCCC"/>
<path d="M22.2035 125.55C22.4601 124.011 22.0009 122.615 21.1857 121.362C21.9767 121.861 22.8682 122.034 23.8135 121.64C27.3289 120.193 26.5673 115.586 24.5391 112.831C25.0746 113.217 25.7557 113.341 26.3433 112.9C30.5335 110.107 30.7428 105.064 31.6255 100.623C31.2867 104.359 31.1194 108.128 31.3074 111.857C29.669 115.979 28.031 120.101 26.2397 124.143C25.1883 126.516 23.8513 128.316 21.297 128.052C19.6989 127.887 17.8982 127.024 16.5629 125.782C17.9815 126.093 19.3755 126.47 20.8231 126.47C21.2837 126.47 21.9736 126.24 22.2035 125.55Z" fill="#9CCCCC"/>
<path d="M32.1513 195.608C32.3214 193.957 32.487 192.306 32.6469 190.654C32.7925 189.15 32.7579 187.45 33.2157 185.996C33.4999 185.094 34.0907 184.254 35.0091 183.916C35.5029 183.734 35.8935 183.852 36.3842 183.868C37.5662 183.908 38.1381 183.087 38.9347 182.359C41.0382 180.436 43.2813 178.649 45.6925 177.126C50.4395 174.127 55.9776 172.188 61.6486 172.869C64.6761 173.232 67.5667 174.242 70.3618 175.424C72.5276 176.34 75.6231 177.2 76.5082 179.654C77.0497 181.155 77.0819 182.91 77.2656 184.48C77.4847 186.351 77.6772 188.225 77.8529 190.1C78.2186 194.003 78.4759 197.916 78.625 201.833C78.7402 204.863 78.82 207.916 78.8196 210.972C75.2227 212.7 71.4833 213.993 67.7432 215.707C67.0533 216.167 66.5931 217.087 65.9032 217.547C61.3501 220.494 58.738 224.618 57.2862 229.249C57.0412 228.773 56.9096 228.211 56.8417 227.606C56.5981 225.432 56.4511 223.244 56.2652 221.065C55.8963 216.739 55.4784 212.417 55.0735 208.095C54.7379 204.51 54.4019 200.926 54.0662 197.342C53.4268 202.97 52.7873 208.598 52.1507 214.226C51.962 215.894 51.7684 217.561 51.5847 219.229C51.4821 220.158 51.395 221.084 51.1367 221.962C50.7527 221.462 50.3128 220.986 49.8032 220.537C46.0218 222.806 42.3972 225.387 39.4376 228.533C41.0662 226.645 42.547 224.735 42.2135 223.067C41.2664 217.385 35.7973 213.576 30.5567 210.481C30.7279 208.974 30.8966 207.467 31.0607 205.959C31.4359 202.511 31.7957 199.06 32.1513 195.608Z" fill="#282C61"/>
<path d="M64.7531 80.9306C66.823 82.3107 69.5831 85.0704 68.6629 86.2205C65.6505 91.1699 60.8261 94.911 57.7685 99.5163C53.7928 94.4882 49.4752 89.8024 44.9732 85.3004C47.273 84.6105 47.7333 82.0804 49.5732 80.9303C46.1233 80.9303 42.9033 80.4704 39.4533 80.4704C41.0633 78.4005 41.7532 75.8703 42.2134 73.5705C42.8028 70.3715 43.948 67.5739 45.41 65.0067C45.8622 64.7123 46.3175 64.4243 46.7736 64.1418C48.035 63.3603 49.3104 62.4639 50.7009 61.9323C51.9725 61.4461 53.4778 61.4178 54.8229 61.4951C55.7007 61.5455 56.5141 61.7769 57.2904 62.1122C59.0638 62.5385 60.8285 62.9641 62.4826 63.7208C65.9984 69.0401 69.3647 74.4854 71.653 80.47C69.3531 80.4707 67.0529 81.1606 64.7531 80.9306Z" fill="#ECF5F8"/>
<path d="M56.0132 117.04C56.0132 110.525 56.262 104.093 56.2596 97.644C56.7678 98.2632 57.2707 98.8872 57.7684 99.5165C57.5581 99.8336 57.3554 100.155 57.1629 100.48C57.1629 100.25 57.1629 100.021 57.1629 99.7906C57.1629 100.021 57.1629 100.25 57.1629 100.48C57.3554 100.155 57.5581 99.8336 57.7684 99.5165C57.9609 99.7601 58.1492 100.008 58.3403 100.252C56.766 105.803 57.0747 111.519 56.0132 117.04Z" fill="#9CCCCC"/>
<path d="M58.3407 100.253C58.1496 100.008 57.9613 99.7602 57.7688 99.5169C58.3477 98.6451 58.9903 97.8044 59.6714 96.9805C59.3211 97.5713 59.0179 98.1981 58.7733 98.8708C58.614 99.33 58.4716 99.7906 58.3407 100.253Z" fill="#9CCCCC"/>
<path d="M42.6733 83.0003C41.2933 82.3105 38.7635 82.7704 37.8433 81.6203C37.1535 80.4702 39.2234 78.1703 38.7635 77.0202C38.3949 76.2831 37.5091 75.6206 36.4913 75.2678C37.1433 73.3855 38.0631 71.6155 39.3791 70.0563C41.0787 68.0424 43.205 66.4418 45.41 65.0068C43.948 67.5741 42.8028 70.3713 42.2134 73.5706C41.7535 75.8705 41.0633 78.4006 39.4533 80.4705C42.9033 80.4705 46.1233 80.9304 49.5732 80.9304C47.7333 82.0805 47.2734 84.6103 44.9732 85.3005C47.8708 88.1982 50.6911 91.1732 53.3938 94.2654C49.5214 91.9551 46.1012 88.9199 42.443 85.7608C41.5236 85.0702 43.3635 83.4602 42.6733 83.0003Z" fill="#9CCCCC"/>
<path d="M54.4032 187.649C56.4731 158.209 53.4831 128.77 61.763 100.02C62.6492 96.7712 64.0135 93.6195 66.0915 90.9255C67.5177 89.9735 69.0199 89.0492 70.5029 88.0604C74.4127 85.7606 73.0327 80.9306 74.6427 77.4806C74.7767 77.1453 75.0095 77.124 75.3105 77.272C75.9923 79.0308 76.3983 80.8924 76.6737 82.7674C77.3615 87.4476 77.8203 92.1764 78.3191 96.8857C76.7437 94.8382 75.2359 92.7672 73.9525 90.3603C74.7813 93.883 76.7304 96.6603 78.6222 99.6986C78.6418 99.8771 78.6607 100.056 78.6803 100.235C76.1424 98.0606 73.8583 95.66 72.5724 92.6601C72.1125 96.7999 75.3325 99.79 78.0923 102.32C75.7074 102.15 73.3239 100.843 71.8735 99.0564C71.4566 98.3903 71.0741 97.7138 70.7325 97.0302C70.9712 97.746 71.3656 98.4306 71.8735 99.0564C73.7446 102.046 76.3395 104.804 79.381 106.834C79.711 110.027 80.0292 113.222 80.3291 116.419C81.202 125.717 81.6966 135.034 82.4634 144.338C83.0833 151.861 83.827 159.372 84.5995 166.88C85.0937 171.684 85.5851 176.489 86.0796 181.293C86.4713 185.098 86.8699 188.903 87.2392 192.711C87.4163 194.538 87.5937 196.364 87.7708 198.191C87.956 200.1 88.2101 201.876 87.8965 203.775C87.8954 203.782 87.8916 203.786 87.8902 203.793C87.9042 203.787 87.9175 203.781 87.9315 203.775C88.0165 203.742 88.0701 203.862 88.0155 203.92C87.1223 204.864 85.8185 205.553 84.7167 206.233C83.4721 207.001 82.1659 207.681 80.8559 208.33C78.3828 209.554 75.8253 210.612 73.2115 211.496C70.499 212.413 67.7116 213.113 64.8948 213.625C63.554 213.869 62.2047 214.067 60.8506 214.222C59.6007 214.365 58.0404 214.73 56.8116 214.418C56.5914 214.362 56.6229 214.072 56.8116 214.002C56.82 213.999 56.8291 213.997 56.8375 213.994C56.3125 212.928 56.1032 211.679 55.8134 210.537C55.4907 209.265 55.2005 207.988 54.9338 206.703C54.8134 206.123 54.6979 205.541 54.5835 204.959C54.1313 199.231 53.9619 193.474 54.4032 187.649Z" fill="#ECF5F8"/>
<path d="M78.3194 96.8854C78.3915 97.5658 78.4643 98.2455 78.5388 98.9249C78.5672 99.1828 78.5945 99.4408 78.6225 99.6987C76.7307 96.66 74.7816 93.8831 73.9528 90.3604C75.2366 92.767 76.7444 94.8379 78.3194 96.8854Z" fill="#9CCCCC"/>
<path d="M71.8739 99.0564C71.366 98.4306 70.9715 97.746 70.7328 97.0303C71.0748 97.7138 71.4574 98.3907 71.8739 99.0564Z" fill="#9CCCCC"/>
<path d="M71.8738 99.0564C73.3242 100.844 75.7081 102.15 78.0926 102.32C75.3325 99.7904 72.1129 96.8003 72.5728 92.6602C73.8583 95.66 76.1424 98.0607 78.6806 100.235C78.92 102.434 79.1538 104.633 79.3813 106.833C76.3398 104.805 73.7453 102.046 71.8738 99.0564Z" fill="#9CCCCC"/>
<path d="M52.8918 193.387C52.9272 192.852 52.9699 192.319 53.0231 191.789C53.0231 190.409 53.253 189.029 53.253 187.649C53.483 170.859 54.1732 154.53 55.093 137.74C55.5088 130.394 55.8423 123.048 56.242 115.702C57.0344 110.599 56.8927 105.356 58.3406 100.252C58.6392 100.634 58.9395 101.014 59.2332 101.4C58.9395 101.014 58.6392 100.634 58.3406 100.252C58.4715 99.7906 58.614 99.3296 58.7732 98.8704C59.0179 98.1977 59.321 97.5709 59.6713 96.9801C59.7721 96.8583 59.8775 96.7386 59.98 96.6171C60.658 96.3424 61.2757 95.8002 61.7633 95.1905C61.5333 95.4205 61.5333 95.4205 61.3034 95.6504C61.5333 95.4205 61.5333 95.4205 61.7633 95.1905C61.2754 95.8002 60.6576 96.3424 59.98 96.6171C61.0041 95.4051 62.1017 94.2235 63.2025 93.0307C64.1016 92.2922 65.0782 91.6023 66.0921 90.9258C64.0142 93.6197 62.6498 96.7715 61.7636 100.021C53.4837 128.77 56.4737 158.209 54.4038 187.649C53.9625 193.474 54.1319 199.231 54.5851 204.96C54.1392 202.689 53.743 200.408 53.4326 198.116C53.2191 196.544 53.0385 194.967 52.8918 193.387Z" fill="#9CCCCC"/>
<path d="M53.4831 99.3306C52.2539 96.5649 50.7051 93.9361 49.1011 91.3223C50.4916 92.387 51.9091 93.3799 53.3938 94.2658C54.3647 95.3763 55.3213 96.5012 56.2596 97.6443C56.2614 102.176 56.1399 106.701 56.0671 111.251C56.0272 111.054 55.9863 110.856 55.9474 110.659C55.813 106.771 55.1431 102.952 53.4831 99.3306Z" fill="#9CCCCC"/>
<path d="M34.9701 98.5099C37.1282 98.7623 39.1967 99.534 40.8333 101.171C38.4453 101.673 35.9197 101.765 33.4823 102.119C33.5397 101.31 33.5988 100.502 33.6555 99.6933C33.6842 99.2862 33.7115 98.8785 33.7381 98.4707C34.1525 98.511 34.5627 98.5222 34.9701 98.5099Z" fill="#9CCCCC"/>
<path d="M33.7382 98.4706C33.7392 98.4531 33.7406 98.436 33.7417 98.4185C34.1529 98.4311 34.5631 98.4622 34.9702 98.5098C34.5628 98.5221 34.1526 98.5109 33.7382 98.4706Z" fill="#9CCCCC"/>
<path d="M40.4623 97.416C40.9642 97.2809 41.4703 97.1486 41.9834 97.0303C41.4703 97.2277 40.9642 97.3491 40.4623 97.416Z" fill="#9CCCCC"/>
<path d="M25.1257 193.863C25.5513 189.131 26.013 184.403 26.4848 179.676C27.4214 170.293 28.5883 160.937 29.5963 151.562C30.6746 141.535 31.4044 131.49 32.1054 121.43C32.5541 114.992 33.0249 108.556 33.4823 102.119C35.9201 101.765 38.4453 101.674 40.8334 101.171C39.1968 99.5343 37.1286 98.7626 34.9702 98.5102C36.8178 98.4535 38.6102 97.9149 40.462 97.4168C40.9639 97.35 41.47 97.2285 41.9831 97.0311C41.47 97.1494 40.9639 97.2817 40.462 97.4168C38.2388 97.7133 36.1028 96.9146 33.8523 96.6335C33.8663 96.4011 33.8803 96.1687 33.8939 95.9363C36.7429 93.038 38.5965 89.3847 39.453 85.5315C37.9011 88.0533 36.0216 90.4091 34.0913 92.6036C34.372 87.9882 34.721 83.3636 35.5631 78.8451C35.7902 77.6254 36.0902 76.4263 36.4909 75.2695C37.5087 75.6223 38.3946 76.2849 38.7631 77.022C39.223 78.1721 37.1531 80.4719 37.843 81.622C38.7631 82.7721 41.2929 82.3119 42.673 83.0021C43.3628 83.462 41.5229 85.072 42.443 85.7622C44.6988 87.7103 46.8642 89.6108 49.1011 91.3237C50.7048 93.9375 52.2539 96.5663 53.4831 99.332C55.1428 102.953 55.8127 106.773 55.9474 110.66C55.3724 107.741 54.91 104.801 54.4032 101.862C54.91 104.801 55.3724 107.741 55.9474 110.66C56.0181 112.699 55.9415 114.755 55.7833 116.812C55.9415 114.755 56.0181 112.699 55.9474 110.66C55.9863 110.858 56.0272 111.055 56.0671 111.252C56.0363 113.176 56.0132 115.105 56.0132 117.042C56.0986 116.597 56.1728 116.15 56.2421 115.703C55.8424 123.049 55.5089 130.395 55.0931 137.741C54.1729 154.531 53.4831 170.861 53.2531 187.651C53.2531 189.031 53.0232 190.411 53.0232 191.79C52.9703 192.32 52.9273 192.854 52.8919 193.389C52.8583 193.026 52.8244 192.662 52.7946 192.298C52.4324 199.605 52.0432 206.921 51.158 214.178C51.1314 214.397 50.9851 214.615 50.7338 214.602C45.4943 214.344 40.3801 213.144 35.4112 211.511C31.6987 210.291 28.043 209.166 24.8475 206.865C24.6448 206.719 24.6081 206.494 24.6676 206.304C24.4894 206.149 24.3641 205.934 24.3543 205.667C24.2087 201.749 24.775 197.762 25.1257 193.863Z" fill="#ECF5F8"/>
<path d="M33.8943 95.9359C33.9597 94.8264 34.0241 93.7152 34.0917 92.6029C36.0219 90.4084 37.9014 88.0525 39.4533 85.5308C38.5972 89.3843 36.7433 93.0376 33.8943 95.9359Z" fill="#9CCCCC"/>
<path d="M40.4624 97.416C38.6102 97.9144 36.8182 98.453 34.9705 98.5094C34.5635 98.4618 34.1533 98.4306 33.742 98.418C33.7805 97.8237 33.8173 97.2284 33.853 96.6323C36.1031 96.9141 38.2392 97.7128 40.4624 97.416Z" fill="#9CCCCC"/>
<path d="M74.643 77.4804C73.033 80.9303 74.413 85.7603 70.5032 88.0602C67.966 89.7517 65.3662 91.2529 63.2022 93.0302C65.1772 90.8899 67.1491 88.7077 68.6632 86.2202C69.5834 85.0701 66.8233 82.3104 64.7534 80.9303C67.0532 81.1603 69.3534 80.4704 71.6533 80.4704C69.365 74.4858 65.9987 69.0405 62.4829 63.7212C62.8273 63.8787 63.1672 64.0495 63.5007 64.2388C65.6557 65.4614 67.5807 67.1739 69.3475 68.8942C71.1724 70.6708 72.8342 72.6567 74.1404 74.8501C74.6034 75.6278 74.9877 76.4384 75.3111 77.2721C75.0094 77.1237 74.777 77.1451 74.643 77.4804Z" fill="#9CCCCC"/>
<path d="M79.8696 148.526C79.4646 147.988 79.0191 147.471 78.6201 146.932C77.722 145.721 77.0353 144.353 76.6006 142.907C76.567 142.795 76.5348 142.678 76.5589 142.564C76.5883 142.425 76.6947 142.318 76.7966 142.22C77.6747 141.371 78.5532 140.521 79.4314 139.671C80.5727 142.467 80.7106 145.682 79.8696 148.526Z" fill="#FAD1B4"/>
<path d="M79.8696 148.526C80.7106 145.682 80.5727 142.468 79.431 139.671C79.7107 139.401 79.9907 139.13 80.2703 138.859C81.8901 141.227 83.2075 143.802 84.1805 146.503C83.2803 148.166 82.2611 149.765 81.1338 151.282L80.7848 150.897C80.9311 150.997 81.0291 150.714 80.978 150.544C80.754 149.8 80.3389 149.149 79.8696 148.526Z" fill="#C5886C"/>
<path d="M36.165 139.924C37.0232 140.889 37.9469 141.796 38.9293 142.634C37.7211 145.233 36.4328 147.794 35.0727 150.317C34.4808 146.675 35.0877 143.233 36.165 139.924Z" fill="#FAD1B4"/>
<path d="M30.2476 145.164C30.2991 144.832 30.5591 144.577 30.8052 144.349C32.5009 142.773 34.197 141.196 35.8928 139.62L35.2617 138.859C35.5533 139.222 35.8553 139.577 36.1651 139.924C35.0878 143.233 34.4812 146.675 35.0727 150.317C34.7105 150.989 34.3458 151.66 33.973 152.326C32.6406 150.309 31.4611 148.191 30.4471 145.997C30.3253 145.733 30.2035 145.45 30.2476 145.164Z" fill="#C5886C"/>
<path d="M94.6525 123.25C93.0425 121.41 90.5127 121.64 88.2125 121.64C89.5926 120.95 90.7423 120.03 92.3523 120.03C90.9723 119.57 89.1323 119.8 87.9822 120.72C88.8352 118.404 90.5281 116.283 92.6498 115.005C94.7211 114.24 97.6251 115.109 98.765 117.013C99.6348 118.466 100.181 120.038 100.428 121.661C100.202 122.981 99.7835 124.281 99.0223 125.55C95.8023 130.839 93.7324 137.279 87.2924 139.349C89.3623 138.659 90.2824 140.499 89.8222 142.339C89.3623 144.639 87.0621 145.559 85.2221 144.639C82.0172 143.037 79.4671 140.693 77.2855 137.987C77.3601 137.714 77.4917 137.434 77.6992 137.145C78.5623 135.943 79.5987 134.871 80.4688 133.67C81.4327 132.34 82.3882 130.922 83.2103 129.5C84.0717 128.011 84.8441 126.418 85.5861 124.866L85.5865 124.865C88.3798 123.611 91.4353 123.028 94.6525 123.25Z" fill="#ECF5F8"/>
<path d="M89.3304 117.105C89.7476 116.729 90.2362 116.496 90.7028 116.194C91.3118 115.798 91.8438 115.326 92.5252 115.049C92.5658 115.032 92.6092 115.02 92.6505 115.005C90.5292 116.283 88.8362 118.405 87.9829 120.721C89.133 119.8 90.973 119.57 92.353 120.031C90.743 120.031 89.5929 120.951 88.2132 121.641C90.5131 121.641 93.0432 121.411 94.6532 123.251C91.436 123.029 88.3802 123.612 85.5875 124.866C86.2805 123.415 86.6949 121.848 87.3025 120.362C87.7841 119.183 88.3686 117.971 89.3304 117.105Z" fill="#9CCCCC"/>
<path d="M85.2228 144.64C87.0627 145.56 89.3626 144.64 89.8228 142.34C90.2827 140.5 89.3629 138.66 87.293 139.35C93.733 137.28 95.8029 130.84 99.0229 125.55C99.7842 124.281 100.203 122.981 100.428 121.662C100.628 122.979 100.631 124.33 100.445 125.676C99.976 129.058 98.191 132.232 96.602 135.214C94.8842 138.437 93.0253 141.607 91.1493 144.74C90.1242 146.452 89.0616 148.152 87.8401 149.732C87.4897 150.185 87.0963 150.808 86.4642 150.863C85.7362 150.926 85.2133 150.267 84.766 149.797C82.2821 147.19 80.2965 144.366 78.4783 141.264C78.3813 141.099 78.4062 140.941 78.4905 140.823C77.6302 140.005 76.9953 139.057 77.2872 137.988C79.4674 140.693 82.0178 143.037 85.2228 144.64Z" fill="#9CCCCC"/>
<path d="M24.9636 138.429C27.2635 140.039 25.6535 147.169 29.3337 145.329C32.665 143.553 34.281 139.632 36.6659 136.258C36.9651 136.623 37.2584 136.992 37.5335 137.375C38.5534 138.796 37.8237 140.026 36.7439 141.053C36.8283 141.171 36.8531 141.328 36.7562 141.494C34.9376 144.596 32.952 147.42 30.4684 150.027C30.0211 150.497 29.4982 151.156 28.7702 151.093C28.1381 151.038 27.7447 150.415 27.3944 149.962C26.1729 148.382 25.1103 146.682 24.0851 144.97C22.2091 141.837 20.3499 138.667 18.6325 135.444C17.0435 132.462 15.2585 129.288 14.7898 125.906C14.6901 125.187 14.6456 124.467 14.6547 123.751C16.1853 129.617 19.6737 134.564 24.9636 138.429Z" fill="#9CCCCC"/>
<path d="M18.9839 124.4C21.2837 122.33 23.5839 119.57 27.0339 120.03C24.734 118.65 21.9739 117.27 18.9839 117.5C21.0538 117.27 23.354 117.04 24.9636 118.19C24.2832 116.943 23.1548 115.864 21.856 115.035C22.1517 115.089 22.438 115.169 22.7086 115.278C23.39 115.556 23.9217 116.028 24.531 116.423C24.9972 116.726 25.4862 116.958 25.9034 117.334C26.8652 118.201 27.4497 119.412 27.9316 120.591C28.5396 122.077 28.954 123.645 29.647 125.096C29.7271 125.264 29.8094 125.433 29.8906 125.601C26.7854 122.793 23.4513 121.081 18.9839 124.4Z" fill="#9CCCCC"/>
<path d="M16.4681 117.244C17.4793 115.555 19.8806 114.678 21.856 115.036C23.1552 115.865 24.2836 116.943 24.9637 118.19C23.3537 117.04 21.0538 117.27 18.9839 117.501C21.974 117.271 24.7337 118.651 27.0339 120.03C23.584 119.57 21.2841 122.33 18.9839 124.4C23.4513 121.082 26.7854 122.793 29.8903 125.602C30.5584 126.993 31.2542 128.403 32.0225 129.731C32.8446 131.153 33.8001 132.571 34.764 133.901C35.3569 134.719 36.0261 135.478 36.6659 136.259C34.281 139.632 32.6651 143.554 29.3338 145.33C25.6539 147.17 27.2639 140.04 24.9637 138.43C19.6738 134.564 16.1853 129.618 14.6541 123.752C14.6831 121.476 15.269 119.246 16.4681 117.244Z" fill="#ECF5F8"/>
<path d="M52.7932 73.5706C51.3753 74.7305 50.3911 76.2516 49.4353 77.8101C48.8984 76.6828 48.3678 75.5488 48.0244 74.3465C47.5509 72.6886 47.4217 70.9449 47.3937 69.2285C47.3496 66.5482 47.1491 62.9859 49.6964 61.2926C50.8832 60.5037 52.2125 60.6255 53.4617 61.1953C55.4896 62.12 57.0075 63.2484 59.3686 62.9078C59.5692 62.8788 59.7148 63.0104 59.7669 63.1623C64.235 66.0379 64.5763 71.9644 63.9001 76.863C61.5232 73.243 56.7765 70.6355 52.7932 73.5706Z" fill="#1E767C"/>
<path d="M61.3994 74.1475C62.3741 74.9049 63.2309 75.8436 63.8997 76.8624C63.8231 77.4186 63.7339 77.9621 63.6352 78.4857C62.9576 82.0886 61.9768 85.6327 61.0476 89.1768C61.0472 89.1789 61.0465 89.1807 61.0462 89.1828C60.4085 85.1578 59.5402 81.1965 58.914 77.2401C60.1138 76.7686 61.063 75.6889 61.3994 74.1475Z" fill="#2CAAB2"/>
<path d="M58.914 77.24C59.5401 81.1964 60.4085 85.1577 61.0462 89.1827C60.1106 92.7513 59.1709 96.3224 57.9672 99.8119C57.8815 100.06 57.4545 100.121 57.4006 99.8119C56.7751 96.2324 55.4185 92.7548 54.2121 89.3374C53.9853 88.6955 53.7511 88.0564 53.5135 87.4187C54.1141 83.9709 54.7241 80.523 55.6233 77.0752C56.7562 77.6033 57.921 77.6303 58.914 77.24Z" fill="#56BBC1"/>
<path d="M49.4353 77.8108C50.3695 76.2876 51.3341 74.8022 52.7008 73.6528C52.9969 74.9919 53.9906 76.1613 55.0931 76.7913C55.2684 76.8991 55.4455 76.9932 55.623 77.0762C54.7238 80.524 54.1138 83.9719 53.5132 87.4197C52.4135 84.4703 51.1968 81.5663 49.8633 78.7138C49.7226 78.4125 49.5788 78.1118 49.4353 77.8108Z" fill="#2CAAB2"/>
<path d="M52.7008 73.6523C52.7323 73.6257 52.7614 73.597 52.7932 73.5707C55.6555 71.4616 58.9116 72.2145 61.3994 74.1479C61.063 75.6893 60.1138 76.769 58.914 77.2405C58.8661 76.937 58.8181 76.6339 58.7733 76.3305C58.8181 76.6339 58.8661 76.937 58.914 77.2405C57.9211 77.6307 56.7566 77.6038 55.6233 77.0756C55.7479 76.5972 55.8767 76.1191 56.0132 75.6406C55.8767 76.1191 55.7479 76.5972 55.6233 77.0756C55.4455 76.9927 55.2688 76.8985 55.0934 76.7907C53.9906 76.1611 52.9969 74.9917 52.7008 73.6523Z" fill="#56BBC1"/>
<path d="M60.4732 63.8354C60.4564 64.1403 60.447 64.4455 60.447 64.7507C60.447 66.0331 60.7763 67.3897 60.2513 68.6112C59.4554 70.4627 57.263 71.4889 55.3163 71.162C54.3097 70.9929 53.4662 70.4777 52.8033 69.7725C52.9332 68.3858 53.2398 67.0138 53.7133 65.751C54.6944 62.8071 57.8528 64.2162 60.4732 63.8354Z" fill="#FAD1B4"/>
<path d="M51.3138 57.4875C51.2837 57.1651 51.6459 56.9499 51.9256 57.0216C54.0648 57.5697 55.9614 58.7653 58.0884 59.3379C58.6151 59.4797 59.1566 59.5787 59.7026 59.5962C60.1019 59.6092 60.566 59.4849 60.9559 59.6078C61.5075 59.7814 61.693 60.2735 61.385 60.7572C61.2755 60.9294 61.006 60.9777 60.8429 60.8695C60.6637 61.8502 60.5275 62.8414 60.4733 63.8358C57.8528 64.2162 54.6944 62.8071 53.713 65.7513C53.2395 67.0145 52.9329 68.3861 52.803 69.7728C52.033 68.9538 51.5077 67.8779 51.2665 66.7772C50.5924 63.7003 51.6022 60.5825 51.3138 57.4875Z" fill="#C5886C"/>
<path d="M69.324 16.9105C70.8014 16.6939 72.1912 17.6732 73.3994 18.384C73.4243 18.3987 73.4512 18.4138 73.4792 18.4288C73.4134 18.3336 73.3466 18.2388 73.278 18.1432C73.216 18.0571 73.3392 17.9339 73.4253 17.9959C76.5442 20.2254 76.7752 24.8177 75.9884 28.2302C75.2191 31.5661 72.6172 35.5277 69.1378 36.4563C68.6688 36.5816 68.2285 36.1441 68.3556 35.674C69.4455 31.6403 69.0962 27.8725 67.9223 23.9158C67.3367 21.9414 66.1254 17.3795 69.324 16.9105Z" fill="#564B45"/>
<path d="M62.9926 48.8248C64.4559 48.1182 66.1555 49.2907 67.6724 48.6747C66.718 49.9742 64.731 50.3848 63.2925 49.6211C63.1424 49.4622 62.8424 48.8248 62.9926 48.8248Z" fill="#D3967B"/>
<path d="M59.3931 36.401C59.8429 36.2417 60.4428 35.6047 60.293 34.8081C61.1928 35.9232 62.0927 37.3565 61.6426 38.9493C61.0427 41.0199 58.1933 41.4977 56.6936 40.2237C55.4077 39.0099 56.4356 37.5066 57.1839 36.1276C57.955 36.2809 58.6354 36.6309 59.3931 36.401Z" fill="#D3967B"/>
<path d="M60.7879 35.4643C60.6287 35.2351 60.461 35.016 60.293 34.8081C60.4428 35.6043 59.8433 36.2417 59.3932 36.4009C58.6354 36.6309 57.955 36.2809 57.1843 36.1276C57.2214 36.059 57.2582 35.9907 57.2939 35.9228V36.0821V35.9228C57.2585 35.9907 57.2218 36.059 57.1843 36.1276C56.8875 36.0688 56.5774 36.038 56.2439 36.0821C56.5774 36.0376 56.8875 36.0684 57.1843 36.1276C56.7916 36.851 56.3223 37.6088 56.1504 38.341C56.0111 37.7887 56.176 37.1251 55.7941 36.7194C55.9439 36.5602 56.2439 36.8787 56.2439 36.5602C55.1652 36.5602 53.9661 35.9162 54.062 34.744C55.2401 33.8809 56.4899 33.0903 57.7538 32.3647C57.8007 32.3808 57.8472 32.3987 57.8938 32.4186C59.0663 32.9849 60.3893 34.1147 60.7879 35.4643Z" fill="#D3967B"/>
<path d="M67.9416 33.8522C66.914 34.2887 65.982 35.1245 65.4279 36.1307C65.3975 34.8844 67.025 33.3332 68.0918 32.5779C68.4204 32.3682 68.7781 32.2506 69.1393 32.2114C69.1659 32.2342 69.2069 32.2534 69.2436 32.2737C69.2097 32.2685 69.1754 32.2632 69.1418 32.259C69.1754 32.2629 69.2097 32.2681 69.2436 32.2737C69.3077 32.3091 69.3577 32.3486 69.2916 32.4186C69.3574 32.3486 69.3077 32.3094 69.2436 32.2737C70.5722 32.4827 72.1147 33.7245 71.0913 34.967C70.4763 35.8651 69.5457 36.8041 68.5625 37.2924C68.2195 36.7488 67.6837 36.3075 67.3421 35.7632C66.892 35.2855 67.3417 34.33 67.9416 33.8522Z" fill="#D3967B"/>
<path d="M47.2457 49.6213C49.3009 57.6251 55.8911 61.0834 63.0563 62.1667C63.2215 62.1215 63.3863 62.0722 63.5501 62.0141C67.6441 60.5654 72.2924 57.3346 73.9458 52.9158C74.7421 50.7878 74.5324 48.4687 74.1982 46.1902C73.7229 44.2579 73.1188 42.3206 72.5906 40.383C72.2907 39.4272 72.2907 38.4717 72.5906 37.5158C73.3183 34.3144 74.0449 31.1896 73.8737 28.035C73.5899 26.3662 73.0628 24.759 72.22 23.1987C71.2862 21.4697 70.079 19.9707 68.7543 18.5864C69.043 23.4147 66.6273 28.0154 62.2422 30.0293C60.7932 30.7234 59.2637 31.4976 57.7531 32.3649C57.8 32.381 57.8465 32.3988 57.8931 32.4188C59.0656 32.9847 60.3889 34.1145 60.7872 35.4641C61.4809 36.4634 62.008 37.6534 61.6423 38.9491C61.0424 41.0197 58.193 41.4974 56.6933 40.2234C56.0822 39.6463 55.994 39.004 56.1501 38.3408C56.0108 37.7885 56.1756 37.1249 55.7938 36.7192C55.9436 36.56 56.2435 36.8785 56.2435 36.56C55.1648 36.56 53.9657 35.916 54.0616 34.7438C49.2138 38.2956 45.5832 43.0777 47.2457 49.6213ZM63.169 44.7027C63.3282 45.254 64.135 45.6999 63.5925 46.2763C63.2925 46.4356 62.5428 46.4356 62.6926 45.9578C62.6926 45.5854 62.876 45.1175 63.169 44.7027C63.1522 44.6446 63.1424 44.5851 63.1424 44.5242C63.1424 44.5851 63.1522 44.6443 63.169 44.7027C63.2523 44.5848 63.3429 44.4707 63.4423 44.365C63.3429 44.4707 63.2523 44.5848 63.169 44.7027ZM68.952 40.7687C67.7396 40.95 66.4663 41.1863 65.542 40.0642C64.6456 38.766 64.7688 37.3279 65.4279 36.1309C65.3974 34.8845 67.0249 33.3333 68.0917 32.578C68.4204 32.3684 68.7781 32.2508 69.1393 32.2116C69.1064 32.1832 69.0952 32.1493 69.1417 32.0999C69.0952 32.1493 69.1064 32.1832 69.1393 32.2116C69.602 32.1612 70.0703 32.2396 70.4913 32.4188C70.0703 32.2399 69.602 32.1615 69.1393 32.2116C69.1659 32.2343 69.2068 32.2536 69.2436 32.2739C70.5722 32.4828 72.1146 33.7246 71.0912 34.9671C70.4763 35.8652 69.5456 36.8043 68.5625 37.2925C68.8218 37.7034 68.9706 38.1728 68.8418 38.7898C68.762 38.9589 68.5982 39.0383 68.4617 39.1234C68.6867 39.6501 68.874 40.1898 68.952 40.7687C69.1165 40.7442 69.28 40.7204 69.4413 40.7015C69.28 40.7204 69.1165 40.7439 68.952 40.7687C68.9772 40.9546 68.9916 41.1439 68.9916 41.3385C68.9912 41.1439 68.9769 40.9542 68.952 40.7687ZM63.2925 49.6213C63.1427 49.462 62.8428 48.825 62.9926 48.825C64.4559 48.1184 66.1555 49.2909 67.6724 48.6749C67.713 48.6196 67.755 48.565 67.7918 48.5062C67.9416 48.1877 68.3917 47.7099 67.9416 47.3911C68.3913 47.7096 67.9416 48.1873 67.7918 48.5062C67.755 48.565 67.713 48.6192 67.6724 48.6749C67.8653 48.5965 68.0557 48.4908 68.2415 48.3469C68.0553 48.4908 67.8653 48.5965 67.6724 48.6749C66.718 49.9741 64.731 50.385 63.2925 49.6213ZM60.7431 55.3553C61.4487 55.9549 62.4196 56.2716 63.4063 55.9094C63.4574 55.6122 63.5064 55.3116 63.5925 55.0368C63.5064 55.3116 63.457 55.6122 63.4063 55.9094C63.4682 55.8866 63.5305 55.8614 63.5925 55.8334C63.5302 55.8618 63.4682 55.8866 63.4063 55.9094C63.2796 56.6458 63.141 57.3584 62.3927 57.5855C61.1929 57.7444 60.7431 56.3112 60.7431 55.3553Z" fill="#FAD1B4"/>
<path d="M63.4063 55.9092C63.2796 56.6456 63.141 57.3582 62.3927 57.5853C61.1929 57.7446 60.7431 56.311 60.7431 55.3555C61.4484 55.9547 62.4193 56.2714 63.4063 55.9092Z" fill="#D3967B"/>
<path d="M63.169 44.7031C63.3282 45.2544 64.135 45.7003 63.5925 46.2767C63.2925 46.436 62.5428 46.436 62.6926 45.9582C62.6926 45.5858 62.876 45.1179 63.169 44.7031Z" fill="#D3967B"/>
<path d="M65.542 40.0642C63.8924 37.6751 65.6918 34.8079 67.9416 33.8521C67.3417 34.3298 66.8919 35.2857 67.3417 35.7634C67.9416 36.7193 69.1414 37.3563 68.8414 38.7899C68.7616 38.9589 68.5978 39.0384 68.4613 39.1234C68.3448 38.8508 68.2184 38.5812 68.0917 38.3121C68.2184 38.5812 68.3448 38.8508 68.4613 39.1234C68.3409 39.1983 68.2415 39.2778 68.2415 39.4272C68.2415 39.2778 68.3409 39.1987 68.4613 39.1234C68.6867 39.6498 68.8739 40.1899 68.952 40.7684C67.7396 40.9501 66.4663 41.1863 65.542 40.0642Z" fill="#D3967B"/>
<path d="M72.5906 37.516C73.3183 34.3145 74.0449 31.1897 73.8737 28.0352C74.111 29.4317 74.1786 30.8712 74.1114 32.3633C73.9577 35.7782 73.3501 39.1799 73.69 42.605C73.8051 43.7645 74.019 44.9713 74.1978 46.19C73.7225 44.2577 73.1184 42.3204 72.5903 40.3828C72.2907 39.4273 72.2907 38.4715 72.5906 37.516Z" fill="#D3967B"/>
<path d="M39.7995 41.7993C41.5414 42.5788 43.5984 44.6368 42.8963 46.2769C42.8963 46.7546 41.5467 47.0731 40.6468 46.5954C39.2972 45.7991 38.5472 43.8874 39.2972 42.2949C39.3973 42.0818 39.565 41.8697 39.7995 41.7993Z" fill="#D3967B"/>
<path d="M36.9424 46.3012C37.7793 47.8384 39.2269 49.4323 40.8092 50.0847C42.2852 50.6934 42.5421 49.3259 43.3159 48.1279C43.346 48.3018 43.3824 48.4744 43.4223 48.6462C43.3999 46.5809 43.2141 44.4938 43.9277 42.5538C43.4825 40.1643 42.883 37.7896 41.5239 35.7764C41.434 35.8072 41.3454 35.8394 41.259 35.874C40.4883 36.1852 39.7389 36.5653 39.0484 37.0462C37.738 37.9597 36.6439 39.2491 36.2081 40.8762C35.7213 42.6955 36.0611 44.6818 36.9424 46.3012ZM39.2972 42.2944C39.3977 42.0813 39.5653 41.8692 39.7995 41.7992C39.6801 41.746 39.5625 41.6984 39.447 41.6574C39.5622 41.6984 39.6801 41.746 39.7995 41.7992C39.9157 41.7645 40.048 41.7638 40.1971 41.8167C40.048 41.7638 39.9157 41.7645 39.7995 41.7992C41.5414 42.5786 43.5984 44.6366 42.8963 46.2767C42.8963 46.7545 41.5467 47.073 40.6468 46.5952C39.2972 45.7986 38.5472 43.8869 39.2972 42.2944Z" fill="#FAD1B4"/>
<path d="M43.9277 42.5544C44.0404 43.1589 44.1436 43.7644 44.2462 44.3653C44.1433 43.7644 44.0404 43.1589 43.9277 42.5544C43.9795 42.4141 44.0348 42.2741 44.0964 42.1355C44.0348 42.2741 43.9791 42.4137 43.9277 42.5544C43.4825 40.165 42.8829 37.7902 41.5239 35.777C42.3268 35.5012 43.2494 35.3546 43.9217 34.8366C44.761 34.1894 45.0137 33.0656 45.3749 32.0943C45.6731 31.2928 46.0732 30.5575 46.5905 29.8918C47.8067 28.3276 47.4949 24.0461 49.0562 22.9145C51.0253 21.4872 54.9593 23.2152 56.9239 21.7809C57.9879 21.0039 59.0536 20.2293 60.1218 19.4593C61.1925 18.6876 62.2764 17.8521 63.4566 17.2771C64.2322 16.8991 65.0897 16.5897 65.9542 16.7213C66.5202 16.8074 67.385 17.3324 67.7088 17.5938C67.8351 17.7051 67.9331 17.7839 68.0756 17.8941C68.3052 18.122 68.532 18.3526 68.7556 18.5864C69.0444 23.4147 66.6287 28.0154 62.2435 30.0293C54.595 33.6928 44.697 39.5864 47.2464 49.6209C49.3016 57.6247 55.8917 61.0831 63.0569 62.1663C59.5993 63.1131 55.8504 61.3445 52.8936 59.5298C49.1273 57.2184 44.5125 53.346 43.423 48.6462C43.3999 46.5815 43.2137 44.4941 43.9277 42.5544Z" fill="#D3967B"/>
<path d="M72.087 36.2314C71.731 36.965 71.0338 37.4312 70.3702 36.8127C69.7724 36.2555 68.9216 35.7918 68.0809 36.0672C67.4183 36.2842 67.3515 37.0651 66.7939 37.3864C66.7302 37.4231 66.6442 37.3776 66.6459 37.2961C66.6641 36.4778 67.4799 35.663 68.2303 35.5601C68.685 35.4978 69.2516 35.5884 69.672 35.7767C70.4287 36.1162 71.2932 37.4529 72.0782 36.2254C72.0817 36.2198 72.0901 36.2247 72.087 36.2314Z" fill="#5B3E2F"/>
<path d="M54.2922 35.4387C55.0031 36.7519 56.2701 35.4789 57.2959 35.5829C58.1363 35.6679 58.7747 36.1859 59.1072 36.9797C59.1408 37.0602 59.0718 37.1397 58.9941 37.0998C58.4198 36.8047 57.8738 36.2339 57.2196 36.1803C56.6432 36.1334 56.1388 36.4505 55.5806 36.495C54.9243 36.5471 54.4546 36.0827 54.2278 35.4674C54.2131 35.4275 54.2726 35.403 54.2922 35.4387Z" fill="#5B3E2F"/>
<path d="M68.8039 40.7813C70.0669 40.7813 71.0908 39.6938 71.0908 38.3523C71.0908 37.0108 70.0669 35.9233 68.8039 35.9233C67.5409 35.9233 66.517 37.0108 66.517 38.3523C66.517 39.6938 67.5409 40.7813 68.8039 40.7813Z" fill="white"/>
<path d="M68.1641 40.3709C68.9518 40.3709 69.5904 39.6927 69.5904 38.8561C69.5904 38.0195 68.9518 37.3413 68.1641 37.3413C67.3764 37.3413 66.7379 38.0195 66.7379 38.8561C66.7379 39.6927 67.3764 40.3709 68.1641 40.3709Z" fill="black"/>
<path d="M68.8677 38.9171C69.1603 38.9171 69.3976 38.6651 69.3976 38.3543C69.3976 38.0435 69.1603 37.7915 68.8677 37.7915C68.575 37.7915 68.3378 38.0435 68.3378 38.3543C68.3378 38.6651 68.575 38.9171 68.8677 38.9171Z" fill="white"/>
<path d="M57.1819 40.7833C58.4449 40.7833 59.4688 39.6958 59.4688 38.3543C59.4688 37.0128 58.4449 35.9253 57.1819 35.9253C55.9188 35.9253 54.895 37.0128 54.895 38.3543C54.895 39.6958 55.9188 40.7833 57.1819 40.7833Z" fill="white"/>
<path d="M56.5424 40.3733C57.3301 40.3733 57.9686 39.6952 57.9686 38.8586C57.9686 38.022 57.3301 37.3438 56.5424 37.3438C55.7547 37.3438 55.1161 38.022 55.1161 38.8586C55.1161 39.6952 55.7547 40.3733 56.5424 40.3733Z" fill="black"/>
<path d="M57.2459 38.9195C57.5386 38.9195 57.7758 38.6676 57.7758 38.3567C57.7758 38.0459 57.5386 37.7939 57.2459 37.7939C56.9532 37.7939 56.716 38.0459 56.716 38.3567C56.716 38.6676 56.9532 38.9195 57.2459 38.9195Z" fill="white"/>
<path d="M63.8879 38.8278C64.85 40.2537 65.8384 41.6239 66.9042 42.9672C67.4124 43.6077 67.9213 44.089 68.4456 44.7148C68.7868 45.1218 69.4595 45.7949 69.5813 46.3507C69.7745 47.2309 68.8208 48.3635 68.2286 48.8385C67.2937 49.5885 65.8206 50.2227 64.6474 49.9938C64.5389 49.9728 64.5518 49.8034 64.6474 49.7744C65.843 49.4083 67.2608 49.1374 68.2307 48.2508C68.6027 47.9106 69.112 47.3128 69.1673 46.7619C69.2362 46.0749 68.2933 45.153 67.8947 44.6738C66.4187 42.9004 64.6964 41.0685 63.8816 38.8306C63.8802 38.8264 63.8858 38.8246 63.8879 38.8278Z" fill="#B27A5D"/>
<path d="M66.5868 52.2509C65.198 54.0632 63.2583 54.2242 61.5261 53.4279C60.592 52.9985 59.6687 52.3503 58.8728 51.5323C58.2701 50.9132 57.5851 49.9468 57.2148 48.879C57.1984 48.8317 57.4196 48.6973 57.4451 48.7481C57.835 49.5216 58.2039 50.0326 58.7359 50.6458C59.4104 51.4228 60.1692 52.0874 60.9602 52.5935C62.7889 53.7632 65.1266 53.6974 66.7289 51.7521C66.7439 51.7343 66.6015 52.2316 66.5868 52.2509Z" fill="#B27A5D"/>
<path d="M58.0376 48.5303C57.8472 48.6108 57.6778 48.6959 57.5539 48.7946C57.4248 48.8971 57.2652 49.1579 57.1675 49.3154C57.0223 49.5502 56.9362 49.6731 56.7447 49.8344C56.7216 49.854 56.6933 49.8288 56.6926 49.7917C56.6852 49.3892 57.0006 48.7403 57.2088 48.5188C57.4276 48.2867 57.7384 48.3235 58.0149 48.4302C58.0229 48.4334 58.0306 48.4432 58.0324 48.4551C58.0359 48.4778 58.0397 48.5009 58.0432 48.5237C58.0439 48.5286 58.0404 48.5328 58.0376 48.5303Z" fill="#B27A5D"/>
<path d="M64.0145 55.5457C62.9918 56.6352 61.4823 56.3717 60.5289 55.0844C60.4995 55.0448 60.72 54.972 60.7539 55.0014C61.0822 55.2867 61.4098 55.6006 61.8725 55.8365C62.5487 56.1813 63.3373 56.0241 64.1577 55.3451C64.1734 55.3325 64.0282 55.5313 64.0145 55.5457Z" fill="#B27A5D"/>
<path d="M71.9596 34.2303C71.4202 33.2846 70.5529 32.8842 69.5607 32.7393C69.2765 32.698 68.9692 32.7522 68.6937 32.7067C68.6447 32.6987 68.3521 32.6066 68.4008 32.5828C68.3672 32.5993 68.3105 32.5811 68.3161 32.5314C68.3906 31.8807 69.343 32.1128 69.7525 32.2045C70.7097 32.4183 71.773 33.1404 71.9785 34.2219C71.9813 34.2338 71.9659 34.2415 71.9596 34.2303Z" fill="#5B3E2F"/>
<path d="M54.1933 32.9027C54.7568 32.2265 55.8547 31.516 56.841 31.3977C57.5302 31.3151 58.569 31.5734 58.8101 32.2202C58.8266 32.2647 58.7559 32.3151 58.7037 32.2846C57.3727 31.508 55.3819 32.3662 54.215 32.9199C54.202 32.9262 54.1845 32.9136 54.1933 32.9027Z" fill="#5B3E2F"/>
<path d="M43.1762 45.4846C42.8381 44.6533 42.3649 43.9652 41.7734 43.3142C41.0195 42.4847 40.3181 42.1214 39.2566 41.9447C39.1481 41.9265 39.1796 41.777 39.2566 41.7431C40.9674 40.9871 43.0033 43.9313 43.2119 45.4688C43.2144 45.4895 43.1857 45.5084 43.1762 45.4846Z" fill="#B27A5D"/>
<path d="M43.1234 45.4035C42.6527 44.6822 42.1634 44.2349 41.3083 44.2447C40.8435 44.2499 40.3119 44.356 39.8684 44.5061C39.8415 44.5152 39.8135 44.4953 39.8058 44.4683C39.6101 43.7932 41.0955 43.7949 41.4284 43.8306C42.3279 43.9272 42.933 44.4697 43.1682 45.3832C43.1763 45.413 43.1388 45.427 43.1234 45.4035Z" fill="#B27A5D"/>
<path d="M36.6869 33.2222C36.5651 33.7563 36.437 34.2858 36.2977 34.808C36.4167 34.2792 36.5473 33.75 36.6869 33.2222Z" fill="#5B3E2F"/>
<path d="M46.9636 18.6328C46.7924 19.1316 46.4911 19.7073 46.2895 20.1599C46.3021 19.8634 46.322 19.5729 46.3532 19.2919C46.3532 19.1102 46.7826 18.9279 46.9636 18.6328Z" fill="#261F1C"/>
<path d="M61.2776 20.3391C61.3689 19.2075 61.5726 18.0844 61.993 16.9917C61.9135 17.9465 61.6685 19.1764 61.2776 20.3391Z" fill="#261F1C"/>
<path d="M46.9636 18.6327C46.9944 18.5431 47.0224 18.4549 47.0434 18.3716C47.0434 18.4682 47.0119 18.5543 46.9636 18.6327Z" fill="#261F1C"/>
<path d="M33.7854 21.7261C33.7644 21.3611 33.8862 21.1122 34.0836 20.9316C34.2782 21.3467 34.3447 21.8959 34.4266 22.4594C34.0825 22.3421 33.8081 22.1241 33.7854 21.7261Z" fill="#261F1C"/>
<path d="M40.4596 23.5938C40.0781 24.9913 40.0109 26.5824 40.3732 28.0314C42.4431 26.6513 42.2131 24.1215 42.4431 22.0516C42.4431 25.0417 41.293 31.7116 43.8231 30.7915C47.2412 29.585 46.2651 24.8639 46.2728 20.9292" fill="#4F4F4F"/>
<path d="M61.2775 20.339C61.119 22.3042 61.3031 24.294 61.3031 26.1917C65.4429 24.3517 67.2828 19.5217 67.5131 15.152C69.813 16.3021 71.6529 19.0618 74.643 18.8319C74.2174 16.916 73.1996 15.3945 71.774 14.0845C71.6494 13.9826 71.5301 13.879 71.423 13.7719C71.5427 13.8748 71.6592 13.9791 71.774 14.0845C72.9875 15.076 74.916 15.7564 75.3332 14.922C75.9751 13.7807 75.9082 12.5956 75.4021 11.4619C72.9168 9.33252 69.9313 7.80547 66.8317 6.78522C64.8549 6.13457 62.7965 5.60607 60.7123 5.49722C58.4635 5.37997 56.1483 5.25432 53.9111 5.55672C50.339 6.03937 47.092 7.19892 44.1233 9.22087C41.8963 10.7378 40.3958 12.7604 39.7676 15.1523C39.6066 14.7526 39.3553 14.4156 38.9689 14.3274C37.3218 13.9515 37.4194 18.1749 37.509 19.976C36.7436 19.996 35.8553 20.2718 35.3089 20.4209C35.3089 20.4209 31.9132 21.3501 34.4269 22.46C34.7881 22.5832 35.2263 22.5951 35.534 22.5835C35.807 22.5734 36.0936 22.5359 36.3789 22.475C35.8941 23.0963 35.5742 23.833 35.36 24.623C36.1458 25.324 37.5388 24.4749 38.3655 23.3787" fill="#4F4F4F"/>
<path d="M46.2731 20.9291C49.4357 21.5108 52.362 19.0188 54.1733 16.3018C53.4834 17.6818 53.0232 19.7517 53.7134 20.4416C54.8635 21.5917 56.4735 19.2915 57.6232 18.1417C56.9334 19.9817 56.0132 23.2017 57.6232 23.8915C59.278 24.4932 60.5387 22.5367 61.2779 20.339" fill="#4F4F4F"/>
<path d="M62.8074 25.1445C66.0333 22.9591 67.3087 19.0338 67.5128 15.152C69.8126 16.3021 71.6526 19.0618 74.6426 18.8319C74.217 16.916 73.1992 15.3945 71.7737 14.0845C72.9871 15.076 74.9156 15.7564 75.3328 14.922C75.9747 13.7807 75.9079 12.5956 75.4018 11.4619C75.9138 11.9008 76.4063 12.3632 76.8725 12.8542C77.9165 13.9543 79.5101 15.5993 78.8668 17.2768C78.6697 17.7903 78.2921 18.1641 77.815 18.4339C78.6102 18.9901 79.3585 19.5875 80.0246 20.1633C81.1278 21.117 82.1711 23.126 80.6003 24.2093C79.109 25.2379 77.0681 24.4669 75.5589 23.9464C73.8492 23.357 72.3701 22.6325 71.0072 21.4877C67.9443 26.0373 63.7468 30.1281 58.0649 30.7756C57.0369 30.8929 55.8844 31.0462 55.2547 30.0585C54.5715 28.9868 54.7539 27.3302 55.0864 26.1822C55.1609 25.925 55.2509 25.6723 55.3475 25.4213C54.6877 25.9022 53.8197 26.4479 53.1589 26.0156C52.5366 25.6086 52.537 24.9247 52.8355 24.1872C51.7652 24.8932 50.5213 25.3933 49.3502 25.5162C49.9673 27.4919 49.6603 30.0683 49.2365 31.6888C48.3401 35.116 46.1113 38.1081 43.0439 39.8753L42.9645 39.8441C42.535 39.6751 42.1784 39.3758 41.8826 39.0213C41.6376 38.7276 41.3188 38.5162 40.9425 38.2565C39.37 37.1712 37.7855 38.1302 37.7855 38.1302C37.6564 38.0329 37.5346 37.9261 37.4184 37.8117C37.3781 37.7872 37.3456 37.7539 37.3253 37.7144C36.5465 36.8936 36.0611 35.7197 35.6876 34.6925C35.1077 33.0989 34.883 31.4445 34.9075 29.754C34.9302 28.186 34.9078 26.2858 35.3593 24.623C36.1451 25.324 37.5381 24.4749 38.3648 23.3787C37.9112 24.3087 37.8524 25.415 37.8447 26.4402C37.8433 26.6372 38.0652 26.752 38.2258 26.6379C39.272 25.8956 39.9898 24.7504 40.4599 23.5943C40.1155 24.8561 40.0273 26.2757 40.28 27.6064C40.3192 27.8125 40.5747 27.8962 40.7346 27.7607C42.4164 26.3383 42.2277 23.993 42.4433 22.0522C42.4433 25.0423 41.2932 31.7122 43.8234 30.7921C47.2415 29.5856 46.2653 24.8645 46.273 20.9298C49.4356 21.5115 52.362 19.0195 54.1732 16.3024C53.4834 17.6825 53.0231 19.7524 53.7133 20.4422C54.8634 21.5923 56.4734 19.2921 57.6232 18.1424C57.1633 19.3691 56.6008 21.2091 56.7545 22.5037C56.8595 23.3906 57.8983 23.8456 58.6445 23.3549C59.6567 22.6892 61.1522 21.3162 61.8344 18.757C61.8344 18.757 61.2205 22.1061 61.357 24.4102C61.4091 25.2967 62.072 25.6429 62.8074 25.1445Z" fill="#373737"/>
<path d="M139.252 161.826C139.252 161.874 108.229 161.913 69.9691 161.913C31.6956 161.913 0.67926 161.874 0.67926 161.826C0.67926 161.778 31.6959 161.739 69.9691 161.739C108.229 161.739 139.252 161.778 139.252 161.826Z" fill="#1A2E35"/>
<path d="M99.7797 143.978C100.607 145.16 102.215 144.769 102.961 144.048C103.706 143.326 104.022 142.281 104.308 141.284C104.964 139.006 105.625 136.617 105.137 134.297C104.992 133.604 104.732 132.912 104.245 132.398C103.758 131.883 103.008 131.577 102.323 131.758C101.512 131.972 101.008 132.766 100.644 133.522C99.5735 135.742 99.0065 138.204 98.9985 140.669C98.9946 141.821 99.1301 143.028 99.7797 143.978Z" fill="#FF4F5B"/>
<path d="M99.7797 143.978C100.607 145.16 102.215 144.769 102.961 144.048C103.706 143.326 104.022 142.281 104.308 141.284C104.964 139.006 105.625 136.617 105.137 134.297C104.992 133.604 104.732 132.912 104.245 132.398C103.758 131.883 103.008 131.577 102.323 131.758C101.512 131.972 101.008 132.766 100.644 133.522C99.5735 135.742 99.0065 138.204 98.9985 140.669C98.9946 141.821 99.1301 143.028 99.7797 143.978Z" fill="#2CAAB2"/>
<path d="M102.88 149.963C104.233 149.265 105.826 149.175 107.328 149.423C108.135 149.556 108.977 149.798 109.526 150.404C110.075 151.01 110.179 152.077 109.548 152.598C109.173 152.908 108.65 152.955 108.163 152.949C106.987 152.935 105.682 152.728 104.742 153.436C104.206 153.839 103.849 154.511 103.209 154.709C102.582 154.903 101.874 154.533 101.542 153.967C101.209 153.402 101.198 152.694 101.353 152.056C101.354 152.057 101.517 150.667 102.88 149.963Z" fill="#2CAAB2"/>
<path d="M97.5075 145.674C98.4059 144.608 98.5764 143.053 98.1767 141.717C97.777 140.381 96.8736 139.245 95.8331 138.317C94.613 137.23 93.1783 136.383 91.6362 135.841C91.0293 135.628 90.3892 135.459 89.7487 135.521C89.1082 135.582 88.4635 135.909 88.1646 136.479C87.7229 137.321 88.1464 138.343 88.6045 139.177C89.4113 140.645 90.3342 142.05 91.3611 143.374C92.1875 144.439 93.1339 145.49 94.3928 145.972C95.6521 146.453 96.9601 146.396 97.6275 145.523" fill="#2CAAB2"/>
<path d="M99.7237 161.805C99.7391 161.806 99.7643 161.615 99.7986 161.268C99.8367 160.877 99.8843 160.387 99.9414 159.803C100.01 159.186 100.1 158.452 100.271 157.653C100.442 156.856 100.709 155.992 101.052 155.116C101.408 154.245 101.841 153.453 102.348 152.82C102.851 152.184 103.436 151.724 103.986 151.459C104.534 151.188 105.025 151.078 105.365 151.029C105.708 150.994 105.9 150.967 105.9 150.952C105.9 150.937 105.708 150.934 105.356 150.944C105.007 150.967 104.495 151.055 103.918 151.318C103.338 151.575 102.718 152.042 102.19 152.691C101.658 153.337 101.209 154.146 100.847 155.033C100.498 155.924 100.235 156.797 100.072 157.611C99.9088 158.424 99.8346 159.166 99.786 159.788C99.7394 160.41 99.7219 160.914 99.7135 161.263C99.7048 161.611 99.7086 161.804 99.7237 161.805Z" fill="#1A2E35"/>
<path d="M99.8249 160.677C99.8326 160.677 99.8371 160.591 99.8392 160.428C99.8389 160.241 99.8382 160.005 99.8375 159.715C99.8357 159.097 99.8361 158.202 99.8693 157.097C99.9239 154.887 100.114 151.837 100.482 148.484C100.852 145.129 101.343 142.112 101.79 139.947C101.895 139.405 102.002 138.916 102.102 138.489C102.198 138.06 102.279 137.691 102.358 137.392C102.426 137.111 102.481 136.881 102.525 136.699C102.56 136.54 102.576 136.456 102.569 136.454C102.561 136.452 102.531 136.532 102.482 136.687C102.428 136.867 102.359 137.093 102.275 137.37C102.184 137.666 102.089 138.034 101.982 138.46C101.87 138.886 101.753 139.373 101.637 139.915C101.149 142.076 100.633 145.098 100.262 148.459C99.8938 151.82 99.7279 154.879 99.7132 157.095C99.6999 158.202 99.7237 159.099 99.7521 159.718C99.7699 160.007 99.7843 160.243 99.7955 160.43C99.807 160.592 99.8172 160.677 99.8249 160.677Z" fill="#1A2E35"/>
<path d="M99.8395 154.776C99.8549 154.776 99.8521 154.511 99.8343 154.032C99.807 153.554 99.7412 152.862 99.6064 152.016C99.4636 151.171 99.2641 150.168 98.9505 149.077C98.6523 147.983 98.2428 146.802 97.722 145.601C96.7028 143.183 95.3186 141.207 94.1139 139.983C93.8314 139.658 93.5168 139.424 93.2651 139.194C93.1349 139.084 93.0198 138.974 92.9025 138.887C92.7846 138.806 92.675 138.73 92.5732 138.66C92.1766 138.389 91.9547 138.246 91.9467 138.259C91.911 138.307 92.8346 138.851 94.0005 140.091C95.1618 141.329 96.5075 143.292 97.5183 145.689C98.0346 146.88 98.4469 148.05 98.7538 149.134C99.0762 150.213 99.29 151.206 99.4517 152.042C99.6054 152.881 99.6943 153.565 99.7482 154.039C99.7923 154.514 99.8241 154.777 99.8395 154.776Z" fill="#1A2E35"/>
<path d="M38.3648 23.3787C38.3648 23.3787 37.193 25.4787 37.7282 26.4598C37.8374 26.66 38.0635 26.7601 38.278 26.6827C38.6795 26.5382 39.3994 25.9239 40.469 23.7371C40.5131 23.6468 40.5884 23.5715 40.6797 23.5295L42.1385 22.8604L38.3648 23.3787Z" fill="#4F4F4F"/>
</g>
<defs>
<clipPath id="clip0">
<rect width="140" height="175" fill="white"/>
</clipPath>
</defs>
</svg>
