<svg width="51" height="51" viewBox="0 0 51 51" fill="none" xmlns="http://www.w3.org/2000/svg">
<g clip-path="url(#clip0)">
<g opacity="0.21">
<g opacity="0.21">
<g opacity="0.21">
<g opacity="0.21">
<g opacity="0.21">
<path opacity="0.21" d="M34.7736 47.4609C32.1923 45.88 31.4366 42.7019 31.3603 39.8087C31.3476 39.3259 31.264 38.821 31.4677 38.3842C31.6716 37.9477 32.189 37.6264 32.6327 37.8033C33.0008 37.9502 33.1819 38.3571 33.4029 38.6894C33.6969 39.1315 34.1166 39.4866 34.5983 39.7007C34.9149 39.8415 35.3004 39.9159 35.5933 39.7305C35.9951 39.4761 36.0095 38.8988 35.9775 38.4196C35.918 37.5265 35.8586 36.6335 35.799 35.7406C35.7671 35.2615 35.7361 34.7721 35.8578 34.3081C35.9794 33.8442 36.2834 33.4017 36.7316 33.2465C37.1799 33.0913 37.7596 33.3202 37.8843 33.7835C37.9361 33.9763 37.9086 34.1814 37.9339 34.3795C37.9592 34.5778 38.0652 34.7923 38.2575 34.8363C38.4522 34.881 38.6358 34.7335 38.7706 34.5846C39.2362 34.0707 39.5343 33.427 39.8106 32.7881C40.0869 32.1491 40.3532 31.496 40.7703 30.941C41.1873 30.3861 41.783 29.9303 42.4671 29.85C43.1514 29.7697 43.9083 30.1493 44.1224 30.8127C44.3371 31.478 43.9843 32.1874 43.5883 32.7603C43.0007 33.6103 42.2912 34.3734 41.4887 35.0182C41.3441 35.1346 41.1873 35.2604 41.1403 35.4414C41.0554 35.7673 41.3774 36.0663 41.6992 36.1523C42.0637 36.2497 42.4492 36.1893 42.8256 36.2107C43.2019 36.2321 43.6168 36.3725 43.7795 36.7173C44.0054 37.1953 43.6267 37.7336 43.2439 38.0943C42.4772 38.8166 41.5874 39.4042 40.6257 39.8239C40.2808 39.9742 39.9166 40.1097 39.6472 40.3746C39.3779 40.6396 39.2323 41.0807 39.4244 41.4079C39.6167 41.7356 40.0641 41.817 40.4293 41.7262C40.7944 41.6355 41.113 41.415 41.4569 41.261C42.1006 40.9726 42.954 40.9666 43.4103 41.5104C43.7102 41.868 43.766 42.3876 43.6527 42.8421C43.5395 43.2966 43.2782 43.698 42.9975 44.0706C42.0165 45.3729 40.7251 46.4517 39.229 47.0738C37.733 47.6958 36.3257 47.9246 34.7736 47.4609Z" fill="#56BBC1"/>
</g>
</g>
</g>
</g>
</g>
<path d="M35.4097 45.6063C35.7467 44.1236 36.2509 42.529 36.8355 40.8792C36.9832 40.4674 37.1291 40.0604 37.273 39.6593C37.4175 39.2593 37.5607 38.8625 37.7248 38.4831C38.0498 37.7227 38.4202 37.0164 38.7928 36.3571C39.1651 35.6972 39.5425 35.0847 39.8995 34.5146C40.258 33.9449 40.6021 33.4203 40.9361 32.9555C41.6014 32.023 42.226 31.3358 42.6739 30.8816C42.8974 30.6536 43.0766 30.4825 43.1997 30.3682C43.2589 30.3139 43.3053 30.2711 43.3403 30.239C43.3724 30.2103 43.3893 30.1962 43.3903 30.1973C43.3914 30.1984 43.3766 30.2148 43.3465 30.2457C43.3131 30.2794 43.2684 30.3242 43.2119 30.3812C43.0931 30.4997 42.9178 30.6747 42.6982 30.9059C42.2585 31.367 41.6436 32.0581 40.9867 32.9925C40.6568 33.4583 40.3165 33.9837 39.9614 34.5542C39.6073 35.1257 39.2327 35.7386 38.8631 36.3979C38.4936 37.0567 38.1262 37.7613 37.8042 38.5179C37.6415 38.8954 37.5 39.2888 37.3554 39.69C37.2118 40.0908 37.0661 40.4977 36.9186 40.9094C36.3345 42.5579 35.8292 44.1478 35.4887 45.6251" fill="#E0E0E0"/>
<path d="M37.7498 38.4779C37.7439 38.4792 37.7232 38.4074 37.6906 38.2763C37.6575 38.1453 37.6157 37.9544 37.5676 37.7177C37.471 37.2445 37.36 36.5865 37.2403 35.8607C37.1205 35.1344 37.0004 34.4799 36.897 34.0095C36.8458 33.7742 36.8026 33.5841 36.771 33.4531C36.7401 33.3218 36.7258 33.2484 36.7316 33.2466C36.7375 33.2449 36.7629 33.3151 36.8041 33.4439C36.8459 33.5723 36.8986 33.7607 36.9575 33.995C37.0771 34.4634 37.2075 35.1189 37.3272 35.8458C37.4436 36.5625 37.5487 37.2108 37.629 37.7061C37.6666 37.9297 37.6986 38.118 37.7243 38.2693C37.7463 38.4023 37.7558 38.4767 37.7498 38.4779Z" fill="#E0E0E0"/>
<path d="M43.8429 36.9541C43.8434 36.9603 43.7564 36.9757 43.5989 36.9984C43.4416 37.0221 43.2138 37.055 42.9338 37.1048C42.3731 37.1997 41.6031 37.3581 40.7611 37.57C39.9193 37.7834 39.1658 38.009 38.6254 38.1879C38.3545 38.2755 38.1372 38.3522 37.9867 38.4043C37.8363 38.4571 37.7521 38.4835 37.7497 38.4779C37.7475 38.472 37.8275 38.4347 37.9744 38.3717C38.1216 38.3096 38.3362 38.2235 38.6052 38.1279C39.1419 37.9332 39.8953 37.6973 40.7396 37.483C41.5839 37.2707 42.359 37.1214 42.924 37.0423C43.2062 37.0004 43.4359 36.9768 43.595 36.9639C43.7542 36.9518 43.8423 36.9479 43.8429 36.9541Z" fill="#E0E0E0"/>
<path d="M35.4786 45.4879C35.4759 45.4894 35.4599 45.4644 35.4317 45.4153C35.3996 45.3568 35.3604 45.2853 35.3129 45.1987C35.2106 45.0102 35.0696 44.7335 34.8998 44.3894C34.5599 43.7013 34.1202 42.7361 33.6496 41.6645C33.1785 40.5925 32.7484 39.6245 32.4233 38.9304C32.2642 38.593 32.1332 38.3156 32.0359 38.1093C31.9942 38.0197 31.9599 37.9459 31.9317 37.8853C31.9088 37.8337 31.898 37.8059 31.9008 37.8042C31.9036 37.803 31.9195 37.828 31.9476 37.877C31.9797 37.9356 32.0189 38.0069 32.0664 38.0934C32.1688 38.2819 32.3098 38.5586 32.4795 38.9028C32.8194 39.5909 33.2591 40.556 33.73 41.6281C34.2009 42.6999 34.6309 43.6677 34.956 44.362C35.1153 44.6992 35.2461 44.9768 35.3434 45.1829C35.3852 45.2725 35.4195 45.3465 35.4476 45.4071C35.4706 45.4587 35.4814 45.4865 35.4786 45.4879Z" fill="#E0E0E0"/>
<path d="M43.5085 42.3546C43.5095 42.3576 43.4822 42.3707 43.4293 42.393C43.3666 42.4184 43.2896 42.4494 43.1963 42.4871C42.9809 42.5716 42.6902 42.6856 42.3365 42.8242C41.6106 43.1091 40.6125 43.5139 39.5102 43.9628C38.4076 44.412 37.4048 44.8081 36.6727 45.0778C36.3066 45.2129 36.0095 45.3192 35.8026 45.3883C35.7069 45.4197 35.628 45.4456 35.5639 45.4667C35.509 45.4837 35.4796 45.4911 35.4787 45.4882C35.4777 45.4853 35.505 45.4722 35.5579 45.4496C35.6204 45.4245 35.6975 45.3934 35.791 45.3558C36.0063 45.2713 36.297 45.1574 36.6506 45.0187C37.3766 44.7339 38.3749 44.329 39.4774 43.8799C40.5797 43.431 41.5824 43.035 42.3144 42.7651C42.6805 42.63 42.9776 42.5238 43.1847 42.4545C43.2804 42.4231 43.3591 42.3971 43.4234 42.3761C43.4782 42.3591 43.5074 42.3517 43.5085 42.3546Z" fill="#E0E0E0"/>
<path d="M30.5427 43.0062C30.3216 43.318 29.8961 43.2119 29.6996 43.0197C29.5031 42.8274 29.4213 42.5499 29.3467 42.2853C29.1765 41.6807 29.005 41.0465 29.1377 40.4326C29.1774 40.2491 29.2471 40.0662 29.3771 39.9306C29.5069 39.795 29.706 39.715 29.8872 39.764C30.1018 39.822 30.2341 40.0332 30.3295 40.234C30.6098 40.824 30.7563 41.4772 30.7547 42.1305C30.754 42.4355 30.7162 42.7553 30.5427 43.0062Z" fill="#E8505B"/>
<path d="M30.5427 43.0062C30.3216 43.318 29.8961 43.2119 29.6996 43.0197C29.5031 42.8274 29.4213 42.5499 29.3467 42.2853C29.1765 41.6807 29.005 41.0465 29.1377 40.4326C29.1774 40.2491 29.2471 40.0662 29.3771 39.9306C29.5069 39.795 29.706 39.715 29.8872 39.764C30.1018 39.822 30.2341 40.0332 30.3295 40.234C30.6098 40.824 30.7563 41.4772 30.7547 42.1305C30.754 42.4355 30.7162 42.7553 30.5427 43.0062Z" fill="#2CAAB2"/>
<path d="M29.7121 44.5873C29.3545 44.4002 28.9325 44.3738 28.534 44.4373C28.32 44.4714 28.0967 44.5341 27.9503 44.6939C27.8038 44.8537 27.7747 45.1362 27.9409 45.2752C28.0399 45.3579 28.1786 45.3712 28.3075 45.3705C28.6192 45.3686 28.9653 45.3157 29.2131 45.5047C29.3546 45.6125 29.448 45.7908 29.6175 45.8444C29.7834 45.8969 29.9714 45.7999 30.0604 45.6505C30.1493 45.501 30.1534 45.3136 30.1133 45.1444C30.1133 45.1443 30.0722 44.7757 29.7121 44.5873Z" fill="#2CAAB2"/>
<path d="M31.1422 43.4589C30.9058 43.175 30.863 42.7627 30.971 42.4093C31.0789 42.056 31.32 41.7563 31.5971 41.5121C31.9222 41.2257 32.3036 41.0036 32.713 40.8623C32.8742 40.8067 33.044 40.763 33.2137 40.7802C33.3832 40.7973 33.5537 40.885 33.632 41.0365C33.7477 41.2604 33.634 41.5305 33.5113 41.7507C33.2953 42.1386 33.0487 42.5095 32.7746 42.8588C32.554 43.1398 32.3016 43.4168 31.9672 43.5425C31.6328 43.6681 31.2863 43.6511 31.1108 43.4187" fill="#2CAAB2"/>
<path d="M30.5305 47.7299C30.5264 47.7302 30.52 47.6793 30.5114 47.5875C30.5019 47.4839 30.49 47.3538 30.4758 47.199C30.4586 47.0355 30.4359 46.8409 30.3917 46.6289C30.3477 46.4174 30.2782 46.1881 30.1886 45.9555C30.0957 45.7242 29.982 45.5137 29.8488 45.3452C29.7164 45.1759 29.5621 45.0531 29.4169 44.982C29.272 44.9094 29.142 44.8795 29.052 44.866C28.9614 44.8561 28.9105 44.8488 28.9105 44.8447C28.9105 44.8407 28.9614 44.8403 29.0547 44.8433C29.1471 44.85 29.2826 44.8742 29.4352 44.9447C29.5884 45.0137 29.7521 45.1385 29.8909 45.3113C30.0309 45.4834 30.1487 45.6985 30.2432 45.9339C30.3344 46.1706 30.4028 46.4023 30.4448 46.6183C30.4867 46.8339 30.5052 47.0307 30.5172 47.1955C30.5286 47.3605 30.5325 47.494 30.5342 47.5864C30.5357 47.6786 30.5344 47.7297 30.5305 47.7299Z" fill="#263238"/>
<path d="M30.5054 47.4307C30.5033 47.4306 30.5022 47.4078 30.502 47.3646C30.5024 47.3151 30.5029 47.2526 30.5036 47.1758C30.505 47.012 30.5063 46.7749 30.4992 46.4821C30.488 45.8964 30.4422 45.0877 30.35 44.1986C30.257 43.3093 30.1316 42.509 30.0163 41.9347C29.9891 41.7908 29.9616 41.6613 29.9357 41.5478C29.9111 41.4341 29.89 41.3361 29.8696 41.2568C29.8521 41.1821 29.8379 41.1213 29.8265 41.073C29.8173 41.0308 29.8134 41.0083 29.8153 41.0078C29.8172 41.0073 29.825 41.0286 29.8379 41.0699C29.852 41.1175 29.8698 41.1775 29.8916 41.2511C29.9155 41.3297 29.9398 41.4271 29.9676 41.5403C29.9966 41.6533 30.027 41.7826 30.0568 41.9263C30.1828 42.4999 30.3151 43.3013 30.4083 44.1925C30.5008 45.0835 30.5401 45.8945 30.5407 46.4816C30.5425 46.7752 30.5349 47.0126 30.5264 47.1766C30.5213 47.2533 30.5171 47.3157 30.5137 47.3652C30.5102 47.4083 30.5074 47.4308 30.5054 47.4307Z" fill="#263238"/>
<path d="M30.5105 45.867C30.5064 45.8668 30.5075 45.7968 30.513 45.6698C30.521 45.5432 30.5394 45.36 30.5765 45.1358C30.6156 44.9122 30.67 44.6467 30.7547 44.3583C30.8354 44.0689 30.9457 43.7565 31.0856 43.439C31.3593 42.7999 31.7292 42.2783 32.0501 41.9558C32.1255 41.8701 32.2093 41.8085 32.2762 41.748C32.3109 41.719 32.3416 41.6901 32.3728 41.6672C32.4042 41.6459 32.4333 41.626 32.4604 41.6076C32.5658 41.5363 32.6249 41.4988 32.6271 41.5022C32.6365 41.515 32.3909 41.6576 32.0801 41.9845C31.7705 42.3108 31.4109 42.8288 31.1394 43.4625C31.0007 43.7774 30.8897 44.0868 30.8068 44.3734C30.7197 44.659 30.6615 44.9217 30.6174 45.1431C30.5754 45.3651 30.5507 45.5463 30.5358 45.6718C30.5234 45.7976 30.5145 45.8672 30.5105 45.867Z" fill="#263238"/>
<path d="M28.2358 30.1701C28.7737 30.2071 29.5965 30.73 29.5965 30.73C29.7369 31.4974 28.1393 30.7737 28.1393 30.7737C28.5225 30.8591 29.0739 31.3296 29.0739 31.3296C29.4611 31.9979 27.7532 31.4187 27.7532 31.4187C28.23 31.5559 28.6343 32.0795 28.6343 32.0795C28.7041 32.6221 27.3806 31.9573 27.3806 31.9573L27.1215 31.856C26.9344 31.8345 26.8137 31.6475 26.872 31.4685C27.0815 30.8263 27.5691 29.5757 27.5691 29.5757L28.2358 30.1701Z" fill="#FAD1B4"/>
<path d="M23.5575 29.3609C23.3577 29.2943 23.1245 29.3276 22.9247 29.4275C22.0588 29.8938 20.3814 29.8605 19.4822 29.5274C19.3156 29.4941 19.1491 29.5607 18.9826 29.4941C19.0825 29.4275 19.1158 29.3609 19.2158 29.2943C18.7668 29.4065 18.3421 29.6611 18.0599 30.0372C18.137 29.8615 18.1804 29.6636 18.3166 29.5273C17.9502 29.927 17.6172 30.3267 17.3174 30.7929C18.0168 28.6947 17.9432 26.4966 17.6768 24.2985C17.6768 24.0986 17.3771 24.1653 17.2772 24.2985C17.2353 24.3824 17.1464 24.4839 17.0722 24.5907C17.2345 23.2718 17.1872 21.9502 16.9775 20.6016C16.9169 20.1982 16.918 19.0745 16.7212 18.7124C17.0327 18.8201 17.706 18.382 17.8987 19.4417C18.0076 20.0404 18.1107 21.1953 18.0914 21.9661C18.0739 22.6656 18.1616 23.2778 18.1637 23.9774C18.1685 25.5695 18.2864 27.8856 18.3223 28.1343C18.3583 28.383 18.5377 28.769 18.3593 28.9705C18.6029 28.894 18.7606 28.8559 18.8685 29.0886C19.1303 28.943 19.3696 29.1546 19.7622 29.1197C20.412 29.0619 21.7996 29.1387 22.4501 29.0897C23.1057 29.0404 23.7249 29.0419 24.4145 29.0091C24.9093 28.9855 25.4109 28.9029 25.9071 28.8382C25.1887 29.3015 24.435 29.6819 23.5575 29.3609Z" fill="#F5F9FA"/>
<path d="M14.6154 23.3366C14.7395 22.0953 14.9345 21.5102 15.5551 19.9675C15.8085 19.3377 16.6022 18.5168 17.213 18.6828C17.1429 18.715 16.9189 19.5062 16.8633 19.5688C15.2979 21.234 14.9649 23.6986 15.2979 25.8967C15.4644 27.1623 15.964 28.2946 16.3637 29.527C16.6301 30.2597 16.1305 31.059 16.5968 31.7251C17.5293 33.0573 19.0281 32.1247 20.0272 31.2255C20.0939 31.1589 20.2271 31.1256 20.3603 31.059C20.327 31.3255 20.2271 31.5919 20.0606 31.825C20.8266 32.2247 21.7258 32.0249 22.4918 31.7252C23.1246 31.492 23.6908 30.9258 24.2902 31.0258C24.5567 31.0924 24.9896 31.1256 25.2894 30.9924C26.0221 30.6594 26.2886 29.8934 26.4551 29.1274C26.4809 29.0244 26.5043 28.9211 26.5254 28.8176C26.5683 28.8466 26.607 28.8859 26.637 28.9361C26.7101 29.0586 26.7041 29.2261 26.7201 29.3639C26.7428 29.5605 26.7631 29.7574 26.7808 29.9545C26.8124 30.3051 26.8359 30.6563 26.8515 31.0079C26.8638 31.2837 26.8844 31.6132 26.5703 31.7273C26.4147 31.7838 26.239 31.7873 26.0778 31.8226C25.8968 31.8623 25.7205 31.9224 25.5401 31.9649C25.1895 32.0477 24.8387 32.1301 24.4863 32.2055C23.8038 32.3516 23.1206 32.4947 22.4379 32.6401C21.0393 32.938 19.6175 33.1654 18.1889 33.2534C17.8432 33.2748 17.497 33.2866 17.1507 33.287C16.8514 33.2874 16.5433 33.2795 16.2527 33.2006C15.9767 33.1256 15.703 32.9849 15.5144 32.7653C15.2964 32.5115 15.1954 32.1937 15.1014 31.8783C14.6993 30.5284 14.5123 29.1592 14.4685 27.7528C14.4467 27.0548 14.4558 26.3571 14.4512 25.659C14.4464 24.947 14.5447 24.0436 14.6154 23.3366Z" fill="#8FB0B4"/>
<path d="M17.0722 24.5906C17.1465 24.4838 17.2353 24.3823 17.2772 24.2984C17.3771 24.1652 17.6769 24.0985 17.6769 24.2984C17.9434 26.4965 18.0169 28.6946 17.3174 30.7928C17.6171 30.3265 17.9502 29.9269 18.3166 29.5272C18.1804 29.6634 18.137 29.8615 18.0599 30.0371C18.0072 30.1074 17.9588 30.1813 17.9169 30.2599C17.9806 30.1963 18.0238 30.1191 18.0599 30.0371C18.3421 29.661 18.7668 29.4064 19.2158 29.2942C19.1159 29.3608 19.0826 29.4274 18.9826 29.494C19.1492 29.5606 19.3157 29.494 19.4822 29.5273C20.3814 29.8604 22.0587 29.8937 22.9247 29.4274C23.1245 29.3276 23.3577 29.2943 23.5575 29.3608C24.4351 29.6819 25.1888 29.3014 25.9071 28.8382C26.0008 28.826 26.0943 28.8143 26.1875 28.804C26.2833 28.7395 26.4179 28.7454 26.5253 28.8179C26.5042 28.9214 26.4807 29.0247 26.455 29.1277C26.2885 29.8937 26.022 30.6597 25.2893 30.9927C24.9896 31.1259 24.5566 31.0926 24.2901 31.026C23.6906 30.9262 23.1244 31.4923 22.4917 31.7254C21.7257 32.0251 20.8265 32.225 20.0604 31.8253C20.227 31.5921 20.3269 31.3258 20.3602 31.0593C20.227 31.1259 20.0937 31.1591 20.0271 31.2258C19.028 32.125 17.5292 33.0575 16.5967 31.7253C16.1305 31.0593 16.63 30.2599 16.3635 29.5272C15.9639 28.295 15.4643 27.1626 15.2978 25.897C14.9648 23.6989 15.2978 21.2343 16.8632 19.5691C16.9188 19.5065 17.1428 18.7152 17.2129 18.6831C17.2443 18.6917 16.6902 18.7016 16.7211 18.7123C16.9179 19.0744 16.9168 20.1981 16.9773 20.6016C17.1873 21.9501 17.2345 23.2717 17.0722 24.5906Z" fill="#E4EDF2"/>
<path d="M27.5433 29.1241C27.3374 29.0731 27.1294 29.0295 26.9203 28.9922L26.4767 29.0379C26.4767 29.0379 26.3146 30.0884 25.844 30.6028L26.7083 31.6048C26.7615 31.6048 26.8147 31.8176 26.8679 31.8176L28.6711 30.4599C28.4922 30.2365 28.2202 30.0348 27.9306 29.9013C28.1088 29.9193 28.5875 30.1171 28.7664 30.1558C28.97 30.1998 29.1875 30.2524 29.3894 30.1728C29.7574 30.0277 29.4091 29.7484 29.1596 29.7428C29.1555 29.741 28.8499 29.5718 28.8459 29.57C28.8453 29.5698 28.8449 29.5694 28.8444 29.5691L27.5433 29.1241Z" fill="#FAD1B4"/>
<path d="M20.0618 39.508C20.0597 39.1072 20.058 38.7066 20.0572 38.3062C20.0608 38.7064 20.0626 39.1071 20.0618 39.508Z" fill="#F5F9FA"/>
<path d="M20.0571 38.3062C20.0542 37.9974 20.0502 37.6889 20.0453 37.3809C20.0493 37.4117 20.0533 37.4426 20.0574 37.4733C20.0567 37.7509 20.0566 38.0285 20.0571 38.3062Z" fill="#F5F9FA"/>
<path d="M17.8646 61.4331C17.9822 61.4327 18.0998 61.4295 18.2173 61.4248C19.7332 56.2632 20.0524 43.8553 20.0618 39.5078C20.0598 39.107 20.058 38.7064 20.0572 38.306C20.0543 37.9972 20.0503 37.6887 20.0455 37.3807C19.6612 34.3363 19.9642 31.1832 18.0344 28.3804C17.2628 27.3195 16.202 26.741 15.5751 25.6318C15.9756 25.2005 16.4545 24.8279 16.8741 24.4016C16.7505 24.2233 16.6256 24.0447 16.5 23.8651C15.9011 23.5643 15.2801 23.4182 14.6589 23.7029C13.4051 24.2333 13.2123 26.1139 13.6945 27.3195C14.0802 28.2839 14.2731 29.2966 14.2249 30.3574C15.3339 30.936 16.5395 32.4791 15.2375 33.2989C12.1031 35.2277 13.2122 39.1336 12.73 42.0751C12.5371 43.2324 12.73 44.438 13.3086 45.4024C13.5015 45.6917 13.4533 46.0292 13.3568 46.3668C13.2604 46.7525 12.8264 46.8972 12.4888 46.7043C12.2477 46.6078 12.0066 46.2221 11.8138 46.415C11.1869 47.1383 11.8138 48.0544 11.6691 48.9225C11.6691 49.1153 11.3797 49.2118 11.1869 49.0671C9.74026 48.1991 8.96872 46.7525 8.0525 45.4024C7.77523 47.1351 7.42376 53.8117 7.49839 58.272C7.76979 58.4947 8.03737 58.7224 8.31014 58.9433C9.20068 59.6647 10.1555 60.255 11.2548 60.5971C12.2983 60.9219 13.3944 61.0396 14.4794 61.1296C15.5709 61.2202 16.6939 61.274 17.7915 61.437C17.8157 61.4349 17.84 61.4332 17.8646 61.4331Z" fill="#E4EDF2"/>
<path d="M20.3972 24.7642C21.7138 26.1716 20.5512 27.8355 19.7668 29.1924C20.0575 30.8546 20.1135 32.5762 20.1166 34.2864C20.343 39.5176 20.1574 44.7032 20.2525 49.9355C20.2732 50.7614 20.2855 58.0734 20.4362 61.1192C21.0948 60.9677 21.75 60.7626 22.3854 60.5038C22.3897 60.501 22.394 60.4982 22.3983 60.4953C23.1049 60.0243 23.7571 59.4832 24.4247 58.9633C24.4553 55.5275 24.4702 49.6303 24.454 48.8453C24.4355 47.9517 24.3886 47.0588 24.3271 46.1672C24.1754 43.9698 23.786 41.8129 23.3548 39.6551C23.1757 38.7591 22.9729 37.867 22.7088 36.9918C22.5757 36.5513 22.4353 36.1131 22.269 35.6839C22.1909 35.4822 22.106 35.2838 22.0197 35.0856C21.9682 34.9674 21.9172 34.8581 21.9102 34.727C21.9036 34.6055 21.9317 34.4841 21.9285 34.3625C21.9158 33.8714 21.6159 33.4451 21.5573 32.9594C21.5376 32.7972 21.5296 32.6341 21.5219 32.4708C21.5244 32.4447 21.5269 32.4187 21.5296 32.3926C21.5723 31.9727 21.5981 31.5517 21.648 31.1326C21.7398 30.3615 21.891 29.6069 22.0573 28.8493C22.3253 27.6289 22.5025 26.318 22.1108 25.1056C21.6951 23.8194 20.8658 22.7057 20.046 21.6481C19.6307 21.1122 19.193 20.5878 18.7665 20.0603C18.3755 19.5767 17.9197 19.065 17.361 18.7725C17.2255 18.7015 17.0824 18.6521 16.9353 18.6167C18.5807 20.3663 20.1383 22.1849 20.7349 24.5713C20.7347 24.6195 20.5419 24.7159 20.3972 24.7642Z" fill="#E4EDF2"/>
<path d="M19.0778 61.3567C19.4461 61.313 19.8125 61.2523 20.1749 61.1768C20.2621 61.1587 20.3492 61.1394 20.4363 61.1193C20.2855 58.0736 20.2732 50.7616 20.2526 49.9357C20.1575 44.7033 20.3431 39.5177 20.1167 34.2866C20.1189 35.4821 20.0954 36.672 20.108 37.8322C20.0899 37.7129 20.0732 37.5933 20.0576 37.4736C20.0568 37.7511 20.0567 38.0287 20.0572 38.3064C20.061 38.7066 20.0627 39.1073 20.0618 39.5083C20.0831 43.776 20.122 56.0997 19.0778 61.3567Z" fill="#8FB0B4"/>
<path d="M19.0777 61.3568C20.1219 56.0996 20.083 43.776 20.0617 39.5083C20.0522 43.8558 19.7331 56.2638 18.2172 61.4253C18.5046 61.414 18.7918 61.3908 19.0777 61.3568Z" fill="#F5F9FA"/>
<path d="M20.1078 37.832C19.6256 34.6495 20.0596 31.3222 18.0343 28.3807C17.2628 27.3198 16.2019 26.7412 15.575 25.6321C15.9755 25.2008 16.4544 24.8282 16.8741 24.4019C17.9841 26.0013 19.0009 27.5674 19.6256 29.4415C19.6707 29.3597 19.718 29.2766 19.7668 29.1924C20.2606 32.0164 20.0772 35.0119 20.1078 37.832Z" fill="#8FB0B4"/>
<path d="M6.63166 57.6098C6.67161 57.6367 6.71139 57.6639 6.75066 57.6921C7.00753 57.8759 7.25454 58.0724 7.49857 58.2727C7.42386 53.8124 7.77542 47.1358 8.05269 45.4031C8.9689 46.7533 9.74045 48.2 11.1871 49.0679C11.3799 49.2126 11.6693 49.1161 11.6693 48.9232C11.8139 48.0552 11.1871 47.1391 11.8139 46.4157C12.0068 46.2229 12.2479 46.6086 12.489 46.7051C12.8265 46.8979 13.2606 46.7533 13.357 46.3675C13.4535 46.03 13.5017 45.6925 13.3088 45.4031C12.7302 44.4387 12.5373 43.2332 12.7302 42.0759C13.2124 39.1344 12.1033 35.2285 15.2377 33.2996C16.5396 32.4799 15.3341 30.9368 14.225 30.3581C14.2732 29.2972 14.0804 28.2846 13.6946 27.3202C13.2124 26.1147 13.4053 24.234 14.6591 23.7036C15.2802 23.419 15.9013 23.5651 16.5002 23.8658C16.2738 23.5423 16.0452 23.2159 15.8164 22.8839C14.8679 21.5204 13.774 20.3755 12.8475 19.1357C12.5947 19.2627 12.3563 19.4165 12.1607 19.6094C11.7823 19.9827 11.6227 20.5287 11.5614 21.0435C11.4078 22.3328 11.9381 23.5807 12.2637 24.8027C12.6065 26.0892 12.8442 27.4077 12.9608 28.7341C13.0156 29.3579 13.3815 30.5692 13.4493 31.1905C13.4505 31.2014 13.4524 31.212 13.4538 31.2228C13.437 31.3258 13.4188 31.4285 13.3975 31.531C13.3144 31.9292 13.2261 32.3326 13.0117 32.6826C12.4848 33.5426 11.5551 33.8176 11.0043 34.6625C10.0904 36.0645 9.17639 37.4819 8.42796 38.981C8.01597 39.8062 7.6639 40.6686 7.35909 41.5388C7.1743 42.0663 7.08148 42.6332 6.98288 43.1818C6.7731 44.349 6.56825 45.5533 6.5453 46.7418C6.52889 47.5922 6.55516 48.4443 6.57683 49.2943C6.59281 49.9279 6.58219 54.2362 6.63166 57.6098Z" fill="#8FB0B4"/>
<path d="M12.8473 19.1353C13.0782 19.0193 13.3212 18.9255 13.5556 18.8452C14.1681 18.6352 14.8387 18.5204 15.5008 18.5373C15.6826 18.5258 15.8644 18.5218 16.0442 18.5261C16.3399 18.5332 16.6454 18.5469 16.9352 18.6166C18.5806 20.3663 20.1382 22.1849 20.7348 24.5712C20.7348 24.6194 20.5419 24.7159 20.3972 24.7641C21.7957 26.259 20.3972 28.0431 19.6257 29.4416C18.9314 27.3586 17.7527 25.6561 16.5 23.8654C17.0168 24.1249 17.517 24.4996 17.9861 24.8123V24.7641V24.8123C17.517 24.4996 17.0168 24.1249 16.5 23.8654C16.2736 23.5419 16.045 23.2155 15.8163 22.8835C14.8677 21.5201 13.7737 20.3751 12.8473 19.1353Z" fill="#8FB0B4"/>
<path d="M13.6342 22.6548C14.2536 23.7801 14.9167 24.5185 14.9723 24.5355C15.768 24.7769 16.3457 24.9086 17.0121 25.0882C16.8831 25.1865 16.754 25.2847 16.6249 25.383C16.5423 25.4459 16.4197 25.5272 16.3443 25.6033C16.2252 25.7236 16.4476 25.9312 16.5374 26.0479C16.9282 26.556 17.3246 27.0602 17.7331 27.5541C19.0552 29.1527 19.5981 30.8335 19.5981 30.8335C19.6276 30.1835 19.5305 29.5709 19.4062 28.9322C19.368 28.7358 19.3118 28.5203 19.2669 28.3168C19.2011 28.1196 19.2058 28.0165 19.1998 27.9953C19.1275 27.7381 19.0761 27.5218 18.9265 27.1675C18.762 26.7776 18.7008 26.3976 18.5153 26.0172C17.8638 24.6806 17.1124 23.4124 16.218 22.2229C15.7912 21.6553 15.3374 21.1111 14.8632 20.5826C14.3809 20.0452 13.8639 19.4734 13.6768 18.7584C13.6526 18.6659 13.5206 18.6232 13.4539 18.6996C12.4942 19.7992 12.7783 21.0997 13.6342 22.6548Z" fill="#F5F9FA"/>
<path d="M16.1975 18.5591C16.2572 18.5974 16.3184 18.6331 16.3803 18.6677C16.3766 18.6724 16.3732 18.6772 16.3701 18.6825C16.2947 18.8164 16.377 18.9847 16.4114 19.1217C16.4722 19.3636 16.5363 19.6046 16.6029 19.8449C16.7362 20.3257 16.882 20.8028 17.0316 21.2788C17.3305 22.2297 17.643 23.1765 17.9232 24.1332C18.4799 26.0336 18.9559 27.9626 19.3029 29.9122C19.3221 30.0203 19.474 30.0015 19.5035 29.9122C19.8397 28.8902 20.1176 27.8497 20.3303 26.7949C20.385 26.5238 20.4335 26.2514 20.4817 25.9791C20.5461 25.6153 20.5597 25.6494 20.4656 25.5031C20.2487 25.1661 19.8926 24.8841 19.5765 24.6213C19.8952 24.4715 20.1739 24.2507 20.4133 23.9915C20.5133 23.8912 20.5403 23.9048 20.5053 23.8235C20.0091 22.6706 19.4259 21.5418 18.7235 20.5C18.4133 20.04 18.0696 19.5998 17.6279 19.2589C17.2254 18.9481 16.7167 18.6189 16.2044 18.5426C16.1947 18.5411 16.1885 18.5532 16.1975 18.5591Z" fill="#F5F9FA"/>
<path d="M12.8566 32.5963C13.056 32.9231 13.4964 33.1421 13.8121 33.3356C14.0759 33.4973 14.4273 33.7443 14.7352 33.5449C14.9911 33.3793 15.2316 33.0508 15.3289 32.7629C15.4502 32.4043 15.3549 32.1928 15.0662 31.9763C14.5052 31.5557 13.8803 31.2664 13.3903 30.7677C13.2899 30.6605 13.172 30.7116 13.1093 30.7817C13.0467 30.8517 12.83 31.2569 12.7835 31.6075C12.742 31.9194 12.6835 32.3126 12.8566 32.5963Z" fill="#E4EDF2"/>
<path d="M19.4656 36.8978C19.6771 36.8978 19.8486 36.6736 19.8486 36.3971C19.8486 36.1206 19.6771 35.8965 19.4656 35.8965C19.2541 35.8965 19.0827 36.1206 19.0827 36.3971C19.0827 36.6736 19.2541 36.8978 19.4656 36.8978Z" fill="#8FB0B4"/>
<path d="M14.6981 33.1639C14.9096 33.1639 15.081 32.9397 15.081 32.6632C15.081 32.3867 14.9096 32.1626 14.6981 32.1626C14.4866 32.1626 14.3152 32.3867 14.3152 32.6632C14.3152 32.9397 14.4866 33.1639 14.6981 33.1639Z" fill="#8FB0B4"/>
<path d="M14.7945 33.1639C15.006 33.1639 15.1774 32.9397 15.1774 32.6632C15.1774 32.3867 15.006 32.1626 14.7945 32.1626C14.583 32.1626 14.4116 32.3867 14.4116 32.6632C14.4116 32.9397 14.583 33.1639 14.7945 33.1639Z" fill="white"/>
<path d="M19.5361 42.2323C19.7476 42.2323 19.919 42.0081 19.919 41.7316C19.919 41.4551 19.7476 41.231 19.5361 41.231C19.3246 41.231 19.1532 41.4551 19.1532 41.7316C19.1532 42.0081 19.3246 42.2323 19.5361 42.2323Z" fill="#8FB0B4"/>
<path d="M19.6103 36.8978C19.8218 36.8978 19.9932 36.6736 19.9932 36.3971C19.9932 36.1206 19.8218 35.8965 19.6103 35.8965C19.3988 35.8965 19.2274 36.1206 19.2274 36.3971C19.2274 36.6736 19.3988 36.8978 19.6103 36.8978Z" fill="white"/>
<path d="M19.6808 42.2323C19.8923 42.2323 20.0638 42.0081 20.0638 41.7316C20.0638 41.4551 19.8923 41.231 19.6808 41.231C19.4694 41.231 19.2979 41.4551 19.2979 41.7316C19.2979 42.0081 19.4694 42.2323 19.6808 42.2323Z" fill="white"/>
<path d="M19.3932 47.139C19.6047 47.139 19.7762 46.9148 19.7762 46.6383C19.7762 46.3618 19.6047 46.1377 19.3932 46.1377C19.1818 46.1377 19.0103 46.3618 19.0103 46.6383C19.0103 46.9148 19.1818 47.139 19.3932 47.139Z" fill="#8FB0B4"/>
<path d="M19.538 47.139C19.7494 47.139 19.9209 46.9148 19.9209 46.6383C19.9209 46.3618 19.7494 46.1377 19.538 46.1377C19.3265 46.1377 19.155 46.3618 19.155 46.6383C19.155 46.9148 19.3265 47.139 19.538 47.139Z" fill="white"/>
<path d="M18.9604 31.9788C19.1719 31.9788 19.3433 31.7547 19.3433 31.4782C19.3433 31.2017 19.1719 30.9775 18.9604 30.9775C18.7489 30.9775 18.5775 31.2017 18.5775 31.4782C18.5775 31.7547 18.7489 31.9788 18.9604 31.9788Z" fill="#8FB0B4"/>
<path d="M19.0568 31.9788C19.2683 31.9788 19.4397 31.7547 19.4397 31.4782C19.4397 31.2017 19.2683 30.9775 19.0568 30.9775C18.8453 30.9775 18.6739 31.2017 18.6739 31.4782C18.6739 31.7547 18.8453 31.9788 19.0568 31.9788Z" fill="white"/>
<path d="M16.5877 22.1124C16.6359 21.9677 16.7324 21.823 16.8289 21.6302C16.8771 21.582 17.0218 21.582 17.07 21.6302C17.2147 21.7748 17.3594 21.9195 17.504 21.823C17.6969 21.6302 17.5522 21.1479 17.7934 21.1479C18.0813 21.212 18.2843 21.4881 18.5011 21.7514C18.7654 22.5164 18.9226 23.3287 19.0331 24.101C19.2149 25.3719 19.2465 26.6552 19.2628 27.9369C18.7646 26.3016 17.7321 24.818 16.829 23.2697C16.6359 22.8839 16.4431 22.4981 16.5877 22.1124Z" fill="#2CAAB2"/>
<path d="M13.4217 18.8544C13.4226 18.6031 13.7512 18.4099 13.9555 18.2812C14.2802 18.0767 14.6488 18.1069 15.018 18.1345C15.4177 18.1645 15.8332 18.3069 16.2166 18.4938C16.3804 18.5629 16.5409 18.6399 16.7006 18.7191C16.7098 18.7426 16.7204 18.7648 16.7324 18.7849C17.07 19.3636 17.3111 19.9421 17.4075 20.6173C17.7888 20.2837 17.9822 19.7622 18.4987 19.5639C18.5043 19.5808 18.5032 19.5991 18.4903 19.6158C18.277 19.8924 18.0876 20.1849 17.9272 20.4951C18.1619 20.8868 18.3489 21.3112 18.5009 21.7511C18.2842 21.488 18.0811 21.2117 17.7931 21.1477C17.552 21.1477 17.6967 21.6299 17.5038 21.8228C17.3591 21.9193 17.2145 21.7746 17.0698 21.6299C17.0216 21.5817 16.8769 21.5817 16.8286 21.6299C16.7322 21.8228 16.6358 21.9674 16.5875 22.1121C16.4428 22.4978 16.6357 22.8837 16.8286 23.2694C17.7318 24.8177 18.7643 26.3013 19.2625 27.9366C19.2639 28.051 19.2653 28.1654 19.2666 28.2797C19.2673 28.3404 18.5831 26.6776 18.125 25.9347C17.6821 25.2166 17.2399 24.4972 16.7805 23.7894C16.3261 23.0892 15.8382 22.4064 15.2599 21.8021C14.7299 21.2483 14.0568 20.8045 13.6528 20.1404C13.4837 19.8622 13.249 19.214 13.4217 18.8544Z" fill="#1E767C"/>
<path d="M16.75 18.8152C16.7442 18.805 16.7385 18.7947 16.7324 18.7845C16.7204 18.7645 16.7098 18.7423 16.7006 18.7188C16.8632 18.7993 17.0248 18.8821 17.1879 18.9609C17.6005 19.1602 18.0208 19.3422 18.4473 19.5098C18.4629 19.5159 18.4777 19.5283 18.4882 19.5432C17.7987 19.7369 17.3126 19.2143 16.75 18.8152Z" fill="#1E767C"/>
<path d="M18.4882 19.5435C18.4926 19.5498 18.4964 19.5565 18.4987 19.5638C17.9822 19.7621 17.7887 20.2835 17.4075 20.6172C17.3127 19.954 17.0782 19.3839 16.7499 18.8154C17.3126 19.2145 17.7987 19.7371 18.4882 19.5435Z" fill="#2CAAB2"/>
<path d="M18.2485 2.48734C18.0886 2.43489 17.9297 2.38228 17.7762 2.32227C17.9449 2.35958 18.1014 2.41611 18.2485 2.48734Z" fill="#5B3E2F"/>
<path d="M18.7214 3.86488C18.6975 3.85239 18.6735 3.83998 18.6495 3.82757C18.5769 3.76297 18.5043 3.69845 18.4313 3.63428C18.5321 3.70415 18.629 3.78031 18.7214 3.86488Z" fill="#5B3E2F"/>
<path d="M17.0806 3.11685C16.889 2.98553 16.6885 2.86449 16.4755 2.75781C17.1214 3.04027 17.8404 3.22429 18.4312 3.63399C18.5041 3.69817 18.5767 3.76277 18.6494 3.82728C18.1352 3.56217 17.6016 3.33131 17.0806 3.11685Z" fill="#5B3E2F"/>
<path d="M18.9092 4.05663C18.8222 3.98098 18.7358 3.90431 18.6495 3.82764C18.6735 3.84005 18.6975 3.85246 18.7214 3.86495C18.7864 3.92462 18.8491 3.98829 18.9092 4.05663Z" fill="#5B3E2F"/>
<path d="M19.4167 3.00391C19.5748 3.11815 19.7185 3.25695 19.8406 3.43171C19.7057 3.28534 19.5642 3.14229 19.4167 3.00391Z" fill="#5B3E2F"/>
<path d="M14.9302 2.7409C14.8123 2.54991 14.7458 2.39419 14.7215 2.17098C14.7092 2.1771 14.6969 2.18322 14.6847 2.18942C14.6638 2.19996 14.6497 2.16715 14.67 2.15636C14.6855 2.14811 14.7012 2.13987 14.7167 2.13162C14.7068 2.04858 14.6921 1.89898 14.7882 1.89235C14.8416 1.88861 14.8542 1.97131 14.8004 1.97505C14.7876 1.9759 14.7893 2.02342 14.7979 2.08853C15.3216 1.81126 15.8744 1.53552 16.4783 1.5396C16.9306 1.54266 17.3802 1.67543 17.803 1.84721C18.3913 2.15151 18.9358 2.55288 19.4166 3.00415C19.0708 2.75408 18.6565 2.62156 18.2484 2.48777C18.1013 2.41654 17.9448 2.36002 17.7761 2.3227C17.9295 2.38271 18.0885 2.43533 18.2484 2.48777C19.0241 2.8633 19.535 3.65006 20.1509 4.2148C19.0773 3.54441 18.0037 2.8741 16.7336 2.52509C17.399 2.76088 17.923 3.18698 18.4312 3.63434C17.8404 3.22464 17.1214 3.04061 16.4755 2.75816C16.6885 2.86483 16.8891 2.98579 17.0806 3.1172C17.075 3.1149 17.0693 3.11252 17.0636 3.11014C17.0693 3.11244 17.075 3.11482 17.0806 3.1172C17.8355 3.6351 18.4429 4.32267 19.0498 5.01083C17.9143 4.25212 16.8462 3.28847 15.4737 2.90589C15.8727 3.66655 16.4345 4.36908 16.8047 5.15201C16.6045 4.9192 16.4037 4.68715 16.2067 4.45323C15.748 3.90846 15.3051 3.34746 14.9302 2.7409Z" fill="#4F4F4F"/>
<path d="M18.914 14.3405C19.3484 14.0603 19.9407 14.3317 20.396 14.0762C20.1498 14.5101 19.5358 14.7263 19.0446 14.565C18.9898 14.5243 18.8662 14.3476 18.914 14.3405Z" fill="#D4977B"/>
<path d="M17.2206 10.7878C17.3567 10.7191 17.5194 10.5001 17.4365 10.2686C17.772 10.5603 18.1215 10.9475 18.0487 11.4456C17.9492 12.0939 17.064 12.3707 16.5307 12.0593C16.068 11.7561 16.3286 11.2577 16.5058 10.8096C16.7579 10.8193 16.9897 10.8922 17.2206 10.7878Z" fill="#D4977B"/>
<path d="M19.3583 16.4428C19.3505 16.6694 19.3379 16.8892 19.1099 16.9924C18.7353 17.0963 18.5289 16.6881 18.4867 16.4019C18.7375 16.5482 19.0604 16.5976 19.3583 16.4428Z" fill="#D4977B"/>
<path d="M18.7882 13.0972C18.8631 13.2548 19.1395 13.3506 18.9923 13.5486C18.9039 13.6104 18.6654 13.6455 18.692 13.4954C18.6756 13.384 18.7133 13.2352 18.7882 13.0972Z" fill="#D4977B"/>
<path d="M11.2261 13.3237C11.8147 13.4755 12.5598 13.9955 12.4089 14.5195C12.43 14.6626 12.0147 14.8213 11.7074 14.7204C11.2429 14.5451 10.92 14.0078 11.0882 13.4956C11.1107 13.4271 11.1546 13.3557 11.2261 13.3237Z" fill="#D4977B"/>
<path d="M15.5555 10.7389C15.8397 11.0988 16.1865 10.6582 16.5174 10.6412C16.7884 10.6272 17.0144 10.7525 17.1552 10.9746C17.1695 10.9971 17.151 11.0241 17.1245 11.0158C16.9288 10.9543 16.7299 10.8089 16.5195 10.8237C16.334 10.8367 16.1876 10.9553 16.012 10.9948C15.8055 11.0412 15.6356 10.9241 15.5363 10.7505C15.5298 10.7392 15.5477 10.729 15.5555 10.7389Z" fill="#5B3E2F"/>
<path d="M19.5358 16.3052C19.2586 16.6795 18.7667 16.6713 18.4067 16.3305C18.3956 16.32 18.4624 16.2879 18.4746 16.2951C18.5916 16.3652 18.7096 16.4439 18.8674 16.4927C19.0977 16.5642 19.3416 16.4802 19.5725 16.2385C19.577 16.2339 19.5395 16.3003 19.5358 16.3052Z" fill="#B37A5D"/>
<path d="M12.463 14.2692C12.3188 14.036 12.1378 13.8522 11.9209 13.6849C11.6445 13.4718 11.4054 13.3958 11.0598 13.3927C11.0245 13.3923 11.0279 13.3461 11.0509 13.3323C11.5616 13.0257 12.3393 13.812 12.4735 14.2628C12.4753 14.2688 12.4671 14.2758 12.463 14.2692Z" fill="#B37A5D"/>
<path d="M9.85737 10.9009C9.84224 11.0665 9.82481 11.2311 9.80365 11.3941C9.8181 11.2302 9.83629 11.0656 9.85737 10.9009Z" fill="#5B3E2F"/>
<path d="M9.09542 8.9082C9.0536 9.16133 9.01059 9.41412 8.96393 9.66564C9.00022 9.41293 9.04408 9.16014 9.09542 8.9082Z" fill="#5B3E2F"/>
<path d="M8.03864 13.6082C8.04178 13.5407 8.04646 13.4734 8.05309 13.4062C8.05122 13.4746 8.04561 13.5417 8.03864 13.6082Z" fill="#5B3E2F"/>
<path d="M14.5315 17.8256C14.5275 17.9204 14.5265 17.989 14.5107 18.0998C14.5032 18.1518 14.5021 18.155 14.4983 18.1798C15.0429 18.7411 15.644 18.9336 16.3429 19.2769C16.4894 19.3488 16.7291 19.4145 16.8317 19.5468C16.9113 19.6495 16.9256 19.8204 16.9412 19.9611C16.8526 19.8505 16.7983 19.7009 16.6843 19.7009C15.527 19.6527 14.8036 18.7364 13.8392 18.3024C13.7454 18.2555 13.6617 18.29 13.5782 18.3627C13.6075 18.2946 13.6393 18.2285 13.6734 18.1664C13.872 17.8043 14.1858 17.7289 14.5315 17.8256Z" fill="#1E767C"/>
<path d="M14.7275 26.3256C14.8519 26.8744 14.9895 27.6655 15.0719 28.3875C14.9699 28.3734 14.862 28.3813 14.7634 28.4079C14.6952 27.6468 14.5586 26.8384 14.52 26.662C13.6096 22.4989 11.256 17.0973 15.2049 17.8938C17.4341 18.3435 19.9992 21.8199 20.8211 27.1373C20.9022 27.6624 20.952 28.1465 21.0579 28.6324C20.9732 28.6361 20.8887 28.6396 20.8042 28.6428C20.7032 28.1943 20.6807 27.7456 20.5922 27.2649C19.7133 22.4989 17.4024 18.6546 15.3511 18.0929C11.3043 16.9847 14.209 24.0396 14.7275 26.3256Z" fill="#576272"/>
<path d="M14.5514 28.1981L14.345 26.3743C14.345 26.3743 14.4234 26.2137 14.5981 26.1814C14.7729 26.1491 14.8633 26.2658 14.8633 26.2658L15.1778 28.1529C18.2872 28.3167 17.7899 34.2464 16.505 36.5847C16.4728 36.6432 16.4411 36.6976 16.4115 36.7496C16.4082 36.7576 16.4049 36.7656 16.4013 36.7737C16.384 36.8118 16.3641 36.8466 16.3425 36.8779C16.3338 36.8955 16.3247 36.9132 16.3172 36.9303C16.3119 36.9305 16.3067 36.9307 16.3014 36.931C16.2285 37.0139 16.1457 37.0544 16.0844 37.0266C15.9918 36.9846 15.9834 36.8033 16.0658 36.6216C16.1482 36.4399 16.29 36.3267 16.3827 36.3687C16.4176 36.3845 16.4406 36.4202 16.4512 36.4682C17.3375 34.3781 18.1738 28.416 14.9627 28.4717C11.8424 28.5258 12.7332 34.5385 13.9458 36.6129C13.9523 36.6239 13.9582 36.6344 13.9645 36.6454C13.9673 36.5706 13.9925 36.5134 14.0395 36.4921C14.1321 36.4501 14.274 36.5633 14.3563 36.745C14.4387 36.9266 14.4304 37.1079 14.3377 37.15C14.2846 37.1741 14.2153 37.1469 14.1502 37.0853C14.1471 37.0857 14.144 37.0861 14.1409 37.0864C14.132 37.0738 14.1234 37.0608 14.1147 37.0477C14.0797 37.0064 14.0471 36.9554 14.0208 36.8971V36.897C13.9617 36.7981 13.8996 36.6908 13.8231 36.5786C12.4977 34.6329 11.7038 28.7903 14.5514 28.1981Z" fill="#D9D6B8"/>
<path d="M15.9289 37.0822C16.1555 37.0822 16.3392 36.8347 16.3392 36.5294C16.3392 36.2241 16.1555 35.9766 15.9289 35.9766C15.7024 35.9766 15.5187 36.2241 15.5187 36.5294C15.5187 36.8347 15.7024 37.0822 15.9289 37.0822Z" fill="#B7B493"/>
<path d="M14.4933 37.2053C14.7198 37.2053 14.9035 36.9578 14.9035 36.6524C14.9035 36.3471 14.7198 36.0996 14.4933 36.0996C14.2667 36.0996 14.0831 36.3471 14.0831 36.6524C14.0831 36.9578 14.2667 37.2053 14.4933 37.2053Z" fill="#B7B493"/>
<path d="M21.1693 30.3935C21.6808 30.3935 22.0955 29.9788 22.0955 29.4673C22.0955 28.9557 21.6808 28.541 21.1693 28.541C20.6577 28.541 20.243 28.9557 20.243 29.4673C20.243 29.9788 20.6577 30.3935 21.1693 30.3935Z" fill="#A4A89C"/>
<path d="M21.3149 30.3452C21.8264 30.3452 22.2411 29.9305 22.2411 29.4189C22.2411 28.9074 21.8264 28.4927 21.3149 28.4927C20.8033 28.4927 20.3886 28.9074 20.3886 29.4189C20.3886 29.9305 20.8033 30.3452 21.3149 30.3452Z" fill="#E0E3DA"/>
<path d="M21.3205 30.0398C21.6558 30.0398 21.9276 29.768 21.9276 29.4328C21.9276 29.0975 21.6558 28.8257 21.3205 28.8257C20.9852 28.8257 20.7134 29.0975 20.7134 29.4328C20.7134 29.768 20.9852 30.0398 21.3205 30.0398Z" fill="#A4A89C"/>
<path d="M21.3675 29.9556C21.6653 29.9556 21.9068 29.7141 21.9068 29.4163C21.9068 29.1184 21.6653 28.877 21.3675 28.877C21.0696 28.877 20.8281 29.1184 20.8281 29.4163C20.8281 29.7141 21.0696 29.9556 21.3675 29.9556Z" fill="#E0E3DA"/>
<path d="M21.4117 29.567C21.498 29.567 21.568 29.497 21.568 29.4107C21.568 29.3244 21.498 29.2544 21.4117 29.2544C21.3254 29.2544 21.2554 29.3244 21.2554 29.4107C21.2554 29.497 21.3254 29.567 21.4117 29.567Z" fill="#A4A89C"/>
<path d="M21.4214 29.467C21.4574 29.467 21.4866 29.4378 21.4866 29.4017C21.4866 29.3657 21.4574 29.3364 21.4214 29.3364C21.3853 29.3364 21.3561 29.3657 21.3561 29.4017C21.3561 29.4378 21.3853 29.467 21.4214 29.467Z" fill="#576272"/>
<path d="M15.9794 36.7012C16.106 36.7012 16.2085 36.5498 16.2085 36.363C16.2085 36.1763 16.106 36.0249 15.9794 36.0249C15.8529 36.0249 15.7504 36.1763 15.7504 36.363C15.7504 36.5498 15.8529 36.7012 15.9794 36.7012Z" fill="#E2EDF1"/>
<path d="M14.598 36.8677C14.7245 36.8677 14.8271 36.7163 14.8271 36.5295C14.8271 36.3428 14.7245 36.1914 14.598 36.1914C14.4715 36.1914 14.369 36.3428 14.369 36.5295C14.369 36.7163 14.4715 36.8677 14.598 36.8677Z" fill="#E2EDF1"/>
<path d="M22.873 12.0997C23.2858 12.9162 24.2219 13.3144 25.0876 13.2355C24.3032 13.2049 23.5986 12.7238 23.2139 12.0981C23.7657 12.6119 24.5376 12.8671 25.2983 12.8979C25.1749 13.2169 25.1539 13.6166 24.9409 13.8714C24.8284 14.0059 24.7023 14.0786 24.5703 14.1069C23.7099 13.8151 23.0251 13.131 22.873 12.0997Z" fill="#373737"/>
<path d="M19.0497 5.0103C18.4428 4.32214 17.8355 3.63457 17.0805 3.11667C17.6016 3.33112 18.1352 3.56198 18.6495 3.82718C18.7358 3.90385 18.8221 3.98052 18.9092 4.05617C18.8491 3.98783 18.7864 3.92417 18.7213 3.8645C20.0684 4.57042 21.2701 5.52106 21.739 7.05098C22.548 9.56383 21.606 12.4322 23.5726 14.5307C23.6679 14.6388 23.769 14.7391 23.8752 14.8321C23.6089 15.0453 23.3065 15.2132 22.9834 15.3117C22.4605 15.4712 21.8407 15.5117 21.376 15.1776C20.8795 14.8206 20.5757 14.1719 20.3615 13.6184C20.1229 13.0017 19.9779 12.3534 19.8496 11.7063C19.5671 10.2819 19.3291 8.84091 18.6044 7.55962C18.1088 6.68344 17.4597 5.91308 16.8048 5.1514C16.4345 4.36846 15.8728 3.66602 15.4739 2.90527C16.8462 3.28794 17.9143 4.25159 19.0497 5.0103Z" fill="#373737"/>
<path d="M21.7389 7.05138C21.27 5.52146 20.0683 4.57082 18.7212 3.8649C18.629 3.78032 18.5319 3.70408 18.4312 3.63429C17.923 3.18694 17.399 2.76083 16.7336 2.52504C18.0036 2.87397 19.0772 3.54436 20.1509 4.21476C19.535 3.65002 19.0241 2.86326 18.2484 2.48773C18.6565 2.62152 19.0709 2.75403 19.4166 3.0041C19.5641 3.14248 19.7056 3.28554 19.8405 3.43191C19.7184 3.25715 19.5746 3.11834 19.4166 3.0041C18.9358 2.55284 18.3913 2.15138 17.803 1.84717C17.9221 1.89553 18.0391 1.94679 18.1533 1.9994C19.2485 2.5032 20.2284 3.24669 21.079 4.09542C21.9167 4.93122 22.7322 5.93269 22.8857 7.14641C22.9532 7.67995 22.8482 8.19386 22.7434 8.71474C22.6234 9.31093 22.5908 9.85485 22.7884 10.4392C22.9849 11.0205 23.2654 11.5775 23.719 12.0024C24.2172 12.4691 24.9589 12.646 25.6031 12.3868C25.6654 12.3618 25.7049 12.4524 25.6451 12.482C25.4654 12.571 25.3664 12.7224 25.2984 12.8983C24.5377 12.8673 23.7657 12.6122 23.214 12.0985C23.5987 12.7242 24.3033 13.2052 25.0876 13.2359C24.2219 13.3148 23.2859 12.9165 22.873 12.1C23.025 13.1313 23.71 13.8154 24.5703 14.1072C24.2241 14.1811 23.8369 13.947 23.546 13.7051C23.71 13.9977 24.026 14.1852 24.3724 14.1762C24.4178 14.1751 24.4557 14.222 24.4247 14.2636C24.2684 14.4732 24.0828 14.6668 23.8752 14.833C23.769 14.74 23.6679 14.6397 23.5726 14.5315C21.606 12.4326 22.548 9.56415 21.7389 7.05138Z" fill="#373737"/>
<path d="M14.7286 18.9263C14.7831 18.647 14.8646 18.3733 14.9964 18.1095C15.3782 17.5156 15.9838 17.9292 16.4523 18.1358C16.4492 18.2506 16.4496 18.3619 16.4481 18.4623C16.4433 18.7941 16.4302 19.1712 16.5029 19.4961C16.5029 19.4961 16.5667 19.7605 16.6656 19.8099C16.6656 19.8099 15.1024 19.47 14.7286 18.9263Z" fill="#E8B79A"/>
<path d="M14.4402 16.4474C14.4228 16.4294 14.4401 16.396 14.4656 16.404C14.4781 16.4079 14.4902 16.4128 14.5024 16.4174C14.5022 16.4124 14.5019 16.4074 14.5016 16.4025C14.5009 16.3908 14.5185 16.3889 14.5216 16.3998C14.5241 16.4088 14.5262 16.4179 14.5287 16.427C14.6704 16.4848 14.7988 16.5794 14.9311 16.6557C15.1071 16.7571 15.2852 16.8546 15.4656 16.9479C15.7969 17.1195 16.1628 17.3325 16.5299 17.4284C16.5509 17.3968 16.5742 17.3668 16.6006 17.3392C16.6055 17.3341 16.6138 17.3406 16.6104 17.3467C16.5938 17.3755 16.5794 17.4062 16.5662 17.4377C16.5883 17.443 16.6106 17.4481 16.6328 17.4525C16.6391 17.4538 16.6376 17.4636 16.6313 17.4636C16.6065 17.4634 16.5816 17.4622 16.5567 17.46C16.4788 17.6593 16.4586 17.9047 16.4524 18.1359C15.9839 17.9292 15.3784 17.5157 14.9966 18.1096C14.8647 18.3734 14.7832 18.6472 14.7287 18.9264C14.677 18.8977 14.626 18.869 14.576 18.8405C14.5672 18.8355 14.5597 18.8279 14.5535 18.8192C14.3822 18.7992 14.5198 18.0704 14.5251 17.9709C14.5508 17.4822 14.5356 16.9966 14.5077 16.509C14.4841 16.4894 14.4612 16.4692 14.4402 16.4474Z" fill="#C5886B"/>
<path d="M17.6229 10.4422C17.5622 10.381 17.4991 10.3232 17.4366 10.2688C17.5195 10.5003 17.3568 10.7193 17.2207 10.7881C16.9897 10.8925 16.7579 10.8196 16.5059 10.8099C16.5148 10.7876 16.5234 10.7654 16.5317 10.7435L16.5387 10.7912L16.5317 10.7435C16.5233 10.7655 16.5147 10.7877 16.5059 10.8099C16.4088 10.8061 16.309 10.8115 16.2048 10.8404C16.3089 10.8115 16.4088 10.8061 16.5059 10.8099C16.4129 11.045 16.2972 11.2939 16.2748 11.5212C16.2061 11.3624 16.2292 11.1558 16.0898 11.0523C16.1306 10.9975 16.24 11.0789 16.2259 10.9835C15.8828 11.0341 15.4729 10.8974 15.4517 10.542C15.7883 10.2282 16.151 9.93276 16.521 9.65625C16.5366 9.65888 16.5522 9.66203 16.5679 9.66577C16.9658 9.78035 17.4365 10.0567 17.6229 10.4422Z" fill="#D4977B"/>
<path d="M19.8273 9.62374C19.5197 9.80267 19.2601 10.0967 19.1282 10.424C19.0635 10.0521 19.5127 9.51129 19.8187 9.23504C19.9141 9.15684 20.0226 9.1049 20.1357 9.07617C20.1453 9.08178 20.1591 9.08561 20.1716 9.08994C20.1606 9.08994 20.1494 9.08994 20.1385 9.09037C20.1494 9.08994 20.1606 9.08994 20.1716 9.08994C20.1935 9.09759 20.2111 9.10703 20.1933 9.13108C20.2111 9.10703 20.1935 9.09759 20.1716 9.08994C20.6035 9.0902 21.149 9.38982 20.8782 9.80998C20.7222 10.1078 20.4677 10.4327 20.1765 10.625C20.0433 10.4783 19.8534 10.3713 19.7207 10.2243C19.5566 10.1024 19.6575 9.79502 19.8273 9.62374Z" fill="#D4977B"/>
<path d="M13.9401 15.3173C14.9473 17.6181 17.1962 18.3448 19.5233 18.3333C19.5738 18.312 19.6241 18.2896 19.6736 18.2645C20.9119 17.6386 22.2479 16.4531 22.5788 15.0521C22.7382 14.3774 22.5691 13.6927 22.3622 13.0259C22.1257 12.4694 21.848 11.9175 21.5944 11.3619C21.4568 11.0897 21.4147 10.8035 21.4679 10.5032C21.558 9.51026 21.6512 8.54032 21.4575 7.60354C21.2936 7.11708 21.0549 6.66038 20.718 6.23266C20.3446 5.75861 19.8945 5.36625 19.412 5.01367C19.717 6.44626 19.1517 7.93742 17.8457 8.74619C17.4154 9.02202 16.963 9.32564 16.5208 9.65612C16.5364 9.65875 16.5521 9.6619 16.5677 9.66564C16.9657 9.78022 17.4365 10.0566 17.6228 10.442C17.8876 10.7088 18.1078 11.0405 18.0487 11.4457C17.9492 12.094 17.0639 12.3708 16.5307 12.0594C16.3108 11.9152 16.2544 11.727 16.2747 11.521C16.206 11.3622 16.2292 11.1556 16.0898 11.0521C16.1305 10.9973 16.2399 11.0787 16.2258 10.9833C15.8827 11.0339 15.4728 10.8972 15.4516 10.5417C14.0662 11.833 13.1224 13.4355 13.9401 15.3173ZM18.7882 13.0975C18.8631 13.2552 19.1395 13.3509 18.9923 13.5489C18.9039 13.6107 18.6654 13.6458 18.692 13.4957C18.6756 13.3843 18.7133 13.2356 18.7882 13.0975C18.7803 13.0809 18.7746 13.0635 18.7719 13.0453C18.7746 13.0635 18.7803 13.0809 18.7882 13.0975C18.8094 13.0583 18.8332 13.0198 18.8603 12.9835C18.8332 13.0198 18.8094 13.0583 18.7882 13.0975ZM20.4541 11.6481C20.0764 11.7592 19.6819 11.8897 19.3383 11.597C18.9959 11.2503 18.9715 10.8136 19.1283 10.4243C19.0637 10.0524 19.5128 9.51153 19.8188 9.23528C19.9142 9.15708 20.0227 9.10515 20.1358 9.07642C20.1241 9.06953 20.1191 9.05984 20.1317 9.04293C20.1191 9.05984 20.1241 9.06953 20.1358 9.07642C20.2808 9.0397 20.4332 9.04123 20.575 9.07506C20.4332 9.04123 20.2808 9.0397 20.1358 9.07642C20.1454 9.08203 20.1592 9.08585 20.1717 9.09019C20.6036 9.09044 21.1491 9.39007 20.8783 9.81022C20.7223 10.1081 20.4678 10.4329 20.1766 10.6253C20.2771 10.7362 20.3453 10.8697 20.3314 11.0607C20.3136 11.1151 20.265 11.1465 20.2253 11.1784C20.3202 11.3255 20.4037 11.4784 20.4541 11.6481C20.5053 11.633 20.5563 11.6183 20.6067 11.605C20.5563 11.6183 20.5053 11.633 20.4541 11.6481C20.4702 11.7026 20.4832 11.7587 20.4918 11.8169C20.4832 11.7587 20.4702 11.7026 20.4541 11.6481ZM19.0446 14.5649C18.9899 14.5242 18.8664 14.3474 18.9141 14.3404C19.3484 14.0601 19.9408 14.3315 20.396 14.076C20.4066 14.0575 20.4175 14.0392 20.4265 14.0199C20.4602 13.9175 20.5822 13.7533 20.425 13.679C20.5822 13.7533 20.4602 13.9175 20.4265 14.0199C20.4175 14.0392 20.4065 14.0575 20.396 14.076C20.4539 14.0436 20.5098 14.0029 20.5626 13.9512C20.5098 14.0029 20.4539 14.0436 20.396 14.076C20.1499 14.51 19.5358 14.7262 19.0446 14.5649ZM18.4868 16.4018C18.7376 16.5483 19.0605 16.5976 19.3584 16.4429C19.3615 16.3515 19.3638 16.2591 19.3791 16.1728C19.3638 16.2591 19.3615 16.3515 19.3584 16.4429C19.3771 16.4331 19.3958 16.4227 19.4143 16.4113C19.3958 16.4227 19.3771 16.4331 19.3584 16.4429C19.3506 16.6694 19.338 16.8893 19.11 16.9924C18.7353 17.0963 18.5289 16.688 18.4868 16.4018Z" fill="#FAD1B4"/>
<path d="M21.4679 10.5032C21.558 9.51024 21.6512 8.5403 21.4575 7.60352C21.5947 8.01067 21.6797 8.43864 21.7242 8.88872C21.8261 9.91866 21.7831 10.966 22.0423 11.9759C22.1301 12.3179 22.2515 12.6693 22.3621 13.0258C22.1256 12.4694 21.8479 11.9174 21.5943 11.3619C21.4569 11.0898 21.4147 10.8035 21.4679 10.5032Z" fill="#D4977B"/>
<path d="M10.5161 14.8059C10.8502 15.2271 11.381 15.6365 11.9132 15.7577C12.4095 15.8708 12.4309 15.4492 12.6241 15.0542C12.6414 15.1048 12.6606 15.1549 12.6808 15.2045C12.5826 14.5869 12.4313 13.9705 12.5726 13.3561C12.3254 12.6613 12.03 11.9782 11.5088 11.439C11.4816 11.4524 11.4547 11.4662 11.4288 11.4807C11.1973 11.6101 10.9757 11.759 10.7773 11.9355C10.4009 12.2704 10.1097 12.7079 10.0429 13.2158C9.96847 13.7833 10.1641 14.3622 10.5161 14.8059ZM11.0882 13.4954C11.1107 13.4269 11.1546 13.3555 11.2261 13.3234C11.1858 13.313 11.1462 13.3043 11.1078 13.2975C11.1463 13.3043 11.1858 13.313 11.2261 13.3234C11.2616 13.3075 11.3036 13.3012 11.3534 13.3101C11.3036 13.3012 11.2616 13.3076 11.2261 13.3234C11.8147 13.4751 12.5598 13.9952 12.4089 14.5192C12.43 14.6623 12.0147 14.821 11.7074 14.72C11.2429 14.5449 10.92 14.0076 11.0882 13.4954Z" fill="#FAD1B4"/>
<path d="M12.5726 13.3562C12.6352 13.532 12.6947 13.7085 12.754 13.8836C12.6947 13.7085 12.6352 13.532 12.5726 13.3562C12.5828 13.3118 12.5944 13.2673 12.6078 13.2228C12.5943 13.2673 12.5828 13.3118 12.5726 13.3562C12.3255 12.6614 12.03 11.9784 11.5088 11.4391C11.752 11.3189 12.039 11.2317 12.2299 11.045C12.4684 10.8117 12.4991 10.4634 12.5711 10.1555C12.6305 9.90148 12.7254 9.66246 12.8606 9.43891C13.1784 8.91335 13.6557 8.49983 14.1024 8.08775C14.6658 7.56797 15.228 7.04692 15.7896 6.52519C16.0937 6.24265 16.3985 5.96071 16.7043 5.67995C17.0108 5.3986 17.3188 5.09753 17.6687 4.86999C17.8988 4.72039 18.1579 4.58762 18.4387 4.58643C18.6225 4.58566 18.9208 4.70237 19.0353 4.76552C19.0803 4.79289 19.115 4.81193 19.1652 4.83828C19.2484 4.89574 19.3307 4.95422 19.4121 5.01381C19.7171 6.4464 19.1518 7.93755 17.8458 8.74633C15.5745 10.2022 12.6861 12.4314 13.9401 15.3173C14.9473 17.6181 17.1962 18.3449 19.5233 18.3334C18.4652 18.7791 17.1946 18.4252 16.1739 18.0203C14.8739 17.5046 13.2349 16.5612 12.6809 15.2047C12.5825 14.5872 12.4312 13.9707 12.5726 13.3562Z" fill="#D4977B"/>
<path d="M16.6034 12.2124C17.0095 12.2124 17.3387 11.8831 17.3387 11.477C17.3387 11.0709 17.0095 10.7417 16.6034 10.7417C16.1973 10.7417 15.868 11.0709 15.868 11.477C15.868 11.8831 16.1973 12.2124 16.6034 12.2124Z" fill="white"/>
<path d="M16.833 12.0407C17.0862 12.0407 17.2915 11.8354 17.2915 11.5821C17.2915 11.3288 17.0862 11.1235 16.833 11.1235C16.5797 11.1235 16.3744 11.3288 16.3744 11.5821C16.3744 11.8354 16.5797 12.0407 16.833 12.0407Z" fill="black"/>
<path d="M16.9585 11.9624C17.0526 11.9624 17.1289 11.8861 17.1289 11.792C17.1289 11.6979 17.0526 11.6216 16.9585 11.6216C16.8644 11.6216 16.7881 11.6979 16.7881 11.792C16.7881 11.8861 16.8644 11.9624 16.9585 11.9624Z" fill="white"/>
<path d="M18.7575 11.3046C19.1264 11.6865 19.5014 12.0505 19.8997 12.4029C20.0896 12.571 20.2727 12.6912 20.4671 12.854C20.5936 12.9599 20.8373 13.13 20.9006 13.2907C21.0009 13.5452 20.7476 13.9292 20.5802 14.0993C20.3159 14.3677 19.8753 14.6267 19.492 14.6132C19.4566 14.6119 19.4533 14.5607 19.4823 14.5474C19.8465 14.3817 20.2856 14.2341 20.5549 13.9231C20.6581 13.8037 20.7938 13.6008 20.7871 13.4333C20.7787 13.2244 20.4381 12.9923 20.2901 12.8675C19.7423 12.4056 19.1135 11.9377 18.7556 11.3057C18.7549 11.3045 18.7567 11.3037 18.7575 11.3046Z" fill="#B37A5D"/>
<path d="M20.2086 15.198C19.8467 15.8059 19.2369 15.9452 18.6507 15.7878C18.3347 15.7031 18.0124 15.5522 17.723 15.3446C17.504 15.1873 17.2434 14.9301 17.0785 14.6277C17.0711 14.6143 17.1356 14.5637 17.1459 14.5776C17.3041 14.7909 17.444 14.9267 17.6404 15.0855C17.8892 15.2866 18.1599 15.45 18.434 15.5645C19.0674 15.8291 19.8081 15.6998 20.2318 15.0421C20.2358 15.036 20.2124 15.1916 20.2086 15.198Z" fill="#B37A5D"/>
<path d="M17.3248 14.4845C17.2678 14.5175 17.2177 14.551 17.1826 14.5864C17.146 14.6231 17.1068 14.7087 17.0827 14.7605C17.0468 14.8377 17.0249 14.8784 16.9711 14.9359C16.9647 14.9428 16.9545 14.9366 16.9527 14.9256C16.9326 14.8054 17.0042 14.5962 17.0607 14.5202C17.12 14.4403 17.2206 14.4369 17.3132 14.4559C17.316 14.4565 17.3188 14.459 17.3199 14.4625C17.322 14.4692 17.3242 14.4759 17.3263 14.4826C17.3268 14.4838 17.3259 14.4851 17.3248 14.4845Z" fill="#B37A5D"/>
<path d="M21.122 9.54891C20.9088 9.29102 20.6152 9.21172 20.2931 9.21486C20.2009 9.2158 20.1056 9.24648 20.0159 9.24572C20 9.24555 19.9029 9.23178 19.9173 9.22234C19.9073 9.22889 19.8885 9.226 19.8882 9.21087C19.8831 9.01256 20.1964 9.03738 20.3307 9.04563C20.6446 9.06484 21.0148 9.23127 21.1279 9.54543C21.1291 9.549 21.1246 9.55197 21.122 9.54891Z" fill="#5B3E2F"/>
<path d="M15.4122 9.98403C15.5615 9.75512 15.8795 9.49077 16.188 9.40917C16.4036 9.35214 16.7454 9.38078 16.8507 9.56319C16.8579 9.57569 16.8377 9.59413 16.8197 9.5875C16.362 9.41725 15.7666 9.7677 15.4198 9.98819C15.4158 9.99066 15.4098 9.9876 15.4122 9.98403Z" fill="#5B3E2F"/>
<path d="M12.4426 14.247C12.261 14.053 12.0856 13.942 11.8141 13.985C11.6664 14.0084 11.502 14.0651 11.3676 14.1309C11.3594 14.1349 11.3496 14.1302 11.346 14.1225C11.254 13.9294 11.7265 13.8603 11.834 13.8554C12.1244 13.8421 12.3409 13.9763 12.4561 14.2388C12.4598 14.2473 12.4486 14.2534 12.4426 14.247Z" fill="#B37A5D"/>
<path d="M7.04335 12.9997C7.13617 12.7611 7.23001 12.531 7.30456 12.294C7.40554 11.2165 7.48068 10.1368 7.63487 9.06477C7.78574 8.01579 7.95999 6.93238 8.32379 5.92853C8.75602 5.03764 9.31311 4.20915 10.1166 3.59766C9.0451 4.92544 8.69762 6.53636 8.45265 8.18094C8.8689 6.70602 9.32586 5.17645 10.4326 4.08717C9.59276 5.56464 9.37023 7.24484 9.09542 8.90786C9.04408 9.1598 9.00022 9.41259 8.96393 9.6653C9.01059 9.4137 9.0536 9.16099 9.09542 8.90786C9.41825 7.32278 10.0464 5.77374 11.0824 4.52756C9.81767 6.3888 10.0547 8.74322 9.85736 10.9004C9.83628 11.0652 9.81818 11.2296 9.80364 11.3937C9.82481 11.2307 9.84223 11.0661 9.85736 10.9004C10.1277 8.7841 10.9386 6.63658 12.3805 5.06731C11.57 6.84398 11.2648 8.74118 10.9048 10.5977C11.3954 8.96566 12.3911 7.45411 13.4627 6.12641C12.9636 7.36979 12.3144 8.58656 11.8153 9.82994C13.1058 8.66485 14.1914 7.43252 15.5297 6.26045C16.311 5.6091 16.8116 4.70674 16.9096 3.71742C16.8499 5.6272 15.7798 7.29592 14.5245 8.69953C15.8306 7.97082 17.3275 7.21407 17.8939 5.76575C17.7131 6.52353 17.2658 7.12567 16.8254 7.77549C17.9599 7.04356 18.7535 5.78003 18.7607 4.45539C19.0146 5.31568 18.8434 6.26768 18.4002 7.03761C17.8889 7.92594 17.0268 8.48805 16.0451 8.71585C16.041 8.71678 16.0375 8.7161 16.0344 8.71483C15.5615 9.12767 15.0466 9.50329 14.4956 9.7854C14.3545 9.85765 14.2102 9.92421 14.0632 9.98532C13.5544 10.5404 13.2821 11.2669 13.0376 11.9725C12.7373 12.839 12.4686 13.8246 12.7389 14.7351C12.7667 14.8289 12.8033 14.9219 12.8477 15.0106C12.9427 15.1763 13.0775 15.3177 13.2617 15.3829C13.683 15.532 13.872 15.0996 13.8374 14.753C13.8255 14.6338 13.7583 14.5367 13.8521 14.4527C13.9347 14.3785 14.0867 14.4 14.177 14.4421C14.4715 14.5796 14.4463 14.9948 14.3416 15.2473C14.2138 15.5556 13.9072 15.7008 13.5827 15.6632C13.2395 15.6234 12.9754 15.3914 12.8143 15.0962C12.8141 15.0959 12.8139 15.0955 12.8137 15.0952C12.6967 14.9105 12.6326 14.6881 12.5913 14.4747C12.5478 14.25 12.5072 14.0101 12.5009 13.7722C12.3756 13.2412 12.224 12.7033 11.6946 12.4298C11.117 12.1315 10.4851 12.4621 10.453 13.1167C10.4264 13.6624 10.6283 14.3225 10.98 14.7418C11.1682 14.9662 11.4396 15.189 11.7398 15.2271C12.0717 15.2692 12.3034 15.0247 12.543 14.8455C12.5654 14.8288 12.5903 14.8444 12.5939 14.8661C12.5951 14.866 12.5965 14.8662 12.5971 14.8674C12.847 15.3359 13.0872 15.7789 13.4553 16.1689C13.8162 16.5512 14.4488 17.0142 14.8842 16.9091C14.5976 17.5781 13.0775 17.8907 12.3765 17.5284C12.1893 17.4317 12.0146 17.31 11.8572 17.1694C12.0028 17.3238 12.1528 17.4646 12.2876 17.5874C12.3078 17.6058 12.3004 17.6354 12.2739 17.642C12.0001 17.7099 11.7223 17.7309 11.4507 17.7108C10.53 17.3878 9.87572 16.5171 9.41392 15.6921C9.49127 16.2168 9.74542 16.618 10.0879 16.9575C9.52646 16.4554 8.86252 15.9196 8.74301 15.1086C8.63659 15.7092 8.95245 16.1988 9.22063 16.6955C8.41279 15.8949 7.98609 14.7344 8.03904 13.6088C8.04601 13.5422 8.05154 13.4751 8.05349 13.4068C8.04686 13.474 8.04219 13.5413 8.03904 13.6088C7.96076 14.354 7.59466 15.0047 7.57299 15.7686C7.58242 16.0317 7.62713 16.3035 7.70397 16.5696C7.30906 16.2175 7.05653 15.731 6.91424 15.2126C6.71245 14.4784 6.76846 13.7061 7.04335 12.9997Z" fill="#373737"/>
<path d="M7.57257 15.7682C7.59425 15.0044 7.96034 14.3536 8.03863 13.6084C7.98567 14.734 8.41246 15.8945 9.22021 16.6951C8.95204 16.1984 8.63618 15.7088 8.7426 15.1082C8.86211 15.9192 9.52604 16.455 10.0875 16.9571C9.745 16.6177 9.49085 16.2165 9.4135 15.6917C9.87531 16.5167 10.5296 17.3874 11.4503 17.7104C10.7076 17.6552 10.012 17.2892 9.57619 16.7105C9.68261 16.9131 9.81683 17.1021 9.98895 17.2696C10.0077 17.288 9.98598 17.3207 9.96243 17.3171C9.32009 17.22 8.65879 17.1583 8.07977 16.8375C7.94173 16.7611 7.81703 16.6704 7.70347 16.5691C7.62672 16.3031 7.58201 16.0314 7.57257 15.7682Z" fill="#4F4F4F"/>
<path d="M16.8253 7.77543C17.2656 7.12561 17.7131 6.52347 17.8938 5.76569C17.3274 7.21392 15.8304 7.97076 14.5243 8.69947C15.7797 7.29586 16.8497 5.62714 16.9094 3.71736C16.8115 4.70659 16.3109 5.60904 15.5295 6.26039C14.1913 7.43246 13.1057 8.66487 11.8151 9.82988C12.3142 8.5865 12.9635 7.36973 13.4626 6.12635C12.391 7.45414 11.3952 8.96569 10.9047 10.5977C11.2646 8.7412 11.5699 6.844 12.3804 5.06725C10.9384 6.63652 10.1276 8.78404 9.85722 10.9004C10.0546 8.74316 9.81761 6.38874 11.0822 4.5275C10.0463 5.77368 9.41811 7.32272 9.09528 8.9078C9.37017 7.24478 9.5927 5.56458 10.4324 4.08711C9.32571 5.17639 8.86875 6.70596 8.45251 8.18088C8.69748 6.5363 9.04496 4.9253 10.1166 3.59751C9.31305 4.209 8.75596 5.0375 8.32373 5.92839C8.36649 5.81049 8.4112 5.69344 8.45939 5.57801C8.82889 4.6935 9.4102 3.93445 10.0757 3.2519C10.4808 2.83651 10.8996 2.44075 11.4091 2.15574C12.0208 1.81353 12.6745 1.64183 13.3701 1.57936C13.9025 1.5315 14.44 1.55479 14.9638 1.64812C14.9526 1.6443 14.9414 1.6403 14.9303 1.63648C14.9273 1.63546 14.9285 1.63036 14.9316 1.63104C14.9989 1.64642 15.0669 1.66325 15.1352 1.68068C15.6356 1.78548 16.1206 1.9571 16.5735 2.19578C17.5489 2.66328 18.4154 3.37252 18.7427 4.39363C18.7492 4.41403 18.7543 4.43468 18.7604 4.45525C18.7535 5.77997 17.9598 7.04341 16.8253 7.77543Z" fill="#4F4F4F"/>
<path d="M19.3382 11.5966C18.708 10.9583 19.1539 10.0152 19.8273 9.62354C19.6576 9.79481 19.5567 10.1021 19.7209 10.2241C19.9539 10.4823 20.3637 10.6168 20.3316 11.0602C20.3137 11.1146 20.2651 11.1461 20.2254 11.1779C20.1763 11.1017 20.1242 11.027 20.072 10.9523C20.1242 11.027 20.1763 11.1017 20.2254 11.1779C20.1904 11.2061 20.1623 11.2345 20.1689 11.2792C20.1622 11.2345 20.1904 11.206 20.2254 11.1779C20.3202 11.3251 20.4037 11.478 20.454 11.6476C20.0763 11.7588 19.6818 11.8893 19.3382 11.5966Z" fill="#D4977B"/>
<path d="M21.2509 10.1421C21.1701 10.3785 20.9689 10.5509 20.7305 10.3967C20.5157 10.2578 20.2246 10.1589 19.9694 10.2808C19.7682 10.3768 19.7814 10.6138 19.6182 10.7362C19.5995 10.7502 19.5701 10.7406 19.5672 10.7161C19.5369 10.4701 19.7604 10.1879 19.9945 10.1219C20.1364 10.082 20.3207 10.0825 20.4626 10.1193C20.7183 10.1855 21.0524 10.5452 21.2479 10.1409C21.2487 10.1389 21.2516 10.14 21.2509 10.1421Z" fill="#5B3E2F"/>
<path d="M20.3002 11.667C20.7063 11.667 21.0356 11.3377 21.0356 10.9316C21.0356 10.5255 20.7063 10.1963 20.3002 10.1963C19.8941 10.1963 19.5649 10.5255 19.5649 10.9316C19.5649 11.3377 19.8941 11.667 20.3002 11.667Z" fill="white"/>
<path d="M20.5298 11.4948C20.7831 11.4948 20.9884 11.2895 20.9884 11.0362C20.9884 10.7829 20.7831 10.5776 20.5298 10.5776C20.2765 10.5776 20.0712 10.7829 20.0712 11.0362C20.0712 11.2895 20.2765 11.4948 20.5298 11.4948Z" fill="black"/>
<path d="M20.6134 11.4483C20.7075 11.4483 20.7838 11.372 20.7838 11.2778C20.7838 11.1837 20.7075 11.1074 20.6134 11.1074C20.5192 11.1074 20.4429 11.1837 20.4429 11.2778C20.4429 11.372 20.5192 11.4483 20.6134 11.4483Z" fill="white"/>
<path d="M13.8392 18.3027C14.8036 18.7367 15.5269 19.653 16.6842 19.7012C16.7983 19.7012 16.8525 19.8508 16.9412 19.9614C16.9444 19.9905 16.9477 20.0187 16.9516 20.0443C16.9797 20.2259 16.9994 20.4075 17.0199 20.59C17.0432 20.7973 17.1025 21.0122 17.0864 21.2213C17.086 21.2265 17.0789 21.2311 17.0749 21.2261C16.8663 20.9661 16.8142 20.5547 16.7404 20.2372C16.7195 20.147 16.7053 20.0162 16.6748 19.9006C16.5729 20.0777 16.4928 20.2758 16.4083 20.4501C16.2706 20.7339 16.1392 21.0208 16.0048 21.3062C15.9579 21.4058 15.8285 21.3781 15.7753 21.3062C15.4657 20.8884 14.9765 20.5815 14.5731 20.2612C14.3631 20.0945 14.1539 19.9266 13.9483 19.7544C13.781 19.6142 13.5458 19.4666 13.438 19.2717C13.3561 19.1238 13.4018 18.9561 13.436 18.7991C13.4673 18.6555 13.517 18.5048 13.5781 18.363C13.6615 18.2903 13.7452 18.2557 13.8392 18.3027Z" fill="#2CAAB2"/>
<path d="M27.9443 27.9485L25.2849 31.9731C25.2109 32.085 25.2277 32.2338 25.3249 32.3263L26.4247 33.3745C26.5482 33.4922 26.7478 33.4713 26.8443 33.3306L28.9906 30.2L29.7084 29.153C29.7949 29.0268 29.7628 28.8545 29.6367 28.7679L28.332 27.8728C28.2044 27.7852 28.0297 27.8193 27.9443 27.9485Z" fill="#1E767C"/>
<path d="M28.0723 28.3374L26.2488 31.1544L26.7477 32.8271L29.2034 29.1253L28.0723 28.3374Z" fill="#56BBC1"/>
<path d="M25.0909 32.7056C25.0377 32.7056 24.9845 32.4928 24.9313 32.4928C24.2929 32.2268 23.3886 32.6524 22.9098 31.9609C22.5742 31.4574 22.4047 30.8878 22.4 30.3042C22.5265 30.2557 22.6529 30.2079 22.7776 30.1604C23.294 29.9636 23.8335 29.7556 24.3934 29.752C24.6525 29.7504 24.8996 29.8066 25.1433 29.8802C25.3524 29.9174 25.5604 29.961 25.7663 30.0121C26.1539 30.1081 26.5302 30.2335 26.8975 30.3852C26.9561 30.4053 27.0139 30.4279 27.0673 30.4572C27.0678 30.4575 27.0682 30.4578 27.0688 30.4582C27.0728 30.46 27.0769 30.4616 27.0809 30.4634C27.3304 30.469 27.6787 30.7483 27.3108 30.8933C27.1088 30.9728 26.8913 30.9203 26.6877 30.8763C26.5087 30.8376 26.3316 30.8073 26.1534 30.7894C26.443 30.9229 26.7149 31.1246 26.8939 31.3479C27.0512 31.5443 27.1708 31.9614 26.9341 32.0962C27.0094 32.3198 27.0181 32.5776 26.8347 32.6953C26.8754 32.7837 26.9111 32.885 26.9243 32.9826C26.8217 32.9135 26.7088 32.855 26.5802 32.8121C26.0484 32.7056 25.5165 33.078 25.0909 32.7056Z" fill="#FAD1B4"/>
<path d="M22.4001 30.3047C22.4048 30.8883 22.5743 31.4579 22.9099 31.9613C23.3887 32.6529 24.293 32.2273 24.9314 32.4933C24.9846 32.4933 25.0378 32.706 25.091 32.706C25.5166 33.0784 26.0485 32.706 26.5805 32.8124C26.709 32.8553 26.822 32.9138 26.9246 32.983C26.941 33.1043 26.9226 33.2198 26.8348 33.2972C26.6316 33.476 26.372 33.3558 26.1645 33.2606C25.3993 32.9099 24.5221 33.2203 23.7193 33.0406C23.3249 32.9524 22.9507 32.7933 22.5791 32.6383C22.5279 32.6169 22.4768 32.5956 22.4257 32.5742C22.4109 32.2971 22.3639 32.015 22.3231 31.7648C22.2746 31.4676 22.2145 31.1726 22.1622 30.8765C22.1519 30.7218 22.1391 30.5672 22.1234 30.4127C22.2152 30.3757 22.3077 30.3401 22.4001 30.3047Z" fill="#D4977B"/>
<path d="M22.3247 32.1739C22.0557 31.5206 22.0367 30.8672 22.0469 30.2138C22.0988 30.2046 22.1507 30.1956 22.2026 30.186C22.2209 30.1701 22.244 30.1605 22.2691 30.1573C22.3417 30.1053 22.474 30.1444 22.4892 30.2629C22.4963 30.3178 22.5267 30.4686 22.5299 30.498C22.5534 30.7108 22.5867 31.1543 22.6179 31.5823C22.5811 31.807 22.5048 32.0118 22.3247 32.1739Z" fill="#2CAAB2"/>
<path d="M21.9213 30.2363C21.9632 30.229 22.005 30.2213 22.0468 30.2139C22.0367 30.8673 22.0557 31.5206 22.3247 32.174C22.5048 32.0119 22.5811 31.807 22.6179 31.5823C22.6547 32.0895 22.6886 32.5747 22.6992 32.6278C22.7147 32.7053 22.6775 32.7764 22.6006 32.8014C22.4594 32.8474 22.3262 32.862 22.1783 32.8581C22.0978 32.856 22.0368 32.7935 22.0337 32.7135C22.0297 32.6111 22.0246 32.509 22.0187 32.4067C22.0177 32.3897 21.9662 31.6752 21.9096 31.3264C21.8993 31.2625 21.8513 30.5974 21.8223 30.3661C21.8157 30.3129 21.8687 30.2455 21.9213 30.2363Z" fill="#1E767C"/>
<path d="M18.819 30.6436C18.6192 30.577 18.386 30.6103 18.1862 30.7103C17.3203 31.1766 15.6429 31.1432 14.7437 30.8101C14.5772 30.7768 14.4107 30.8435 14.2442 30.7768C14.344 30.7102 14.3773 30.6436 14.4773 30.577C14.0283 30.6893 13.6036 30.9438 13.3214 31.3199C13.3985 31.1443 13.4419 30.9463 13.5781 30.81C13.2117 31.2097 12.8787 31.6094 12.5789 32.0756C13.2783 29.9774 13.2048 27.7793 12.9384 25.5812C12.9384 25.3814 12.6387 25.448 12.5387 25.5812C12.4968 25.6651 12.4079 25.7666 12.3337 25.8734C12.496 24.5546 12.4488 23.2329 12.239 21.8844C12.1785 21.4809 12.1795 20.3572 11.9827 19.9952C12.2943 20.1028 12.9675 19.6647 13.1602 20.7245C13.2691 21.3231 13.3722 22.478 13.3529 23.2488C13.3354 23.9483 13.4231 24.5605 13.4253 25.2601C13.43 26.8522 13.5479 29.1683 13.5839 29.417C13.6198 29.6657 13.7993 30.0517 13.6208 30.2532C13.8645 30.1767 14.0221 30.1386 14.13 30.3714C14.3918 30.2257 14.6312 30.4373 15.0238 30.4024C15.6735 30.3446 17.0611 30.4214 17.7116 30.3725C18.3672 30.3231 18.9865 30.3246 19.676 30.2918C20.1709 30.2683 20.6724 30.1856 21.1687 30.1209C20.4503 30.5842 19.6966 30.9647 18.819 30.6436Z" fill="#F5F9FA"/>
<path d="M9.87684 24.6203C10.0009 23.379 10.196 22.7939 10.8166 21.2512C11.07 20.6214 11.8637 19.8005 12.4744 19.9665C12.4044 19.9987 12.1803 20.7899 12.1248 20.8525C10.5594 22.5177 10.2264 24.9823 10.5594 27.1804C10.7259 28.446 11.2255 29.5783 11.6251 30.8107C11.8916 31.5434 11.392 32.3427 11.8583 33.0088C12.7908 34.341 14.2895 33.4084 15.2887 32.5092C15.3553 32.4426 15.4885 32.4093 15.6217 32.3427C15.5884 32.6092 15.4885 32.8756 15.322 33.1087C16.088 33.5084 16.9873 33.3086 17.7533 33.0088C18.3861 32.7757 18.9523 32.2095 19.5517 32.3095C19.8182 32.3761 20.2511 32.4093 20.5509 32.2761C21.2836 31.9431 21.5501 31.1771 21.7166 30.4111C21.7423 30.3081 21.7658 30.2048 21.7869 30.1013C21.8298 30.1303 21.8685 30.1696 21.8985 30.2198C21.9716 30.3423 21.9655 30.5098 21.9815 30.6476C22.0043 30.8442 22.0245 31.0411 22.0423 31.2382C22.0738 31.5887 22.0974 31.94 22.113 32.2916C22.1253 32.5674 22.1458 32.8969 21.8318 33.011C21.6762 33.0675 21.5004 33.071 21.3393 33.1063C21.1583 33.1459 20.9819 33.206 20.8016 33.2486C20.4509 33.3314 20.1001 33.4138 19.7478 33.4892C19.0653 33.6353 18.3821 33.7783 17.6994 33.9238C16.3007 34.2217 14.879 34.4491 13.4503 34.5371C13.1047 34.5585 12.7584 34.5704 12.4121 34.5707C12.1129 34.5711 11.8048 34.5632 11.5142 34.4843C11.2382 34.4093 10.9645 34.2685 10.7759 34.049C10.5579 33.7952 10.4569 33.4774 10.3629 33.162C9.96074 31.8121 9.77374 30.4429 9.72996 29.0365C9.7082 28.3385 9.7173 27.6408 9.71262 26.9427C9.70795 26.2308 9.80612 25.3273 9.87684 24.6203Z" fill="#8FB0B4"/>
<path d="M12.3336 25.8738C12.4079 25.767 12.4967 25.6655 12.5386 25.5816C12.6385 25.4484 12.9383 25.3817 12.9383 25.5816C13.2048 27.7797 13.2783 29.9778 12.5788 32.076C12.8785 31.6097 13.2116 31.2101 13.578 30.8104C13.4418 30.9466 13.3984 31.1447 13.3213 31.3203C13.2686 31.3906 13.2202 31.4645 13.1783 31.5431C13.242 31.4795 13.2853 31.4023 13.3213 31.3203C13.6035 30.9442 14.0282 30.6896 14.4772 30.5774C14.3773 30.644 14.344 30.7106 14.2441 30.7772C14.4106 30.8438 14.5771 30.7772 14.7436 30.8105C15.6428 31.1436 17.3201 31.1769 18.1861 30.7106C18.3859 30.6108 18.6191 30.5775 18.8189 30.644C19.6965 30.9651 20.4502 30.5846 21.1685 30.1214C21.2622 30.1092 21.3557 30.0975 21.4489 30.0872C21.5447 30.0227 21.6793 30.0286 21.7867 30.1011C21.7656 30.2046 21.7422 30.3079 21.7164 30.4109C21.5499 31.1769 21.2834 31.9429 20.5507 32.2759C20.251 32.4091 19.818 32.3758 19.5515 32.3092C18.952 32.2094 18.3859 32.7756 17.7531 33.0086C16.9871 33.3083 16.0879 33.5082 15.3219 33.1085C15.4884 32.8753 15.5883 32.609 15.6216 32.3425C15.4884 32.4091 15.3551 32.4424 15.2885 32.509C14.2894 33.4082 12.7906 34.3407 11.8581 33.0085C11.3918 32.3425 11.8914 31.5431 11.625 30.8104C11.2253 29.5782 10.7257 28.4458 10.5592 27.1802C10.2262 24.9821 10.5592 22.5175 12.1246 20.8523C12.1803 20.7897 12.4042 19.9984 12.4743 19.9663C12.5057 19.9749 11.9516 19.9848 11.9825 19.9955C12.1793 20.3576 12.1782 21.4813 12.2387 21.8848C12.4487 23.2333 12.4959 24.5549 12.3336 25.8738Z" fill="#E4EDF2"/>
<path d="M11.8679 12.6835C12.2328 12.5447 12.5751 12.3386 12.9321 12.1791C13.3028 12.0135 13.6824 11.8667 14.0644 11.7287C14.3045 12.6884 15.2032 13.4037 16.2728 13.4037C17.5255 13.4037 18.5446 12.4228 18.5446 11.217C18.5446 11.2057 18.5439 11.1945 18.5438 11.1833C18.6808 11.1757 18.8224 11.1367 18.9558 11.0819C19.0127 11.0768 19.0695 11.071 19.1259 11.0613C19.1281 11.061 19.1298 11.0602 19.1319 11.0597C19.3578 12.038 20.2655 12.7719 21.3488 12.7719C22.6015 12.7719 23.6206 11.7909 23.6206 10.5851C23.6206 9.37942 22.6015 8.39844 21.3488 8.39844C20.0962 8.39844 19.077 9.37942 19.077 10.5851C19.077 10.653 19.0807 10.7199 19.0871 10.7861C18.9966 10.8285 18.9075 10.8596 18.8174 10.8858C18.8136 10.886 18.8099 10.8864 18.8062 10.8866C18.7141 10.8936 18.6166 10.8949 18.5281 10.9219C18.5263 10.9224 18.5249 10.9233 18.5232 10.9239C18.3738 9.85636 17.4222 9.03033 16.2729 9.03033C15.0203 9.03033 14.0011 10.0113 14.0011 11.217C14.0011 11.3212 14.0092 11.4234 14.0239 11.5236C13.6365 11.6366 13.2569 11.7688 12.883 11.922C12.5103 12.0748 12.1042 12.2267 11.7736 12.4594C11.6677 12.534 11.7299 12.736 11.8679 12.6835ZM19.3102 10.5852C19.3102 9.50811 20.2246 8.63176 21.3488 8.63176C22.4729 8.63176 23.3873 9.50811 23.3873 10.5852C23.3873 11.6624 22.4729 12.5387 21.3488 12.5387C20.2247 12.5387 19.3102 11.6624 19.3102 10.5852ZM14.2343 11.217C14.2343 10.1399 15.1487 9.26357 16.2728 9.26357C17.3969 9.26357 18.3114 10.1399 18.3114 11.217C18.3114 12.2942 17.3969 13.1705 16.2728 13.1705C15.1487 13.1705 14.2343 12.2942 14.2343 11.217Z" fill="#1E3035"/>
<path d="M26.569 29.0188C26.569 29.0188 28.0052 28.789 27.8247 29.2157C27.8247 29.2157 27.6934 29.4948 27.2748 29.5359L26.7167 29.6773L26.569 29.0188Z" fill="#FAD1B4"/>
<path d="M49.9346 47.7064C49.9346 47.7217 39.1303 47.7341 25.8055 47.7341C12.4761 47.7341 1.67407 47.7217 1.67407 47.7064C1.67407 47.6911 12.4761 47.6787 25.8055 47.6787C39.1303 47.6787 49.9346 47.6911 49.9346 47.7064Z" fill="#263238"/>
<path d="M40.0191 10.1319L35.1328 8.33203L30.2939 10.1077C29.6762 10.407 29.1343 10.5861 29.1343 11.1764V14.1153C29.1343 16.1562 29.6557 18.1787 30.7283 19.9643C31.631 21.4668 33.0286 23.0139 35.1803 23.9973C37.1582 23.3383 38.6346 21.5815 39.5372 20.0789C40.6099 18.2934 41.1312 16.2709 41.1312 14.2299V11.5871C41.1312 10.7454 40.6963 10.3344 40.0191 10.1319Z" fill="#EBEBEB"/>
<path d="M40.0191 10.1319C40.0191 10.1319 40.1298 10.1518 40.3274 10.2366C40.5172 10.3205 40.8254 10.4861 41.0089 10.8681C41.1017 11.055 41.1479 11.287 41.1551 11.5392C41.157 11.79 41.159 12.0624 41.1612 12.3554C41.1631 12.9437 41.1652 13.6145 41.1676 14.3597C41.1589 15.8501 40.8564 17.6776 39.9236 19.4911C39.4558 20.3922 38.8488 21.2878 38.0828 22.1094C37.3152 22.9218 36.3567 23.6602 35.1993 24.0545L35.1772 24.0621L35.1552 24.0521C33.6335 23.3683 32.2061 22.2178 31.1546 20.7265C29.8976 18.9742 29.2364 16.9199 29.106 14.9655C29.0696 14.4759 29.0762 13.9922 29.0761 13.5203C29.0767 13.0474 29.0772 12.5825 29.0777 12.126C29.0781 11.8978 29.0783 11.6718 29.0787 11.448C29.0805 11.3344 29.0752 11.2286 29.0829 11.1101C29.0909 10.993 29.123 10.8747 29.1831 10.7722C29.3072 10.5664 29.5069 10.4412 29.696 10.3383C29.8883 10.2353 30.0833 10.1515 30.2709 10.0604L30.2732 10.0592L30.2757 10.0582C32.1145 9.3886 33.7486 8.79369 35.1189 8.29465L35.1329 8.28955L35.1466 8.29465C36.6758 8.86628 37.8929 9.3212 38.7367 9.63663C39.1472 9.79261 39.4666 9.91399 39.6918 9.99958C39.7944 10.0398 39.8752 10.0715 39.9371 10.0958C39.992 10.118 40.0197 10.1301 40.0191 10.1319C40.0185 10.1337 39.9896 10.1251 39.9335 10.1064C39.8707 10.0848 39.7887 10.0565 39.6847 10.0207C39.4579 9.93974 39.1362 9.82499 38.7227 9.67743C37.8757 9.37007 36.6539 8.92663 35.1189 8.36954H35.1464C33.7785 8.87537 32.1475 9.47845 30.312 10.1572L30.3168 10.1551C30.1276 10.2477 29.9327 10.3325 29.7471 10.4328C29.5632 10.5328 29.3817 10.6523 29.2776 10.8275C29.1688 11.0024 29.192 11.2215 29.19 11.4479C29.1903 11.6717 29.1906 11.8978 29.1909 12.1259C29.1914 12.5824 29.192 13.0473 29.1926 13.5202C29.1936 13.9939 29.188 14.4728 29.2249 14.957C29.3573 16.8916 30.0128 18.9216 31.2557 20.6543C32.2955 22.1287 33.7025 23.2643 35.2053 23.9423L35.1612 23.9399C36.2935 23.5561 37.2391 22.8325 37.9999 22.031C38.7589 21.2211 39.3647 20.3334 39.8309 19.4431C40.7614 17.6503 41.0712 15.8396 41.0904 14.3587C41.0943 13.614 41.0979 12.9434 41.101 12.3554C41.0934 11.7718 41.1579 11.2544 40.9713 10.8857C40.8003 10.514 40.504 10.3453 40.3185 10.2559C40.2229 10.2094 40.1468 10.1809 40.0957 10.1624C40.0444 10.144 40.0185 10.1337 40.0191 10.1319Z" fill="#333333"/>
<path d="M38.5429 18.0168H37.5168V12.4317C37.5168 11.1172 36.4473 10.0476 35.1327 10.0476C33.8182 10.0476 32.7487 11.1171 32.7487 12.4317V18.0168H31.7225V12.4317C31.7225 10.5514 33.2524 9.02148 35.1327 9.02148C37.0131 9.02148 38.5429 10.5514 38.5429 12.4317V18.0168Z" fill="#455A64"/>
<path d="M38.5429 18.0168H37.5168V12.4317C37.5168 11.1172 36.4473 10.0476 35.1327 10.0476C33.8182 10.0476 32.7487 11.1171 32.7487 12.4317V18.0168H31.7225V12.4317C31.7225 10.5514 33.2524 9.02148 35.1327 9.02148C37.0131 9.02148 38.5429 10.5514 38.5429 12.4317V18.0168Z" fill="#4F4F4F"/>
<path d="M39.4402 21.4292H30.8253C30.6661 21.4292 30.537 21.3002 30.537 21.141V15.8205C30.537 15.6613 30.6661 15.5322 30.8253 15.5322H39.4403C39.5995 15.5322 39.7285 15.6613 39.7285 15.8205V21.141C39.7284 21.3002 39.5994 21.4292 39.4402 21.4292Z" fill="#2CAAB2"/>
<path d="M35.901 17.7126C35.901 17.2882 35.557 16.9443 35.1327 16.9443C34.7085 16.9443 34.3645 17.2883 34.3645 17.7126C34.3645 18.0637 34.6015 18.3565 34.9232 18.4482V19.5968H35.3423V18.4482C35.6641 18.3565 35.901 18.0637 35.901 17.7126Z" fill="#4F4F4F"/>
<path d="M31.0272 20.8703C31.0062 20.8703 30.9891 19.8868 30.9891 18.674C30.9891 17.4607 31.0062 16.4775 31.0272 16.4775C31.0483 16.4775 31.0654 17.4607 31.0654 18.674C31.0653 19.8868 31.0482 20.8703 31.0272 20.8703Z" fill="#FAFAFA"/>
<path d="M34.5311 18.6975C34.5286 18.7013 34.4951 18.6855 34.441 18.6464C34.3868 18.6075 34.3147 18.5412 34.243 18.4446C34.0996 18.2567 33.9687 17.9153 34.0537 17.5468C34.143 17.1791 34.4132 16.9328 34.6255 16.829C34.733 16.7749 34.8272 16.7478 34.893 16.7375C34.9589 16.7268 34.996 16.7277 34.9965 16.7322C34.9997 16.7466 34.8507 16.7606 34.6515 16.8764C34.4553 16.9873 34.2102 17.2248 34.128 17.5644C34.0492 17.9047 34.1618 18.2269 34.2874 18.4139C34.4136 18.6068 34.5405 18.686 34.5311 18.6975Z" fill="#FAFAFA"/>
</g>
<defs>
<clipPath id="clip0">
<rect width="51" height="51" fill="white"/>
</clipPath>
</defs>
</svg>
