<svg width="67" height="67" viewBox="0 0 67 67" fill="none" xmlns="http://www.w3.org/2000/svg">
<g clip-path="url(#clip0)">
<g opacity="0.21">
<path opacity="0.21" d="M51.5297 42.4953C51.5297 42.4953 50.3419 41.6765 48.8194 44.526C47.2969 47.3756 46.7091 49.0246 46.7091 49.0246C46.7091 49.0246 46.3097 49.6201 45.9031 49.2179C45.4965 48.8158 44.9508 47.6866 44.2429 47.8743C43.5087 48.0689 43.2524 48.8792 43.3685 50.0793C43.4845 51.2795 43.6423 53.9182 43.6557 54.1568C43.6689 54.3912 43.5282 54.7333 43.2073 54.5036C42.8864 54.2741 41.056 52.1544 40.1023 53.0832C39.1485 54.0119 40.0211 57.3023 40.1096 57.6638C40.1981 58.0253 40.1248 58.1776 39.9522 58.2633C39.7796 58.3489 39.2315 57.5785 38.6862 56.997C38.1409 56.4154 37.4067 55.8367 36.9013 56.4187C36.3959 57.0006 36.1903 59.4528 38.4497 63.486L39.6189 65.2863L41.7738 65.2085C46.3751 64.761 48.271 63.1923 48.4603 62.4452C48.6496 61.6981 47.7553 61.4256 46.9665 61.3098C46.1778 61.1941 45.2323 61.1839 45.2041 60.9933C45.176 60.8027 45.2591 60.6555 45.6064 60.5218C45.9538 60.3881 49.1534 59.2262 49.3714 57.9129C49.5895 56.5996 46.8043 56.3068 46.4326 56.1745C46.0609 56.0421 46.2615 55.7313 46.4613 55.6084C46.6649 55.4831 48.9214 54.1063 49.9731 53.5163C51.0247 52.9265 51.5436 52.2535 51.2843 51.5396C51.0343 50.8512 49.7958 51.0478 49.2335 50.9436C48.6711 50.8393 48.9321 50.1715 48.9321 50.1715C48.9321 50.1715 49.9504 48.7474 51.4209 45.8707C52.8914 42.994 51.5044 42.4802 51.5044 42.4802" fill="#56BBC1"/>
</g>
<path d="M39.7376 64.8518C40.8258 62.7434 42.3537 59.8431 44.0518 56.6446C45.7492 53.4473 47.2835 50.5511 48.3823 48.4483C48.9297 47.3982 49.3731 46.5475 49.6811 45.9568C49.8336 45.6646 49.9526 45.4368 50.0347 45.2796C50.0748 45.2043 50.1058 45.146 50.1282 45.1042C50.1496 45.0648 50.1621 45.0454 50.1621 45.0454C50.1621 45.0454 50.1536 45.0669 50.1343 45.1073C50.1134 45.1498 50.0843 45.2091 50.0467 45.2857C49.9671 45.4444 49.852 45.674 49.7042 45.9687C49.4061 46.5615 48.9687 47.4162 48.4242 48.4702C47.3359 50.5787 45.8083 53.4787 44.1107 56.676C42.4127 59.8744 40.8783 62.7709 39.7796 64.8737" fill="#E0E0E0"/>
<path d="M44.9427 49.4849C44.9472 49.4837 44.9653 49.5359 44.9941 49.6315C45.0234 49.7269 45.0616 49.8661 45.1072 50.0385C45.1977 50.3836 45.3106 50.8632 45.4258 51.3949C45.5374 51.9196 45.6382 52.394 45.7154 52.7569C45.7511 52.9202 45.7814 53.0581 45.8057 53.1689C45.8274 53.266 45.8374 53.3205 45.833 53.3217C45.8286 53.3229 45.8102 53.2708 45.7806 53.1754C45.7516 53.0798 45.7133 52.9406 45.6695 52.7676C45.5823 52.4216 45.4757 51.9405 45.3606 51.409C45.2454 50.8854 45.1411 50.4119 45.0614 50.0496C45.0247 49.8864 44.9938 49.7486 44.9689 49.6379C44.9478 49.5405 44.9382 49.4861 44.9427 49.4849Z" fill="#E0E0E0"/>
<path d="M46.0293 53.3636C46.0246 53.3457 47.0034 53.0694 48.2152 52.7462C49.4275 52.423 50.4137 52.1755 50.4185 52.1933C50.4232 52.2111 49.4446 52.4874 48.2324 52.8106C47.0205 53.1337 46.034 53.3813 46.0293 53.3636Z" fill="#E0E0E0"/>
<path d="M43.2007 58.1569C43.201 58.1523 43.2574 58.1509 43.3592 58.1526C43.4746 58.1553 43.6188 58.1585 43.7899 58.1625C44.1534 58.1703 44.6555 58.1789 45.21 58.1681C45.7646 58.1585 46.2661 58.1325 46.6291 58.1107C46.8 58.1006 46.9439 58.0921 47.0592 58.0853C47.1608 58.0798 47.2172 58.079 47.2177 58.0835C47.2181 58.0881 47.1626 58.0976 47.0615 58.1111C46.9605 58.1244 46.814 58.1411 46.6326 58.1576C46.27 58.1916 45.7672 58.2252 45.2111 58.2348C44.6551 58.2455 44.1516 58.2295 43.788 58.2096C43.6061 58.1989 43.4591 58.1886 43.3577 58.1785C43.2563 58.1689 43.2004 58.1615 43.2007 58.1569Z" fill="#E0E0E0"/>
<path d="M41.4457 54.8653C41.4497 54.8631 41.4786 54.9065 41.5274 54.987C41.5821 55.0806 41.6492 55.1955 41.7285 55.3309C41.8958 55.6227 42.1228 56.0279 42.3699 56.4774C42.6171 56.9272 42.8375 57.3361 42.9943 57.6336C43.0661 57.7731 43.1271 57.8914 43.1767 57.9877C43.2185 58.0721 43.2397 58.1198 43.2356 58.1219C43.2316 58.1242 43.2027 58.0807 43.1539 58.0002C43.0992 57.9067 43.0321 57.7919 42.9528 57.6564C42.7855 57.3646 42.5585 56.9593 42.3113 56.5095C42.0642 56.06 41.8438 55.6511 41.6871 55.3536C41.6152 55.2142 41.5542 55.0958 41.5045 54.9995C41.4628 54.9152 41.4416 54.8676 41.4457 54.8653Z" fill="#E0E0E0"/>
<path d="M38.4108 58.7794C38.4149 58.7771 38.4514 58.833 38.5139 58.9362C38.5814 59.0508 38.6686 59.1985 38.7732 59.3759C38.9896 59.7485 39.2846 60.2657 39.6068 60.8389C39.9292 61.4123 40.2177 61.933 40.4236 62.3116C40.5207 62.4932 40.6017 62.6444 40.6644 62.7617C40.72 62.8687 40.7488 62.9289 40.7447 62.9312C40.7407 62.9334 40.7043 62.8775 40.6418 62.7744C40.5742 62.6599 40.487 62.5121 40.3825 62.3347C40.1661 61.962 39.871 61.4448 39.5487 60.8715C39.2266 60.2984 38.9381 59.7776 38.7322 59.3989C38.635 59.2173 38.554 59.0662 38.4914 58.9488C38.4357 58.8419 38.4068 58.7816 38.4108 58.7794Z" fill="#E0E0E0"/>
<path d="M40.717 62.8162C40.7171 62.8116 40.7885 62.8082 40.9176 62.8058C41.0586 62.8039 41.2425 62.8015 41.4641 62.7986C41.9255 62.792 42.5627 62.7805 43.2657 62.7478C43.969 62.7162 44.6047 62.6709 45.0648 62.6348C45.2858 62.6176 45.4691 62.6035 45.6097 62.5926C45.7384 62.5831 45.8098 62.58 45.8104 62.5846C45.8109 62.5892 45.7404 62.601 45.6124 62.6184C45.4844 62.6358 45.2988 62.6581 45.0691 62.6818C44.6097 62.73 43.9733 62.7828 43.2688 62.8144C42.5646 62.8472 41.9261 62.8512 41.4642 62.8458C41.2332 62.8425 41.0464 62.8379 40.9173 62.8318C40.7882 62.8261 40.7169 62.8208 40.717 62.8162Z" fill="#E0E0E0"/>
<g opacity="0.21">
<g opacity="0.21">
<g opacity="0.21">
<path opacity="0.21" d="M10.9796 63.9404C13.7358 62.5434 14.7655 59.3717 15.0803 56.4341C15.133 55.9437 15.2594 55.4368 15.0879 54.9758C14.9163 54.5148 14.4162 54.1454 13.9501 54.2892C13.5636 54.4084 13.3459 54.8077 13.0938 55.1275C12.7583 55.5532 12.3021 55.8802 11.7944 56.0586C11.4608 56.1758 11.0624 56.2199 10.7796 56.0073C10.3915 55.7155 10.4242 55.1269 10.496 54.6418C10.6299 53.738 10.7636 52.8341 10.8973 51.9305C10.9691 51.4456 11.0407 50.9502 10.9551 50.4681C10.8694 49.9861 10.5964 49.511 10.153 49.3162C9.7095 49.1214 9.1009 49.3068 8.9361 49.768C8.8675 49.96 8.87867 50.1709 8.83672 50.3705C8.79467 50.5701 8.6692 50.7797 8.46996 50.8087C8.26819 50.8382 8.09344 50.6731 7.96853 50.5105C7.53692 49.9494 7.28644 49.27 7.05764 48.5972C6.82884 47.9244 6.61149 47.238 6.23272 46.6391C5.85385 46.0401 5.28513 45.5275 4.59563 45.3897C3.90594 45.2519 3.10467 45.576 2.83232 46.2334C2.55923 46.8927 2.8601 47.6436 3.21607 48.259C3.74415 49.172 4.40362 50.0068 5.16726 50.7287C5.30484 50.8589 5.45406 50.9998 5.48709 51.1879C5.54669 51.5264 5.19457 51.8044 4.86 51.8654C4.48114 51.9347 4.09392 51.8415 3.70914 51.8325C3.32437 51.8234 2.8907 51.9324 2.6969 52.2697C2.42784 52.7377 2.76907 53.3164 3.12907 53.7148C3.84992 54.5126 4.70712 55.1836 5.65123 55.6895C5.98974 55.8707 6.34928 56.0385 6.60173 56.3302C6.85408 56.6219 6.96604 57.0826 6.74372 57.3999C6.52111 57.7175 6.05919 57.7636 5.69506 57.6412C5.33103 57.519 5.02499 57.2685 4.6876 57.0836C4.05629 56.7374 3.18838 56.6614 2.67944 57.1772C2.34497 57.5164 2.24549 58.0406 2.32357 58.5123C2.40147 58.9841 2.63449 59.414 2.88948 59.8161C3.78084 61.2217 5.0064 62.4253 6.47775 63.181C7.9491 63.9367 9.36226 64.285 10.9796 63.9404Z" fill="#56BBC1"/>
</g>
</g>
</g>
<path d="M10.7478 65.4481C10.8059 64.2749 10.7088 63.5358 10.4845 62.0001C10.2632 60.4637 9.88083 58.7998 9.42126 57.0732C9.30479 56.6421 9.18964 56.2159 9.07627 55.796C8.96206 55.3772 8.84888 54.9616 8.71299 54.5622C8.44467 53.7619 8.12578 53.0129 7.80078 52.3114C7.47597 51.6094 7.14225 50.9552 6.8257 50.3458C6.50765 49.7367 6.20058 49.1747 5.89886 48.6744C5.29833 47.671 4.71928 46.9205 4.30072 46.4217C4.092 46.1714 3.92364 45.9825 3.80783 45.8561C3.75199 45.796 3.70826 45.7487 3.67523 45.7131C3.64491 45.6813 3.62896 45.6655 3.62783 45.6666C3.62652 45.6676 3.64031 45.6855 3.66837 45.7194C3.69972 45.7565 3.74139 45.8056 3.79432 45.8683C3.90553 45.9987 4.06948 46.1911 4.27388 46.4444C4.68343 46.9496 5.25253 47.7033 5.84433 48.7079C6.14174 49.2089 6.44487 49.7714 6.75945 50.3811C7.0729 50.9917 7.40381 51.6462 7.7258 52.3472C8.04779 53.048 8.36378 53.7949 8.62946 54.5912C8.76404 54.9888 8.87581 55.4007 8.99002 55.8206C9.1033 56.2403 9.21808 56.6662 9.33445 57.0972C9.79355 58.8225 10.1773 60.4818 10.4026 62.0129C10.6306 63.5431 10.7341 64.2762 10.6843 65.4456" fill="#E0E0E0"/>
<path d="M8.68796 54.5554C8.69387 54.5572 8.72081 54.4859 8.76473 54.355C8.80921 54.2245 8.8673 54.0337 8.93563 53.7967C9.07274 53.3232 9.23969 52.6628 9.42101 51.934C9.60242 51.2048 9.77829 50.5487 9.92216 50.0786C9.99348 49.8434 10.0531 49.6534 10.096 49.5228C10.1382 49.3918 10.1587 49.3182 10.1529 49.316C10.1471 49.3138 10.1155 49.3831 10.0631 49.5107C10.01 49.638 9.94093 49.8254 9.86172 50.0589C9.70161 50.5257 9.51523 51.1819 9.33373 51.9118C9.15654 52.6314 8.99644 53.2825 8.87406 53.7799C8.81738 54.0043 8.76942 54.1933 8.73094 54.3451C8.69772 54.4786 8.68195 54.5535 8.68796 54.5554Z" fill="#E0E0E0"/>
<path d="M2.61299 52.5056C2.61195 52.5118 2.69923 52.5347 2.85765 52.5707C3.01578 52.6076 3.24477 52.6598 3.52566 52.7334C4.08846 52.876 4.85905 53.1003 5.69833 53.3849C6.53743 53.6711 7.28568 53.9624 7.8208 54.1888C8.08939 54.3001 8.30411 54.396 8.45305 54.4614C8.60171 54.5274 8.68523 54.5613 8.68814 54.5556C8.69086 54.5499 8.6124 54.5053 8.46816 54.4292C8.32354 54.354 8.1122 54.2488 7.84632 54.1295C7.31618 53.8873 6.56896 53.5854 5.72742 53.2983C4.88561 53.013 4.1093 52.7975 3.54086 52.6706C3.25716 52.6048 3.02526 52.562 2.8645 52.5358C2.70355 52.5105 2.61421 52.4993 2.61299 52.5056Z" fill="#E0E0E0"/>
<path d="M10.4241 61.8751C10.4267 61.8768 10.445 61.8527 10.4776 61.8051C10.5152 61.7481 10.5609 61.6786 10.6163 61.5944C10.736 61.4109 10.9021 61.1409 11.103 60.8047C11.5054 60.1325 12.0319 59.1864 12.5987 58.1347C13.1659 57.0825 13.6829 56.1328 14.0706 55.4532C14.2602 55.1229 14.4163 54.8513 14.5322 54.6494C14.5819 54.5617 14.6229 54.4894 14.6566 54.43C14.6841 54.3794 14.6974 54.352 14.6948 54.3502C14.6921 54.3487 14.6738 54.3728 14.6412 54.4204C14.6038 54.4773 14.558 54.5467 14.5026 54.6309C14.3829 54.8143 14.2168 55.0842 14.0159 55.4205C13.6136 56.0927 13.0871 57.0388 12.52 58.091C11.9529 59.143 11.4359 60.0924 11.0482 60.7723C10.8586 61.1023 10.7026 61.3741 10.5867 61.5758C10.5369 61.6635 10.4959 61.736 10.4622 61.7953C10.4347 61.8461 10.4213 61.8735 10.4241 61.8751Z" fill="#E0E0E0"/>
<path d="M2.51035 58.0278C2.50913 58.0307 2.53588 58.0463 2.58787 58.0734C2.64963 58.1043 2.72545 58.1422 2.81724 58.1883C3.02943 58.2919 3.31595 58.4319 3.6645 58.6018C4.37981 58.9512 5.36221 59.445 6.447 59.9922C7.53207 60.5397 8.5201 61.0249 9.24282 61.3594C9.60414 61.5269 9.89788 61.6594 10.1027 61.7468C10.1974 61.7865 10.2756 61.8193 10.3392 61.846C10.3936 61.8678 10.423 61.8778 10.4242 61.8749C10.4254 61.8719 10.3987 61.8564 10.3468 61.8292C10.2851 61.7985 10.2093 61.7606 10.1173 61.7145C9.90511 61.6109 9.61878 61.4711 9.27022 61.301C8.55492 60.9518 7.57233 60.4578 6.48726 59.9104C5.40247 59.3631 4.41462 58.8779 3.6919 58.5433C3.33059 58.3758 3.03684 58.2434 2.83188 58.1559C2.73709 58.1161 2.6591 58.0833 2.59538 58.0567C2.54086 58.0349 2.51176 58.0249 2.51035 58.0278Z" fill="#E0E0E0"/>
<path d="M10.6706 58.2481C10.3325 58.7311 9.67534 58.5712 9.37071 58.2764C9.06598 57.9816 8.93722 57.5544 8.82001 57.147C8.55216 56.2162 8.28216 55.2399 8.48131 54.2919C8.5409 54.0086 8.64676 53.7259 8.84591 53.5157C9.04505 53.3055 9.35128 53.1804 9.63123 53.2543C9.96251 53.3419 10.1685 53.6664 10.3174 53.9751C10.7549 54.8825 10.9865 55.8884 10.9899 56.8958C10.9914 57.3664 10.9359 57.8598 10.6706 58.2481Z" fill="#E8505B"/>
<path d="M10.6706 58.2481C10.3325 58.7311 9.67534 58.5712 9.37071 58.2764C9.06598 57.9816 8.93722 57.5544 8.82001 57.147C8.55216 56.2162 8.28216 55.2399 8.48131 54.2919C8.5409 54.0086 8.64676 53.7259 8.84591 53.5157C9.04505 53.3055 9.35128 53.1804 9.63123 53.2543C9.96251 53.3419 10.1685 53.6664 10.3174 53.9751C10.7549 54.8825 10.9865 55.8884 10.9899 56.8958C10.9914 57.3664 10.9359 57.8598 10.6706 58.2481Z" fill="#2CAAB2"/>
<path d="M9.40374 60.694C8.85078 60.4087 8.19976 60.3717 7.5859 60.4731C7.25612 60.5277 6.91235 60.6263 6.68787 60.874C6.46348 61.1218 6.42097 61.5577 6.67858 61.7706C6.83193 61.8973 7.0459 61.9165 7.24476 61.9143C7.72536 61.9086 8.25851 61.8241 8.64244 62.1132C8.86148 62.2782 9.00723 62.5524 9.26916 62.6335C9.52536 62.7129 9.81441 62.5617 9.95031 62.3305C10.0861 62.0992 10.0907 61.8102 10.0274 61.5496C10.0274 61.5494 9.96072 60.9814 9.40374 60.694Z" fill="#2CAAB2"/>
<path d="M11.5991 58.9413C11.2319 58.5057 11.1623 57.8702 11.3257 57.3244C11.489 56.7786 11.8581 56.3143 12.2834 55.9352C12.782 55.4907 13.3682 55.1449 13.9983 54.9233C14.2463 54.8361 14.5079 54.7673 14.7695 54.7923C15.0312 54.8173 15.2947 54.9511 15.4168 55.1839C15.5973 55.5282 15.4242 55.9456 15.2371 56.2863C14.9074 56.8864 14.5303 57.4605 14.1107 58.0015C13.7731 58.4368 13.3864 58.8661 12.8718 59.0628C12.3573 59.2595 11.8228 59.2364 11.5501 58.8796" fill="#2CAAB2"/>
<path d="M10.6934 65.5322C10.6871 65.5326 10.6768 65.4544 10.6628 65.3128C10.6473 65.1531 10.6277 64.9526 10.6046 64.7141C10.5767 64.4621 10.5399 64.1622 10.4699 63.8356C10.4002 63.5099 10.2909 63.1569 10.1506 62.799C10.0053 62.4431 9.82825 62.1196 9.62122 61.861C9.41569 61.6011 9.17666 61.413 8.95199 61.3046C8.72807 61.1939 8.52723 61.149 8.38834 61.1291C8.24832 61.1147 8.16995 61.1036 8.16986 61.0974C8.16977 61.0912 8.24832 61.0902 8.39219 61.0941C8.53465 61.1035 8.74383 61.1397 8.97986 61.247C9.21664 61.352 9.47022 61.543 9.68588 61.8082C9.90323 62.0723 10.0868 62.4029 10.2346 62.7651C10.3774 63.1294 10.4849 63.486 10.5516 63.8187C10.6181 64.151 10.6485 64.4541 10.6684 64.7081C10.6874 64.9625 10.6946 65.1684 10.698 65.3107C10.7011 65.4531 10.6995 65.5318 10.6934 65.5322Z" fill="#263238"/>
<path d="M10.6522 65.0717C10.6491 65.0715 10.6471 65.0364 10.6463 64.9699C10.6465 64.8934 10.6468 64.797 10.647 64.6788C10.6478 64.4261 10.6476 64.0604 10.6341 63.6089C10.6118 62.7059 10.534 61.4593 10.3838 60.089C10.2325 58.7184 10.0321 57.4855 9.84924 56.601C9.80607 56.3793 9.76252 56.1797 9.72161 56.005C9.68257 55.8299 9.64916 55.6789 9.61706 55.5568C9.58947 55.4419 9.56695 55.3481 9.54902 55.2738C9.53447 55.2087 9.52819 55.1742 9.53119 55.1734C9.53419 55.1725 9.5463 55.2054 9.56657 55.2688C9.58881 55.3421 9.61678 55.4343 9.65113 55.5478C9.68857 55.6689 9.72705 55.8188 9.77088 55.9932C9.81658 56.1672 9.86463 56.3663 9.91193 56.5876C10.1113 57.471 10.3222 58.7056 10.4739 60.0791C10.6244 61.4522 10.6922 62.7023 10.6982 63.6077C10.7035 64.0603 10.694 64.4268 10.6824 64.6796C10.6752 64.7978 10.6693 64.8941 10.6646 64.9706C10.6595 65.0371 10.6553 65.0718 10.6522 65.0717Z" fill="#263238"/>
<path d="M10.6461 62.6599C10.6399 62.6597 10.6409 62.5516 10.6482 62.3558C10.6594 62.1604 10.6863 61.8778 10.7414 61.5318C10.7998 61.1865 10.8814 60.7766 11.0095 60.3312C11.1313 59.8842 11.2987 59.4015 11.5115 58.9106C11.9279 57.9228 12.4937 57.1152 12.9858 56.6149C13.1012 56.4821 13.2298 56.3864 13.3327 56.2925C13.3859 56.2476 13.4329 56.2027 13.4809 56.1672C13.529 56.1339 13.5739 56.1031 13.6154 56.0744C13.7774 55.9637 13.8682 55.9052 13.8715 55.9105C13.886 55.9302 13.5086 56.1523 13.0322 56.6592C12.5577 57.165 12.0077 57.9671 11.5946 58.9467C11.3836 59.4333 11.2151 59.9114 11.0897 60.3542C10.958 60.7953 10.8706 61.2011 10.8045 61.5429C10.7417 61.8854 10.7053 62.1651 10.6834 62.3587C10.6653 62.5527 10.6524 62.6601 10.6461 62.6599Z" fill="#263238"/>
<path d="M45.5357 35.9706C46.3328 35.8173 47.1101 35.605 47.8805 35.4048C47.3317 35.8687 46.6113 36.0592 45.9366 36.2635C45.2206 36.4803 44.5024 36.6022 43.7526 36.5508C43.4697 36.5315 43.1688 36.4987 42.9283 36.3355C42.7122 36.189 42.5688 35.9619 42.4292 35.7446C42.4027 35.7576 42.3672 35.7534 42.3531 35.7235C42.235 35.4735 42.2541 35.1171 42.2705 34.8465C42.2738 34.792 42.2804 34.7382 42.2887 34.6846C43.143 35.5657 44.2703 36.2049 45.5357 35.9706Z" fill="#D5987B"/>
<path d="M42.6136 33.4142C42.5997 33.2314 42.5669 33.0525 42.5275 32.8739C42.4934 32.7194 42.46 32.5642 42.4182 32.4117C42.3971 32.3348 42.3576 32.248 42.3936 32.1681C42.4645 32.0103 42.6771 32.0663 42.8008 32.1178C43.0136 32.2063 43.172 32.3829 43.2866 32.5781C43.4349 32.8305 43.5133 33.1161 43.6411 33.3783C43.7132 33.5262 43.7992 33.6617 43.9151 33.7797C43.9772 33.8429 44.0415 33.8878 44.1088 33.9248C44.2415 33.9481 44.3738 33.9725 44.5095 33.9732C44.7562 33.9743 45.0006 33.9279 45.2448 33.8994C45.6938 33.8472 46.1484 33.8298 46.5991 33.8707C46.8768 33.896 47.204 33.9343 47.498 34.0328C47.1234 33.9856 46.7437 33.9955 46.371 34.0606C45.9504 34.134 45.4855 34.2449 45.1133 34.4633C44.9635 34.3782 44.8098 34.3036 44.6539 34.2514C44.6184 34.2395 44.6016 34.29 44.6298 34.3087C44.9383 34.5132 45.2824 34.6659 45.5934 34.8707C45.9085 35.0781 46.198 35.3032 46.4428 35.5913C46.4464 35.5956 46.4518 35.5901 46.4499 35.5859C46.3948 35.4645 46.3202 35.3608 46.2336 35.2681C46.3723 35.2816 46.5043 35.2003 46.6376 35.1559C46.807 35.0995 46.9787 35.0485 47.1511 35.0022C47.5243 34.9019 47.9049 34.8532 48.285 34.7886C48.2876 34.7881 48.2868 34.7843 48.2844 34.7841C47.8952 34.7604 47.5017 34.8138 47.12 34.889C46.9147 34.9294 46.7142 34.983 46.5153 35.048C46.3855 35.0906 46.2664 35.1091 46.1865 35.2199C46.0803 35.1156 45.9592 35.025 45.8348 34.9375C45.988 34.9149 46.1448 34.8131 46.2858 34.7625C46.4851 34.691 46.6874 34.6312 46.8913 34.5746C47.2647 34.471 47.6922 34.442 48.075 34.3823C48.1688 34.4476 48.2594 34.5571 48.2865 34.6741C48.348 34.9393 48.1344 35.1768 47.956 35.3408C47.9317 35.363 47.9068 35.3838 47.8818 35.4049C47.1115 35.6051 46.3341 35.8174 45.537 35.9707C44.2716 36.205 43.1443 35.5658 42.29 34.6846C42.3253 34.4539 42.402 34.2312 42.4946 34.0168C42.5838 33.8095 42.631 33.6435 42.6136 33.4142Z" fill="#FAD1B5"/>
<path d="M46.812 34.4519C46.5806 34.5101 46.3525 34.5854 46.1292 34.669C45.9929 34.7202 45.828 34.7558 45.7308 34.866C45.7221 34.8599 45.7133 34.8539 45.7046 34.8478C45.5588 34.7469 45.4049 34.6404 45.2455 34.5423C45.6031 34.4178 45.9427 34.2753 46.3194 34.1994C46.731 34.1165 47.1466 34.0775 47.5653 34.0576C47.7254 34.1179 47.9205 34.2459 48.0417 34.3537C47.6437 34.3474 47.1984 34.3547 46.812 34.4519Z" fill="#FAD1B5"/>
<path d="M46.2845 34.7629C46.1435 34.8136 45.9865 34.9153 45.8335 34.938C45.9578 35.0255 46.079 35.1162 46.1852 35.2203C46.2651 35.1096 46.3842 35.091 46.514 35.0485C46.7127 34.9835 46.9134 34.9299 47.1186 34.8894C47.5004 34.8142 47.894 34.7608 48.2831 34.7846C48.2854 34.7848 48.2863 34.7885 48.2837 34.789C47.9036 34.8537 47.523 34.9024 47.1498 35.0026C46.9774 35.0489 46.8056 35.0999 46.6362 35.1563C46.503 35.2007 46.3709 35.2821 46.2322 35.2686C46.3189 35.3613 46.3936 35.4649 46.4486 35.5863C46.4505 35.5906 46.4451 35.596 46.4415 35.5918C46.1968 35.3038 45.9071 35.0785 45.5921 34.8711C45.2812 34.6664 44.937 34.5137 44.6285 34.3092C44.6003 34.2905 44.6172 34.2399 44.6526 34.2518C44.8085 34.3042 44.9622 34.3787 45.112 34.4637C45.4843 34.2454 45.9491 34.1344 46.3696 34.061C46.7424 33.996 47.1221 33.9861 47.4966 34.0333C47.5198 34.041 47.5425 34.0496 47.5652 34.0581C47.1467 34.078 46.731 34.1169 46.3194 34.1999C45.9427 34.2759 45.6031 34.4183 45.2455 34.5428C45.4049 34.6409 45.5588 34.7474 45.7045 34.8483C45.7133 34.8544 45.7221 34.8604 45.7308 34.8665C45.8279 34.7563 45.9927 34.7207 46.1292 34.6695C46.3525 34.5859 46.5806 34.5105 46.8119 34.4524C47.1984 34.3552 47.6437 34.3479 48.0416 34.3543C48.0522 34.3638 48.0634 34.3728 48.0736 34.3827C47.6908 34.4424 47.2632 34.4714 46.8898 34.575C46.6861 34.6316 46.4837 34.6914 46.2845 34.7629Z" fill="#B47A5D"/>
<path d="M43.2898 36.7831C42.7217 36.3486 42.2236 35.8443 41.6323 35.4821C41.7061 35.3359 41.7799 35.1896 41.8537 35.0435C41.9181 34.916 42.0826 34.922 42.1774 35.0018C42.4848 35.2608 42.7902 35.5217 43.0786 35.8013C43.1949 35.9141 43.3199 36.0222 43.4443 36.1312C43.4915 36.2204 43.5355 36.3105 43.5765 36.4007C43.6243 36.5919 43.5765 36.9742 43.2898 36.7831Z" fill="#2CAAB2"/>
<path d="M41.6323 35.4824C42.2236 35.8446 42.7217 36.3489 43.2898 36.7833C43.5765 36.9745 43.6242 36.5922 43.5765 36.4011C43.5355 36.3109 43.4914 36.2207 43.4443 36.1316C43.62 36.2854 43.7947 36.4413 43.9426 36.6157C44.1493 36.8596 43.9288 37.1029 43.7855 37.3209C43.6159 37.5788 43.4398 37.8314 43.2376 38.0641C43.2252 38.0876 43.2073 38.1079 43.1852 38.1227C43.1761 38.1329 43.1672 38.1432 43.158 38.1533C43.137 38.1761 43.1069 38.1684 43.0901 38.1493C43.0556 38.1478 43.0194 38.1357 42.9846 38.1081C42.4144 37.6561 41.8813 37.1792 41.1866 36.9208C41.0566 36.8725 41.0012 36.7452 41.0637 36.6186C41.2511 36.2387 41.4415 35.8604 41.6323 35.4824Z" fill="#1E767C"/>
<path d="M31.1045 36.5914C32.3947 38.2161 34.5928 38.3116 36.1698 39.6496C36.5042 39.9363 36.6954 40.3664 37.0299 40.6053C37.4121 40.892 37.46 40.2709 37.7945 40.3664C37.9379 40.4142 37.8422 40.7009 37.9856 40.8443C38.7129 38.919 40.1681 37.262 41.6651 35.7701C42.055 36.0688 42.4261 36.3855 42.7732 36.7263C43.0305 37.5006 43.0297 38.3085 42.5252 39.0762C41.7607 40.223 40.6616 40.9398 39.6581 41.8477C38.8935 42.5166 38.2246 43.5202 37.1255 43.2812C33.5416 42.4211 31.8691 39.2672 29.9099 36.3046C28.9657 34.8677 27.563 33.9252 25.9745 33.4759C26.0608 33.2887 26.2228 33.1489 26.426 33.081C27.0093 32.8859 27.7049 33.2324 28.2099 33.5005C28.666 33.7426 29.0865 34.0458 29.4866 34.3726C29.5487 34.4426 29.6103 34.5131 29.671 34.5843C30.1966 35.2534 30.5311 35.9702 31.1045 36.5914Z" fill="#E5EEF3"/>
<path d="M31.5514 36.1898C32.1191 36.6627 32.7096 37.1098 33.3138 37.5352C33.9846 38.0074 34.6762 38.4493 35.3769 38.8757C36.0457 39.2826 36.7023 39.7041 37.3617 40.1242C37.4395 40.0255 37.5182 39.9291 37.5951 39.8354C37.6167 39.8089 37.6604 39.8142 37.6828 39.8354C37.7198 39.8704 37.7557 39.9094 37.7902 39.9511C37.9839 39.596 38.2431 39.2599 38.4691 38.9334C38.7423 38.5388 39.0244 38.1499 39.3236 37.7745C39.6205 37.402 39.9287 37.0388 40.2458 36.6833C40.5833 36.305 40.9633 35.9729 41.3152 35.6086C41.3419 35.5811 41.3971 35.5696 41.4302 35.5938C41.5093 35.6519 41.5874 35.7109 41.6651 35.7704C40.168 37.2623 38.7129 38.9193 37.9856 40.8446C37.8422 40.7012 37.9378 40.4145 37.7944 40.3667C37.4599 40.2712 37.4122 40.8924 37.0298 40.6057C36.6953 40.3667 36.5042 39.9367 36.1697 39.6499C34.5928 38.3119 32.3947 38.2164 31.1044 36.5917C30.531 35.9705 30.1966 35.2537 29.6709 34.5848C29.6102 34.5135 29.5485 34.4431 29.4865 34.373C29.6278 34.4884 29.7666 34.6065 29.9035 34.7262C30.4569 35.2098 30.9863 35.7194 31.5514 36.1898Z" fill="#F5F9FB"/>
<path d="M25.9745 33.4766C27.5629 33.9259 28.9657 34.8685 29.9099 36.3052C31.8691 39.2679 33.5417 42.4218 37.1255 43.2819C38.2246 43.5208 38.8936 42.5173 39.6581 41.8484C40.6616 40.9405 41.7607 40.2237 42.5253 39.0768C43.0297 38.3092 43.0306 37.5012 42.7732 36.727C43.1692 37.1156 43.5341 37.5352 43.8605 37.9946C43.869 38.0064 43.8649 38.0194 43.8562 38.0282C43.9106 38.1602 43.8435 38.2536 43.7331 38.3838C43.5348 38.6176 43.3359 38.8509 43.1338 39.0814C42.7451 39.5248 42.3559 39.9676 41.9626 40.4068C41.1111 41.358 40.2957 42.3596 39.3919 43.262C38.9997 43.6535 38.5273 43.9766 37.9875 44.1227C37.5007 44.2544 37.03 44.2098 36.5614 44.0346C35.997 43.8237 35.4481 43.5304 34.9165 43.2476C34.3995 42.9726 33.8989 42.6682 33.3929 42.3737C32.5868 41.9046 31.7421 41.4448 31.0111 40.8545C30.9487 40.9322 30.8064 40.9596 30.7291 40.8513C29.7211 39.4379 28.712 38.0256 27.697 36.6172C27.2063 35.9362 26.6827 35.2694 26.2217 34.568C26.045 34.2991 25.858 33.9908 25.918 33.6553C25.9296 33.5919 25.9488 33.5322 25.9745 33.4766Z" fill="#90B1B6"/>
<path d="M29.1474 53.4483C29.1455 53.0512 29.1436 52.6541 29.1428 52.2573C29.1465 52.6539 29.1483 53.051 29.1474 53.4483Z" fill="#F5F9FB"/>
<path d="M29.1428 52.2573C29.14 51.9513 29.136 51.6456 29.1312 51.3403C29.135 51.3709 29.139 51.4014 29.1431 51.432C29.1423 51.707 29.1422 51.9821 29.1428 52.2573Z" fill="#F5F9FB"/>
<path d="M17.2467 59.2898C18.1546 60.6278 18.9191 62.0613 20.3528 62.9215C20.5439 63.0649 20.8306 62.9693 20.8306 62.7781C20.974 61.918 20.3528 61.01 20.974 60.2933C21.1652 60.1021 21.4041 60.4844 21.643 60.58C21.9775 60.7712 22.4076 60.6278 22.5031 60.2455C22.5986 59.911 22.6465 59.5766 22.4553 59.2898C21.8819 58.334 21.6908 57.1394 21.8819 55.9926C22.3598 53.0777 21.2607 49.2071 24.3667 47.2957C25.657 46.4834 24.4623 44.9542 23.3632 44.3808C23.411 43.3295 23.2198 42.326 22.8376 41.3703C22.3597 40.1757 22.5509 38.3121 23.7933 37.7865C24.4089 37.5044 25.0244 37.6492 25.6177 37.9471C25.7422 38.1251 25.8659 38.3022 25.9885 38.4788C25.5727 38.9013 25.0981 39.2705 24.7012 39.6979C25.3224 40.7969 26.3737 41.3703 27.1383 42.4216C29.0506 45.1991 28.7503 48.3236 29.1311 51.3405C29.1359 51.6457 29.1398 51.9514 29.1428 52.2575C29.1435 52.6542 29.1454 53.0512 29.1474 53.4484C29.1373 58.0908 28.771 62.7613 26.9484 66.9738C26.7623 66.9859 26.5762 66.9988 26.3902 67.0131C23.845 67.2083 21.2648 67.5746 18.7222 67.1521C18.468 67.1098 18.2132 67.0569 17.9793 66.9446C17.7257 66.8228 17.5534 66.6122 17.2746 66.5374C17.1805 66.5121 17.0847 66.4947 16.9885 66.4791C16.3501 64.0667 16.8683 61.6548 17.2467 59.2898Z" fill="#E5EEF3"/>
<path d="M29.2017 48.2738C29.1986 46.579 29.1432 44.873 28.855 43.2258C29.6324 41.8811 30.7845 40.2322 29.4797 38.8376C29.6231 38.7898 29.8142 38.6942 29.8142 38.6464C29.2229 36.2815 27.6795 34.4794 26.0489 32.7456C26.1946 32.7807 26.3364 32.8298 26.4707 32.9001C27.0243 33.1899 27.476 33.6969 27.8634 34.1762C28.2861 34.6991 28.7199 35.2187 29.1315 35.7498C29.9439 36.7979 30.7657 37.9014 31.1776 39.1761C31.5658 40.3776 31.3902 41.6766 31.1247 42.8859C30.9598 43.6367 30.81 44.3844 30.719 45.1486C30.6695 45.5639 30.6441 45.9812 30.6016 46.3972C30.599 46.423 30.5965 46.4488 30.594 46.4747C30.6016 46.6365 30.6097 46.7982 30.6291 46.959C30.6873 47.4402 30.9844 47.8626 30.9971 48.3493C31.0002 48.4698 30.9724 48.5901 30.9789 48.7106C30.9859 48.8404 31.0363 48.9488 31.0874 49.066C31.173 49.2624 31.2571 49.459 31.3345 49.6588C31.4994 50.0842 31.6386 50.5183 31.7703 50.9549C32.0322 51.8222 32.2332 52.7061 32.4107 53.5941C32.8379 55.7324 33.2238 57.8698 33.3741 60.0473C33.4351 60.9309 33.4816 61.8158 33.4999 62.7012C33.5215 63.7516 33.4871 64.7901 33.434 65.8369C33.4409 65.8455 33.446 65.8558 33.4464 65.8686C33.4478 65.9205 33.4402 65.9719 33.4245 66.0207C33.4227 66.0549 33.421 66.0889 33.4192 66.123C33.4153 66.1968 33.3529 66.2285 33.2986 66.2184C33.2483 66.2655 33.1852 66.3031 33.1206 66.2976C32.837 66.5215 32.4483 66.5718 32.0847 66.5807C31.7787 66.5882 31.4747 66.5604 31.1692 66.5945C30.8317 66.6321 30.502 66.7194 30.1681 66.7791C29.9893 66.8111 29.8096 66.8336 29.6295 66.8509C29.3736 65.8574 29.3611 64.7687 29.3364 63.7817C29.2422 58.5963 29.426 53.4577 29.2017 48.2738Z" fill="#E5EEF3"/>
<path d="M29.1474 53.4483C29.1482 53.0511 29.1464 52.654 29.1428 52.2574C29.1422 51.9821 29.1423 51.7071 29.1432 51.4321C29.1587 51.5507 29.1752 51.6693 29.1931 51.7875C29.1806 50.6378 29.204 49.4586 29.2017 48.2739C29.426 53.4578 29.2422 58.5965 29.3364 63.7816C29.3611 64.7686 29.3737 65.8574 29.6295 66.8509C29.197 66.8922 28.7617 66.8999 28.327 66.9104C28.1893 66.9136 28.0516 66.9184 27.9139 66.9237C29.2134 62.5695 29.1701 58.0029 29.1474 53.4483Z" fill="#90B1B6"/>
<path d="M27.9141 66.9236C27.592 66.9358 27.2701 66.9529 26.9485 66.9737C28.7711 62.7611 29.1374 58.0906 29.1474 53.4482C29.1701 58.0028 29.2134 62.5694 27.9141 66.9236Z" fill="#F5F9FB"/>
<path d="M29.1931 51.7873C28.7152 48.6334 29.1453 45.3363 27.1383 42.4214C26.3737 41.3701 25.3224 40.7967 24.7012 39.6976C25.0981 39.2702 25.5727 38.901 25.9885 38.4785C27.0885 40.0635 28.0962 41.6155 28.7152 43.4726C28.7599 43.3916 28.8068 43.3092 28.855 43.2257C29.3445 46.0243 29.1627 48.9926 29.1931 51.7873Z" fill="#90B1B6"/>
<path d="M15.7529 60.6164C15.7757 59.4386 15.9787 58.2452 16.1865 57.0885C16.2842 56.5449 16.3762 55.9831 16.5593 55.4603C16.8613 54.5981 17.2102 53.7435 17.6185 52.9257C18.3601 51.4401 19.2659 50.0356 20.1715 48.6462C20.7173 47.8089 21.6387 47.5365 22.1607 46.6842C22.3732 46.3374 22.4607 45.9376 22.543 45.543C22.5642 45.4415 22.5822 45.3396 22.5988 45.2377C22.5975 45.227 22.5956 45.2165 22.5944 45.2057C22.5272 44.5899 22.1645 43.3896 22.1102 42.7714C21.9947 41.457 21.7591 40.1505 21.4194 38.8755C21.0967 37.6646 20.5712 36.4281 20.7234 35.1503C20.7842 34.6402 20.9424 34.0991 21.3173 33.7292C21.5112 33.5379 21.7473 33.3856 21.998 33.2598C22.916 34.4883 24.0001 35.623 24.94 36.9741C25.1667 37.3031 25.3933 37.6265 25.6176 37.9471C25.0242 37.6491 24.4087 37.5042 23.7932 37.7864C22.5507 38.3121 22.3597 40.1757 22.8374 41.3703C23.2197 42.326 23.4108 43.3295 23.3631 44.3808C24.4621 44.9542 25.6568 46.4833 24.3666 47.2957C21.2605 49.2071 22.3597 53.0777 21.8818 55.9926C21.6906 57.1394 21.8818 58.3341 22.4552 59.2897C22.6464 59.5764 22.5986 59.9109 22.503 60.2455C22.4074 60.6277 21.9773 60.7711 21.6428 60.5799C21.4039 60.4844 21.165 60.1021 20.9739 60.2932C20.3527 61.0101 20.9739 61.9179 20.8305 62.7781C20.8305 62.9692 20.5438 63.0648 20.3526 62.9215C18.9191 62.0613 18.1545 60.6277 17.2465 59.2897C16.8681 61.6548 16.35 64.0667 16.9885 66.479C16.8335 66.4538 16.6777 66.4328 16.5266 66.3894C16.422 66.3594 16.3091 66.321 16.2183 66.2597C16.2156 66.2579 16.2136 66.2561 16.211 66.2542C16.1352 66.2849 16.0305 66.2525 16.0081 66.1616C15.7672 65.1824 15.8094 64.148 15.7839 63.1457C15.7627 62.3035 15.7367 61.4591 15.7529 60.6164Z" fill="#90B1B6"/>
<path d="M21.9981 33.2597C22.2269 33.1447 22.4678 33.0518 22.7 32.9721C23.3069 32.7641 23.9714 32.6503 24.6276 32.667C24.8077 32.6557 24.9879 32.6517 25.1661 32.6559C25.4591 32.663 25.7619 32.6766 26.0491 32.7457C27.6797 34.4795 29.2231 36.2816 29.8143 38.6465C29.8143 38.6942 29.6232 38.7899 29.4799 38.8376C30.8656 40.319 29.4799 42.087 28.7153 43.4728C28.0273 41.4087 26.8592 39.7216 25.6178 37.947C26.13 38.2042 26.6257 38.5754 27.0906 38.8854V38.8376V38.8854C26.6257 38.5755 26.13 38.2042 25.6178 37.947C25.3935 37.6264 25.1669 37.303 24.9402 36.974C24.0003 35.6229 22.9161 34.4882 21.9981 33.2597Z" fill="#90B1B6"/>
<path d="M22.7779 36.7471C23.3917 37.8622 24.0488 38.5941 24.104 38.6108C24.8924 38.85 25.4649 38.9805 26.1253 39.1585C25.9973 39.2559 25.8694 39.3532 25.7415 39.4506C25.6597 39.5129 25.5381 39.5935 25.4634 39.6689C25.3454 39.7881 25.5657 39.9939 25.6547 40.1095C26.042 40.6129 26.4348 41.1126 26.8396 41.6021C28.1497 43.1861 28.6878 44.8518 28.6878 44.8518C28.717 44.2078 28.6208 43.6007 28.4975 42.9677C28.4596 42.7731 28.404 42.5595 28.3595 42.3578C28.2943 42.1624 28.2989 42.0602 28.293 42.0392C28.2213 41.7843 28.1704 41.5701 28.0222 41.2189C27.8592 40.8325 27.7985 40.456 27.6147 40.079C26.9691 38.7545 26.2245 37.4977 25.3382 36.3191C24.9152 35.7566 24.4656 35.2173 23.9956 34.6937C23.5177 34.1611 23.0053 33.5944 22.8198 32.886C22.7958 32.7943 22.6651 32.7519 22.5989 32.8277C21.6481 33.9172 21.9297 35.2061 22.7779 36.7471Z" fill="#F5F9FB"/>
<path d="M25.318 32.6891C25.3771 32.727 25.4377 32.7624 25.499 32.7967C25.4954 32.8013 25.4919 32.8061 25.4889 32.8113C25.4142 32.944 25.4957 33.1107 25.5298 33.2465C25.59 33.4862 25.6536 33.725 25.7196 33.9632C25.8516 34.4397 25.996 34.9125 26.1443 35.3841C26.4405 36.3265 26.7502 37.2646 27.0279 38.2128C27.5795 40.0959 28.0512 42.0075 28.3952 43.9395C28.4142 44.0465 28.5647 44.028 28.5938 43.9395C28.9271 42.9267 29.2024 41.8956 29.4133 40.8504C29.4675 40.5817 29.5156 40.3118 29.5634 40.0419C29.6272 39.6813 29.6406 39.7151 29.5473 39.5702C29.3324 39.2363 28.9796 38.9568 28.6663 38.6964C28.9822 38.548 29.2583 38.3291 29.4955 38.0723C29.5947 37.9729 29.6214 37.9862 29.5868 37.9057C29.095 36.7632 28.5171 35.6446 27.821 34.6122C27.5136 34.1563 27.2245 33.64 26.7354 33.3823C26.2101 33.1056 25.8325 32.748 25.3247 32.6724C25.3152 32.6712 25.309 32.6833 25.318 32.6891Z" fill="#F5F9FB"/>
<path d="M22.0074 46.5982C22.205 46.9219 22.6414 47.139 22.9542 47.3307C23.2156 47.4909 23.564 47.7357 23.869 47.5382C24.1226 47.374 24.3609 47.0486 24.4573 46.7633C24.5774 46.4079 24.4831 46.1984 24.1969 45.9838C23.641 45.567 23.0216 45.2804 22.5361 44.7861C22.4366 44.6799 22.3197 44.7307 22.2577 44.8C22.1957 44.8694 21.9809 45.271 21.9349 45.6185C21.8939 45.9273 21.8358 46.317 22.0074 46.5982Z" fill="#E5EEF3"/>
<path d="M28.5566 50.862C28.7662 50.862 28.936 50.6398 28.936 50.3658C28.936 50.0918 28.7662 49.8696 28.5566 49.8696C28.3471 49.8696 28.1772 50.0918 28.1772 50.3658C28.1772 50.6398 28.3471 50.862 28.5566 50.862Z" fill="#90B1B6"/>
<path d="M23.8321 47.1613C24.0417 47.1613 24.2116 46.9392 24.2116 46.6651C24.2116 46.3911 24.0417 46.1689 23.8321 46.1689C23.6226 46.1689 23.4527 46.3911 23.4527 46.6651C23.4527 46.9392 23.6226 47.1613 23.8321 47.1613Z" fill="#90B1B6"/>
<path d="M23.9278 47.1613C24.1373 47.1613 24.3072 46.9392 24.3072 46.6651C24.3072 46.3911 24.1373 46.1689 23.9278 46.1689C23.7182 46.1689 23.5483 46.3911 23.5483 46.6651C23.5483 46.9392 23.7182 47.1613 23.9278 47.1613Z" fill="white"/>
<path d="M28.6265 56.1481C28.836 56.1481 29.0059 55.926 29.0059 55.6519C29.0059 55.3779 28.836 55.1558 28.6265 55.1558C28.4169 55.1558 28.2471 55.3779 28.2471 55.6519C28.2471 55.926 28.4169 56.1481 28.6265 56.1481Z" fill="#90B1B6"/>
<path d="M42.6125 38.8385C42.822 38.8385 42.9919 38.6164 42.9919 38.3424C42.9919 38.0683 42.822 37.8462 42.6125 37.8462C42.4029 37.8462 42.233 38.0683 42.233 38.3424C42.233 38.6164 42.4029 38.8385 42.6125 38.8385Z" fill="#90B1B6"/>
<path d="M28.7 50.862C28.9095 50.862 29.0794 50.6398 29.0794 50.3658C29.0794 50.0918 28.9095 49.8696 28.7 49.8696C28.4904 49.8696 28.3206 50.0918 28.3206 50.3658C28.3206 50.6398 28.4904 50.862 28.7 50.862Z" fill="white"/>
<path d="M28.7699 56.1481C28.9795 56.1481 29.1494 55.926 29.1494 55.6519C29.1494 55.3779 28.9795 55.1558 28.7699 55.1558C28.5604 55.1558 28.3905 55.3779 28.3905 55.6519C28.3905 55.926 28.5604 56.1481 28.7699 56.1481Z" fill="white"/>
<path d="M42.7558 38.8385C42.9654 38.8385 43.1353 38.6164 43.1353 38.3424C43.1353 38.0683 42.9654 37.8462 42.7558 37.8462C42.5463 37.8462 42.3764 38.0683 42.3764 38.3424C42.3764 38.6164 42.5463 38.8385 42.7558 38.8385Z" fill="white"/>
<path d="M28.0559 45.9875C28.2655 45.9875 28.4354 45.7653 28.4354 45.4913C28.4354 45.2173 28.2655 44.9951 28.0559 44.9951C27.8464 44.9951 27.6765 45.2173 27.6765 45.4913C27.6765 45.7653 27.8464 45.9875 28.0559 45.9875Z" fill="#90B1B6"/>
<path d="M28.1516 45.9875C28.3611 45.9875 28.531 45.7653 28.531 45.4913C28.531 45.2173 28.3611 44.9951 28.1516 44.9951C27.942 44.9951 27.7722 45.2173 27.7722 45.4913C27.7722 45.7653 27.942 45.9875 28.1516 45.9875Z" fill="white"/>
<path d="M25.7047 36.2092C25.7525 36.0658 25.8481 35.9225 25.9437 35.7313C25.9914 35.6835 26.1348 35.6835 26.1826 35.7313C26.326 35.8747 26.4693 36.018 26.6127 35.9225C26.8039 35.7313 26.6605 35.2534 26.8994 35.2534C27.1847 35.3169 27.3859 35.5905 27.6007 35.8513C27.8627 36.6094 28.0185 37.4144 28.128 38.1797C28.3082 39.439 28.3394 40.7108 28.3556 41.9809C27.8619 40.3603 26.8387 38.8902 25.9438 37.3559C25.7525 36.9737 25.5613 36.5914 25.7047 36.2092Z" fill="#2CAAB2"/>
<path d="M22.5673 32.9815C22.5683 32.7325 22.8939 32.5411 23.0963 32.4135C23.4181 32.2108 23.7834 32.2408 24.1492 32.2682C24.5453 32.2978 24.9571 32.439 25.337 32.6242C25.4993 32.6926 25.6584 32.769 25.8165 32.8475C25.8257 32.8708 25.8362 32.8928 25.8482 32.9126C26.1826 33.486 26.4216 34.0594 26.5171 34.7285C26.8949 34.3979 27.0866 33.8811 27.5985 33.6846C27.604 33.7013 27.603 33.7195 27.5902 33.736C27.3787 34.0102 27.1911 34.3 27.0321 34.6073C27.2647 34.9956 27.45 35.4161 27.6007 35.852C27.3859 35.5912 27.1847 35.3175 26.8993 35.2541C26.6604 35.2541 26.8038 35.732 26.6126 35.9232C26.4692 36.0187 26.3259 35.8754 26.1825 35.732C26.1348 35.6842 25.9914 35.6842 25.9436 35.732C25.8481 35.9232 25.7524 36.0665 25.7047 36.2099C25.5613 36.5921 25.7524 36.9744 25.9436 37.3567C26.8386 38.891 27.8618 40.3611 28.3554 41.9817C28.3568 42.0951 28.3582 42.2084 28.3595 42.3218C28.3602 42.382 27.6821 40.7342 27.2282 39.998C26.7894 39.2863 26.3511 38.5735 25.8958 37.8721C25.4455 37.1782 24.962 36.5015 24.3889 35.9027C23.8637 35.3539 23.1967 34.9141 22.7963 34.256C22.6288 33.9801 22.3961 33.3379 22.5673 32.9815Z" fill="#1E767C"/>
<path d="M25.8656 32.9427C25.8598 32.9326 25.8541 32.9224 25.8482 32.9123C25.8363 32.8924 25.8258 32.8704 25.8166 32.8472C25.9777 32.927 26.1379 33.0091 26.2995 33.0871C26.7085 33.2846 27.1249 33.465 27.5476 33.631C27.563 33.6371 27.5778 33.6493 27.5881 33.6642C26.9048 33.8559 26.423 33.3382 25.8656 32.9427Z" fill="#1E767C"/>
<path d="M27.588 33.6644C27.5924 33.6708 27.5962 33.6774 27.5985 33.6845C27.0867 33.881 26.895 34.3977 26.5171 34.7283C26.4233 34.0711 26.1908 33.5062 25.8655 32.9429C26.423 33.3384 26.9047 33.8562 27.588 33.6644Z" fill="#2CAAB2"/>
<path d="M18.295 58.08C18.336 57.7887 18.3813 57.4994 18.4558 57.2145C18.5101 57.0071 18.557 56.7104 18.7036 56.5441C18.8257 56.4056 19.0531 56.3459 19.2208 56.281C19.1527 56.2353 19.0876 56.1866 19.0299 56.1309C19.0271 56.1282 19.0292 56.1232 19.0331 56.1233C19.1494 56.1249 19.2601 56.169 19.3651 56.2237C19.5709 56.1394 19.7632 56.0442 19.911 55.8653C19.9639 55.8013 20.0767 55.8869 20.0271 55.9549C19.9022 56.1261 19.7408 56.2418 19.561 56.3342C19.7816 56.4605 19.9888 56.6066 20.1893 56.7629C20.4301 56.9507 20.6279 57.1483 20.7956 57.3742C20.5696 57.3332 20.3386 57.379 20.1138 57.5692C19.0932 58.4042 18.6566 59.5131 18.5598 60.7195C18.3881 60.3473 18.2755 59.9285 18.2161 59.5268C18.146 59.0524 18.2289 58.5513 18.295 58.08Z" fill="#D5987B"/>
<path d="M20.1139 57.5697C20.3387 57.3795 20.5698 57.3337 20.7957 57.3747C20.919 57.5406 21.0259 57.7217 21.1214 57.9258C21.3867 58.4933 21.5686 59.1101 21.9325 59.6269C22.042 59.7824 22.4431 60.1319 22.212 60.3011C22.0465 60.4222 21.9259 60.3668 21.7593 60.279C21.3549 60.0658 20.9863 59.5577 20.7813 59.2937C20.7881 59.39 20.8853 59.9073 20.8895 60.0061C20.9143 60.5761 20.9905 61.1413 21.1257 61.6959C21.1846 61.9373 21.2647 62.1709 21.3324 62.4095C21.3716 62.5481 21.3996 62.7056 21.3113 62.8325C21.2866 62.8682 21.2582 62.8945 21.2273 62.9136C21.0499 62.7743 20.904 62.5518 20.7889 62.3768C20.6544 62.1725 20.5414 61.9542 20.4493 61.7276C20.2441 61.2227 20.1473 60.681 20.1141 60.139C20.1107 60.0846 20.026 60.0842 20.029 60.139C20.0617 60.734 20.1756 61.321 20.4261 61.8648C20.5417 62.1158 20.685 62.3541 20.8547 62.5723C20.9527 62.6982 21.0578 62.8414 21.1942 62.9311C21.0873 62.9767 20.9554 62.9458 20.8264 62.8887C20.4844 62.5638 20.2296 62.2041 20.0031 61.7838C19.8537 61.5064 19.7185 61.221 19.6237 60.92C19.5337 60.6342 19.5154 60.3335 19.4316 60.0483C19.427 60.0327 19.3999 60.0299 19.397 60.0483C19.3025 60.6386 19.6121 61.3037 19.8932 61.8044C20.1036 62.1792 20.321 62.5312 20.6459 62.794C20.5612 62.7441 20.4848 62.6931 20.4267 62.6589C20.3793 62.631 20.3321 62.6024 20.2854 62.5731C19.953 62.2583 19.6211 61.8642 19.4172 61.461C19.2867 61.2029 19.1654 60.9354 19.0659 60.6639C18.9811 60.4323 18.9212 60.1898 18.8216 59.9641C18.8129 59.9443 18.7851 59.9564 18.7841 59.9743C18.7516 60.508 19.0477 61.1164 19.3021 61.5729C19.4643 61.864 19.6876 62.1191 19.9402 62.3387C19.3875 61.9339 18.9086 61.425 18.602 60.8098C18.5874 60.7803 18.5739 60.7499 18.56 60.7199C18.6567 59.5136 19.0933 58.4047 20.1139 57.5697Z" fill="#FAD1B5"/>
<path d="M20.8546 62.5719C20.6849 62.3536 20.5416 62.1154 20.426 61.8644C20.1755 61.3205 20.0615 60.7335 20.0289 60.1386C20.0259 60.0838 20.1106 60.0842 20.114 60.1386C20.1472 60.6807 20.244 61.2225 20.4491 61.7273C20.5412 61.9538 20.6542 62.1721 20.7888 62.3764C20.904 62.5514 21.0499 62.774 21.2272 62.9132C21.2164 62.9199 21.2055 62.9258 21.1941 62.9307C21.0576 62.8411 20.9524 62.6979 20.8546 62.5719Z" fill="#B47A5D"/>
<path d="M19.893 61.8045C19.612 61.3038 19.3023 60.6387 19.3968 60.0484C19.3997 60.03 19.4267 60.0328 19.4313 60.0484C19.5152 60.3336 19.5335 60.6343 19.6234 60.9201C19.7182 61.2212 19.8536 61.5066 20.0029 61.7839C20.2292 62.2042 20.4842 62.5639 20.8262 62.8888C20.7643 62.8614 20.7031 62.8281 20.6456 62.7942C20.3207 62.5314 20.1034 62.1794 19.893 61.8045Z" fill="#B47A5D"/>
<path d="M19.302 61.5726C19.0476 61.1161 18.7516 60.5077 18.7839 59.974C18.7851 59.9561 18.8127 59.944 18.8215 59.9639C18.9211 60.1895 18.981 60.4321 19.0658 60.6636C19.1652 60.9351 19.2865 61.2026 19.417 61.4608C19.6209 61.8639 19.9527 62.2581 20.2852 62.5729C20.1675 62.4992 20.0524 62.4207 19.94 62.3384C19.6874 62.1188 19.4642 61.8636 19.302 61.5726Z" fill="#B47A5D"/>
<path d="M23.6671 31.9619C23.6631 32.0558 23.6622 32.1239 23.6465 32.2337C23.6391 32.2852 23.6379 32.2884 23.6342 32.313C24.1739 32.8694 24.7696 33.0601 25.4622 33.4002C25.6073 33.4714 25.845 33.5365 25.9465 33.6676C26.0254 33.7694 26.0395 33.9387 26.055 34.0781C25.9672 33.9684 25.9134 33.8201 25.8004 33.8201C24.6536 33.7724 23.9368 32.8644 22.9811 32.4344C22.8881 32.3878 22.8052 32.4221 22.7225 32.4941C22.7516 32.4266 22.783 32.3611 22.8168 32.2996C23.0136 31.9409 23.3244 31.8662 23.6671 31.9619Z" fill="#1E767C"/>
<path d="M18.3936 57.4739C19.0626 57.1872 19.7316 56.9961 20.305 56.5182C20.3966 56.4571 20.5271 56.3965 20.6469 56.4102C20.6757 56.5304 20.7037 56.6509 20.7302 56.7719C20.7388 56.8106 20.7186 56.8425 20.6824 56.8562C20.2987 57.0015 19.9137 57.1436 19.5265 57.2793C19.1451 57.4129 18.7559 57.5834 18.3631 57.6788C18.2749 57.7002 18.2165 57.6954 18.1758 57.6725C18.2329 57.5881 18.3037 57.5189 18.3936 57.4739Z" fill="#2CAAB2"/>
<path d="M18.0462 57.3552C17.962 57.032 17.7208 56.766 17.6099 56.4498C17.5438 56.2615 17.4006 55.8697 17.5364 55.6861C17.6153 55.5795 17.7809 55.5392 17.8961 55.4879C18.0721 55.4095 18.2503 55.3358 18.4303 55.2671C18.7576 55.1424 19.1042 55.0048 19.4588 54.9937C19.7377 54.9849 19.9954 55.0737 20.2476 55.1796C20.2265 55.0937 20.2051 55.0078 20.1834 54.9221C20.1784 54.9024 20.2071 54.8949 20.2136 54.9137C20.2475 55.011 20.2799 55.1088 20.3115 55.2067C20.3405 55.2192 20.3694 55.2317 20.3982 55.2443C20.4938 55.286 20.4668 55.4215 20.3927 55.4668C20.487 55.7787 20.5709 56.0934 20.6469 56.4105C20.5272 56.3968 20.3966 56.4575 20.305 56.5185C19.7316 56.9964 19.0626 57.1875 18.3936 57.4743C18.3038 57.5192 18.233 57.5885 18.1757 57.6728C18.0905 57.6248 18.083 57.4964 18.0462 57.3552Z" fill="#1E767C"/>
<path d="M16.291 49.4939C16.7211 51.1186 17.0078 52.6955 17.4856 54.3202C17.5811 54.7981 17.8201 55.1803 18.1068 55.6582C18.2023 55.7538 18.1068 56.0883 18.2502 56.1361C18.6965 56.3795 19.1698 56.5157 19.6579 56.5913C18.9573 56.8729 18.1787 56.9454 17.4365 56.7905C17.3936 56.7815 17.3473 56.7377 17.3398 56.6937C16.9176 54.2154 16.33 51.7704 15.8668 49.3001C15.7976 48.931 15.732 48.5612 15.6701 48.1909C15.9059 48.6151 16.1585 49.0395 16.291 49.4939Z" fill="#90B1B6"/>
<path d="M20.0661 55.276C20.4484 54.7504 20.305 54.1292 20.0183 53.5558C19.8272 53.1257 19.8749 52.6 19.7316 52.0744C19.2131 50.0476 18.5559 48.2066 18.8591 46.1392C18.8919 46.2135 18.9127 46.2935 18.9269 46.3728C19.0015 46.79 18.944 47.2191 19.0143 47.6397C19.1915 48.7011 19.4941 49.7526 19.7402 50.7999C19.9888 51.858 20.2424 52.9146 20.4851 53.9741C20.5968 54.4615 20.773 54.9738 20.8155 55.4727C20.8202 55.5281 20.8185 55.5799 20.8118 55.6289C20.663 55.3786 20.4362 55.2232 20.0661 55.276Z" fill="#F5F9FB"/>
<path d="M19.0975 45.6381C19.0746 45.7243 18.9947 45.7903 18.9023 45.8445C18.9257 45.6954 18.9615 45.5451 19.0562 45.4351C19.0943 45.5026 19.115 45.5723 19.0975 45.6381Z" fill="#F5F9FB"/>
<path d="M15.5789 47.6283C15.608 47.8161 15.6388 48.0037 15.6702 48.1912C15.906 48.6153 16.1586 49.0398 16.2911 49.4942C16.7212 51.1189 17.0079 52.6958 17.4857 54.3205C17.5812 54.7984 17.8201 55.1806 18.1068 55.6585C18.2024 55.754 18.1068 56.0886 18.2502 56.1364C18.6966 56.3798 19.1699 56.516 19.658 56.5916C19.8471 56.5156 20.0309 56.4252 20.2063 56.319C20.4901 56.1471 20.7675 55.9538 20.8118 55.6291C20.663 55.3787 20.4361 55.2233 20.0661 55.2762C20.4483 54.7505 20.305 54.1293 20.0183 53.5559C19.8272 53.1258 19.8749 52.6002 19.7316 52.0745C19.2131 50.0478 18.5559 48.2068 18.8591 46.1393C18.835 46.0846 18.8047 46.0329 18.765 45.9874C18.7495 45.9696 18.733 45.9537 18.7159 45.9385C18.7753 45.9107 18.8416 45.8801 18.9024 45.8444C18.9258 45.6953 18.9616 45.5451 19.0563 45.435C19.0109 45.3542 18.9405 45.2764 18.8798 45.2113C18.892 45.1836 18.9041 45.1558 18.9164 45.1281C19.1525 44.5938 19.3962 44.063 19.6542 43.5389C20.1574 42.5165 20.7105 41.5205 21.3031 40.5475C22.1425 39.1694 22.7315 37.4932 22.1339 35.8227C21.9284 35.2484 22.0091 33.7774 21.6178 33.5954C21.5129 33.5466 21.4074 33.5517 21.3036 33.5943C21.25 33.6788 21.2027 33.7687 21.1653 33.8685C20.783 34.9676 20.783 36.1144 20.1617 37.0701C18.537 39.7461 16.5779 41.9442 15.9088 45.0024C15.7063 45.8901 15.6158 46.7626 15.5789 47.6283ZM18.6642 45.7302C18.7074 45.6183 18.7528 45.5072 18.7996 45.3969C18.8571 45.487 18.8814 45.5762 18.815 45.6426C18.7801 45.6776 18.7221 45.7054 18.6642 45.7302Z" fill="#E5EEF3"/>
<path d="M15.3286 45.4537C15.3338 44.883 15.5322 44.342 15.7425 43.8145C15.8899 43.1861 16.1273 42.5667 16.3641 41.9867C16.7204 41.1139 17.1466 40.2721 17.6118 39.4526C18.0943 38.6025 18.617 37.7762 19.1471 36.9552C19.5257 36.3687 19.8309 35.7555 20.1767 35.1501C20.3879 34.7803 20.8293 33.7889 21.3035 33.5942C21.2499 33.6788 21.2026 33.7687 21.1652 33.8685C20.7829 34.9675 20.7829 36.1143 20.1617 37.0701C18.537 39.7461 16.5778 41.9442 15.9087 45.0024C15.7062 45.8902 15.6158 46.7628 15.5788 47.6284C15.5666 47.5501 15.554 47.4719 15.5422 47.3936C15.4465 46.7557 15.3226 46.1005 15.3286 45.4537Z" fill="#F5F9FB"/>
<path d="M17.9466 56.3395C18.1561 56.3395 18.326 56.1174 18.326 55.8433C18.326 55.5693 18.1561 55.3472 17.9466 55.3472C17.737 55.3472 17.5671 55.5693 17.5671 55.8433C17.5671 56.1174 17.737 56.3395 17.9466 56.3395Z" fill="#90B1B6"/>
<path d="M18.0422 56.3395C18.2518 56.3395 18.4216 56.1174 18.4216 55.8433C18.4216 55.5693 18.2518 55.3472 18.0422 55.3472C17.8327 55.3472 17.6628 55.5693 17.6628 55.8433C17.6628 56.1174 17.8327 56.3395 18.0422 56.3395Z" fill="white"/>
<path d="M23.8612 40.385C23.9846 40.9287 24.1209 41.7128 24.2026 42.4283C24.1015 42.4143 23.9945 42.4221 23.8968 42.4484C23.8292 41.6943 23.6939 40.8931 23.6557 40.7182C22.7535 36.5929 20.4212 31.24 24.3345 32.0293C26.5435 32.4749 29.0855 35.9199 29.8999 41.1893C29.9803 41.7096 30.0297 42.1894 30.1346 42.6708C30.0508 42.6746 29.967 42.678 29.8833 42.6812C29.7831 42.2366 29.7609 41.7921 29.6731 41.3157C28.8022 36.5928 26.5121 32.7832 24.4793 32.2266C20.469 31.1285 23.3474 38.1196 23.8612 40.385Z" fill="#576271"/>
<path d="M23.6869 42.2405L23.4823 40.4331C23.4823 40.4331 23.56 40.274 23.7331 40.2419C23.9063 40.2099 23.9959 40.3255 23.9959 40.3255L24.3076 42.1956C27.3889 42.3579 26.8961 48.234 25.6228 50.5511C25.5909 50.6092 25.5594 50.6631 25.5301 50.7145C25.5268 50.7225 25.5236 50.7305 25.5199 50.7384C25.5028 50.7761 25.483 50.8106 25.4617 50.8416C25.4531 50.8589 25.4441 50.8765 25.4367 50.8935C25.4314 50.8938 25.4263 50.894 25.421 50.8941C25.3487 50.9764 25.2667 51.0164 25.2059 50.9889C25.1141 50.9473 25.1059 50.7676 25.1874 50.5876C25.2691 50.4076 25.4096 50.2954 25.5014 50.3371C25.5361 50.3527 25.5588 50.3881 25.5693 50.4357C26.4476 48.3645 27.2763 42.4563 24.0943 42.5115C21.0021 42.5651 21.8848 48.5235 23.0865 50.5791C23.0929 50.5901 23.0988 50.6004 23.1051 50.6113C23.1079 50.5371 23.1329 50.4806 23.1794 50.4594C23.2712 50.4178 23.4118 50.53 23.4935 50.71C23.5751 50.89 23.5668 51.0697 23.475 51.1113C23.4223 51.1351 23.3536 51.1083 23.2892 51.0472C23.2861 51.0476 23.283 51.048 23.28 51.0483C23.2712 51.0359 23.2626 51.0229 23.2541 51.0099C23.2193 50.969 23.1871 50.9184 23.161 50.8608V50.8607C23.1024 50.7627 23.0409 50.6564 22.9651 50.5452C21.6517 48.6171 20.865 42.8273 23.6869 42.2405Z" fill="#DAD7B8"/>
<path d="M25.0519 51.0445C25.2764 51.0445 25.4584 50.7992 25.4584 50.4966C25.4584 50.194 25.2764 49.9487 25.0519 49.9487C24.8274 49.9487 24.6454 50.194 24.6454 50.4966C24.6454 50.7992 24.8274 51.0445 25.0519 51.0445Z" fill="#B8B594"/>
<path d="M23.6292 51.1671C23.8537 51.1671 24.0357 50.9218 24.0357 50.6192C24.0357 50.3166 23.8537 50.0713 23.6292 50.0713C23.4048 50.0713 23.2228 50.3166 23.2228 50.6192C23.2228 50.9218 23.4048 51.1671 23.6292 51.1671Z" fill="#B8B594"/>
<path d="M30.2449 44.4162C30.7518 44.4162 31.1628 44.0053 31.1628 43.4984C31.1628 42.9915 30.7518 42.5806 30.2449 42.5806C29.738 42.5806 29.3271 42.9915 29.3271 43.4984C29.3271 44.0053 29.738 44.4162 30.2449 44.4162Z" fill="#A5A99D"/>
<path d="M30.3893 44.3679C30.8962 44.3679 31.3071 43.957 31.3071 43.4501C31.3071 42.9432 30.8962 42.5322 30.3893 42.5322C29.8824 42.5322 29.4714 42.9432 29.4714 43.4501C29.4714 43.957 29.8824 44.3679 30.3893 44.3679Z" fill="#E1E4DB"/>
<path d="M30.3948 44.0661C30.7271 44.0661 30.9965 43.7967 30.9965 43.4645C30.9965 43.1322 30.7271 42.8628 30.3948 42.8628C30.0625 42.8628 29.7932 43.1322 29.7932 43.4645C29.7932 43.7967 30.0625 44.0661 30.3948 44.0661Z" fill="#A5A99D"/>
<path d="M30.4413 43.982C30.7364 43.982 30.9757 43.7427 30.9757 43.4476C30.9757 43.1524 30.7364 42.9131 30.4413 42.9131C30.1461 42.9131 29.9068 43.1524 29.9068 43.4476C29.9068 43.7427 30.1461 43.982 30.4413 43.982Z" fill="#E1E4DB"/>
<path d="M30.4851 43.598C30.5707 43.598 30.6401 43.5286 30.6401 43.443C30.6401 43.3575 30.5707 43.2881 30.4851 43.2881C30.3996 43.2881 30.3302 43.3575 30.3302 43.443C30.3302 43.5286 30.3996 43.598 30.4851 43.598Z" fill="#A5A99D"/>
<path d="M30.4947 43.498C30.5304 43.498 30.5594 43.469 30.5594 43.4333C30.5594 43.3976 30.5304 43.3687 30.4947 43.3687C30.459 43.3687 30.4301 43.3976 30.4301 43.4333C30.4301 43.469 30.459 43.498 30.4947 43.498Z" fill="#576271"/>
<path d="M25.1019 50.6668C25.2273 50.6668 25.3289 50.5168 25.3289 50.3317C25.3289 50.1466 25.2273 49.9966 25.1019 49.9966C24.9765 49.9966 24.8749 50.1466 24.8749 50.3317C24.8749 50.5168 24.9765 50.6668 25.1019 50.6668Z" fill="#E3EEF1"/>
<path d="M23.7331 50.8319C23.8584 50.8319 23.9601 50.6818 23.9601 50.4968C23.9601 50.3117 23.8584 50.1616 23.7331 50.1616C23.6077 50.1616 23.506 50.3117 23.506 50.4968C23.506 50.6818 23.6077 50.8319 23.7331 50.8319Z" fill="#E3EEF1"/>
<path d="M31.7256 26.5093C32.0124 27.3694 32.8725 27.895 33.7326 27.9428C32.968 27.7994 32.3468 27.226 32.0601 26.557C32.5268 27.1404 33.2467 27.5021 33.988 27.6424C33.8209 27.9374 33.7426 28.3261 33.4969 28.5451C33.3672 28.6607 33.2331 28.7139 33.0996 28.7224C32.2982 28.3119 31.7256 27.5424 31.7256 26.5093Z" fill="#373737"/>
<path d="M28.581 16.4175C28.4317 16.343 28.2836 16.2685 28.1418 16.1875C28.3018 16.2484 28.447 16.3265 28.581 16.4175Z" fill="#5B3E2F"/>
<path d="M28.8455 17.8358C28.8239 17.82 28.8022 17.8045 28.7804 17.7889C28.7186 17.7151 28.6566 17.6413 28.5944 17.5679C28.6831 17.6508 28.7673 17.7395 28.8455 17.8358Z" fill="#5B3E2F"/>
<path d="M27.3451 16.8657C27.1763 16.7092 26.9972 16.5616 26.8038 16.4263C27.3962 16.7965 28.0745 17.0809 28.5945 17.5679C28.6568 17.6414 28.7186 17.7152 28.7806 17.7889C28.3147 17.4547 27.8249 17.1512 27.3451 16.8657Z" fill="#5B3E2F"/>
<path d="M29.002 18.0511C28.9276 17.9643 28.854 17.8767 28.7805 17.7891C28.8022 17.8046 28.8239 17.8203 28.8456 17.836C28.9007 17.9039 28.953 17.9754 29.002 18.0511Z" fill="#5B3E2F"/>
<path d="M29.6517 17.0923C29.7901 17.2271 29.911 17.384 30.0055 17.573C29.8944 17.41 29.7763 17.2493 29.6517 17.0923Z" fill="#5B3E2F"/>
<path d="M25.2913 16.1865C25.2032 15.9823 25.1606 15.82 25.169 15.5976C25.156 15.6019 25.1432 15.6061 25.1302 15.6104C25.1082 15.6177 25.0992 15.5835 25.1207 15.5759C25.137 15.5701 25.1535 15.5641 25.1699 15.5583C25.1722 15.4755 25.1794 15.3267 25.2746 15.334C25.3274 15.3381 25.3279 15.421 25.2746 15.4169C25.2619 15.416 25.2567 15.4627 25.2558 15.5278C25.8093 15.3317 26.3911 15.1413 26.9826 15.2325C27.4256 15.3008 27.8471 15.4959 28.2368 15.7255C28.7697 16.1087 29.2454 16.581 29.6516 17.0929C29.3488 16.7979 28.9617 16.608 28.5809 16.4179C28.447 16.3268 28.3017 16.2488 28.1418 16.1879C28.2835 16.2688 28.4318 16.3435 28.5809 16.4179C29.2871 16.8981 29.6744 17.7433 30.1965 18.386C29.2408 17.5736 28.2851 16.7613 27.0904 16.2356C27.7087 16.563 28.1609 17.0564 28.5944 17.5684C28.0744 17.0813 27.3961 16.7969 26.8037 16.4267C26.9971 16.562 27.1762 16.7096 27.345 16.8661C27.3398 16.863 27.3345 16.8599 27.3294 16.8568C27.3345 16.8599 27.3398 16.863 27.345 16.8661C28.0102 17.483 28.5063 18.2448 29.0018 19.0071C27.9983 18.0993 27.0904 17.0002 25.8002 16.4267C26.0814 17.2301 26.5306 18 26.7805 18.821C26.6178 18.5639 26.4546 18.3074 26.2952 18.0495C25.9243 17.4494 25.571 16.8354 25.2913 16.1865Z" fill="#373737"/>
<path d="M29.0019 19.0068C28.5064 18.2445 28.0103 17.4826 27.3451 16.8658C27.8249 17.1513 28.3147 17.4547 28.7805 17.789C28.8539 17.8767 28.9275 17.9643 29.0019 18.0511C28.953 17.9754 28.9007 17.9039 28.8455 17.836C30.0641 18.7227 31.1049 19.8284 31.3435 21.396C31.7736 23.9764 30.4356 26.6524 32.0603 28.9938C32.1381 29.1136 32.2227 29.2266 32.3134 29.3331C32.0215 29.5035 31.7007 29.6245 31.3697 29.6744C30.8341 29.7551 30.2207 29.7053 29.8134 29.3107C29.3781 28.8889 29.1741 28.2091 29.0441 27.6355C28.8993 26.9965 28.8509 26.3398 28.8186 25.6869C28.7475 24.2496 28.7224 22.8026 28.197 21.4416C27.8378 20.511 27.3127 19.662 26.7807 18.8206C26.5308 17.9995 26.0816 17.2297 25.8004 16.4263C27.0905 16.9999 27.9984 18.0989 29.0019 19.0068Z" fill="#373737"/>
<path d="M31.3435 21.396C31.1049 19.8284 30.0641 18.7228 28.8455 17.836C28.7674 17.7398 28.6832 17.651 28.5946 17.568C28.161 17.056 27.7088 16.5625 27.0906 16.2353C28.2852 16.7609 29.2409 17.5732 30.1967 18.3856C29.6745 17.7429 29.2872 16.8977 28.5811 16.4175C28.9619 16.6076 29.3489 16.7975 29.6518 17.0926C29.7763 17.2496 29.8944 17.4102 30.0056 17.5732C29.9111 17.3842 29.7902 17.2274 29.6518 17.0926C29.2456 16.5806 28.7698 16.1085 28.2369 15.7251C28.3466 15.7897 28.454 15.8569 28.5585 15.9249C29.5593 16.577 30.4125 17.4476 31.1238 18.4025C31.8243 19.3429 32.4789 20.4426 32.4542 21.6546C32.4433 22.1875 32.2661 22.676 32.088 23.1716C31.8841 23.7387 31.7736 24.2672 31.8828 24.8687C31.9915 25.467 32.186 26.0535 32.5692 26.5356C32.9902 27.0652 33.6917 27.3458 34.3608 27.1848C34.4255 27.1692 34.4512 27.2637 34.3882 27.2842C34.1992 27.3454 34.0802 27.4796 33.9881 27.6421C33.2468 27.5019 32.5269 27.1401 32.0602 26.5568C32.3469 27.2257 32.9681 27.7992 33.7327 27.9425C32.8725 27.8947 32.0124 27.3691 31.7257 26.509C31.7257 27.5421 32.2983 28.3116 33.0997 28.722C32.7496 28.7443 32.4038 28.459 32.1535 28.1798C32.272 28.4903 32.5547 28.7198 32.8956 28.7611C32.9402 28.7665 32.9707 28.8179 32.9343 28.8543C32.7507 29.0372 32.5408 29.2002 32.3133 29.3331C32.2227 29.2265 32.138 29.1135 32.0602 28.9938C30.4355 26.6524 31.7735 23.9765 31.3435 21.396Z" fill="#4F4F4F"/>
<path d="M25.5706 32.269C25.5676 32.3829 25.5679 32.4932 25.5665 32.5926C25.5617 32.9214 25.5487 33.2951 25.6207 33.6171C25.6481 33.7399 25.638 34.056 25.594 33.9425C25.056 33.8542 24.3428 33.3193 23.8625 33.0525C23.9166 32.7758 23.9973 32.5044 24.128 32.243C24.5062 31.6544 25.1063 32.0642 25.5706 32.269Z" fill="#E9B89B"/>
<path d="M23.5767 30.5968C23.5594 30.5789 23.5765 30.5459 23.6018 30.5538C23.6141 30.5576 23.6262 30.5625 23.6384 30.567C23.6381 30.5621 23.6378 30.5572 23.6375 30.5523C23.6369 30.5407 23.6543 30.5389 23.6573 30.5495C23.6599 30.5585 23.662 30.5676 23.6645 30.5765C23.8048 30.6338 23.932 30.7275 24.0632 30.8031C24.2376 30.9036 24.4141 31.0002 24.5929 31.0927C24.9212 31.2627 25.2838 31.4738 25.6476 31.5689C25.6685 31.5376 25.6915 31.5078 25.7177 31.4805C25.7225 31.4755 25.7308 31.4819 25.7273 31.488C25.7109 31.5166 25.6967 31.547 25.6835 31.5782C25.7055 31.5835 25.7275 31.5885 25.7495 31.5929C25.7558 31.5941 25.7542 31.6039 25.748 31.6038C25.7234 31.6036 25.6988 31.6024 25.6741 31.6004C25.5969 31.7978 25.5769 32.041 25.5707 32.2701C25.1064 32.0653 24.5063 31.6555 24.128 32.244C23.9973 32.5053 23.9165 32.7767 23.8626 33.0534C23.8113 33.025 23.7607 32.9965 23.7112 32.9684C23.7025 32.9634 23.695 32.9558 23.6889 32.9473C23.5191 32.9275 23.6555 32.2053 23.6607 32.1067C23.6862 31.6224 23.6711 31.1412 23.6435 30.6579C23.6202 30.6385 23.5975 30.6184 23.5767 30.5968Z" fill="#C5896B"/>
<path d="M27.5206 28.1335C27.987 27.9215 28.5285 28.2732 29.0118 28.0884C28.7077 28.4783 28.0745 28.6015 27.6163 28.3723C27.5684 28.3247 27.4728 28.1335 27.5206 28.1335Z" fill="#D5987B"/>
<path d="M26.3737 24.4061C26.5171 24.3583 26.7082 24.1672 26.6604 23.9282C26.9471 24.2627 27.2338 24.6928 27.0905 25.1707C26.8994 25.7919 25.9915 25.9353 25.5136 25.5529C25.1039 25.1887 25.4314 24.7378 25.6699 24.3241C25.9156 24.3701 26.1322 24.4751 26.3737 24.4061Z" fill="#D5987B"/>
<path d="M26.8181 24.1251C26.7674 24.0564 26.7139 23.9906 26.6604 23.9282C26.7082 24.1671 26.517 24.3583 26.3737 24.406C26.1322 24.475 25.9155 24.37 25.6699 24.3241C25.6817 24.3036 25.6934 24.2831 25.7047 24.2627V24.3105V24.2627C25.6934 24.2831 25.6817 24.3036 25.6699 24.3241C25.5753 24.3064 25.4765 24.2972 25.3702 24.3105C25.4765 24.2972 25.5753 24.3065 25.6699 24.3241C25.5448 24.5412 25.3953 24.7685 25.3404 24.9882C25.2961 24.8225 25.3486 24.6234 25.2269 24.5017C25.2747 24.4539 25.3703 24.5494 25.3703 24.4539C25.0266 24.4539 24.6445 24.2607 24.6751 23.9091C25.0505 23.6502 25.4487 23.4129 25.8514 23.1953C25.8663 23.2002 25.8811 23.2055 25.8959 23.2115C26.2695 23.3812 26.6911 23.7202 26.8181 24.1251Z" fill="#D5987B"/>
<path d="M29.0975 23.642C28.7702 23.773 28.473 24.0237 28.2965 24.3256C28.2869 23.9517 28.8054 23.4863 29.1453 23.2598C29.25 23.1969 29.3639 23.1616 29.479 23.1499C29.4875 23.1568 29.5006 23.1625 29.5122 23.1686C29.5013 23.167 29.4905 23.1654 29.4798 23.1643C29.4905 23.1655 29.5013 23.167 29.5122 23.1686C29.5326 23.1793 29.5485 23.191 29.5275 23.212C29.5485 23.191 29.5326 23.1793 29.5122 23.1686C29.9356 23.2313 30.4271 23.6038 30.1009 23.9766C29.905 24.246 29.6084 24.5278 29.2952 24.6743C29.186 24.5112 29.0152 24.3788 28.9063 24.2155C28.763 24.0721 28.9064 23.7854 29.0975 23.642Z" fill="#D5987B"/>
<path d="M22.5032 28.3727C23.1581 30.7739 25.2579 31.8114 27.5408 32.1363C27.5935 32.1226 27.646 32.1079 27.6982 32.0905C29.0026 31.6558 30.4837 30.6866 31.0107 29.361C31.2645 28.7226 31.1975 28.0268 31.0911 27.3433C30.9397 26.7636 30.7472 26.1824 30.579 25.6011C30.4835 25.3144 30.4835 25.0276 30.579 24.7409C30.8108 23.7805 31.0424 22.8431 30.9879 21.8967C30.8975 21.3961 30.7294 20.9138 30.461 20.4458C30.1635 19.9271 29.7788 19.4774 29.3568 19.062C29.4488 20.5106 28.6791 21.8908 27.2819 22.495C26.8202 22.7032 26.3328 22.9355 25.8515 23.1956C25.8664 23.2005 25.8812 23.2059 25.8961 23.2118C26.2697 23.3816 26.6913 23.7205 26.8183 24.1254C27.0393 24.4251 27.2073 24.7822 27.0908 25.171C26.8996 25.7921 25.9917 25.9355 25.5138 25.5532C25.3191 25.3801 25.291 25.1874 25.3407 24.9884C25.2963 24.8228 25.3488 24.6236 25.2271 24.5019C25.2749 24.4541 25.3705 24.5497 25.3705 24.4541C25.0268 24.4541 24.6447 24.2609 24.6753 23.9094C23.1303 24.9749 21.9735 26.4096 22.5032 28.3727ZM29.4195 25.7169C29.0332 25.7712 28.6275 25.8422 28.333 25.5055C28.0474 25.1161 28.0867 24.6845 28.2966 24.3255C28.2869 23.9516 28.8054 23.4862 29.1454 23.2596C29.2501 23.1968 29.364 23.1615 29.4791 23.1497C29.4686 23.1413 29.465 23.1311 29.4798 23.1162C29.465 23.1311 29.4686 23.1412 29.4791 23.1497C29.6264 23.1346 29.7757 23.1582 29.9099 23.2119C29.7756 23.1582 29.6264 23.1347 29.4791 23.1497C29.4876 23.1566 29.5007 23.1623 29.5123 23.1684C29.9357 23.2311 30.4271 23.6037 30.101 23.9765C29.9051 24.2459 29.6085 24.5276 29.2953 24.6741C29.3779 24.7973 29.4254 24.9382 29.3843 25.1233C29.359 25.174 29.3067 25.1979 29.2632 25.2233C29.3349 25.3813 29.3946 25.5432 29.4195 25.7169C29.472 25.7095 29.524 25.7024 29.5754 25.6967C29.524 25.7024 29.472 25.7095 29.4195 25.7169C29.4275 25.7726 29.4321 25.8295 29.4321 25.8879C29.4321 25.8295 29.4275 25.7726 29.4195 25.7169ZM27.6162 28.3727C27.5684 28.3249 27.4728 28.1337 27.5207 28.1337C27.987 27.9217 28.5285 28.2735 29.0118 28.0887C29.0248 28.0721 29.0381 28.0557 29.0498 28.0381C29.0976 27.9426 29.241 27.7992 29.0976 27.7036C29.241 27.7992 29.0976 27.9426 29.0498 28.0381C29.0381 28.0557 29.0248 28.0721 29.0118 28.0887C29.0733 28.0652 29.1339 28.0335 29.1932 27.9903C29.1339 28.0335 29.0733 28.0652 29.0118 28.0887C28.7077 28.4785 28.0745 28.6018 27.6162 28.3727ZM26.8039 30.0929C27.0286 30.2727 27.338 30.3679 27.6524 30.2591C27.6687 30.17 27.6843 30.0798 27.7118 29.9974C27.6843 30.0798 27.6688 30.17 27.6524 30.2591C27.6722 30.2523 27.692 30.2447 27.7118 30.2363C27.692 30.2447 27.6722 30.2523 27.6524 30.2591C27.6121 30.48 27.5679 30.6938 27.3295 30.7619C26.9472 30.8097 26.8039 30.3796 26.8039 30.0929Z" fill="#FAD1B5"/>
<path d="M27.6524 30.2589C27.6121 30.4798 27.5679 30.6936 27.3295 30.7617C26.9472 30.8095 26.8038 30.3795 26.8038 30.0928C27.0286 30.2725 27.338 30.3677 27.6524 30.2589Z" fill="#D5987B"/>
<path d="M28.3329 25.5057C27.8073 24.7889 28.3807 23.9288 29.0975 23.6421C28.9064 23.7855 28.7631 24.0722 28.9064 24.2155C29.0975 24.5022 29.4798 24.6934 29.3842 25.1234C29.3589 25.1742 29.3066 25.198 29.2632 25.2234C29.226 25.1416 29.1857 25.0608 29.1454 24.98C29.1857 25.0608 29.226 25.1416 29.2632 25.2234C29.2248 25.246 29.1932 25.2697 29.1932 25.3146C29.1932 25.2697 29.2248 25.246 29.2632 25.2234C29.335 25.3814 29.3946 25.5434 29.4195 25.717C29.033 25.7714 28.6274 25.8424 28.3329 25.5057Z" fill="#D5987B"/>
<path d="M30.5789 24.7407C30.8107 23.7803 31.0423 22.8428 30.9878 21.8965C31.0634 22.3155 31.0849 22.7473 31.0635 23.195C31.0146 24.2194 30.821 25.24 30.9292 26.2675C30.9658 26.6154 31.0341 26.9775 31.091 27.343C30.9396 26.7633 30.747 26.1821 30.5789 25.6009C30.4833 25.3142 30.4833 25.0274 30.5789 24.7407Z" fill="#D5987B"/>
<path d="M20.1306 26.0259C20.6856 26.2597 21.341 26.8772 21.1174 27.3691C21.1174 27.5125 20.6873 27.6081 20.4006 27.4647C19.9705 27.2257 19.7316 26.6523 19.9705 26.1744C20.0025 26.1106 20.0559 26.0469 20.1306 26.0259Z" fill="#D5987B"/>
<path d="M19.2203 27.3768C19.4869 27.8379 19.9482 28.3161 20.4523 28.5118C20.9226 28.6943 21.0044 28.2841 21.251 27.9247C21.2605 27.9769 21.2722 28.0287 21.2848 28.0802C21.2777 27.4607 21.2185 26.8345 21.4459 26.2525C21.304 25.5356 21.113 24.8232 20.6799 24.2192C20.6513 24.2285 20.623 24.2381 20.5955 24.2486C20.3499 24.342 20.1112 24.4559 19.8912 24.6004C19.4737 24.8744 19.125 25.2612 18.9862 25.7494C18.8312 26.295 18.9394 26.8909 19.2203 27.3768ZM19.9706 26.1747C20.0025 26.1107 20.056 26.0471 20.1307 26.026C20.0927 26.01 20.0551 25.9957 20.0184 25.9835C20.0551 25.9958 20.0928 26.01 20.1307 26.026C20.1677 26.0156 20.2098 26.0154 20.2574 26.0313C20.2099 26.0154 20.1678 26.0156 20.1307 26.026C20.6857 26.2598 21.341 26.8773 21.1175 27.3692C21.1175 27.5126 20.6874 27.6082 20.4007 27.4648C19.9706 27.2259 19.7316 26.6524 19.9706 26.1747Z" fill="#FAD1B5"/>
<path d="M21.446 26.2529C21.4819 26.4343 21.5148 26.6159 21.5475 26.7962C21.5147 26.6159 21.4818 26.4343 21.446 26.2529C21.4624 26.2107 21.4801 26.1688 21.4998 26.1271C21.48 26.1688 21.4624 26.2107 21.446 26.2529C21.3041 25.536 21.1131 24.8237 20.68 24.2197C20.9358 24.1369 21.2298 24.093 21.444 23.9375C21.7115 23.7433 21.7919 23.4062 21.9071 23.1148C22.002 22.8743 22.1296 22.6537 22.2944 22.454C22.6819 21.9848 23.2096 21.6482 23.707 21.3088C24.3343 20.8806 24.9609 20.451 25.5868 20.0207C25.9259 19.7877 26.2654 19.5553 26.6058 19.3243C26.947 19.0927 27.2923 18.8421 27.6684 18.6696C27.9156 18.5562 28.1888 18.4634 28.4642 18.5029C28.6446 18.5287 28.9201 18.6863 29.0233 18.7647C29.0635 18.7981 29.0947 18.8217 29.1402 18.8548C29.2134 18.9232 29.2856 18.9924 29.3568 19.0625C29.4488 20.5111 28.6791 21.8913 27.2819 22.4955C24.8449 23.5945 21.691 25.3626 22.5034 28.3731C23.1582 30.7743 25.2581 31.8118 27.541 32.1367C26.4393 32.4208 25.2449 31.8901 24.3027 31.3457C23.1027 30.6523 21.6322 29.4905 21.2851 28.0806C21.2778 27.4611 21.2185 26.8348 21.446 26.2529Z" fill="#D5987B"/>
<path d="M30.4182 24.3557C30.3048 24.5758 30.0826 24.7157 29.8712 24.5301C29.6807 24.3629 29.4097 24.2238 29.1417 24.3064C28.9306 24.3716 28.9093 24.6057 28.7316 24.7022C28.7113 24.7133 28.6838 24.6996 28.6844 24.6751C28.6902 24.4296 28.9501 24.1851 29.1893 24.1543C29.3341 24.1356 29.5147 24.1627 29.6486 24.2193C29.8897 24.3212 30.1652 24.7222 30.4152 24.354C30.4166 24.3522 30.4193 24.3537 30.4182 24.3557Z" fill="#5B3E2F"/>
<path d="M24.7484 24.118C24.975 24.512 25.3786 24.1301 25.7055 24.1613C25.9732 24.1868 26.1767 24.3422 26.2827 24.5803C26.2934 24.6044 26.2714 24.6284 26.2466 24.6164C26.0636 24.5278 25.8897 24.3566 25.6813 24.3405C25.4976 24.3265 25.3369 24.4216 25.159 24.4349C24.9498 24.4506 24.8002 24.3113 24.7281 24.1267C24.7233 24.1146 24.7422 24.1072 24.7484 24.118Z" fill="#5B3E2F"/>
<path d="M29.3722 25.7211C29.7747 25.7211 30.101 25.3949 30.101 24.9924C30.101 24.5899 29.7747 24.2637 29.3722 24.2637C28.9698 24.2637 28.6435 24.5899 28.6435 24.9924C28.6435 25.3949 28.9698 25.7211 29.3722 25.7211Z" fill="white"/>
<path d="M29.1685 25.5973C29.4194 25.5973 29.6229 25.3939 29.6229 25.1429C29.6229 24.8919 29.4194 24.6885 29.1685 24.6885C28.9175 24.6885 28.7141 24.8919 28.7141 25.1429C28.7141 25.3939 28.9175 25.5973 29.1685 25.5973Z" fill="black"/>
<path d="M29.3926 25.1616C29.4859 25.1616 29.5615 25.086 29.5615 24.9927C29.5615 24.8994 29.4859 24.8237 29.3926 24.8237C29.2993 24.8237 29.2237 24.8994 29.2237 24.9927C29.2237 25.086 29.2993 25.1616 29.3926 25.1616Z" fill="white"/>
<path d="M25.6692 25.7216C26.0716 25.7216 26.3979 25.3954 26.3979 24.9929C26.3979 24.5904 26.0716 24.2642 25.6692 24.2642C25.2667 24.2642 24.9404 24.5904 24.9404 24.9929C24.9404 25.3954 25.2667 25.7216 25.6692 25.7216Z" fill="white"/>
<path d="M25.4653 25.5978C25.7163 25.5978 25.9198 25.3943 25.9198 25.1434C25.9198 24.8924 25.7163 24.689 25.4653 24.689C25.2144 24.689 25.0109 24.8924 25.0109 25.1434C25.0109 25.3943 25.2144 25.5978 25.4653 25.5978Z" fill="black"/>
<path d="M25.6895 25.1621C25.7828 25.1621 25.8584 25.0864 25.8584 24.9931C25.8584 24.8998 25.7828 24.8242 25.6895 24.8242C25.5962 24.8242 25.5206 24.8998 25.5206 24.9931C25.5206 25.0864 25.5962 25.1621 25.6895 25.1621Z" fill="white"/>
<path d="M27.8059 25.1347C28.1124 25.5625 28.4274 25.9736 28.767 26.3766C28.9288 26.5688 29.091 26.7132 29.2581 26.9009C29.3667 27.023 29.5811 27.2249 29.6199 27.3916C29.6815 27.6557 29.3776 27.9955 29.1889 28.138C28.891 28.3629 28.4216 28.5533 28.0478 28.4846C28.0133 28.4782 28.0174 28.4275 28.0478 28.4187C28.4287 28.3089 28.8806 28.2276 29.1895 27.9616C29.3081 27.8596 29.4703 27.6803 29.488 27.515C29.5099 27.3089 29.2095 27.0323 29.0825 26.8886C28.6122 26.3566 28.0634 25.807 27.8038 25.1356C27.8033 25.1344 27.8051 25.1338 27.8059 25.1347Z" fill="#B47A5D"/>
<path d="M28.6658 29.1616C28.2232 29.7053 27.6052 29.7536 27.0533 29.5148C26.7557 29.386 26.4615 29.1915 26.2078 28.9461C26.0158 28.7603 25.7975 28.4705 25.6795 28.1501C25.6744 28.1359 25.7448 28.0956 25.7529 28.1108C25.8772 28.3429 25.9947 28.4961 26.1643 28.6801C26.3792 28.9132 26.6209 29.1126 26.873 29.2644C27.4557 29.6153 28.2006 29.5956 28.7111 29.012C28.7159 29.0067 28.6705 29.1558 28.6658 29.1616Z" fill="#B47A5D"/>
<path d="M25.9418 28.0456C25.8811 28.0697 25.8272 28.0953 25.7876 28.1249C25.7465 28.1557 25.6956 28.2339 25.6645 28.2812C25.6183 28.3517 25.5908 28.3885 25.5298 28.437C25.5225 28.4428 25.5134 28.4353 25.5132 28.4242C25.5109 28.3035 25.6112 28.1088 25.6777 28.0423C25.7473 27.9727 25.8464 27.9838 25.9345 28.0158C25.9371 28.0167 25.9395 28.0197 25.9401 28.0233C25.9412 28.0301 25.9423 28.037 25.9435 28.0438C25.9438 28.0452 25.9428 28.0464 25.9418 28.0456Z" fill="#B47A5D"/>
<path d="M27.8462 30.1497C27.5204 30.4766 27.0393 30.3976 26.7356 30.0113C26.7264 29.9995 26.7965 29.9776 26.8073 29.9864C26.9119 30.072 27.0163 30.1661 27.1638 30.2369C27.3793 30.3403 27.6305 30.2932 27.8919 30.0896C27.8969 30.0857 27.8506 30.1454 27.8462 30.1497Z" fill="#B47A5D"/>
<path d="M30.3777 23.7555C30.2059 23.4718 29.9295 23.3516 29.6133 23.3082C29.5229 23.2958 29.4249 23.312 29.3372 23.2983C29.3216 23.2959 29.2283 23.2683 29.2439 23.2612C29.2331 23.2662 29.2151 23.2606 29.2169 23.2457C29.2407 23.0505 29.5442 23.1201 29.6746 23.1476C29.9796 23.2118 30.3184 23.4284 30.3839 23.7528C30.3847 23.7565 30.3798 23.7589 30.3777 23.7555Z" fill="#5B3E2F"/>
<path d="M24.717 23.3573C24.8965 23.1545 25.2464 22.9413 25.5606 22.9058C25.7803 22.8811 26.1112 22.9586 26.1881 23.1526C26.1934 23.1659 26.1708 23.181 26.1542 23.1719C25.73 22.9389 25.0957 23.1964 24.724 23.3625C24.7197 23.3644 24.7141 23.3605 24.717 23.3573Z" fill="#5B3E2F"/>
<path d="M21.2066 27.1313C21.0989 26.8819 20.948 26.6755 20.7596 26.4802C20.5194 26.2313 20.296 26.1223 19.9575 26.0692C19.923 26.0638 19.933 26.0189 19.9575 26.0088C20.5026 25.7819 21.1514 26.6652 21.2178 27.1266C21.2187 27.1327 21.2096 27.1383 21.2066 27.1313Z" fill="#B47A5D"/>
<path d="M21.1897 27.1075C21.0396 26.8911 20.8837 26.7569 20.6113 26.7598C20.4632 26.7614 20.2938 26.7932 20.1525 26.8382C20.1439 26.8409 20.135 26.835 20.1325 26.8269C20.0701 26.6243 20.5434 26.6248 20.6496 26.6355C20.9362 26.6645 21.129 26.8272 21.2039 27.1014C21.2064 27.1103 21.1945 27.1145 21.1897 27.1075Z" fill="#B47A5D"/>
<path d="M19.1387 23.4526C19.1 23.6128 19.0591 23.7717 19.0148 23.9284C19.0527 23.7697 19.0943 23.6111 19.1387 23.4526Z" fill="#5B3E2F"/>
<path d="M18.6798 21.3892C18.6022 21.6313 18.5235 21.8729 18.4414 22.1127C18.5135 21.8702 18.5931 21.6287 18.6798 21.3892Z" fill="#5B3E2F"/>
<path d="M16.0767 25.1044C16.2022 24.884 16.3274 24.6719 16.4348 24.4503C16.6895 23.4085 16.9192 22.3609 17.2252 21.3322C17.5247 20.3256 17.8522 19.2887 18.3539 18.357C18.9063 17.5461 19.5722 16.8144 20.4484 16.3311C19.2059 17.4779 18.6325 19.007 18.1546 20.584C18.7758 19.1982 19.4448 17.7647 20.6872 16.8567C19.6504 18.1838 19.1895 19.7988 18.6797 21.3896C18.593 21.6291 18.5134 21.8706 18.4413 22.1131C18.5234 21.8732 18.6021 21.6317 18.6797 21.3896C19.2252 19.8823 20.065 18.4544 21.2607 17.3823C19.7518 19.0243 19.644 21.3667 19.1388 23.4531C19.0944 23.6115 19.0528 23.7702 19.0148 23.9289C19.0591 23.7722 19.1 23.6133 19.1388 23.4531C19.7097 21.4173 20.815 19.4292 22.4554 18.0991C21.4041 19.7238 20.8307 21.5396 20.2095 23.3076C20.9263 21.7785 22.1209 20.4405 23.3634 19.2936C22.6944 20.4405 21.882 21.5395 21.213 22.6864C22.6466 21.7307 23.889 20.6795 25.3703 19.7238C26.2304 19.1981 26.8517 18.3858 27.0905 17.43C26.7561 19.2936 25.4659 20.7749 24.0323 21.9696C25.4181 21.444 26.995 20.9183 27.7596 19.5804C27.4729 20.2972 26.9472 20.8228 26.4216 21.3962C27.6397 20.8426 28.6003 19.7186 28.7987 18.421C28.9232 19.3011 28.6178 20.2096 28.0721 20.9004C27.4425 21.6974 26.516 22.1239 25.5207 22.2054C25.5165 22.2058 25.5132 22.2045 25.5103 22.2028C24.987 22.5392 24.428 22.8331 23.8471 23.03C23.6983 23.0804 23.5471 23.1248 23.3943 23.1636C22.8152 23.6342 22.4434 24.307 22.1017 24.9635C21.6821 25.7696 21.2762 26.697 21.4096 27.6288C21.4233 27.7248 21.4457 27.8211 21.4764 27.9145C21.5455 28.0907 21.6573 28.2488 21.8285 28.3393C22.2199 28.5463 22.4678 28.1497 22.4839 27.8049C22.4895 27.6864 22.4377 27.5815 22.5417 27.5126C22.6334 27.4519 22.7793 27.4948 22.8618 27.5492C23.1306 27.7265 23.046 28.1299 22.9068 28.3624C22.7368 28.6462 22.4153 28.7441 22.1026 28.6603C21.772 28.5717 21.5466 28.3062 21.4312 27.9934C21.4311 27.9931 21.431 27.9927 21.4309 27.9924C21.3428 27.7945 21.3121 27.5671 21.3025 27.352C21.2923 27.1254 21.2872 26.8844 21.3153 26.6503C21.2693 26.1116 21.1984 25.5623 20.7189 25.2177C20.1957 24.8417 19.5285 25.0746 19.4024 25.7117C19.2974 26.2428 19.4 26.9192 19.6842 27.381C19.8363 27.6282 20.0701 27.8859 20.3589 27.9666C20.6782 28.0558 20.9407 27.8497 21.2015 27.7085C21.2258 27.6954 21.2479 27.7143 21.2484 27.736C21.2496 27.7361 21.2509 27.7365 21.2513 27.7377C21.4286 28.2331 21.6001 28.7022 21.9046 29.1376C22.2031 29.5647 22.7565 30.11 23.1985 30.0697C22.8209 30.6843 21.2854 30.771 20.6505 30.3146C20.4809 30.1927 20.3272 30.0482 20.1933 29.8876C20.3138 30.0601 20.4404 30.2198 20.5549 30.3595C20.5721 30.3806 20.5605 30.4084 20.5336 30.4111C20.2553 30.4381 19.98 30.4186 19.7166 30.3595C18.8606 29.9098 18.3451 28.9616 18.0116 28.0861C18.0116 28.6117 18.2028 29.0418 18.4895 29.4241C18.0116 28.8507 17.4382 28.2295 17.4382 27.4171C17.247 27.9905 17.486 28.5162 17.6771 29.0418C17.0009 28.1401 16.7502 26.9408 16.9647 25.8449C16.9812 25.7806 16.9964 25.7157 17.0081 25.649C16.9918 25.7139 16.9776 25.7792 16.9647 25.8449C16.7803 26.5641 16.3273 27.1492 16.1957 27.8949C16.1669 28.1543 16.1715 28.4271 16.2083 28.6992C15.8721 28.297 15.6948 27.7835 15.6302 27.2547C15.5386 26.5063 15.7052 25.7572 16.0767 25.1044Z" fill="#373737"/>
<path d="M16.1954 27.8947C16.327 27.149 16.78 26.564 16.9644 25.8447C16.7499 26.9406 17.0005 28.14 17.6768 29.0417C17.4856 28.516 17.2467 27.9904 17.4379 27.417C17.4379 28.2293 18.0113 28.8505 18.4892 29.4239C18.2025 29.0417 18.0113 28.6116 18.0113 28.0859C18.3448 28.9614 18.8603 29.9097 19.7163 30.3594C18.9962 30.198 18.3671 29.7386 18.0235 29.1082C18.0985 29.3223 18.2028 29.5269 18.3474 29.716C18.3631 29.7366 18.337 29.7656 18.3145 29.7587C17.6989 29.5707 17.0594 29.4146 16.5382 29.0165C16.4139 28.9216 16.3048 28.8146 16.2081 28.699C16.1712 28.427 16.1666 28.1541 16.1954 27.8947Z" fill="#4F4F4F"/>
<path d="M16.9644 25.8448C16.9773 25.7791 16.9915 25.7138 17.0078 25.6489C16.996 25.7156 16.9809 25.7805 16.9644 25.8448Z" fill="#5B3E2F"/>
<path d="M26.4216 21.396C26.9473 20.8226 27.4729 20.297 27.7596 19.5802C26.995 20.9182 25.4181 21.4438 24.0324 21.9694C25.4659 20.7749 26.7561 19.2935 27.0906 17.4298C26.8517 18.3856 26.2305 19.1979 25.3704 19.7236C23.889 20.6793 22.6466 21.7305 21.2131 22.6863C21.882 21.5394 22.6945 20.4404 23.3634 19.2935C22.121 20.4403 20.9264 21.7783 20.2096 23.3074C20.8307 21.5393 21.4041 19.7236 22.4554 18.0989C20.8151 19.4289 19.7097 21.4171 19.1388 23.4529C19.6441 21.3666 19.752 19.0241 21.2607 17.3822C20.065 18.4542 19.2254 19.8821 18.6797 21.3894C19.1895 19.7987 19.6505 18.1837 20.6872 16.8565C19.4448 17.7644 18.7758 19.198 18.1547 20.5838C18.6325 19.0069 19.2059 17.4777 20.4484 16.3309C19.5723 16.8143 18.9065 17.546 18.3539 18.3569C18.4128 18.2474 18.4736 18.1392 18.5376 18.0329C19.0275 17.2191 19.7072 16.5589 20.4583 15.9861C20.9155 15.6373 21.3832 15.3099 21.9239 15.1041C22.5731 14.857 23.2387 14.7831 23.9297 14.8225C24.4585 14.8525 24.9822 14.953 25.4821 15.1201C25.4717 15.1147 25.4614 15.1093 25.451 15.1039C25.4482 15.1025 25.4501 15.0976 25.4531 15.0987C25.5168 15.1236 25.581 15.1499 25.6455 15.1768C26.1209 15.3519 26.5716 15.5902 26.9812 15.8897C27.8698 16.489 28.6168 17.3095 28.7902 18.3579C28.7936 18.3788 28.7956 18.3998 28.7986 18.4209C28.6003 19.7184 27.6396 20.8424 26.4216 21.396Z" fill="#4F4F4F"/>
<path d="M22.981 32.4349C23.9368 32.865 24.6535 33.7728 25.8003 33.8206C25.9133 33.8206 25.9671 33.9689 26.0549 34.0786C26.0581 34.1074 26.0614 34.1354 26.0653 34.1607C26.0931 34.3406 26.1126 34.5206 26.133 34.7015C26.1561 34.907 26.2149 35.1198 26.199 35.3271C26.1986 35.3322 26.1915 35.3367 26.1875 35.3318C25.9808 35.0742 25.9292 34.6666 25.8562 34.3519C25.8354 34.2625 25.8213 34.1328 25.7911 34.0183C25.6901 34.1939 25.6108 34.3903 25.527 34.563C25.3906 34.8442 25.2603 35.1285 25.1271 35.4113C25.0807 35.5101 24.9525 35.4826 24.8997 35.4113C24.5929 34.9973 24.1081 34.6932 23.7083 34.3758C23.5002 34.2106 23.2929 34.0443 23.0891 33.8735C22.9234 33.7346 22.6903 33.5883 22.5834 33.3951C22.5023 33.2485 22.5476 33.0825 22.5815 32.9269C22.6125 32.7845 22.6618 32.6351 22.7224 32.4946C22.8051 32.4226 22.888 32.3883 22.981 32.4349Z" fill="#2CAAB2"/>
<path d="M55 65.3687C55 65.3864 43.2014 65.4006 28.6506 65.4006C14.0946 65.4006 2.29852 65.3864 2.29852 65.3687C2.29852 65.3512 14.0946 65.3369 28.6506 65.3369C43.2014 65.3369 55 65.3512 55 65.3687Z" fill="#263238"/>
<path d="M51.5511 21.8857C51.3676 20.4068 50.1165 19.0278 48.6262 19.0269C47.7459 19.0264 46.909 19.4865 46.3076 20.1292C46.0444 20.4104 45.8642 20.6154 45.7198 20.8263C45.6196 20.591 45.4833 20.3546 45.2807 20.0271C44.8174 19.2786 44.0875 18.6629 43.2244 18.4901C41.7632 18.1976 40.265 19.3034 39.7939 20.7173C39.3229 22.1312 39.7151 23.7186 40.4896 24.9918C41.2642 26.2649 42.598 27.9292 45.0551 28.7552C46.749 28.5381 49.0178 27.0355 50.0278 25.9398C51.0377 24.8438 51.7347 23.3646 51.5511 21.8857Z" fill="#56BBC1"/>
<path d="M51.014 24.5416C51.0138 24.5433 50.9971 24.5434 50.9647 24.5419C50.9264 24.5395 50.8792 24.5364 50.821 24.5326C50.6868 24.5216 50.5026 24.5064 50.2693 24.4873C49.7822 24.4427 49.0919 24.3795 48.2424 24.3018L48.2789 24.2793C48.0345 24.9165 47.7483 25.6626 47.4345 26.4808L47.3836 26.6135L47.3503 26.4751C47.093 25.4068 46.8047 24.2098 46.5009 22.9484C46.4075 22.5579 46.3155 22.1736 46.2258 21.7985L46.3116 21.8154C45.7607 22.5729 45.2396 23.2895 44.7646 23.9425L44.7497 23.963L44.7248 23.9603C43.2681 23.8083 42.0385 23.68 41.1637 23.5887C40.7371 23.5411 40.3975 23.5032 40.1556 23.4762C40.0449 23.4623 39.9567 23.4513 39.8892 23.4429C39.8288 23.4346 39.7978 23.4291 39.798 23.4267C39.7983 23.4244 39.8298 23.4251 39.8905 23.4288C39.9584 23.4339 40.047 23.4403 40.1583 23.4486C40.4007 23.4697 40.7411 23.4994 41.1687 23.5367C42.0444 23.6194 43.2752 23.7356 44.7333 23.8732L44.6936 23.8911C45.1665 23.2364 45.6852 22.5181 46.2335 21.7588L46.2949 21.6738L46.3194 21.7758C46.4094 22.151 46.5016 22.5352 46.5953 22.9256C46.8961 24.1876 47.1815 25.3854 47.4362 26.4543L47.352 26.4485C47.6719 25.6327 47.9637 24.8887 48.2129 24.2534L48.2228 24.2281L48.2495 24.2309C49.0977 24.3218 49.787 24.3958 50.2733 24.4479C50.5057 24.475 50.6893 24.4964 50.823 24.512C50.8809 24.5198 50.9277 24.5261 50.9658 24.5312C50.9978 24.5365 51.0141 24.5399 51.014 24.5416Z" stroke="#FAFAFA" stroke-width="0.375392" stroke-miterlimit="10" stroke-linecap="round" stroke-linejoin="round"/>
</g>
<defs>
<clipPath id="clip0">
<rect width="67" height="67" fill="white"/>
</clipPath>
</defs>
</svg>
