<svg width="472" height="500" viewBox="0 0 472 500" fill="none" xmlns="http://www.w3.org/2000/svg">
<path d="M170.291 320.954L181.604 309.64L197.602 325.638L186.288 336.952L170.291 320.954Z" fill="#333333"/>
<path d="M266.282 325.653L282.28 309.656L293.594 320.969L277.596 336.967L266.282 325.653Z" fill="#333333"/>
<path d="M256 401.84C265.288 398.528 272 389.728 272 379.312C272 368.896 265.288 360.096 256 356.784V310.624L269.656 296.968L258.344 285.656L240 304V323.312H224V304L205.656 285.656L194.344 296.968L208 310.624V356.784C198.712 360.096 192 368.896 192 379.312C192 389.728 198.712 398.528 208 401.84V448L194.344 461.656L205.656 472.968L224 454.624V435.312H240V454.624L258.344 472.968L269.656 461.656L256 448V401.84ZM240 339.312V355.312H224V339.312H240ZM216 371.312H248C252.408 371.312 256 374.896 256 379.312C256 383.728 252.408 387.312 248 387.312H216C211.592 387.312 208 383.728 208 379.312C208 374.896 211.592 371.312 216 371.312ZM224 419.312V403.312H240V419.312H224Z" fill="#333333"/>
<path d="M266.267 432.954L277.58 421.64L293.578 437.638L282.264 448.952L266.267 432.954Z" fill="#333333"/>
<path d="M170.274 437.63L186.272 421.632L197.586 432.946L181.588 448.944L170.274 437.63Z" fill="#333333"/>
<path d="M272 171.312V163.312H192V171.312C192 193.368 209.944 211.312 232 211.312C254.056 211.312 272 193.368 272 171.312ZM209.368 179.312H254.624C251.32 188.624 242.424 195.312 231.992 195.312C221.56 195.312 212.672 188.624 209.368 179.312V179.312Z" fill="#333333"/>
<path d="M242.309 80.9971L253.622 69.6834L285.623 101.684L274.309 112.998L242.309 80.9971Z" fill="#333333"/>
<path d="M202.309 80.9893L213.622 69.6755L245.623 101.676L234.309 112.99L202.309 80.9893Z" fill="#333333"/>
<path d="M270.592 252.944L267.136 239.872C286.184 232.912 300.392 215.928 303.36 195.312H304C321.648 195.312 336 180.96 336 163.312C336 156.672 333.96 150.504 330.488 145.384L337.88 133.056C347.12 117.664 352 100.04 352 82.088C352 71.424 350.288 60.888 346.92 50.768L339.496 28.504L330.344 37.664C327.112 40.896 323.632 43.816 319.976 46.488C319.904 37.8 317.848 29.128 313.96 21.352L306.192 5.824L292.232 19.776C289.528 22.48 286.664 25.024 283.664 27.4C280.544 19.312 275.888 11.896 269.656 5.672L264 0L258.344 5.656C249.536 14.464 237.824 19.312 225.368 19.312H214.704C166.896 19.312 128 58.208 128 106.016C128 119.56 129.76 133.024 133.08 146.152C129.904 151.12 128 156.984 128 163.312C128 180.96 142.352 195.312 160 195.312H160.64C163.608 215.928 177.816 232.912 196.864 239.872L193.408 252.944C126.4 274.16 80 337.184 80 407.8V499.312H384V407.8C384 337.184 337.6 274.16 270.592 252.944V252.944ZM304 179.312V147.312C312.824 147.312 320 154.488 320 163.312C320 172.136 312.824 179.312 304 179.312ZM144 163.312C144 154.488 151.176 147.312 160 147.312V179.312C151.176 179.312 144 172.136 144 163.312ZM176 187.312V124.608C176 112.928 183.448 102.6 194.528 98.896L189.464 83.728C171.84 89.6 160 106.032 160 124.608V131.312C155.272 131.312 150.816 132.408 146.768 134.256C144.96 124.952 144 115.496 144 106.016C144 67.032 175.72 35.312 214.704 35.312H225.368C239.2 35.312 252.344 30.856 263.168 22.632C266.176 26.784 268.448 31.392 269.952 36.312C264.664 39.232 259.192 41.816 253.472 43.728L258.528 58.896C274.528 53.568 289.36 44.64 301.568 33C303.168 37.464 304 42.192 304 46.928C304 57.776 299.6 68.4 291.928 76.072L290.344 77.656L301.656 88.968L303.24 87.384C308.88 81.752 313.2 74.944 316.056 67.568C321.744 64.616 327.192 61.264 332.216 57.328C334.728 65.352 336 73.672 336 82.088C336 97.144 331.904 111.92 324.168 124.824L318.192 134.784C313.896 132.632 309.12 131.312 304 131.312V115.312H288V187.312C288 209.368 270.056 227.312 248 227.312H216C193.944 227.312 176 209.368 176 187.312V187.312ZM368 483.312H336V371.312H320V483.312H144V371.312H128V483.312H96V407.8C96 342.768 139.672 284.872 202.2 267.008L206.568 265.76L212.544 243.136C213.696 243.208 214.832 243.312 216 243.312H248C249.168 243.312 250.304 243.208 251.448 243.136L257.424 265.76L261.792 267.008C324.328 284.864 368 342.768 368 407.8V483.312Z" fill="#333333"/>
<path d="M432 243.312C414.352 243.312 400 228.96 400 211.312H384C384 228.96 369.648 243.312 352 243.312V259.312C369.648 259.312 384 273.664 384 291.312H400C400 273.664 414.352 259.312 432 259.312V243.312ZM392 264.832C388.44 259.472 383.84 254.872 378.48 251.312C383.84 247.752 388.44 243.152 392 237.792C395.56 243.152 400.16 247.752 405.52 251.312C400.16 254.872 395.56 259.472 392 264.832Z" fill="#333333"/>
<path d="M64 211.312H80C80 193.664 94.352 179.312 112 179.312V163.312C94.352 163.312 80 148.96 80 131.312H64C64 148.96 49.648 163.312 32 163.312V179.312C49.648 179.312 64 193.664 64 211.312ZM72 157.792C75.56 163.152 80.16 167.752 85.52 171.312C80.16 174.872 75.56 179.472 72 184.832C68.44 179.472 63.84 174.872 58.48 171.312C63.84 167.752 68.44 163.152 72 157.792Z" fill="#333333"/>
<path d="M80 331.312C62.352 331.312 48 316.961 48 299.312H32C32 316.961 17.648 331.312 0 331.312V347.312C17.648 347.312 32 361.664 32 379.312H48C48 361.664 62.352 347.312 80 347.312V331.312ZM40 352.832C36.44 347.472 31.84 342.872 26.48 339.312C31.84 335.753 36.44 331.153 40 325.793C43.56 331.153 48.16 335.753 53.52 339.312C48.16 342.872 43.56 347.472 40 352.832Z" fill="#333333"/>
<path d="M368 179.312H384V195.312H368V179.312Z" fill="#333333"/>
<path d="M432 291.312H448V307.312H432V291.312Z" fill="#333333"/>
<path d="M432 163.312H448V179.312H432V163.312Z" fill="#333333"/>
<path d="M48 227.312H64V243.312H48V227.312Z" fill="#333333"/>
<path d="M112 251.312H128V267.312H112V251.312Z" fill="#333333"/>
<path d="M0 179.312H16V195.312H0V179.312Z" fill="#333333"/>
<path d="M0 267.312H16V283.312H0V267.312Z" fill="#333333"/>
<path d="M456 211.312H472V227.312H456V211.312Z" fill="#333333"/>
<path d="M264 139.312C268.418 139.312 272 135.73 272 131.312C272 126.893 268.418 123.312 264 123.312C259.582 123.312 256 126.893 256 131.312C256 135.73 259.582 139.312 264 139.312Z" fill="#333333"/>
<path d="M200 139.312C204.418 139.312 208 135.73 208 131.312C208 126.893 204.418 123.312 200 123.312C195.582 123.312 192 126.893 192 131.312C192 135.73 195.582 139.312 200 139.312Z" fill="#333333"/>
</svg>
