<svg width="496" height="496" viewBox="0 0 496 496" fill="none" xmlns="http://www.w3.org/2000/svg">
<path d="M144.775 79.3233L138.502 92.5781L152.964 99.4229L159.238 86.1681L144.775 79.3233Z" fill="#333333"/>
<path d="M131.864 106.576L43.52 293.072C35.984 308.984 32 326.704 32 344.312H48C48 329.064 51.456 313.704 57.984 299.912L146.328 113.416L131.864 106.576Z" fill="#333333"/>
<path d="M328 160C297.264 160 268.52 168.44 243.704 182.912L159.232 4.576C157.904 1.784 155.088 0 152 0C148.912 0 146.096 1.784 144.768 4.576L14.6 279.376C5.048 299.528 0 321.992 0 344.312C0 427.952 68.048 496 152.312 496C183.056 496 212.592 486.824 237.856 469.536C263.936 486.2 294.816 496 328 496C420.64 496 496 420.632 496 328C496 235.368 420.64 160 328 160ZM151.688 480C76.864 480 16 419.136 16 344.312C16 324.344 20.512 304.256 29.064 286.216L152 26.688L230.168 191.704C187.76 222.224 160 271.88 160 328C160 381.28 185.008 428.752 223.816 459.552C202.36 472.904 177.76 480 151.688 480ZM328 480C244.184 480 176 411.816 176 328C176 244.184 244.184 176 328 176C411.816 176 480 244.184 480 328C480 411.816 411.816 480 328 480Z" fill="#333333"/>
<path d="M328 200C288.304 200 256 225.128 256 256C256 286.872 288.304 312 328 312C367.696 312 400 286.872 400 256C400 225.128 367.696 200 328 200ZM328 296C297.12 296 272 278.056 272 256C272 233.944 297.12 216 328 216C358.88 216 384 233.944 384 256C384 278.056 358.88 296 328 296Z" fill="#333333"/>
<path d="M349.424 236.52C335.832 241.136 320.168 241.136 306.568 236.52L301.424 251.68C309.888 254.544 318.832 256 328 256C337.168 256 346.112 254.544 354.568 251.68L349.424 236.52Z" fill="#333333"/>
<path d="M404.224 347.352C400.432 353.448 395.6 358.912 389.848 363.624C384.104 368.344 377.784 372.008 371.08 374.52L376.704 389.504C385.056 386.368 392.896 381.832 400 376C407.104 370.176 413.096 363.384 417.808 355.808L404.224 347.352Z" fill="#333333"/>
<path d="M454.016 329.776C446.296 319.832 434.608 313.608 421.112 312.28C402.416 310.368 382.136 317.672 365.432 332.152C335.976 357.672 327.256 398.08 345.984 422.224C353.704 432.168 365.392 438.392 378.888 439.72C380.808 439.912 382.736 440.008 384.68 440.008C401.688 440.008 419.576 432.84 434.568 419.84C464.024 394.32 472.752 353.912 454.016 329.776ZM424.096 407.752C410.888 419.2 394.576 425.176 380.464 423.8C371.256 422.896 363.704 418.96 358.632 412.416C345.024 394.88 352.776 364.296 375.912 344.248C387.856 333.896 402.336 328 415.44 328C416.824 328 418.192 328.072 419.536 328.2C428.744 329.104 436.296 333.04 441.368 339.584C454.984 357.128 447.232 387.704 424.096 407.752Z" fill="#333333"/>
<path d="M266.144 363.624C260.4 358.912 255.568 353.448 251.784 347.352L238.2 355.808C242.912 363.384 248.904 370.176 256 376C263.104 381.832 270.944 386.368 279.296 389.504L284.92 374.52C278.216 372.008 271.896 368.344 266.144 363.624Z" fill="#333333"/>
<path d="M290.568 332.16C273.856 317.68 253.536 310.376 234.888 312.288C221.392 313.616 209.712 319.832 201.984 329.784C183.248 353.928 191.976 394.328 221.432 419.856C236.432 432.848 254.312 440.024 271.32 440.024C273.264 440.024 275.2 439.928 277.112 439.736C290.608 438.408 302.288 432.192 310.016 422.24C328.752 398.088 320.024 357.68 290.568 332.16ZM297.376 412.416C292.304 418.952 284.752 422.896 275.544 423.8C261.384 425.168 245.112 419.2 231.912 407.752C208.768 387.704 201.024 357.128 214.632 339.584C219.704 333.048 227.256 329.104 236.464 328.2C237.808 328.072 239.176 328 240.56 328C253.664 328 268.152 333.896 280.096 344.248C303.232 364.296 310.984 394.872 297.376 412.416Z" fill="#333333"/>
</svg>
